# Created by Kenney (www.kenney.nl)

mtllib bench.mtl

g bench

v 0.4 0.15 0.09999999 1 1 1
v 0.4 0.15 -0.1 1 1 1
v 0.3 0.15 0.09999999 1 1 1
v 0.3 0.15 -0.1 1 1 1
v 0.4 0.4914814 0.1647048 1 1 1
v 0.4 0.4655995 0.2612973 1 1 1
v 0.3 0.4914814 0.1647048 1 1 1
v 0.3 0.4655995 0.2612973 1 1 1
v 0.4 0 0.2 1 1 1
v 0.3 0 0.2 1 1 1
v 0.4 0.2368347 0.2 1 1 1
v 0.3 0.2368347 0.2 1 1 1
v 0.3 0 0.09999999 1 1 1
v 0.3 0.25 0.09999999 1 1 1
v 0.3 0.25 -0.1579885 1 1 1
v 0.3 0 -0.125 1 1 1
v 0.3 0.225 -0.1875 1 1 1
v 0.3 0 -0.225 1 1 1
v 0.4 0 -0.225 1 1 1
v 0.4 0.225 -0.1875 1 1 1
v 0.4 0 0.09999999 1 1 1
v 0.4 0.25 0.09999999 1 1 1
v 0.4 0.25 -0.1579885 1 1 1
v 0.4 0 -0.125 1 1 1
v -0.3 0.15 0.09999999 1 1 1
v -0.3 0.15 -0.1 1 1 1
v -0.4 0.15 0.09999999 1 1 1
v -0.4 0.15 -0.1 1 1 1
v -0.3 0.4914814 0.1647048 1 1 1
v -0.3 0.4655995 0.2612973 1 1 1
v -0.4 0.4914814 0.1647048 1 1 1
v -0.4 0.4655995 0.2612973 1 1 1
v -0.3 0 0.2 1 1 1
v -0.4 0 0.2 1 1 1
v -0.3 0.2368347 0.2 1 1 1
v -0.4 0.2368347 0.2 1 1 1
v -0.4 0 0.09999999 1 1 1
v -0.4 0.25 0.09999999 1 1 1
v -0.4 0.25 -0.1579885 1 1 1
v -0.4 0 -0.125 1 1 1
v -0.4 0.225 -0.1875 1 1 1
v -0.4 0 -0.225 1 1 1
v -0.3 0 -0.225 1 1 1
v -0.3 0.225 -0.1875 1 1 1
v -0.3 0 0.09999999 1 1 1
v -0.3 0.25 0.09999999 1 1 1
v -0.3 0.25 -0.1579885 1 1 1
v -0.3 0 -0.125 1 1 1
v 0.3 0.2241181 0.1965926 1 1 1
v -0.3 0.2241181 0.1965926 1 1 1
v 0.3 0.4173033 0.2483564 1 1 1
v -0.3 0.4173033 0.2483564 1 1 1
v 0.3 0.4367147 0.1759119 1 1 1
v -0.3 0.4367147 0.1759119 1 1 1
v -0.3 0.2741482 0.1064705 1 1 1
v 0.3 0.2741482 0.1064705 1 1 1
v -0.3 0.419037 0.1452933 1 1 1
v 0.3 0.419037 0.1452933 1 1 1
v 0.3 0.2435295 0.1241481 1 1 1
v -0.3 0.2435295 0.1241481 1 1 1
v 0.3 0.15 0.05 1 1 1
v 0.3 0.15 -0.15 1 1 1
v -0.3 0.15 0.05 1 1 1
v -0.3 0.15 -0.15 1 1 1
v 0.3 0.225 0.05 1 1 1
v -0.3 0.225 0.05 1 1 1
v 0.3 0.25 -0.125 1 1 1
v 0.3 0.25 0.025 1 1 1
v -0.3 0.25 -0.125 1 1 1
v -0.3 0.25 0.025 1 1 1
v -0.3 0.225 -0.15 1 1 1
v 0.3 0.225 -0.15 1 1 1

vn 0 -1 0
vn 0 0.9659258 0.258819
vn 0 0 1
vn 0 -0.258819 0.9659258
vn -1 0 0
vn 0 0.164399 -0.986394
vn 0 0.4938925 -0.869523
vn 1 0 0
vn 0 0 -1
vn 0 0.258819 -0.9659258
vn 0 -0.164399 0.986394
vn 0 0.9388877 -0.3442238
vn 0 1 0
vn 0 -0.258819 0.9659258
vn 0 0.9914448 -0.1305262
vn 0 0.9659258 0.258819
vn 0 -0.1305262 -0.9914448
vn 0 0.6087614 -0.7933533
vn 0 -0.9659258 -0.258819
vn 0 -0.7933533 -0.6087614
vn 0 0.3826834 0.9238795
vn 0 0.9238795 -0.3826834
vn 0 0.9238795 0.3826834
vn 0 0.3826834 -0.9238795

vt 0.46875 0.08603995
vt 0.46875 0.225
vt 0.46875 0.2144678
vt 0.46875 0.025
vt 0.46875 0.1213759
vt 0.46875 0.1267332
vt 0.46875 0.1165599
vt 0.71875 0.075
vt 0.71875 0.175
vt 0.71875 0.0875
vt 0.71875 0.1625
vt 0.71875 0.15

usemtl colormap

f 3/1/1 2/1/1 1/1/1
f 2/1/1 3/1/1 4/1/1
f 7/2/2 6/3/2 5/2/2
f 6/3/2 7/2/2 8/3/2
f 11/5/3 10/4/3 9/4/3
f 10/4/3 11/5/3 12/5/3
f 6/3/4 12/5/4 11/5/4
f 12/5/4 6/3/4 8/3/4
f 10/4/5 3/1/5 13/4/5
f 3/1/5 10/4/5 7/2/5
f 7/2/5 10/4/5 12/5/5
f 7/2/5 12/5/5 8/3/5
f 14/6/5 3/1/5 7/2/5
f 14/6/5 4/1/5 3/1/5
f 15/6/5 4/1/5 14/6/5
f 15/6/5 16/4/5 4/1/5
f 17/7/5 16/4/5 15/6/5
f 16/4/5 17/7/5 18/4/5
f 17/7/7 19/4/6 18/4/6
f 19/4/6 17/7/7 20/7/7
f 6/3/8 11/5/8 5/2/8
f 9/4/8 5/2/8 11/5/8
f 21/4/8 5/2/8 9/4/8
f 1/1/8 5/2/8 21/4/8
f 1/1/8 22/6/8 5/2/8
f 2/1/8 22/6/8 1/1/8
f 2/1/8 23/6/8 22/6/8
f 24/4/8 23/6/8 2/1/8
f 24/4/8 20/7/8 23/6/8
f 20/7/8 24/4/8 19/4/8
f 16/4/1 19/4/1 24/4/1
f 19/4/1 16/4/1 18/4/1
f 10/4/1 21/4/1 9/4/1
f 21/4/1 10/4/1 13/4/1
f 3/1/9 21/4/9 13/4/9
f 21/4/9 3/1/9 1/1/9
f 7/2/10 22/6/10 14/6/10
f 22/6/10 7/2/10 5/2/10
f 2/1/11 16/4/11 24/4/11
f 16/4/11 2/1/11 4/1/11
f 15/6/12 22/6/13 23/6/12
f 22/6/13 15/6/12 14/6/13
f 17/7/7 23/6/12 20/7/7
f 23/6/12 17/7/7 15/6/12
f 27/1/1 26/1/1 25/1/1
f 26/1/1 27/1/1 28/1/1
f 31/2/2 30/3/2 29/2/2
f 30/3/2 31/2/2 32/3/2
f 35/5/3 34/4/3 33/4/3
f 34/4/3 35/5/3 36/5/3
f 30/3/4 36/5/4 35/5/4
f 36/5/4 30/3/4 32/3/4
f 34/4/5 27/1/5 37/4/5
f 27/1/5 34/4/5 31/2/5
f 31/2/5 34/4/5 36/5/5
f 31/2/5 36/5/5 32/3/5
f 38/6/5 27/1/5 31/2/5
f 38/6/5 28/1/5 27/1/5
f 39/6/5 28/1/5 38/6/5
f 39/6/5 40/4/5 28/1/5
f 41/7/5 40/4/5 39/6/5
f 40/4/5 41/7/5 42/4/5
f 41/7/7 43/4/6 42/4/6
f 43/4/6 41/7/7 44/7/7
f 30/3/8 35/5/8 29/2/8
f 33/4/8 29/2/8 35/5/8
f 45/4/8 29/2/8 33/4/8
f 25/1/8 29/2/8 45/4/8
f 25/1/8 46/6/8 29/2/8
f 26/1/8 46/6/8 25/1/8
f 26/1/8 47/6/8 46/6/8
f 48/4/8 47/6/8 26/1/8
f 48/4/8 44/7/8 47/6/8
f 44/7/8 48/4/8 43/4/8
f 40/4/1 43/4/1 48/4/1
f 43/4/1 40/4/1 42/4/1
f 34/4/1 45/4/1 33/4/1
f 45/4/1 34/4/1 37/4/1
f 27/1/9 45/4/9 37/4/9
f 45/4/9 27/1/9 25/1/9
f 31/2/10 46/6/10 38/6/10
f 46/6/10 31/2/10 29/2/10
f 26/1/11 40/4/11 48/4/11
f 40/4/11 26/1/11 28/1/11
f 39/6/12 46/6/13 47/6/12
f 46/6/13 39/6/12 38/6/13
f 41/7/7 47/6/12 44/7/7
f 47/6/12 41/7/7 39/6/12
f 51/9/14 50/8/14 49/8/14
f 50/8/14 51/9/14 52/9/14
f 54/9/15 51/9/16 53/9/15
f 51/9/16 54/9/15 52/9/16
f 57/11/18 56/10/17 55/10/17
f 56/10/17 57/11/18 58/11/18
f 50/8/19 59/8/20 49/8/19
f 59/8/20 50/8/19 60/8/20
f 55/10/17 59/8/20 60/8/20
f 59/8/20 55/10/17 56/10/17
f 57/11/18 53/9/15 58/11/18
f 53/9/15 57/11/18 54/9/15
f 63/8/1 62/8/1 61/8/1
f 62/8/1 63/8/1 64/8/1
f 65/12/21 63/8/3 61/8/3
f 63/8/3 65/12/21 66/12/21
f 69/9/22 68/9/23 67/9/22
f 68/9/23 69/9/22 70/9/23
f 71/12/24 62/8/9 64/8/9
f 62/8/9 71/12/24 72/12/24
f 71/12/24 67/9/22 72/12/24
f 67/9/22 71/12/24 69/9/22
f 68/9/23 66/12/21 65/12/21
f 66/12/21 68/9/23 70/9/23

g bench




usemtl colormap

f 3/1/1 2/1/1 1/1/1
f 2/1/1 3/1/1 4/1/1
f 7/2/2 6/3/2 5/2/2
f 6/3/2 7/2/2 8/3/2
f 11/5/3 10/4/3 9/4/3
f 10/4/3 11/5/3 12/5/3
f 6/3/4 12/5/4 11/5/4
f 12/5/4 6/3/4 8/3/4
f 10/4/5 3/1/5 13/4/5
f 3/1/5 10/4/5 7/2/5
f 7/2/5 10/4/5 12/5/5
f 7/2/5 12/5/5 8/3/5
f 14/6/5 3/1/5 7/2/5
f 14/6/5 4/1/5 3/1/5
f 15/6/5 4/1/5 14/6/5
f 15/6/5 16/4/5 4/1/5
f 17/7/5 16/4/5 15/6/5
f 16/4/5 17/7/5 18/4/5
f 17/7/7 19/4/6 18/4/6
f 19/4/6 17/7/7 20/7/7
f 6/3/8 11/5/8 5/2/8
f 9/4/8 5/2/8 11/5/8
f 21/4/8 5/2/8 9/4/8
f 1/1/8 5/2/8 21/4/8
f 1/1/8 22/6/8 5/2/8
f 2/1/8 22/6/8 1/1/8
f 2/1/8 23/6/8 22/6/8
f 24/4/8 23/6/8 2/1/8
f 24/4/8 20/7/8 23/6/8
f 20/7/8 24/4/8 19/4/8
f 16/4/1 19/4/1 24/4/1
f 19/4/1 16/4/1 18/4/1
f 10/4/1 21/4/1 9/4/1
f 21/4/1 10/4/1 13/4/1
f 3/1/9 21/4/9 13/4/9
f 21/4/9 3/1/9 1/1/9
f 7/2/10 22/6/10 14/6/10
f 22/6/10 7/2/10 5/2/10
f 2/1/11 16/4/11 24/4/11
f 16/4/11 2/1/11 4/1/11
f 15/6/12 22/6/13 23/6/12
f 22/6/13 15/6/12 14/6/13
f 17/7/7 23/6/12 20/7/7
f 23/6/12 17/7/7 15/6/12
f 27/1/1 26/1/1 25/1/1
f 26/1/1 27/1/1 28/1/1
f 31/2/2 30/3/2 29/2/2
f 30/3/2 31/2/2 32/3/2
f 35/5/3 34/4/3 33/4/3
f 34/4/3 35/5/3 36/5/3
f 30/3/4 36/5/4 35/5/4
f 36/5/4 30/3/4 32/3/4
f 34/4/5 27/1/5 37/4/5
f 27/1/5 34/4/5 31/2/5
f 31/2/5 34/4/5 36/5/5
f 31/2/5 36/5/5 32/3/5
f 38/6/5 27/1/5 31/2/5
f 38/6/5 28/1/5 27/1/5
f 39/6/5 28/1/5 38/6/5
f 39/6/5 40/4/5 28/1/5
f 41/7/5 40/4/5 39/6/5
f 40/4/5 41/7/5 42/4/5
f 41/7/7 43/4/6 42/4/6
f 43/4/6 41/7/7 44/7/7
f 30/3/8 35/5/8 29/2/8
f 33/4/8 29/2/8 35/5/8
f 45/4/8 29/2/8 33/4/8
f 25/1/8 29/2/8 45/4/8
f 25/1/8 46/6/8 29/2/8
f 26/1/8 46/6/8 25/1/8
f 26/1/8 47/6/8 46/6/8
f 48/4/8 47/6/8 26/1/8
f 48/4/8 44/7/8 47/6/8
f 44/7/8 48/4/8 43/4/8
f 40/4/1 43/4/1 48/4/1
f 43/4/1 40/4/1 42/4/1
f 34/4/1 45/4/1 33/4/1
f 45/4/1 34/4/1 37/4/1
f 27/1/9 45/4/9 37/4/9
f 45/4/9 27/1/9 25/1/9
f 31/2/10 46/6/10 38/6/10
f 46/6/10 31/2/10 29/2/10
f 26/1/11 40/4/11 48/4/11
f 40/4/11 26/1/11 28/1/11
f 39/6/12 46/6/13 47/6/12
f 46/6/13 39/6/12 38/6/13
f 41/7/7 47/6/12 44/7/7
f 47/6/12 41/7/7 39/6/12
f 51/9/14 50/8/14 49/8/14
f 50/8/14 51/9/14 52/9/14
f 54/9/15 51/9/16 53/9/15
f 51/9/16 54/9/15 52/9/16
f 57/11/18 56/10/17 55/10/17
f 56/10/17 57/11/18 58/11/18
f 50/8/19 59/8/20 49/8/19
f 59/8/20 50/8/19 60/8/20
f 55/10/17 59/8/20 60/8/20
f 59/8/20 55/10/17 56/10/17
f 57/11/18 53/9/15 58/11/18
f 53/9/15 57/11/18 54/9/15
f 63/8/1 62/8/1 61/8/1
f 62/8/1 63/8/1 64/8/1
f 65/12/21 63/8/3 61/8/3
f 63/8/3 65/12/21 66/12/21
f 69/9/22 68/9/23 67/9/22
f 68/9/23 69/9/22 70/9/23
f 71/12/24 62/8/9 64/8/9
f 62/8/9 71/12/24 72/12/24
f 71/12/24 67/9/22 72/12/24
f 67/9/22 71/12/24 69/9/22
f 68/9/23 66/12/21 65/12/21
f 66/12/21 68/9/23 70/9/23

