# Created by Kenney (www.kenney.nl)

mtllib coaster-steel-track.mtl

g coaster-steel-track

v 0.05 0.15 -0.5 1 1 1
v 0.05 0.15 7.219114E-16 1 1 1
v -0.05 0.15 -0.5 1 1 1
v -0.05 0.15 7.219114E-16 1 1 1
v 0.05 0.15 0.5 1 1 1
v -0.05 0.15 0.5 1 1 1
v 0.05 0 0.5 1 1 1
v 0.05 0 7.219114E-16 1 1 1
v -0.05 0 0.5 1 1 1
v -0.05 0 7.219114E-16 1 1 1
v 0.05 0 -0.5 1 1 1
v -0.05 0 -0.5 1 1 1
v -0.075 0.125 -0.5 1 1 1
v -0.075 0.125 7.219114E-16 1 1 1
v -0.075 0.125 0.5 1 1 1
v -0.075 0.025 -0.5 1 1 1
v -0.075 0.025 7.219114E-16 1 1 1
v -0.075 0.025 0.5 1 1 1
v 0.075 0.025 -0.5 1 1 1
v 0.075 0.025 7.219114E-16 1 1 1
v 0.075 0.025 0.5 1 1 1
v 0.075 0.125 0.5 1 1 1
v 0.075 0.125 7.219114E-16 1 1 1
v 0.075 0.125 -0.5 1 1 1
v 0.25 0.225 -0.5 1 1 1
v 0.25 0.275 -0.5 1 1 1
v 0.25 0.225 1.443823E-15 1 1 1
v 0.25 0.275 1.443823E-15 1 1 1
v 0.25 0.225 0.5 1 1 1
v 0.25 0.275 0.5 1 1 1
v 0.35 0.275 -0.5 1 1 1
v 0.35 0.225 -0.5 1 1 1
v 0.35 0.275 1.443823E-15 1 1 1
v 0.35 0.225 1.443823E-15 1 1 1
v 0.35 0.275 0.5 1 1 1
v 0.35 0.225 0.5 1 1 1
v 0.325 0.3 -0.5 1 1 1
v 0.325 0.3 1.443823E-15 1 1 1
v 0.275 0.3 -0.5 1 1 1
v 0.275 0.3 1.443823E-15 1 1 1
v 0.325 0.3 0.5 1 1 1
v 0.275 0.3 0.5 1 1 1
v 0.325 0.2 0.5 1 1 1
v 0.325 0.2 1.443823E-15 1 1 1
v 0.275 0.2 0.5 1 1 1
v 0.275 0.2 1.443823E-15 1 1 1
v 0.325 0.2 -0.5 1 1 1
v 0.275 0.2 -0.5 1 1 1
v -0.35 0.225 -0.5 1 1 1
v -0.35 0.275 -0.5 1 1 1
v -0.35 0.225 0 1 1 1
v -0.35 0.275 0 1 1 1
v -0.35 0.225 0.5 1 1 1
v -0.35 0.275 0.5 1 1 1
v -0.275 0.3 -0.5 1 1 1
v -0.275 0.3 0 1 1 1
v -0.325 0.3 -0.5 1 1 1
v -0.325 0.3 0 1 1 1
v -0.275 0.3 0.5 1 1 1
v -0.325 0.3 0.5 1 1 1
v -0.275 0.2 0.5 1 1 1
v -0.275 0.2 0 1 1 1
v -0.325 0.2 0.5 1 1 1
v -0.325 0.2 0 1 1 1
v -0.275 0.2 -0.5 1 1 1
v -0.325 0.2 -0.5 1 1 1
v -0.25 0.225 -0.5 1 1 1
v -0.25 0.225 0 1 1 1
v -0.25 0.225 0.5 1 1 1
v -0.25 0.275 -0.5 1 1 1
v -0.25 0.275 0 1 1 1
v -0.25 0.275 0.5 1 1 1

vn 0.3826834 0.9238795 0
vn -0.3826834 0.9238795 0
vn 0.3826834 -0.9238795 0
vn -0.3826834 -0.9238795 0
vn -0.9238795 0.3826834 0
vn -0.9238795 -0.3826834 0
vn 0.9238795 -0.3826834 0
vn 0.9238795 0.3826834 0

vt 0.71875 0.475
vt 0.71875 0.275
vt 0.71875 0.4416667
vt 0.71875 0.3083333
vt 0.71875 0.325
vt 0.71875 0.425

usemtl colormap

f 3/1/2 2/1/1 1/1/1
f 2/1/1 3/1/2 4/1/2
f 4/1/2 5/1/1 2/1/1
f 5/1/1 4/1/2 6/1/2
f 9/2/4 8/2/3 7/2/3
f 8/2/3 9/2/4 10/2/4
f 10/2/4 11/2/3 8/2/3
f 11/2/3 10/2/4 12/2/4
f 13/3/5 4/1/2 3/1/2
f 4/1/2 13/3/5 14/3/5
f 14/3/5 6/1/2 4/1/2
f 6/1/2 14/3/5 15/3/5
f 12/2/4 17/4/6 16/4/6
f 17/4/6 12/2/4 10/2/4
f 10/2/4 18/4/6 17/4/6
f 18/4/6 10/2/4 9/2/4
f 19/4/7 8/2/3 11/2/3
f 8/2/3 19/4/7 20/4/7
f 20/4/7 7/2/3 8/2/3
f 7/2/3 20/4/7 21/4/7
f 22/3/8 2/1/1 5/1/1
f 2/1/1 22/3/8 23/3/8
f 23/3/8 1/1/1 2/1/1
f 1/1/1 23/3/8 24/3/8
f 14/3/5 18/4/6 15/3/5
f 18/4/6 14/3/5 17/4/6
f 13/3/5 17/4/6 14/3/5
f 17/4/6 13/3/5 16/4/6
f 23/3/8 19/4/7 24/3/8
f 19/4/7 23/3/8 20/4/7
f 22/3/8 20/4/7 23/3/8
f 20/4/7 22/3/8 21/4/7
f 27/5/6 26/6/5 25/5/6
f 26/6/5 27/5/6 28/6/5
f 29/5/6 28/6/5 27/5/6
f 28/6/5 29/5/6 30/6/5
f 33/6/8 32/5/7 31/6/8
f 32/5/7 33/6/8 34/5/7
f 35/6/8 34/5/7 33/6/8
f 34/5/7 35/6/8 36/5/7
f 39/1/2 38/1/1 37/1/1
f 38/1/1 39/1/2 40/1/2
f 40/1/2 41/1/1 38/1/1
f 41/1/1 40/1/2 42/1/2
f 45/2/4 44/2/3 43/2/3
f 44/2/3 45/2/4 46/2/4
f 46/2/4 47/2/3 44/2/3
f 47/2/3 46/2/4 48/2/4
f 26/6/5 40/1/2 39/1/2
f 40/1/2 26/6/5 28/6/5
f 28/6/5 42/1/2 40/1/2
f 42/1/2 28/6/5 30/6/5
f 48/2/4 27/5/6 25/5/6
f 27/5/6 48/2/4 46/2/4
f 46/2/4 29/5/6 27/5/6
f 29/5/6 46/2/4 45/2/4
f 32/5/7 44/2/3 47/2/3
f 44/2/3 32/5/7 34/5/7
f 34/5/7 43/2/3 44/2/3
f 43/2/3 34/5/7 36/5/7
f 35/6/8 38/1/1 41/1/1
f 38/1/1 35/6/8 33/6/8
f 33/6/8 37/1/1 38/1/1
f 37/1/1 33/6/8 31/6/8
f 51/5/6 50/6/5 49/5/6
f 50/6/5 51/5/6 52/6/5
f 53/5/6 52/6/5 51/5/6
f 52/6/5 53/5/6 54/6/5
f 57/1/2 56/1/1 55/1/1
f 56/1/1 57/1/2 58/1/2
f 58/1/2 59/1/1 56/1/1
f 59/1/1 58/1/2 60/1/2
f 63/2/4 62/2/3 61/2/3
f 62/2/3 63/2/4 64/2/4
f 64/2/4 65/2/3 62/2/3
f 65/2/3 64/2/4 66/2/4
f 66/2/4 51/5/6 49/5/6
f 51/5/6 66/2/4 64/2/4
f 64/2/4 53/5/6 51/5/6
f 53/5/6 64/2/4 63/2/4
f 67/5/7 62/2/3 65/2/3
f 62/2/3 67/5/7 68/5/7
f 68/5/7 61/2/3 62/2/3
f 61/2/3 68/5/7 69/5/7
f 55/1/1 71/6/8 70/6/8
f 71/6/8 55/1/1 56/1/1
f 56/1/1 72/6/8 71/6/8
f 72/6/8 56/1/1 59/1/1
f 60/1/2 52/6/5 54/6/5
f 52/6/5 60/1/2 58/1/2
f 58/1/2 50/6/5 52/6/5
f 50/6/5 58/1/2 57/1/2
f 68/5/7 72/6/8 69/5/7
f 72/6/8 68/5/7 71/6/8
f 67/5/7 71/6/8 68/5/7
f 71/6/8 67/5/7 70/6/8

g coaster-steel-track




usemtl colormap

f 3/1/2 2/1/1 1/1/1
f 2/1/1 3/1/2 4/1/2
f 4/1/2 5/1/1 2/1/1
f 5/1/1 4/1/2 6/1/2
f 9/2/4 8/2/3 7/2/3
f 8/2/3 9/2/4 10/2/4
f 10/2/4 11/2/3 8/2/3
f 11/2/3 10/2/4 12/2/4
f 13/3/5 4/1/2 3/1/2
f 4/1/2 13/3/5 14/3/5
f 14/3/5 6/1/2 4/1/2
f 6/1/2 14/3/5 15/3/5
f 12/2/4 17/4/6 16/4/6
f 17/4/6 12/2/4 10/2/4
f 10/2/4 18/4/6 17/4/6
f 18/4/6 10/2/4 9/2/4
f 19/4/7 8/2/3 11/2/3
f 8/2/3 19/4/7 20/4/7
f 20/4/7 7/2/3 8/2/3
f 7/2/3 20/4/7 21/4/7
f 22/3/8 2/1/1 5/1/1
f 2/1/1 22/3/8 23/3/8
f 23/3/8 1/1/1 2/1/1
f 1/1/1 23/3/8 24/3/8
f 14/3/5 18/4/6 15/3/5
f 18/4/6 14/3/5 17/4/6
f 13/3/5 17/4/6 14/3/5
f 17/4/6 13/3/5 16/4/6
f 23/3/8 19/4/7 24/3/8
f 19/4/7 23/3/8 20/4/7
f 22/3/8 20/4/7 23/3/8
f 20/4/7 22/3/8 21/4/7
f 27/5/6 26/6/5 25/5/6
f 26/6/5 27/5/6 28/6/5
f 29/5/6 28/6/5 27/5/6
f 28/6/5 29/5/6 30/6/5
f 33/6/8 32/5/7 31/6/8
f 32/5/7 33/6/8 34/5/7
f 35/6/8 34/5/7 33/6/8
f 34/5/7 35/6/8 36/5/7
f 39/1/2 38/1/1 37/1/1
f 38/1/1 39/1/2 40/1/2
f 40/1/2 41/1/1 38/1/1
f 41/1/1 40/1/2 42/1/2
f 45/2/4 44/2/3 43/2/3
f 44/2/3 45/2/4 46/2/4
f 46/2/4 47/2/3 44/2/3
f 47/2/3 46/2/4 48/2/4
f 26/6/5 40/1/2 39/1/2
f 40/1/2 26/6/5 28/6/5
f 28/6/5 42/1/2 40/1/2
f 42/1/2 28/6/5 30/6/5
f 48/2/4 27/5/6 25/5/6
f 27/5/6 48/2/4 46/2/4
f 46/2/4 29/5/6 27/5/6
f 29/5/6 46/2/4 45/2/4
f 32/5/7 44/2/3 47/2/3
f 44/2/3 32/5/7 34/5/7
f 34/5/7 43/2/3 44/2/3
f 43/2/3 34/5/7 36/5/7
f 35/6/8 38/1/1 41/1/1
f 38/1/1 35/6/8 33/6/8
f 33/6/8 37/1/1 38/1/1
f 37/1/1 33/6/8 31/6/8
f 51/5/6 50/6/5 49/5/6
f 50/6/5 51/5/6 52/6/5
f 53/5/6 52/6/5 51/5/6
f 52/6/5 53/5/6 54/6/5
f 57/1/2 56/1/1 55/1/1
f 56/1/1 57/1/2 58/1/2
f 58/1/2 59/1/1 56/1/1
f 59/1/1 58/1/2 60/1/2
f 63/2/4 62/2/3 61/2/3
f 62/2/3 63/2/4 64/2/4
f 64/2/4 65/2/3 62/2/3
f 65/2/3 64/2/4 66/2/4
f 66/2/4 51/5/6 49/5/6
f 51/5/6 66/2/4 64/2/4
f 64/2/4 53/5/6 51/5/6
f 53/5/6 64/2/4 63/2/4
f 67/5/7 62/2/3 65/2/3
f 62/2/3 67/5/7 68/5/7
f 68/5/7 61/2/3 62/2/3
f 61/2/3 68/5/7 69/5/7
f 55/1/1 71/6/8 70/6/8
f 71/6/8 55/1/1 56/1/1
f 56/1/1 72/6/8 71/6/8
f 72/6/8 56/1/1 59/1/1
f 60/1/2 52/6/5 54/6/5
f 52/6/5 60/1/2 58/1/2
f 58/1/2 50/6/5 52/6/5
f 50/6/5 58/1/2 57/1/2
f 68/5/7 72/6/8 69/5/7
f 72/6/8 68/5/7 71/6/8
f 67/5/7 71/6/8 68/5/7
f 71/6/8 67/5/7 70/6/8

