# Created by Kenney (www.kenney.nl)

mtllib coaster-flume-straight.mtl

g coaster-flume-straight

v -0.1893549 0 0 1 1 1
v -0.1893549 0 0.4981065 1 1 1
v 0.1893549 0 0 1 1 1
v 0.1893549 0 0.4981065 1 1 1
v -0.1893549 0 0.9987755 1 1 1
v 0.1893549 0 0.9987755 1 1 1
v 0.3350344 0.08410811 0 1 1 1
v 0.3350344 0.08410811 0.4981065 1 1 1
v 0.3350344 0.08410811 0.9987755 1 1 1
v 0.4129834 0.3750176 0 1 1 1
v 0.4129834 0.3750176 0.4981065 1 1 1
v 0.4129834 0.3750176 0.9987755 1 1 1
v -0.3350345 0.08410811 0 1 1 1
v -0.4129834 0.3750176 0 1 1 1
v -0.3350345 0.08410811 0.4981065 1 1 1
v -0.4129834 0.3750176 0.4981065 1 1 1
v -0.4129834 0.3750176 0.9987755 1 1 1
v -0.3350345 0.08410811 0.9987755 1 1 1
v 0.316391 0.4008995 0 1 1 1
v 0.316391 0.4008995 0.4981065 1 1 1
v 0.316391 0.4008995 0.9987755 1 1 1
v 0.2491627 0.15 0 1 1 1
v 0.2491627 0.15 0.4981065 1 1 1
v 0.2491627 0.15 0.9987755 1 1 1
v 0.16256 0.1 0 1 1 1
v 0.16256 0.1 0.4981065 1 1 1
v 0.16256 0.1 0.9987755 1 1 1
v -0.16256 0.1 0 1 1 1
v -0.16256 0.1 0.4981065 1 1 1
v -0.16256 0.1 0.9987755 1 1 1
v -0.2491627 0.15 0 1 1 1
v -0.2491627 0.15 0.4981065 1 1 1
v -0.2491627 0.15 0.9987755 1 1 1
v -0.3163909 0.4008995 0 1 1 1
v -0.3163909 0.4008995 0.4981065 1 1 1
v -0.3163909 0.4008995 0.9987755 1 1 1
v -0.1893549 0 1.499881 1 1 1
v 0.1893549 0 1.499881 1 1 1
v -0.1893549 0 2 1 1 1
v 0.1893549 0 2 1 1 1
v 0.3350344 0.08410811 1.499881 1 1 1
v 0.3350344 0.08410811 2 1 1 1
v 0.4129834 0.3750176 1.499881 1 1 1
v 0.4129834 0.3750176 2 1 1 1
v -0.3350345 0.08410811 1.499881 1 1 1
v -0.4129834 0.3750176 1.499881 1 1 1
v -0.4129834 0.3750176 2 1 1 1
v -0.3350345 0.08410811 2 1 1 1
v 0.316391 0.4008995 1.499881 1 1 1
v 0.316391 0.4008995 2 1 1 1
v 0.2491627 0.15 1.499881 1 1 1
v 0.2491627 0.15 2 1 1 1
v 0.16256 0.1 1.499881 1 1 1
v 0.16256 0.1 2 1 1 1
v -0.16256 0.1 1.499881 1 1 1
v -0.16256 0.1 2 1 1 1
v -0.2491627 0.15 1.499881 1 1 1
v -0.2491627 0.15 2 1 1 1
v -0.3163909 0.4008995 1.499881 1 1 1
v -0.3163909 0.4008995 2 1 1 1
v -0.1893549 0 2.500119 1 1 1
v 0.1893549 0 2.500119 1 1 1
v -0.1893549 0 3.001224 1 1 1
v 0.1893549 0 3.001224 1 1 1
v 0.3350344 0.08410811 2.500119 1 1 1
v 0.3350344 0.08410811 3.001224 1 1 1
v 0.4129834 0.3750176 2.500119 1 1 1
v 0.4129834 0.3750176 3.001224 1 1 1
v -0.3350345 0.08410811 2.500119 1 1 1
v -0.4129834 0.3750176 2.500119 1 1 1
v -0.4129834 0.3750176 3.001224 1 1 1
v -0.3350345 0.08410811 3.001224 1 1 1
v 0.316391 0.4008995 2.500119 1 1 1
v 0.316391 0.4008995 3.001224 1 1 1
v 0.2491627 0.15 2.500119 1 1 1
v 0.2491627 0.15 3.001224 1 1 1
v 0.16256 0.1 2.500119 1 1 1
v 0.16256 0.1 3.001224 1 1 1
v -0.16256 0.1 2.500119 1 1 1
v -0.16256 0.1 3.001224 1 1 1
v -0.2491627 0.15 2.500119 1 1 1
v -0.2491627 0.15 3.001224 1 1 1
v -0.3163909 0.4008995 2.500119 1 1 1
v -0.3163909 0.4008995 3.001224 1 1 1
v -0.1893549 0 3.501894 1 1 1
v 0.1893549 0 3.501894 1 1 1
v -0.1893549 0 4 1 1 1
v 0.1893549 0 4 1 1 1
v 0.3350344 0.08410811 3.501894 1 1 1
v 0.3350344 0.08410811 4 1 1 1
v 0.4129834 0.3750176 3.501894 1 1 1
v 0.4129834 0.3750176 4 1 1 1
v -0.3350345 0.08410811 3.501894 1 1 1
v -0.4129834 0.3750176 3.501894 1 1 1
v -0.4129834 0.3750176 4 1 1 1
v -0.3350345 0.08410811 4 1 1 1
v 0.316391 0.4008995 3.501894 1 1 1
v 0.316391 0.4008995 4 1 1 1
v 0.2491627 0.15 3.501894 1 1 1
v 0.2491627 0.15 4 1 1 1
v 0.16256 0.1 3.501894 1 1 1
v 0.16256 0.1 4 1 1 1
v -0.16256 0.1 3.501894 1 1 1
v -0.16256 0.1 4 1 1 1
v -0.2491627 0.15 3.501894 1 1 1
v -0.2491627 0.15 4 1 1 1
v -0.3163909 0.4008995 3.501894 1 1 1
v -0.3163909 0.4008995 4 1 1 1
v -0.1893549 0 -7.219114E-16 1 1 1
v 0.1893549 0 -7.219114E-16 1 1 1
v -0.3350345 0.08410811 -7.219114E-16 1 1 1
v 0.3350345 0.08410811 -7.219114E-16 1 1 1
v -0.16256 0.1 -1.082867E-15 1 1 1
v -0.2491626 0.15 -7.219114E-16 1 1 1
v -0.4129834 0.3750176 -7.219114E-16 1 1 1
v -0.3163909 0.4008995 -1.082867E-15 1 1 1
v 0.16256 0.1 -1.082867E-15 1 1 1
v 0.2491626 0.15 -7.219114E-16 1 1 1
v 0.4129834 0.3750176 -7.219114E-16 1 1 1
v 0.3163909 0.4008995 -1.082867E-15 1 1 1
v 0.1893549 0 4 1 1 1
v -0.1893549 0 4 1 1 1
v 0.3350345 0.08410811 4 1 1 1
v 0.16256 0.1 4 1 1 1
v 0.2491626 0.15 4 1 1 1
v 0.4129834 0.3750176 4 1 1 1
v 0.3163909 0.4008995 4 1 1 1
v -0.16256 0.1 4 1 1 1
v -0.2491626 0.15 4 1 1 1
v -0.4129834 0.3750176 4 1 1 1
v 0.4223053 0.2166219 0.8987755 1 1 1
v 0.4223053 0.2166219 1.098776 1 1 1
v 0.3498608 0.2360333 0.8987755 1 1 1
v 0.3498608 0.2360333 1.098776 1 1 1
v 0.3779705 0.05116218 0.8987755 1 1 1
v 0.3779705 0.05116218 1.098776 1 1 1
v 0.2027524 -0.04999995 1.098776 1 1 1
v 0.2027524 -0.04999995 0.8987755 1 1 1
v -0.2027524 -0.04999995 1.098776 1 1 1
v -0.2027524 -0.04999995 0.8987755 1 1 1
v -0.3779705 0.05116218 1.098776 1 1 1
v -0.3779705 0.05116218 0.8987755 1 1 1
v -0.4223053 0.2166219 0.8987755 1 1 1
v -0.4223053 0.2166219 1.098776 1 1 1
v -0.3498608 0.2360333 0.8987755 1 1 1
v -0.3498608 0.2360333 1.098776 1 1 1
v -0.1826562 0.02499998 0.8987755 1 1 1
v -0.3135665 0.1005811 0.8987755 1 1 1
v 0.1826562 0.02499998 0.8987755 1 1 1
v 0.3135665 0.1005811 0.8987755 1 1 1
v 0.3135665 0.1005811 1.098776 1 1 1
v 0.1826562 0.02499998 1.098776 1 1 1
v -0.1826562 0.02499998 1.098776 1 1 1
v -0.3135665 0.1005811 1.098776 1 1 1
v 0.4223053 0.2166219 2.901224 1 1 1
v 0.4223053 0.2166219 3.101224 1 1 1
v 0.3498608 0.2360333 2.901224 1 1 1
v 0.3498608 0.2360333 3.101224 1 1 1
v 0.3779705 0.05116218 2.901224 1 1 1
v 0.3779705 0.05116218 3.101224 1 1 1
v 0.2027524 -0.04999995 3.101224 1 1 1
v 0.2027524 -0.04999995 2.901224 1 1 1
v -0.2027524 -0.04999995 3.101224 1 1 1
v -0.2027524 -0.04999995 2.901224 1 1 1
v -0.3779705 0.05116218 3.101224 1 1 1
v -0.3779705 0.05116218 2.901224 1 1 1
v -0.4223053 0.2166219 2.901224 1 1 1
v -0.4223053 0.2166219 3.101224 1 1 1
v -0.3498608 0.2360333 2.901224 1 1 1
v -0.3498608 0.2360333 3.101224 1 1 1
v -0.1826562 0.02499998 2.901224 1 1 1
v -0.3135665 0.1005811 2.901224 1 1 1
v 0.1826562 0.02499998 2.901224 1 1 1
v 0.3135665 0.1005811 2.901224 1 1 1
v 0.3135665 0.1005811 3.101224 1 1 1
v 0.1826562 0.02499998 3.101224 1 1 1
v -0.1826562 0.02499998 3.101224 1 1 1
v -0.3135665 0.1005811 3.101224 1 1 1

vn -0.258819 -0.9659258 0
vn 0.258819 -0.9659258 0
vn 0.7933533 -0.6087614 0
vn 0.9659258 -0.258819 0
vn -0.7933533 -0.6087614 0
vn -0.9659258 -0.258819 0
vn 0.258819 0.9659258 0
vn -0.5 0.8660254 0
vn -0.7933533 0.6087614 0
vn -0.258819 0.9659258 0
vn 0.7933533 0.6087614 0
vn 0.5 0.8660254 0
vn 0 0 -1
vn 0 0 1

vt 0.46875 0.025
vt 0.46875 0.06695971
vt 0.46875 0.2120881
vt 0.71875 0.4620881
vt 0.71875 0.475
vt 0.71875 0.3498317
vt 0.71875 0.3248878
vt 0.46875 0.07488782
vt 0.46875 0.09983172
vt 0.46875 0.225
vt 0.46875 0.2114272
vt 0.46875 0.09573456
vt 0.46875 0.07744144
vt 0.46875 0.1302892

usemtl colormap

f 3/1/2 2/1/1 1/1/1
f 2/1/1 3/1/2 4/1/2
f 4/1/2 5/1/1 2/1/1
f 5/1/1 4/1/2 6/1/2
f 7/2/3 4/1/2 3/1/2
f 4/1/2 7/2/3 8/2/3
f 8/2/3 6/1/2 4/1/2
f 6/1/2 8/2/3 9/2/3
f 11/3/4 7/2/3 10/3/4
f 7/2/3 11/3/4 8/2/3
f 12/3/4 8/2/3 11/3/4
f 8/2/3 12/3/4 9/2/3
f 15/2/5 14/3/6 13/2/5
f 14/3/6 15/2/5 16/3/6
f 15/2/5 17/3/6 16/3/6
f 17/3/6 15/2/5 18/2/5
f 1/1/1 15/2/5 13/2/5
f 15/2/5 1/1/1 2/1/1
f 2/1/1 18/2/5 15/2/5
f 18/2/5 2/1/1 5/1/1
f 19/5/8 11/4/7 10/4/7
f 11/4/7 19/5/8 20/5/8
f 20/5/8 12/4/7 11/4/7
f 12/4/7 20/5/8 21/5/8
f 22/6/9 20/5/8 19/5/8
f 20/5/8 22/6/9 23/6/9
f 23/6/9 21/5/8 20/5/8
f 21/5/8 23/6/9 24/6/9
f 25/7/10 23/6/9 22/6/9
f 23/6/9 25/7/10 26/7/10
f 26/7/10 24/6/9 23/6/9
f 24/6/9 26/7/10 27/7/10
f 28/7/7 26/7/10 25/7/10
f 26/7/10 28/7/7 29/7/7
f 29/7/7 27/7/10 26/7/10
f 27/7/10 29/7/7 30/7/7
f 31/6/11 29/7/7 28/7/7
f 29/7/7 31/6/11 32/6/11
f 32/6/11 30/7/7 29/7/7
f 30/7/7 32/6/11 33/6/11
f 35/5/12 31/6/11 34/5/12
f 31/6/11 35/5/12 32/6/11
f 36/5/12 32/6/11 35/5/12
f 32/6/11 36/5/12 33/6/11
f 14/4/10 35/5/12 34/5/12
f 35/5/12 14/4/10 16/4/10
f 16/4/10 36/5/12 35/5/12
f 36/5/12 16/4/10 17/4/10
f 6/1/2 37/1/1 5/1/1
f 37/1/1 6/1/2 38/1/2
f 38/1/2 39/1/1 37/1/1
f 39/1/1 38/1/2 40/1/2
f 9/2/3 38/1/2 6/1/2
f 38/1/2 9/2/3 41/2/3
f 41/2/3 40/1/2 38/1/2
f 40/1/2 41/2/3 42/2/3
f 43/3/4 9/2/3 12/3/4
f 9/2/3 43/3/4 41/2/3
f 44/3/4 41/2/3 43/3/4
f 41/2/3 44/3/4 42/2/3
f 45/2/5 17/3/6 18/2/5
f 17/3/6 45/2/5 46/3/6
f 45/2/5 47/3/6 46/3/6
f 47/3/6 45/2/5 48/2/5
f 5/1/1 45/2/5 18/2/5
f 45/2/5 5/1/1 37/1/1
f 37/1/1 48/2/5 45/2/5
f 48/2/5 37/1/1 39/1/1
f 21/5/8 43/4/7 12/4/7
f 43/4/7 21/5/8 49/5/8
f 49/5/8 44/4/7 43/4/7
f 44/4/7 49/5/8 50/5/8
f 24/6/9 49/5/8 21/5/8
f 49/5/8 24/6/9 51/6/9
f 51/6/9 50/5/8 49/5/8
f 50/5/8 51/6/9 52/6/9
f 27/7/10 51/6/9 24/6/9
f 51/6/9 27/7/10 53/7/10
f 53/7/10 52/6/9 51/6/9
f 52/6/9 53/7/10 54/7/10
f 30/7/7 53/7/10 27/7/10
f 53/7/10 30/7/7 55/7/7
f 55/7/7 54/7/10 53/7/10
f 54/7/10 55/7/7 56/7/7
f 33/6/11 55/7/7 30/7/7
f 55/7/7 33/6/11 57/6/11
f 57/6/11 56/7/7 55/7/7
f 56/7/7 57/6/11 58/6/11
f 59/5/12 33/6/11 36/5/12
f 33/6/11 59/5/12 57/6/11
f 60/5/12 57/6/11 59/5/12
f 57/6/11 60/5/12 58/6/11
f 17/4/10 59/5/12 36/5/12
f 59/5/12 17/4/10 46/4/10
f 46/4/10 60/5/12 59/5/12
f 60/5/12 46/4/10 47/4/10
f 40/1/2 61/1/1 39/1/1
f 61/1/1 40/1/2 62/1/2
f 62/1/2 63/1/1 61/1/1
f 63/1/1 62/1/2 64/1/2
f 42/2/3 62/1/2 40/1/2
f 62/1/2 42/2/3 65/2/3
f 65/2/3 64/1/2 62/1/2
f 64/1/2 65/2/3 66/2/3
f 67/3/4 42/2/3 44/3/4
f 42/2/3 67/3/4 65/2/3
f 68/3/4 65/2/3 67/3/4
f 65/2/3 68/3/4 66/2/3
f 69/2/5 47/3/6 48/2/5
f 47/3/6 69/2/5 70/3/6
f 69/2/5 71/3/6 70/3/6
f 71/3/6 69/2/5 72/2/5
f 39/1/1 69/2/5 48/2/5
f 69/2/5 39/1/1 61/1/1
f 61/1/1 72/2/5 69/2/5
f 72/2/5 61/1/1 63/1/1
f 50/5/8 67/4/7 44/4/7
f 67/4/7 50/5/8 73/5/8
f 73/5/8 68/4/7 67/4/7
f 68/4/7 73/5/8 74/5/8
f 52/6/9 73/5/8 50/5/8
f 73/5/8 52/6/9 75/6/9
f 75/6/9 74/5/8 73/5/8
f 74/5/8 75/6/9 76/6/9
f 54/7/10 75/6/9 52/6/9
f 75/6/9 54/7/10 77/7/10
f 77/7/10 76/6/9 75/6/9
f 76/6/9 77/7/10 78/7/10
f 56/7/7 77/7/10 54/7/10
f 77/7/10 56/7/7 79/7/7
f 79/7/7 78/7/10 77/7/10
f 78/7/10 79/7/7 80/7/7
f 58/6/11 79/7/7 56/7/7
f 79/7/7 58/6/11 81/6/11
f 81/6/11 80/7/7 79/7/7
f 80/7/7 81/6/11 82/6/11
f 83/5/12 58/6/11 60/5/12
f 58/6/11 83/5/12 81/6/11
f 84/5/12 81/6/11 83/5/12
f 81/6/11 84/5/12 82/6/11
f 47/4/10 83/5/12 60/5/12
f 83/5/12 47/4/10 70/4/10
f 70/4/10 84/5/12 83/5/12
f 84/5/12 70/4/10 71/4/10
f 64/1/2 85/1/1 63/1/1
f 85/1/1 64/1/2 86/1/2
f 86/1/2 87/1/1 85/1/1
f 87/1/1 86/1/2 88/1/2
f 66/2/3 86/1/2 64/1/2
f 86/1/2 66/2/3 89/2/3
f 89/2/3 88/1/2 86/1/2
f 88/1/2 89/2/3 90/2/3
f 91/3/4 66/2/3 68/3/4
f 66/2/3 91/3/4 89/2/3
f 92/3/4 89/2/3 91/3/4
f 89/2/3 92/3/4 90/2/3
f 93/2/5 71/3/6 72/2/5
f 71/3/6 93/2/5 94/3/6
f 93/2/5 95/3/6 94/3/6
f 95/3/6 93/2/5 96/2/5
f 63/1/1 93/2/5 72/2/5
f 93/2/5 63/1/1 85/1/1
f 85/1/1 96/2/5 93/2/5
f 96/2/5 85/1/1 87/1/1
f 74/5/8 91/4/7 68/4/7
f 91/4/7 74/5/8 97/5/8
f 97/5/8 92/4/7 91/4/7
f 92/4/7 97/5/8 98/5/8
f 76/6/9 97/5/8 74/5/8
f 97/5/8 76/6/9 99/6/9
f 99/6/9 98/5/8 97/5/8
f 98/5/8 99/6/9 100/6/9
f 78/7/10 99/6/9 76/6/9
f 99/6/9 78/7/10 101/7/10
f 101/7/10 100/6/9 99/6/9
f 100/6/9 101/7/10 102/7/10
f 80/7/7 101/7/10 78/7/10
f 101/7/10 80/7/7 103/7/7
f 103/7/7 102/7/10 101/7/10
f 102/7/10 103/7/7 104/7/7
f 82/6/11 103/7/7 80/7/7
f 103/7/7 82/6/11 105/6/11
f 105/6/11 104/7/7 103/7/7
f 104/7/7 105/6/11 106/6/11
f 107/5/12 82/6/11 84/5/12
f 82/6/11 107/5/12 105/6/11
f 108/5/12 105/6/11 107/5/12
f 105/6/11 108/5/12 106/6/11
f 71/4/10 107/5/12 84/5/12
f 107/5/12 71/4/10 94/4/10
f 94/4/10 108/5/12 107/5/12
f 108/5/12 94/4/10 95/4/10
f 111/2/13 110/1/13 109/1/13
f 110/1/13 111/2/13 112/2/13
f 112/2/13 111/2/13 113/8/13
f 113/8/13 111/2/13 114/9/13
f 114/9/13 111/2/13 115/3/13
f 114/9/13 115/3/13 116/10/13
f 117/8/13 112/2/13 113/8/13
f 118/9/13 112/2/13 117/8/13
f 112/2/13 118/9/13 119/3/13
f 119/3/13 118/9/13 120/10/13
f 123/2/14 122/1/14 121/1/14
f 122/1/14 123/2/14 96/2/14
f 96/2/14 123/2/14 124/8/14
f 124/8/14 123/2/14 125/9/14
f 125/9/14 123/2/14 126/3/14
f 125/9/14 126/3/14 127/10/14
f 128/8/14 96/2/14 124/8/14
f 129/9/14 96/2/14 128/8/14
f 96/2/14 129/9/14 130/3/14
f 130/3/14 129/9/14 108/10/14
f 133/10/7 132/11/7 131/11/7
f 132/11/7 133/10/7 134/10/7
f 132/11/4 135/12/3 131/11/4
f 135/12/3 132/11/4 136/12/3
f 137/1/2 135/12/3 136/12/3
f 135/12/3 137/1/2 138/1/2
f 139/1/1 138/1/2 137/1/2
f 138/1/2 139/1/1 140/1/1
f 141/12/5 140/1/1 139/1/1
f 140/1/1 141/12/5 142/12/5
f 141/12/5 143/11/6 142/12/5
f 143/11/6 141/12/5 144/11/6
f 143/11/10 146/10/10 145/10/10
f 146/10/10 143/11/10 144/11/10
f 142/12/13 138/1/13 140/1/13
f 138/1/13 142/12/13 147/13/13
f 147/13/13 142/12/13 148/14/13
f 148/14/13 142/12/13 143/11/13
f 148/14/13 143/11/13 145/10/13
f 149/13/13 138/1/13 147/13/13
f 138/1/13 149/13/13 135/12/13
f 135/12/13 149/13/13 150/14/13
f 135/12/13 150/14/13 131/11/13
f 131/11/13 150/14/13 133/10/13
f 151/14/14 132/11/14 134/10/14
f 151/14/14 136/12/14 132/11/14
f 152/13/14 136/12/14 151/14/14
f 152/13/14 137/1/14 136/12/14
f 137/1/14 152/13/14 153/13/14
f 141/12/14 137/1/14 153/13/14
f 137/1/14 141/12/14 139/1/14
f 141/12/14 153/13/14 154/14/14
f 141/12/14 154/14/14 144/11/14
f 144/11/14 154/14/14 146/10/14
f 157/10/7 156/11/7 155/11/7
f 156/11/7 157/10/7 158/10/7
f 156/11/4 159/12/3 155/11/4
f 159/12/3 156/11/4 160/12/3
f 161/1/2 159/12/3 160/12/3
f 159/12/3 161/1/2 162/1/2
f 163/1/1 162/1/2 161/1/2
f 162/1/2 163/1/1 164/1/1
f 165/12/5 164/1/1 163/1/1
f 164/1/1 165/12/5 166/12/5
f 165/12/5 167/11/6 166/12/5
f 167/11/6 165/12/5 168/11/6
f 167/11/10 170/10/10 169/10/10
f 170/10/10 167/11/10 168/11/10
f 166/12/13 162/1/13 164/1/13
f 162/1/13 166/12/13 171/13/13
f 171/13/13 166/12/13 172/14/13
f 172/14/13 166/12/13 167/11/13
f 172/14/13 167/11/13 169/10/13
f 173/13/13 162/1/13 171/13/13
f 162/1/13 173/13/13 159/12/13
f 159/12/13 173/13/13 174/14/13
f 159/12/13 174/14/13 155/11/13
f 155/11/13 174/14/13 157/10/13
f 175/14/14 156/11/14 158/10/14
f 175/14/14 160/12/14 156/11/14
f 176/13/14 160/12/14 175/14/14
f 176/13/14 161/1/14 160/12/14
f 161/1/14 176/13/14 177/13/14
f 165/12/14 161/1/14 177/13/14
f 161/1/14 165/12/14 163/1/14
f 165/12/14 177/13/14 178/14/14
f 165/12/14 178/14/14 168/11/14
f 168/11/14 178/14/14 170/10/14

g coaster-flume-straight




usemtl colormap

f 3/1/2 2/1/1 1/1/1
f 2/1/1 3/1/2 4/1/2
f 4/1/2 5/1/1 2/1/1
f 5/1/1 4/1/2 6/1/2
f 7/2/3 4/1/2 3/1/2
f 4/1/2 7/2/3 8/2/3
f 8/2/3 6/1/2 4/1/2
f 6/1/2 8/2/3 9/2/3
f 11/3/4 7/2/3 10/3/4
f 7/2/3 11/3/4 8/2/3
f 12/3/4 8/2/3 11/3/4
f 8/2/3 12/3/4 9/2/3
f 15/2/5 14/3/6 13/2/5
f 14/3/6 15/2/5 16/3/6
f 15/2/5 17/3/6 16/3/6
f 17/3/6 15/2/5 18/2/5
f 1/1/1 15/2/5 13/2/5
f 15/2/5 1/1/1 2/1/1
f 2/1/1 18/2/5 15/2/5
f 18/2/5 2/1/1 5/1/1
f 19/5/8 11/4/7 10/4/7
f 11/4/7 19/5/8 20/5/8
f 20/5/8 12/4/7 11/4/7
f 12/4/7 20/5/8 21/5/8
f 22/6/9 20/5/8 19/5/8
f 20/5/8 22/6/9 23/6/9
f 23/6/9 21/5/8 20/5/8
f 21/5/8 23/6/9 24/6/9
f 25/7/10 23/6/9 22/6/9
f 23/6/9 25/7/10 26/7/10
f 26/7/10 24/6/9 23/6/9
f 24/6/9 26/7/10 27/7/10
f 28/7/7 26/7/10 25/7/10
f 26/7/10 28/7/7 29/7/7
f 29/7/7 27/7/10 26/7/10
f 27/7/10 29/7/7 30/7/7
f 31/6/11 29/7/7 28/7/7
f 29/7/7 31/6/11 32/6/11
f 32/6/11 30/7/7 29/7/7
f 30/7/7 32/6/11 33/6/11
f 35/5/12 31/6/11 34/5/12
f 31/6/11 35/5/12 32/6/11
f 36/5/12 32/6/11 35/5/12
f 32/6/11 36/5/12 33/6/11
f 14/4/10 35/5/12 34/5/12
f 35/5/12 14/4/10 16/4/10
f 16/4/10 36/5/12 35/5/12
f 36/5/12 16/4/10 17/4/10
f 6/1/2 37/1/1 5/1/1
f 37/1/1 6/1/2 38/1/2
f 38/1/2 39/1/1 37/1/1
f 39/1/1 38/1/2 40/1/2
f 9/2/3 38/1/2 6/1/2
f 38/1/2 9/2/3 41/2/3
f 41/2/3 40/1/2 38/1/2
f 40/1/2 41/2/3 42/2/3
f 43/3/4 9/2/3 12/3/4
f 9/2/3 43/3/4 41/2/3
f 44/3/4 41/2/3 43/3/4
f 41/2/3 44/3/4 42/2/3
f 45/2/5 17/3/6 18/2/5
f 17/3/6 45/2/5 46/3/6
f 45/2/5 47/3/6 46/3/6
f 47/3/6 45/2/5 48/2/5
f 5/1/1 45/2/5 18/2/5
f 45/2/5 5/1/1 37/1/1
f 37/1/1 48/2/5 45/2/5
f 48/2/5 37/1/1 39/1/1
f 21/5/8 43/4/7 12/4/7
f 43/4/7 21/5/8 49/5/8
f 49/5/8 44/4/7 43/4/7
f 44/4/7 49/5/8 50/5/8
f 24/6/9 49/5/8 21/5/8
f 49/5/8 24/6/9 51/6/9
f 51/6/9 50/5/8 49/5/8
f 50/5/8 51/6/9 52/6/9
f 27/7/10 51/6/9 24/6/9
f 51/6/9 27/7/10 53/7/10
f 53/7/10 52/6/9 51/6/9
f 52/6/9 53/7/10 54/7/10
f 30/7/7 53/7/10 27/7/10
f 53/7/10 30/7/7 55/7/7
f 55/7/7 54/7/10 53/7/10
f 54/7/10 55/7/7 56/7/7
f 33/6/11 55/7/7 30/7/7
f 55/7/7 33/6/11 57/6/11
f 57/6/11 56/7/7 55/7/7
f 56/7/7 57/6/11 58/6/11
f 59/5/12 33/6/11 36/5/12
f 33/6/11 59/5/12 57/6/11
f 60/5/12 57/6/11 59/5/12
f 57/6/11 60/5/12 58/6/11
f 17/4/10 59/5/12 36/5/12
f 59/5/12 17/4/10 46/4/10
f 46/4/10 60/5/12 59/5/12
f 60/5/12 46/4/10 47/4/10
f 40/1/2 61/1/1 39/1/1
f 61/1/1 40/1/2 62/1/2
f 62/1/2 63/1/1 61/1/1
f 63/1/1 62/1/2 64/1/2
f 42/2/3 62/1/2 40/1/2
f 62/1/2 42/2/3 65/2/3
f 65/2/3 64/1/2 62/1/2
f 64/1/2 65/2/3 66/2/3
f 67/3/4 42/2/3 44/3/4
f 42/2/3 67/3/4 65/2/3
f 68/3/4 65/2/3 67/3/4
f 65/2/3 68/3/4 66/2/3
f 69/2/5 47/3/6 48/2/5
f 47/3/6 69/2/5 70/3/6
f 69/2/5 71/3/6 70/3/6
f 71/3/6 69/2/5 72/2/5
f 39/1/1 69/2/5 48/2/5
f 69/2/5 39/1/1 61/1/1
f 61/1/1 72/2/5 69/2/5
f 72/2/5 61/1/1 63/1/1
f 50/5/8 67/4/7 44/4/7
f 67/4/7 50/5/8 73/5/8
f 73/5/8 68/4/7 67/4/7
f 68/4/7 73/5/8 74/5/8
f 52/6/9 73/5/8 50/5/8
f 73/5/8 52/6/9 75/6/9
f 75/6/9 74/5/8 73/5/8
f 74/5/8 75/6/9 76/6/9
f 54/7/10 75/6/9 52/6/9
f 75/6/9 54/7/10 77/7/10
f 77/7/10 76/6/9 75/6/9
f 76/6/9 77/7/10 78/7/10
f 56/7/7 77/7/10 54/7/10
f 77/7/10 56/7/7 79/7/7
f 79/7/7 78/7/10 77/7/10
f 78/7/10 79/7/7 80/7/7
f 58/6/11 79/7/7 56/7/7
f 79/7/7 58/6/11 81/6/11
f 81/6/11 80/7/7 79/7/7
f 80/7/7 81/6/11 82/6/11
f 83/5/12 58/6/11 60/5/12
f 58/6/11 83/5/12 81/6/11
f 84/5/12 81/6/11 83/5/12
f 81/6/11 84/5/12 82/6/11
f 47/4/10 83/5/12 60/5/12
f 83/5/12 47/4/10 70/4/10
f 70/4/10 84/5/12 83/5/12
f 84/5/12 70/4/10 71/4/10
f 64/1/2 85/1/1 63/1/1
f 85/1/1 64/1/2 86/1/2
f 86/1/2 87/1/1 85/1/1
f 87/1/1 86/1/2 88/1/2
f 66/2/3 86/1/2 64/1/2
f 86/1/2 66/2/3 89/2/3
f 89/2/3 88/1/2 86/1/2
f 88/1/2 89/2/3 90/2/3
f 91/3/4 66/2/3 68/3/4
f 66/2/3 91/3/4 89/2/3
f 92/3/4 89/2/3 91/3/4
f 89/2/3 92/3/4 90/2/3
f 93/2/5 71/3/6 72/2/5
f 71/3/6 93/2/5 94/3/6
f 93/2/5 95/3/6 94/3/6
f 95/3/6 93/2/5 96/2/5
f 63/1/1 93/2/5 72/2/5
f 93/2/5 63/1/1 85/1/1
f 85/1/1 96/2/5 93/2/5
f 96/2/5 85/1/1 87/1/1
f 74/5/8 91/4/7 68/4/7
f 91/4/7 74/5/8 97/5/8
f 97/5/8 92/4/7 91/4/7
f 92/4/7 97/5/8 98/5/8
f 76/6/9 97/5/8 74/5/8
f 97/5/8 76/6/9 99/6/9
f 99/6/9 98/5/8 97/5/8
f 98/5/8 99/6/9 100/6/9
f 78/7/10 99/6/9 76/6/9
f 99/6/9 78/7/10 101/7/10
f 101/7/10 100/6/9 99/6/9
f 100/6/9 101/7/10 102/7/10
f 80/7/7 101/7/10 78/7/10
f 101/7/10 80/7/7 103/7/7
f 103/7/7 102/7/10 101/7/10
f 102/7/10 103/7/7 104/7/7
f 82/6/11 103/7/7 80/7/7
f 103/7/7 82/6/11 105/6/11
f 105/6/11 104/7/7 103/7/7
f 104/7/7 105/6/11 106/6/11
f 107/5/12 82/6/11 84/5/12
f 82/6/11 107/5/12 105/6/11
f 108/5/12 105/6/11 107/5/12
f 105/6/11 108/5/12 106/6/11
f 71/4/10 107/5/12 84/5/12
f 107/5/12 71/4/10 94/4/10
f 94/4/10 108/5/12 107/5/12
f 108/5/12 94/4/10 95/4/10
f 111/2/13 110/1/13 109/1/13
f 110/1/13 111/2/13 112/2/13
f 112/2/13 111/2/13 113/8/13
f 113/8/13 111/2/13 114/9/13
f 114/9/13 111/2/13 115/3/13
f 114/9/13 115/3/13 116/10/13
f 117/8/13 112/2/13 113/8/13
f 118/9/13 112/2/13 117/8/13
f 112/2/13 118/9/13 119/3/13
f 119/3/13 118/9/13 120/10/13
f 123/2/14 122/1/14 121/1/14
f 122/1/14 123/2/14 96/2/14
f 96/2/14 123/2/14 124/8/14
f 124/8/14 123/2/14 125/9/14
f 125/9/14 123/2/14 126/3/14
f 125/9/14 126/3/14 127/10/14
f 128/8/14 96/2/14 124/8/14
f 129/9/14 96/2/14 128/8/14
f 96/2/14 129/9/14 130/3/14
f 130/3/14 129/9/14 108/10/14
f 133/10/7 132/11/7 131/11/7
f 132/11/7 133/10/7 134/10/7
f 132/11/4 135/12/3 131/11/4
f 135/12/3 132/11/4 136/12/3
f 137/1/2 135/12/3 136/12/3
f 135/12/3 137/1/2 138/1/2
f 139/1/1 138/1/2 137/1/2
f 138/1/2 139/1/1 140/1/1
f 141/12/5 140/1/1 139/1/1
f 140/1/1 141/12/5 142/12/5
f 141/12/5 143/11/6 142/12/5
f 143/11/6 141/12/5 144/11/6
f 143/11/10 146/10/10 145/10/10
f 146/10/10 143/11/10 144/11/10
f 142/12/13 138/1/13 140/1/13
f 138/1/13 142/12/13 147/13/13
f 147/13/13 142/12/13 148/14/13
f 148/14/13 142/12/13 143/11/13
f 148/14/13 143/11/13 145/10/13
f 149/13/13 138/1/13 147/13/13
f 138/1/13 149/13/13 135/12/13
f 135/12/13 149/13/13 150/14/13
f 135/12/13 150/14/13 131/11/13
f 131/11/13 150/14/13 133/10/13
f 151/14/14 132/11/14 134/10/14
f 151/14/14 136/12/14 132/11/14
f 152/13/14 136/12/14 151/14/14
f 152/13/14 137/1/14 136/12/14
f 137/1/14 152/13/14 153/13/14
f 141/12/14 137/1/14 153/13/14
f 137/1/14 141/12/14 139/1/14
f 141/12/14 153/13/14 154/14/14
f 141/12/14 154/14/14 144/11/14
f 144/11/14 154/14/14 146/10/14
f 157/10/7 156/11/7 155/11/7
f 156/11/7 157/10/7 158/10/7
f 156/11/4 159/12/3 155/11/4
f 159/12/3 156/11/4 160/12/3
f 161/1/2 159/12/3 160/12/3
f 159/12/3 161/1/2 162/1/2
f 163/1/1 162/1/2 161/1/2
f 162/1/2 163/1/1 164/1/1
f 165/12/5 164/1/1 163/1/1
f 164/1/1 165/12/5 166/12/5
f 165/12/5 167/11/6 166/12/5
f 167/11/6 165/12/5 168/11/6
f 167/11/10 170/10/10 169/10/10
f 170/10/10 167/11/10 168/11/10
f 166/12/13 162/1/13 164/1/13
f 162/1/13 166/12/13 171/13/13
f 171/13/13 166/12/13 172/14/13
f 172/14/13 166/12/13 167/11/13
f 172/14/13 167/11/13 169/10/13
f 173/13/13 162/1/13 171/13/13
f 162/1/13 173/13/13 159/12/13
f 159/12/13 173/13/13 174/14/13
f 159/12/13 174/14/13 155/11/13
f 155/11/13 174/14/13 157/10/13
f 175/14/14 156/11/14 158/10/14
f 175/14/14 160/12/14 156/11/14
f 176/13/14 160/12/14 175/14/14
f 176/13/14 161/1/14 160/12/14
f 161/1/14 176/13/14 177/13/14
f 165/12/14 161/1/14 177/13/14
f 161/1/14 165/12/14 163/1/14
f 165/12/14 177/13/14 178/14/14
f 165/12/14 178/14/14 168/11/14
f 168/11/14 178/14/14 170/10/14

