# Created by Kenney (www.kenney.nl)

mtllib coaster-flume-track.mtl

g coaster-flume-track

v -0.1893549 0 -0.5 1 1 1
v -0.1893549 2.219361E-15 7.219114E-16 1 1 1
v 0.1893549 0 -0.5 1 1 1
v 0.1893549 2.219361E-15 7.219114E-16 1 1 1
v -0.1893549 2.208081E-15 0.5 1 1 1
v 0.1893549 2.208081E-15 0.5 1 1 1
v 0.3350345 0.08410814 -0.5 1 1 1
v 0.3350345 0.08410814 7.219114E-16 1 1 1
v 0.3350345 0.08410814 0.5 1 1 1
v 0.4129834 0.3750176 -0.5 1 1 1
v 0.4129834 0.3750176 0 1 1 1
v 0.4129834 0.3750176 0.5 1 1 1
v -0.3350345 0.08410814 -0.5 1 1 1
v -0.4129834 0.3750176 -0.5 1 1 1
v -0.3350345 0.08410814 7.219114E-16 1 1 1
v -0.4129834 0.3750176 0 1 1 1
v -0.4129834 0.3750176 0.5 1 1 1
v -0.3350345 0.08410814 0.5 1 1 1
v 0.3163909 0.4008995 -0.5 1 1 1
v 0.3163909 0.4008995 -3.609557E-16 1 1 1
v 0.3163909 0.4008995 0.5 1 1 1
v 0.2491626 0.15 -0.5 1 1 1
v 0.2491626 0.15 0 1 1 1
v 0.2491626 0.15 0.5 1 1 1
v 0.16256 0.1 -0.5 1 1 1
v 0.16256 0.1 -3.609557E-16 1 1 1
v 0.16256 0.1 0.5 1 1 1
v -0.16256 0.1 -0.5 1 1 1
v -0.16256 0.1 -3.609557E-16 1 1 1
v -0.16256 0.1 0.5 1 1 1
v -0.2491626 0.15 -0.5 1 1 1
v -0.2491626 0.15 0 1 1 1
v -0.2491626 0.15 0.5 1 1 1
v -0.3163909 0.4008995 -0.5 1 1 1
v -0.3163909 0.4008995 -3.609557E-16 1 1 1
v -0.3163909 0.4008995 0.5 1 1 1

vn -0.258819 -0.9659258 0
vn 0.258819 -0.9659258 0
vn 0.7933533 -0.6087614 0
vn 0.9659258 -0.258819 0
vn -0.7933533 -0.6087614 0
vn -0.9659258 -0.258819 0
vn 0.258819 0.9659258 0
vn -0.5 0.8660254 0
vn -0.7933533 0.6087614 0
vn -0.258819 0.9659258 0
vn 0.7933533 0.6087614 0
vn 0.5 0.8660254 0

vt 0.46875 0.025
vt 0.46875 0.06695971
vt 0.46875 0.2120881
vt 0.71875 0.4620881
vt 0.71875 0.475
vt 0.71875 0.3498317
vt 0.71875 0.3248878

usemtl colormap

f 3/1/2 2/1/1 1/1/1
f 2/1/1 3/1/2 4/1/2
f 4/1/2 5/1/1 2/1/1
f 5/1/1 4/1/2 6/1/2
f 7/2/3 4/1/2 3/1/2
f 4/1/2 7/2/3 8/2/3
f 8/2/3 6/1/2 4/1/2
f 6/1/2 8/2/3 9/2/3
f 11/3/4 7/2/3 10/3/4
f 7/2/3 11/3/4 8/2/3
f 12/3/4 8/2/3 11/3/4
f 8/2/3 12/3/4 9/2/3
f 15/2/5 14/3/6 13/2/5
f 14/3/6 15/2/5 16/3/6
f 15/2/5 17/3/6 16/3/6
f 17/3/6 15/2/5 18/2/5
f 1/1/1 15/2/5 13/2/5
f 15/2/5 1/1/1 2/1/1
f 2/1/1 18/2/5 15/2/5
f 18/2/5 2/1/1 5/1/1
f 19/5/8 11/4/7 10/4/7
f 11/4/7 19/5/8 20/5/8
f 20/5/8 12/4/7 11/4/7
f 12/4/7 20/5/8 21/5/8
f 22/6/9 20/5/8 19/5/8
f 20/5/8 22/6/9 23/6/9
f 23/6/9 21/5/8 20/5/8
f 21/5/8 23/6/9 24/6/9
f 25/7/10 23/6/9 22/6/9
f 23/6/9 25/7/10 26/7/10
f 26/7/10 24/6/9 23/6/9
f 24/6/9 26/7/10 27/7/10
f 28/7/7 26/7/10 25/7/10
f 26/7/10 28/7/7 29/7/7
f 29/7/7 27/7/10 26/7/10
f 27/7/10 29/7/7 30/7/7
f 31/6/11 29/7/7 28/7/7
f 29/7/7 31/6/11 32/6/11
f 32/6/11 30/7/7 29/7/7
f 30/7/7 32/6/11 33/6/11
f 35/5/12 31/6/11 34/5/12
f 31/6/11 35/5/12 32/6/11
f 36/5/12 32/6/11 35/5/12
f 32/6/11 36/5/12 33/6/11
f 14/4/10 35/5/12 34/5/12
f 35/5/12 14/4/10 16/4/10
f 16/4/10 36/5/12 35/5/12
f 36/5/12 16/4/10 17/4/10

g coaster-flume-track




usemtl colormap

f 3/1/2 2/1/1 1/1/1
f 2/1/1 3/1/2 4/1/2
f 4/1/2 5/1/1 2/1/1
f 5/1/1 4/1/2 6/1/2
f 7/2/3 4/1/2 3/1/2
f 4/1/2 7/2/3 8/2/3
f 8/2/3 6/1/2 4/1/2
f 6/1/2 8/2/3 9/2/3
f 11/3/4 7/2/3 10/3/4
f 7/2/3 11/3/4 8/2/3
f 12/3/4 8/2/3 11/3/4
f 8/2/3 12/3/4 9/2/3
f 15/2/5 14/3/6 13/2/5
f 14/3/6 15/2/5 16/3/6
f 15/2/5 17/3/6 16/3/6
f 17/3/6 15/2/5 18/2/5
f 1/1/1 15/2/5 13/2/5
f 15/2/5 1/1/1 2/1/1
f 2/1/1 18/2/5 15/2/5
f 18/2/5 2/1/1 5/1/1
f 19/5/8 11/4/7 10/4/7
f 11/4/7 19/5/8 20/5/8
f 20/5/8 12/4/7 11/4/7
f 12/4/7 20/5/8 21/5/8
f 22/6/9 20/5/8 19/5/8
f 20/5/8 22/6/9 23/6/9
f 23/6/9 21/5/8 20/5/8
f 21/5/8 23/6/9 24/6/9
f 25/7/10 23/6/9 22/6/9
f 23/6/9 25/7/10 26/7/10
f 26/7/10 24/6/9 23/6/9
f 24/6/9 26/7/10 27/7/10
f 28/7/7 26/7/10 25/7/10
f 26/7/10 28/7/7 29/7/7
f 29/7/7 27/7/10 26/7/10
f 27/7/10 29/7/7 30/7/7
f 31/6/11 29/7/7 28/7/7
f 29/7/7 31/6/11 32/6/11
f 32/6/11 30/7/7 29/7/7
f 30/7/7 32/6/11 33/6/11
f 35/5/12 31/6/11 34/5/12
f 31/6/11 35/5/12 32/6/11
f 36/5/12 32/6/11 35/5/12
f 32/6/11 36/5/12 33/6/11
f 14/4/10 35/5/12 34/5/12
f 35/5/12 14/4/10 16/4/10
f 16/4/10 36/5/12 35/5/12
f 36/5/12 16/4/10 17/4/10

