# Created by Kenney (www.kenney.nl)

mtllib coaster-hanging-track.mtl

g coaster-hanging-track

v -0.35 0.025 -0.5 1 1 1
v -0.35 0.075 -0.5 1 1 1
v -0.35 0.025 0 1 1 1
v -0.35 0.075 0 1 1 1
v -0.35 0.025 0.5 1 1 1
v -0.35 0.075 0.5 1 1 1
v -0.275 0.1 -0.5 1 1 1
v -0.275 0.1 0 1 1 1
v -0.325 0.1 -0.5 1 1 1
v -0.325 0.1 0 1 1 1
v -0.275 0.1 0.5 1 1 1
v -0.325 0.1 0.5 1 1 1
v -0.275 0 0.5 1 1 1
v -0.275 0 0 1 1 1
v -0.325 0 0.5 1 1 1
v -0.325 0 0 1 1 1
v -0.275 0 -0.5 1 1 1
v -0.325 0 -0.5 1 1 1
v -0.25 0.025 -0.5 1 1 1
v -0.25 0.025 0 1 1 1
v -0.25 0.025 0.5 1 1 1
v -0.25 0.075 -0.5 1 1 1
v -0.25 0.075 0 1 1 1
v -0.25 0.075 0.5 1 1 1
v 0.25 0.025 -0.5 1 1 1
v 0.25 0.075 -0.5 1 1 1
v 0.25 0.025 1.443823E-15 1 1 1
v 0.25 0.075 1.443823E-15 1 1 1
v 0.25 0.025 0.5 1 1 1
v 0.25 0.075 0.5 1 1 1
v 0.35 0.075 -0.5 1 1 1
v 0.35 0.025 -0.5 1 1 1
v 0.35 0.075 1.443823E-15 1 1 1
v 0.35 0.025 1.443823E-15 1 1 1
v 0.35 0.075 0.5 1 1 1
v 0.35 0.025 0.5 1 1 1
v 0.325 0.1 -0.5 1 1 1
v 0.325 0.1 1.443823E-15 1 1 1
v 0.275 0.1 -0.5 1 1 1
v 0.275 0.1 1.443823E-15 1 1 1
v 0.325 0.1 0.5 1 1 1
v 0.275 0.1 0.5 1 1 1
v 0.325 0 0.5 1 1 1
v 0.325 0 1.443823E-15 1 1 1
v 0.275 0 0.5 1 1 1
v 0.275 0 1.443823E-15 1 1 1
v 0.325 0 -0.5 1 1 1
v 0.275 0 -0.5 1 1 1
v 0.1 0.2 0.5 1 1 1
v 0.1 0.2 -7.219114E-16 1 1 1
v -0.1 0.2 0.5 1 1 1
v -0.1 0.2 -7.219114E-16 1 1 1
v 0.1 0.2 -0.5 1 1 1
v -0.1 0.2 -0.5 1 1 1
v -0.1 0.4 0.5 1 1 1
v -0.1 0.4 -7.219114E-16 1 1 1
v 0.1 0.4 0.5 1 1 1
v 0.1 0.4 -7.219114E-16 1 1 1
v -0.1 0.4 -0.5 1 1 1
v 0.1 0.4 -0.5 1 1 1

vn -0.9238795 -0.3826834 0
vn -0.9238795 0.3826834 0
vn 0.3826834 0.9238795 0
vn -0.3826834 0.9238795 0
vn 0.3826834 -0.9238795 0
vn -0.3826834 -0.9238795 0
vn 0.9238795 -0.3826834 0
vn 0.9238795 0.3826834 0
vn 0 -1 0
vn 0 1 0
vn 1 0 0
vn -1 0 0

vt 0.59375 0.325
vt 0.59375 0.425
vt 0.59375 0.475
vt 0.59375 0.275

usemtl colormap

f 3/1/1 2/2/2 1/1/1
f 2/2/2 3/1/1 4/2/2
f 5/1/1 4/2/2 3/1/1
f 4/2/2 5/1/1 6/2/2
f 9/3/4 8/3/3 7/3/3
f 8/3/3 9/3/4 10/3/4
f 10/3/4 11/3/3 8/3/3
f 11/3/3 10/3/4 12/3/4
f 15/4/6 14/4/5 13/4/5
f 14/4/5 15/4/6 16/4/6
f 16/4/6 17/4/5 14/4/5
f 17/4/5 16/4/6 18/4/6
f 18/4/6 3/1/1 1/1/1
f 3/1/1 18/4/6 16/4/6
f 16/4/6 5/1/1 3/1/1
f 5/1/1 16/4/6 15/4/6
f 19/1/7 14/4/5 17/4/5
f 14/4/5 19/1/7 20/1/7
f 20/1/7 13/4/5 14/4/5
f 13/4/5 20/1/7 21/1/7
f 7/3/3 23/2/8 22/2/8
f 23/2/8 7/3/3 8/3/3
f 8/3/3 24/2/8 23/2/8
f 24/2/8 8/3/3 11/3/3
f 12/3/4 4/2/2 6/2/2
f 4/2/2 12/3/4 10/3/4
f 10/3/4 2/2/2 4/2/2
f 2/2/2 10/3/4 9/3/4
f 20/1/7 24/2/8 21/1/7
f 24/2/8 20/1/7 23/2/8
f 19/1/7 23/2/8 20/1/7
f 23/2/8 19/1/7 22/2/8
f 27/1/1 26/2/2 25/1/1
f 26/2/2 27/1/1 28/2/2
f 29/1/1 28/2/2 27/1/1
f 28/2/2 29/1/1 30/2/2
f 33/2/8 32/1/7 31/2/8
f 32/1/7 33/2/8 34/1/7
f 35/2/8 34/1/7 33/2/8
f 34/1/7 35/2/8 36/1/7
f 39/3/4 38/3/3 37/3/3
f 38/3/3 39/3/4 40/3/4
f 40/3/4 41/3/3 38/3/3
f 41/3/3 40/3/4 42/3/4
f 45/4/6 44/4/5 43/4/5
f 44/4/5 45/4/6 46/4/6
f 46/4/6 47/4/5 44/4/5
f 47/4/5 46/4/6 48/4/6
f 26/2/2 40/3/4 39/3/4
f 40/3/4 26/2/2 28/2/2
f 28/2/2 42/3/4 40/3/4
f 42/3/4 28/2/2 30/2/2
f 48/4/6 27/1/1 25/1/1
f 27/1/1 48/4/6 46/4/6
f 46/4/6 29/1/1 27/1/1
f 29/1/1 46/4/6 45/4/6
f 32/1/7 44/4/5 47/4/5
f 44/4/5 32/1/7 34/1/7
f 34/1/7 43/4/5 44/4/5
f 43/4/5 34/1/7 36/1/7
f 35/2/8 38/3/3 41/3/3
f 38/3/3 35/2/8 33/2/8
f 33/2/8 37/3/3 38/3/3
f 37/3/3 33/2/8 31/2/8
f 51/4/9 50/4/9 49/4/9
f 50/4/9 51/4/9 52/4/9
f 52/4/9 53/4/9 50/4/9
f 53/4/9 52/4/9 54/4/9
f 57/3/10 56/3/10 55/3/10
f 56/3/10 57/3/10 58/3/10
f 58/3/10 59/3/10 56/3/10
f 59/3/10 58/3/10 60/3/10
f 50/4/11 57/3/11 49/4/11
f 57/3/11 50/4/11 58/3/11
f 53/4/11 58/3/11 50/4/11
f 58/3/11 53/4/11 60/3/11
f 56/3/12 51/4/12 55/3/12
f 51/4/12 56/3/12 52/4/12
f 59/3/12 52/4/12 56/3/12
f 52/4/12 59/3/12 54/4/12

g coaster-hanging-track




usemtl colormap

f 3/1/1 2/2/2 1/1/1
f 2/2/2 3/1/1 4/2/2
f 5/1/1 4/2/2 3/1/1
f 4/2/2 5/1/1 6/2/2
f 9/3/4 8/3/3 7/3/3
f 8/3/3 9/3/4 10/3/4
f 10/3/4 11/3/3 8/3/3
f 11/3/3 10/3/4 12/3/4
f 15/4/6 14/4/5 13/4/5
f 14/4/5 15/4/6 16/4/6
f 16/4/6 17/4/5 14/4/5
f 17/4/5 16/4/6 18/4/6
f 18/4/6 3/1/1 1/1/1
f 3/1/1 18/4/6 16/4/6
f 16/4/6 5/1/1 3/1/1
f 5/1/1 16/4/6 15/4/6
f 19/1/7 14/4/5 17/4/5
f 14/4/5 19/1/7 20/1/7
f 20/1/7 13/4/5 14/4/5
f 13/4/5 20/1/7 21/1/7
f 7/3/3 23/2/8 22/2/8
f 23/2/8 7/3/3 8/3/3
f 8/3/3 24/2/8 23/2/8
f 24/2/8 8/3/3 11/3/3
f 12/3/4 4/2/2 6/2/2
f 4/2/2 12/3/4 10/3/4
f 10/3/4 2/2/2 4/2/2
f 2/2/2 10/3/4 9/3/4
f 20/1/7 24/2/8 21/1/7
f 24/2/8 20/1/7 23/2/8
f 19/1/7 23/2/8 20/1/7
f 23/2/8 19/1/7 22/2/8
f 27/1/1 26/2/2 25/1/1
f 26/2/2 27/1/1 28/2/2
f 29/1/1 28/2/2 27/1/1
f 28/2/2 29/1/1 30/2/2
f 33/2/8 32/1/7 31/2/8
f 32/1/7 33/2/8 34/1/7
f 35/2/8 34/1/7 33/2/8
f 34/1/7 35/2/8 36/1/7
f 39/3/4 38/3/3 37/3/3
f 38/3/3 39/3/4 40/3/4
f 40/3/4 41/3/3 38/3/3
f 41/3/3 40/3/4 42/3/4
f 45/4/6 44/4/5 43/4/5
f 44/4/5 45/4/6 46/4/6
f 46/4/6 47/4/5 44/4/5
f 47/4/5 46/4/6 48/4/6
f 26/2/2 40/3/4 39/3/4
f 40/3/4 26/2/2 28/2/2
f 28/2/2 42/3/4 40/3/4
f 42/3/4 28/2/2 30/2/2
f 48/4/6 27/1/1 25/1/1
f 27/1/1 48/4/6 46/4/6
f 46/4/6 29/1/1 27/1/1
f 29/1/1 46/4/6 45/4/6
f 32/1/7 44/4/5 47/4/5
f 44/4/5 32/1/7 34/1/7
f 34/1/7 43/4/5 44/4/5
f 43/4/5 34/1/7 36/1/7
f 35/2/8 38/3/3 41/3/3
f 38/3/3 35/2/8 33/2/8
f 33/2/8 37/3/3 38/3/3
f 37/3/3 33/2/8 31/2/8
f 51/4/9 50/4/9 49/4/9
f 50/4/9 51/4/9 52/4/9
f 52/4/9 53/4/9 50/4/9
f 53/4/9 52/4/9 54/4/9
f 57/3/10 56/3/10 55/3/10
f 56/3/10 57/3/10 58/3/10
f 58/3/10 59/3/10 56/3/10
f 59/3/10 58/3/10 60/3/10
f 50/4/11 57/3/11 49/4/11
f 57/3/11 50/4/11 58/3/11
f 53/4/11 58/3/11 50/4/11
f 58/3/11 53/4/11 60/3/11
f 56/3/12 51/4/12 55/3/12
f 51/4/12 56/3/12 52/4/12
f 59/3/12 52/4/12 56/3/12
f 52/4/12 59/3/12 54/4/12

