# Created by Kenney (www.kenney.nl)

mtllib coaster-mouse-straight.mtl

g coaster-mouse-straight

v 0.1500001 0.02499998 0 1 1 1
v 0.1500001 0.07500005 0 1 1 1
v 0.1500001 0.02499998 0.4981065 1 1 1
v 0.1500001 0.07500005 0.4981065 1 1 1
v 0.1500001 0.02499998 0.9987755 1 1 1
v 0.1500001 0.07500005 0.9987755 1 1 1
v 0.25 0.07500005 0 1 1 1
v 0.25 0.02499998 0 1 1 1
v 0.25 0.07500005 0.4981065 1 1 1
v 0.25 0.02499998 0.4981065 1 1 1
v 0.25 0.07500005 0.9987755 1 1 1
v 0.25 0.02499998 0.9987755 1 1 1
v 0.2249999 0.1 0 1 1 1
v 0.2249999 0.1 0.4981065 1 1 1
v 0.175 0.1 0 1 1 1
v 0.175 0.1 0.4981065 1 1 1
v 0.2249999 0.1 0.9987755 1 1 1
v 0.175 0.1 0.9987755 1 1 1
v 0.2249999 0 0.9987755 1 1 1
v 0.2249999 0 0.4981065 1 1 1
v 0.175 0 0.9987755 1 1 1
v 0.175 0 0.4981065 1 1 1
v 0.2249999 0 0 1 1 1
v 0.175 0 0 1 1 1
v -0.25 0.02499998 0 1 1 1
v -0.25 0.07500005 0 1 1 1
v -0.25 0.02499998 0.4981065 1 1 1
v -0.25 0.07500005 0.4981065 1 1 1
v -0.25 0.02499998 0.9987755 1 1 1
v -0.25 0.07500005 0.9987755 1 1 1
v -0.175 0.1 0 1 1 1
v -0.175 0.1 0.4981065 1 1 1
v -0.2249999 0.1 0 1 1 1
v -0.2249999 0.1 0.4981065 1 1 1
v -0.175 0.1 0.9987755 1 1 1
v -0.2249999 0.1 0.9987755 1 1 1
v -0.175 0 0.9987755 1 1 1
v -0.175 0 0.4981065 1 1 1
v -0.2249999 0 0.9987755 1 1 1
v -0.2249999 0 0.4981065 1 1 1
v -0.175 0 0 1 1 1
v -0.2249999 0 0 1 1 1
v -0.1500001 0.02499998 0 1 1 1
v -0.1500001 0.02499998 0.4981065 1 1 1
v -0.1500001 0.02499998 0.9987755 1 1 1
v -0.1500001 0.07500005 0 1 1 1
v -0.1500001 0.07500005 0.4981065 1 1 1
v -0.1500001 0.07500005 0.9987755 1 1 1
v 0.1500001 0.02499998 1.499881 1 1 1
v 0.1500001 0.07500005 1.499881 1 1 1
v 0.1500001 0.02499998 2 1 1 1
v 0.1500001 0.07500005 2 1 1 1
v 0.25 0.07500005 1.499881 1 1 1
v 0.25 0.02499998 1.499881 1 1 1
v 0.25 0.07500005 2 1 1 1
v 0.25 0.02499998 2 1 1 1
v 0.2249999 0.1 1.499881 1 1 1
v 0.175 0.1 1.499881 1 1 1
v 0.2249999 0.1 2 1 1 1
v 0.175 0.1 2 1 1 1
v 0.2249999 0 2 1 1 1
v 0.2249999 0 1.499881 1 1 1
v 0.175 0 2 1 1 1
v 0.175 0 1.499881 1 1 1
v -0.25 0.02499998 1.499881 1 1 1
v -0.25 0.07500005 1.499881 1 1 1
v -0.25 0.02499998 2 1 1 1
v -0.25 0.07500005 2 1 1 1
v -0.175 0.1 1.499881 1 1 1
v -0.2249999 0.1 1.499881 1 1 1
v -0.175 0.1 2 1 1 1
v -0.2249999 0.1 2 1 1 1
v -0.175 0 2 1 1 1
v -0.175 0 1.499881 1 1 1
v -0.2249999 0 2 1 1 1
v -0.2249999 0 1.499881 1 1 1
v -0.1500001 0.02499998 1.499881 1 1 1
v -0.1500001 0.02499998 2 1 1 1
v -0.1500001 0.07500005 1.499881 1 1 1
v -0.1500001 0.07500005 2 1 1 1
v 0.1500001 0.02499998 2.500119 1 1 1
v 0.1500001 0.07500005 2.500119 1 1 1
v 0.1500001 0.02499998 3.001224 1 1 1
v 0.1500001 0.07500005 3.001224 1 1 1
v 0.25 0.07500005 2.500119 1 1 1
v 0.25 0.02499998 2.500119 1 1 1
v 0.25 0.07500005 3.001224 1 1 1
v 0.25 0.02499998 3.001224 1 1 1
v 0.2249999 0.1 2.500119 1 1 1
v 0.175 0.1 2.500119 1 1 1
v 0.2249999 0.1 3.001224 1 1 1
v 0.175 0.1 3.001224 1 1 1
v 0.2249999 0 3.001224 1 1 1
v 0.2249999 0 2.500119 1 1 1
v 0.175 0 3.001224 1 1 1
v 0.175 0 2.500119 1 1 1
v -0.25 0.02499998 2.500119 1 1 1
v -0.25 0.07500005 2.500119 1 1 1
v -0.25 0.02499998 3.001224 1 1 1
v -0.25 0.07500005 3.001224 1 1 1
v -0.175 0.1 2.500119 1 1 1
v -0.2249999 0.1 2.500119 1 1 1
v -0.175 0.1 3.001224 1 1 1
v -0.2249999 0.1 3.001224 1 1 1
v -0.175 0 3.001224 1 1 1
v -0.175 0 2.500119 1 1 1
v -0.2249999 0 3.001224 1 1 1
v -0.2249999 0 2.500119 1 1 1
v -0.1500001 0.02499998 2.500119 1 1 1
v -0.1500001 0.02499998 3.001224 1 1 1
v -0.1500001 0.07500005 2.500119 1 1 1
v -0.1500001 0.07500005 3.001224 1 1 1
v 0.1500001 0.02499998 3.501894 1 1 1
v 0.1500001 0.07500005 3.501894 1 1 1
v 0.1500001 0.02499998 4 1 1 1
v 0.1500001 0.07500005 4 1 1 1
v 0.25 0.07500005 3.501894 1 1 1
v 0.25 0.02499998 3.501894 1 1 1
v 0.25 0.07500005 4 1 1 1
v 0.25 0.02499998 4 1 1 1
v 0.2249999 0.1 3.501894 1 1 1
v 0.175 0.1 3.501894 1 1 1
v 0.2249999 0.1 4 1 1 1
v 0.175 0.1 4 1 1 1
v 0.2249999 0 4 1 1 1
v 0.2249999 0 3.501894 1 1 1
v 0.175 0 4 1 1 1
v 0.175 0 3.501894 1 1 1
v -0.25 0.02499998 3.501894 1 1 1
v -0.25 0.07500005 3.501894 1 1 1
v -0.25 0.02499998 4 1 1 1
v -0.25 0.07500005 4 1 1 1
v -0.175 0.1 3.501894 1 1 1
v -0.2249999 0.1 3.501894 1 1 1
v -0.175 0.1 4 1 1 1
v -0.2249999 0.1 4 1 1 1
v -0.175 0 4 1 1 1
v -0.175 0 3.501894 1 1 1
v -0.2249999 0 4 1 1 1
v -0.2249999 0 3.501894 1 1 1
v -0.1500001 0.02499998 3.501894 1 1 1
v -0.1500001 0.02499998 4 1 1 1
v -0.1500001 0.07500005 3.501894 1 1 1
v -0.1500001 0.07500005 4 1 1 1
v 0.175 0 5.05338E-15 1 1 1
v 0.225 0 5.05338E-15 1 1 1
v 0.15 0.02499998 5.05338E-15 1 1 1
v 0.25 0.02499998 5.05338E-15 1 1 1
v 0.15 0.07499999 5.05338E-15 1 1 1
v 0.25 0.07499999 5.05338E-15 1 1 1
v 0.175 0.1 5.05338E-15 1 1 1
v 0.225 0.1 5.05338E-15 1 1 1
v -0.225 0 3.609557E-15 1 1 1
v -0.175 0 3.609557E-15 1 1 1
v -0.25 0.02499998 3.609557E-15 1 1 1
v -0.15 0.02499998 3.609557E-15 1 1 1
v -0.25 0.07499999 3.609557E-15 1 1 1
v -0.15 0.07499999 3.609557E-15 1 1 1
v -0.225 0.1 3.609557E-15 1 1 1
v -0.175 0.1 3.609557E-15 1 1 1
v -0.175 0 4 1 1 1
v -0.225 0 4 1 1 1
v -0.15 0.02499998 4 1 1 1
v -0.15 0.07499999 4 1 1 1
v -0.25 0.07499999 4 1 1 1
v -0.175 0.1 4 1 1 1
v -0.225 0.1 4 1 1 1
v 0.225 0 4 1 1 1
v 0.175 0 4 1 1 1
v 0.15 0.02499998 4 1 1 1
v 0.25 0.07499999 4 1 1 1
v 0.15 0.07499999 4 1 1 1
v 0.225 0.1 4 1 1 1
v 0.175 0.1 4 1 1 1
v 0.2 0.02499998 0.357262 1 1 1
v 0.2 0.02499998 0.307262 1 1 1
v -0.2 0.02499998 0.357262 1 1 1
v -0.2 0.02499998 0.307262 1 1 1
v 0.2 0.07499999 0.307262 1 1 1
v 0.2 0.07499999 0.357262 1 1 1
v -0.2 0.07499999 0.307262 1 1 1
v -0.2 0.07499999 0.357262 1 1 1
v 0.2 0.02499998 1.023775 1 1 1
v 0.2 0.02499998 0.9737755 1 1 1
v -0.2 0.02499998 1.023775 1 1 1
v -0.2 0.02499998 0.9737755 1 1 1
v 0.2 0.07499999 0.9737755 1 1 1
v 0.2 0.07499999 1.023775 1 1 1
v -0.2 0.07499999 0.9737755 1 1 1
v -0.2 0.07499999 1.023775 1 1 1
v 0.2 0.02499998 1.691474 1 1 1
v 0.2 0.02499998 1.641474 1 1 1
v -0.2 0.02499998 1.691474 1 1 1
v -0.2 0.02499998 1.641474 1 1 1
v 0.2 0.07499999 1.641474 1 1 1
v 0.2 0.07499999 1.691474 1 1 1
v -0.2 0.07499999 1.641474 1 1 1
v -0.2 0.07499999 1.691474 1 1 1
v 0.2 0.02499998 2.358526 1 1 1
v 0.2 0.02499998 2.308526 1 1 1
v -0.2 0.02499998 2.358526 1 1 1
v -0.2 0.02499998 2.308526 1 1 1
v 0.2 0.07499999 2.308526 1 1 1
v 0.2 0.07499999 2.358526 1 1 1
v -0.2 0.07499999 2.308526 1 1 1
v -0.2 0.07499999 2.358526 1 1 1
v 0.2 0.02499998 3.026224 1 1 1
v 0.2 0.02499998 2.976224 1 1 1
v -0.2 0.02499998 3.026224 1 1 1
v -0.2 0.02499998 2.976224 1 1 1
v 0.2 0.07499999 2.976224 1 1 1
v 0.2 0.07499999 3.026224 1 1 1
v -0.2 0.07499999 2.976224 1 1 1
v -0.2 0.07499999 3.026224 1 1 1
v 0.2 0.02499998 3.692738 1 1 1
v 0.2 0.02499998 3.642738 1 1 1
v -0.2 0.02499998 3.692738 1 1 1
v -0.2 0.02499998 3.642738 1 1 1
v 0.2 0.07499999 3.642738 1 1 1
v 0.2 0.07499999 3.692738 1 1 1
v -0.2 0.07499999 3.642738 1 1 1
v -0.2 0.07499999 3.692738 1 1 1

vn -0.9238795 -0.3826834 0
vn -0.9238795 0.3826834 0
vn 0.9238795 0.3826834 0
vn 0.9238795 -0.3826834 0
vn 0.3826834 0.9238795 0
vn -0.3826834 0.9238795 0
vn 0.3826834 -0.9238795 0
vn -0.3826834 -0.9238795 0
vn 0 0 -1
vn 0 0 1
vn 0 -0.7071068 0.7071068
vn 0 -0.7071068 -0.7071068
vn 0 0.7071068 -0.7071068
vn 0 0.7071068 0.7071068

vt 0.34375 0.325
vt 0.34375 0.425
vt 0.34375 0.475
vt 0.34375 0.275

usemtl colormap

f 3/1/1 2/2/2 1/1/1
f 2/2/2 3/1/1 4/2/2
f 5/1/1 4/2/2 3/1/1
f 4/2/2 5/1/1 6/2/2
f 9/2/3 8/1/4 7/2/3
f 8/1/4 9/2/3 10/1/4
f 11/2/3 10/1/4 9/2/3
f 10/1/4 11/2/3 12/1/4
f 15/3/6 14/3/5 13/3/5
f 14/3/5 15/3/6 16/3/6
f 16/3/6 17/3/5 14/3/5
f 17/3/5 16/3/6 18/3/6
f 21/4/8 20/4/7 19/4/7
f 20/4/7 21/4/8 22/4/8
f 22/4/8 23/4/7 20/4/7
f 23/4/7 22/4/8 24/4/8
f 2/2/2 16/3/6 15/3/6
f 16/3/6 2/2/2 4/2/2
f 4/2/2 18/3/6 16/3/6
f 18/3/6 4/2/2 6/2/2
f 24/4/8 3/1/1 1/1/1
f 3/1/1 24/4/8 22/4/8
f 22/4/8 5/1/1 3/1/1
f 5/1/1 22/4/8 21/4/8
f 8/1/4 20/4/7 23/4/7
f 20/4/7 8/1/4 10/1/4
f 10/1/4 19/4/7 20/4/7
f 19/4/7 10/1/4 12/1/4
f 11/2/3 14/3/5 17/3/5
f 14/3/5 11/2/3 9/2/3
f 9/2/3 13/3/5 14/3/5
f 13/3/5 9/2/3 7/2/3
f 27/1/1 26/2/2 25/1/1
f 26/2/2 27/1/1 28/2/2
f 29/1/1 28/2/2 27/1/1
f 28/2/2 29/1/1 30/2/2
f 33/3/6 32/3/5 31/3/5
f 32/3/5 33/3/6 34/3/6
f 34/3/6 35/3/5 32/3/5
f 35/3/5 34/3/6 36/3/6
f 39/4/8 38/4/7 37/4/7
f 38/4/7 39/4/8 40/4/8
f 40/4/8 41/4/7 38/4/7
f 41/4/7 40/4/8 42/4/8
f 42/4/8 27/1/1 25/1/1
f 27/1/1 42/4/8 40/4/8
f 40/4/8 29/1/1 27/1/1
f 29/1/1 40/4/8 39/4/8
f 43/1/4 38/4/7 41/4/7
f 38/4/7 43/1/4 44/1/4
f 44/1/4 37/4/7 38/4/7
f 37/4/7 44/1/4 45/1/4
f 31/3/5 47/2/3 46/2/3
f 47/2/3 31/3/5 32/3/5
f 32/3/5 48/2/3 47/2/3
f 48/2/3 32/3/5 35/3/5
f 36/3/6 28/2/2 30/2/2
f 28/2/2 36/3/6 34/3/6
f 34/3/6 26/2/2 28/2/2
f 26/2/2 34/3/6 33/3/6
f 44/1/4 48/2/3 45/1/4
f 48/2/3 44/1/4 47/2/3
f 43/1/4 47/2/3 44/1/4
f 47/2/3 43/1/4 46/2/3
f 49/1/1 6/2/2 5/1/1
f 6/2/2 49/1/1 50/2/2
f 51/1/1 50/2/2 49/1/1
f 50/2/2 51/1/1 52/2/2
f 53/2/3 12/1/4 11/2/3
f 12/1/4 53/2/3 54/1/4
f 55/2/3 54/1/4 53/2/3
f 54/1/4 55/2/3 56/1/4
f 18/3/6 57/3/5 17/3/5
f 57/3/5 18/3/6 58/3/6
f 58/3/6 59/3/5 57/3/5
f 59/3/5 58/3/6 60/3/6
f 63/4/8 62/4/7 61/4/7
f 62/4/7 63/4/8 64/4/8
f 64/4/8 19/4/7 62/4/7
f 19/4/7 64/4/8 21/4/8
f 6/2/2 58/3/6 18/3/6
f 58/3/6 6/2/2 50/2/2
f 50/2/2 60/3/6 58/3/6
f 60/3/6 50/2/2 52/2/2
f 21/4/8 49/1/1 5/1/1
f 49/1/1 21/4/8 64/4/8
f 64/4/8 51/1/1 49/1/1
f 51/1/1 64/4/8 63/4/8
f 12/1/4 62/4/7 19/4/7
f 62/4/7 12/1/4 54/1/4
f 54/1/4 61/4/7 62/4/7
f 61/4/7 54/1/4 56/1/4
f 55/2/3 57/3/5 59/3/5
f 57/3/5 55/2/3 53/2/3
f 53/2/3 17/3/5 57/3/5
f 17/3/5 53/2/3 11/2/3
f 65/1/1 30/2/2 29/1/1
f 30/2/2 65/1/1 66/2/2
f 67/1/1 66/2/2 65/1/1
f 66/2/2 67/1/1 68/2/2
f 36/3/6 69/3/5 35/3/5
f 69/3/5 36/3/6 70/3/6
f 70/3/6 71/3/5 69/3/5
f 71/3/5 70/3/6 72/3/6
f 75/4/8 74/4/7 73/4/7
f 74/4/7 75/4/8 76/4/8
f 76/4/8 37/4/7 74/4/7
f 37/4/7 76/4/8 39/4/8
f 39/4/8 65/1/1 29/1/1
f 65/1/1 39/4/8 76/4/8
f 76/4/8 67/1/1 65/1/1
f 67/1/1 76/4/8 75/4/8
f 45/1/4 74/4/7 37/4/7
f 74/4/7 45/1/4 77/1/4
f 77/1/4 73/4/7 74/4/7
f 73/4/7 77/1/4 78/1/4
f 35/3/5 79/2/3 48/2/3
f 79/2/3 35/3/5 69/3/5
f 69/3/5 80/2/3 79/2/3
f 80/2/3 69/3/5 71/3/5
f 72/3/6 66/2/2 68/2/2
f 66/2/2 72/3/6 70/3/6
f 70/3/6 30/2/2 66/2/2
f 30/2/2 70/3/6 36/3/6
f 77/1/4 80/2/3 78/1/4
f 80/2/3 77/1/4 79/2/3
f 45/1/4 79/2/3 77/1/4
f 79/2/3 45/1/4 48/2/3
f 81/1/1 52/2/2 51/1/1
f 52/2/2 81/1/1 82/2/2
f 83/1/1 82/2/2 81/1/1
f 82/2/2 83/1/1 84/2/2
f 85/2/3 56/1/4 55/2/3
f 56/1/4 85/2/3 86/1/4
f 87/2/3 86/1/4 85/2/3
f 86/1/4 87/2/3 88/1/4
f 60/3/6 89/3/5 59/3/5
f 89/3/5 60/3/6 90/3/6
f 90/3/6 91/3/5 89/3/5
f 91/3/5 90/3/6 92/3/6
f 95/4/8 94/4/7 93/4/7
f 94/4/7 95/4/8 96/4/8
f 96/4/8 61/4/7 94/4/7
f 61/4/7 96/4/8 63/4/8
f 52/2/2 90/3/6 60/3/6
f 90/3/6 52/2/2 82/2/2
f 82/2/2 92/3/6 90/3/6
f 92/3/6 82/2/2 84/2/2
f 63/4/8 81/1/1 51/1/1
f 81/1/1 63/4/8 96/4/8
f 96/4/8 83/1/1 81/1/1
f 83/1/1 96/4/8 95/4/8
f 56/1/4 94/4/7 61/4/7
f 94/4/7 56/1/4 86/1/4
f 86/1/4 93/4/7 94/4/7
f 93/4/7 86/1/4 88/1/4
f 87/2/3 89/3/5 91/3/5
f 89/3/5 87/2/3 85/2/3
f 85/2/3 59/3/5 89/3/5
f 59/3/5 85/2/3 55/2/3
f 97/1/1 68/2/2 67/1/1
f 68/2/2 97/1/1 98/2/2
f 99/1/1 98/2/2 97/1/1
f 98/2/2 99/1/1 100/2/2
f 72/3/6 101/3/5 71/3/5
f 101/3/5 72/3/6 102/3/6
f 102/3/6 103/3/5 101/3/5
f 103/3/5 102/3/6 104/3/6
f 107/4/8 106/4/7 105/4/7
f 106/4/7 107/4/8 108/4/8
f 108/4/8 73/4/7 106/4/7
f 73/4/7 108/4/8 75/4/8
f 75/4/8 97/1/1 67/1/1
f 97/1/1 75/4/8 108/4/8
f 108/4/8 99/1/1 97/1/1
f 99/1/1 108/4/8 107/4/8
f 78/1/4 106/4/7 73/4/7
f 106/4/7 78/1/4 109/1/4
f 109/1/4 105/4/7 106/4/7
f 105/4/7 109/1/4 110/1/4
f 71/3/5 111/2/3 80/2/3
f 111/2/3 71/3/5 101/3/5
f 101/3/5 112/2/3 111/2/3
f 112/2/3 101/3/5 103/3/5
f 104/3/6 98/2/2 100/2/2
f 98/2/2 104/3/6 102/3/6
f 102/3/6 68/2/2 98/2/2
f 68/2/2 102/3/6 72/3/6
f 109/1/4 112/2/3 110/1/4
f 112/2/3 109/1/4 111/2/3
f 78/1/4 111/2/3 109/1/4
f 111/2/3 78/1/4 80/2/3
f 113/1/1 84/2/2 83/1/1
f 84/2/2 113/1/1 114/2/2
f 115/1/1 114/2/2 113/1/1
f 114/2/2 115/1/1 116/2/2
f 117/2/3 88/1/4 87/2/3
f 88/1/4 117/2/3 118/1/4
f 119/2/3 118/1/4 117/2/3
f 118/1/4 119/2/3 120/1/4
f 92/3/6 121/3/5 91/3/5
f 121/3/5 92/3/6 122/3/6
f 122/3/6 123/3/5 121/3/5
f 123/3/5 122/3/6 124/3/6
f 127/4/8 126/4/7 125/4/7
f 126/4/7 127/4/8 128/4/8
f 128/4/8 93/4/7 126/4/7
f 93/4/7 128/4/8 95/4/8
f 84/2/2 122/3/6 92/3/6
f 122/3/6 84/2/2 114/2/2
f 114/2/2 124/3/6 122/3/6
f 124/3/6 114/2/2 116/2/2
f 95/4/8 113/1/1 83/1/1
f 113/1/1 95/4/8 128/4/8
f 128/4/8 115/1/1 113/1/1
f 115/1/1 128/4/8 127/4/8
f 88/1/4 126/4/7 93/4/7
f 126/4/7 88/1/4 118/1/4
f 118/1/4 125/4/7 126/4/7
f 125/4/7 118/1/4 120/1/4
f 119/2/3 121/3/5 123/3/5
f 121/3/5 119/2/3 117/2/3
f 117/2/3 91/3/5 121/3/5
f 91/3/5 117/2/3 87/2/3
f 129/1/1 100/2/2 99/1/1
f 100/2/2 129/1/1 130/2/2
f 131/1/1 130/2/2 129/1/1
f 130/2/2 131/1/1 132/2/2
f 104/3/6 133/3/5 103/3/5
f 133/3/5 104/3/6 134/3/6
f 134/3/6 135/3/5 133/3/5
f 135/3/5 134/3/6 136/3/6
f 139/4/8 138/4/7 137/4/7
f 138/4/7 139/4/8 140/4/8
f 140/4/8 105/4/7 138/4/7
f 105/4/7 140/4/8 107/4/8
f 107/4/8 129/1/1 99/1/1
f 129/1/1 107/4/8 140/4/8
f 140/4/8 131/1/1 129/1/1
f 131/1/1 140/4/8 139/4/8
f 110/1/4 138/4/7 105/4/7
f 138/4/7 110/1/4 141/1/4
f 141/1/4 137/4/7 138/4/7
f 137/4/7 141/1/4 142/1/4
f 103/3/5 143/2/3 112/2/3
f 143/2/3 103/3/5 133/3/5
f 133/3/5 144/2/3 143/2/3
f 144/2/3 133/3/5 135/3/5
f 136/3/6 130/2/2 132/2/2
f 130/2/2 136/3/6 134/3/6
f 134/3/6 100/2/2 130/2/2
f 100/2/2 134/3/6 104/3/6
f 141/1/4 144/2/3 142/1/4
f 144/2/3 141/1/4 143/2/3
f 110/1/4 143/2/3 141/1/4
f 143/2/3 110/1/4 112/2/3
f 147/1/9 146/4/9 145/4/9
f 146/4/9 147/1/9 148/1/9
f 148/1/9 147/1/9 149/2/9
f 148/1/9 149/2/9 150/2/9
f 150/2/9 149/2/9 151/3/9
f 150/2/9 151/3/9 152/3/9
f 155/1/9 154/4/9 153/4/9
f 154/4/9 155/1/9 156/1/9
f 156/1/9 155/1/9 157/2/9
f 156/1/9 157/2/9 158/2/9
f 158/2/9 157/2/9 159/3/9
f 158/2/9 159/3/9 160/3/9
f 163/1/10 162/4/10 161/4/10
f 162/4/10 163/1/10 131/1/10
f 131/1/10 163/1/10 164/2/10
f 131/1/10 164/2/10 165/2/10
f 165/2/10 164/2/10 166/3/10
f 165/2/10 166/3/10 167/3/10
f 120/1/10 169/4/10 168/4/10
f 169/4/10 120/1/10 170/1/10
f 170/1/10 120/1/10 171/2/10
f 170/1/10 171/2/10 172/2/10
f 172/2/10 171/2/10 173/3/10
f 172/2/10 173/3/10 174/3/10
f 177/4/11 176/4/12 175/4/11
f 176/4/12 177/4/11 178/4/12
f 181/3/13 180/3/14 179/3/13
f 180/3/14 181/3/13 182/3/14
f 180/3/14 177/4/11 175/4/11
f 177/4/11 180/3/14 182/3/14
f 181/3/13 176/4/12 178/4/12
f 176/4/12 181/3/13 179/3/13
f 185/4/11 184/4/12 183/4/11
f 184/4/12 185/4/11 186/4/12
f 189/3/13 188/3/14 187/3/13
f 188/3/14 189/3/13 190/3/14
f 188/3/14 185/4/11 183/4/11
f 185/4/11 188/3/14 190/3/14
f 189/3/13 184/4/12 186/4/12
f 184/4/12 189/3/13 187/3/13
f 193/4/11 192/4/12 191/4/11
f 192/4/12 193/4/11 194/4/12
f 197/3/13 196/3/14 195/3/13
f 196/3/14 197/3/13 198/3/14
f 196/3/14 193/4/11 191/4/11
f 193/4/11 196/3/14 198/3/14
f 197/3/13 192/4/12 194/4/12
f 192/4/12 197/3/13 195/3/13
f 201/4/11 200/4/12 199/4/11
f 200/4/12 201/4/11 202/4/12
f 205/3/13 204/3/14 203/3/13
f 204/3/14 205/3/13 206/3/14
f 204/3/14 201/4/11 199/4/11
f 201/4/11 204/3/14 206/3/14
f 205/3/13 200/4/12 202/4/12
f 200/4/12 205/3/13 203/3/13
f 209/4/11 208/4/12 207/4/11
f 208/4/12 209/4/11 210/4/12
f 213/3/13 212/3/14 211/3/13
f 212/3/14 213/3/13 214/3/14
f 212/3/14 209/4/11 207/4/11
f 209/4/11 212/3/14 214/3/14
f 213/3/13 208/4/12 210/4/12
f 208/4/12 213/3/13 211/3/13
f 217/4/11 216/4/12 215/4/11
f 216/4/12 217/4/11 218/4/12
f 221/3/13 220/3/14 219/3/13
f 220/3/14 221/3/13 222/3/14
f 220/3/14 217/4/11 215/4/11
f 217/4/11 220/3/14 222/3/14
f 221/3/13 216/4/12 218/4/12
f 216/4/12 221/3/13 219/3/13

g coaster-mouse-straight




usemtl colormap

f 3/1/1 2/2/2 1/1/1
f 2/2/2 3/1/1 4/2/2
f 5/1/1 4/2/2 3/1/1
f 4/2/2 5/1/1 6/2/2
f 9/2/3 8/1/4 7/2/3
f 8/1/4 9/2/3 10/1/4
f 11/2/3 10/1/4 9/2/3
f 10/1/4 11/2/3 12/1/4
f 15/3/6 14/3/5 13/3/5
f 14/3/5 15/3/6 16/3/6
f 16/3/6 17/3/5 14/3/5
f 17/3/5 16/3/6 18/3/6
f 21/4/8 20/4/7 19/4/7
f 20/4/7 21/4/8 22/4/8
f 22/4/8 23/4/7 20/4/7
f 23/4/7 22/4/8 24/4/8
f 2/2/2 16/3/6 15/3/6
f 16/3/6 2/2/2 4/2/2
f 4/2/2 18/3/6 16/3/6
f 18/3/6 4/2/2 6/2/2
f 24/4/8 3/1/1 1/1/1
f 3/1/1 24/4/8 22/4/8
f 22/4/8 5/1/1 3/1/1
f 5/1/1 22/4/8 21/4/8
f 8/1/4 20/4/7 23/4/7
f 20/4/7 8/1/4 10/1/4
f 10/1/4 19/4/7 20/4/7
f 19/4/7 10/1/4 12/1/4
f 11/2/3 14/3/5 17/3/5
f 14/3/5 11/2/3 9/2/3
f 9/2/3 13/3/5 14/3/5
f 13/3/5 9/2/3 7/2/3
f 27/1/1 26/2/2 25/1/1
f 26/2/2 27/1/1 28/2/2
f 29/1/1 28/2/2 27/1/1
f 28/2/2 29/1/1 30/2/2
f 33/3/6 32/3/5 31/3/5
f 32/3/5 33/3/6 34/3/6
f 34/3/6 35/3/5 32/3/5
f 35/3/5 34/3/6 36/3/6
f 39/4/8 38/4/7 37/4/7
f 38/4/7 39/4/8 40/4/8
f 40/4/8 41/4/7 38/4/7
f 41/4/7 40/4/8 42/4/8
f 42/4/8 27/1/1 25/1/1
f 27/1/1 42/4/8 40/4/8
f 40/4/8 29/1/1 27/1/1
f 29/1/1 40/4/8 39/4/8
f 43/1/4 38/4/7 41/4/7
f 38/4/7 43/1/4 44/1/4
f 44/1/4 37/4/7 38/4/7
f 37/4/7 44/1/4 45/1/4
f 31/3/5 47/2/3 46/2/3
f 47/2/3 31/3/5 32/3/5
f 32/3/5 48/2/3 47/2/3
f 48/2/3 32/3/5 35/3/5
f 36/3/6 28/2/2 30/2/2
f 28/2/2 36/3/6 34/3/6
f 34/3/6 26/2/2 28/2/2
f 26/2/2 34/3/6 33/3/6
f 44/1/4 48/2/3 45/1/4
f 48/2/3 44/1/4 47/2/3
f 43/1/4 47/2/3 44/1/4
f 47/2/3 43/1/4 46/2/3
f 49/1/1 6/2/2 5/1/1
f 6/2/2 49/1/1 50/2/2
f 51/1/1 50/2/2 49/1/1
f 50/2/2 51/1/1 52/2/2
f 53/2/3 12/1/4 11/2/3
f 12/1/4 53/2/3 54/1/4
f 55/2/3 54/1/4 53/2/3
f 54/1/4 55/2/3 56/1/4
f 18/3/6 57/3/5 17/3/5
f 57/3/5 18/3/6 58/3/6
f 58/3/6 59/3/5 57/3/5
f 59/3/5 58/3/6 60/3/6
f 63/4/8 62/4/7 61/4/7
f 62/4/7 63/4/8 64/4/8
f 64/4/8 19/4/7 62/4/7
f 19/4/7 64/4/8 21/4/8
f 6/2/2 58/3/6 18/3/6
f 58/3/6 6/2/2 50/2/2
f 50/2/2 60/3/6 58/3/6
f 60/3/6 50/2/2 52/2/2
f 21/4/8 49/1/1 5/1/1
f 49/1/1 21/4/8 64/4/8
f 64/4/8 51/1/1 49/1/1
f 51/1/1 64/4/8 63/4/8
f 12/1/4 62/4/7 19/4/7
f 62/4/7 12/1/4 54/1/4
f 54/1/4 61/4/7 62/4/7
f 61/4/7 54/1/4 56/1/4
f 55/2/3 57/3/5 59/3/5
f 57/3/5 55/2/3 53/2/3
f 53/2/3 17/3/5 57/3/5
f 17/3/5 53/2/3 11/2/3
f 65/1/1 30/2/2 29/1/1
f 30/2/2 65/1/1 66/2/2
f 67/1/1 66/2/2 65/1/1
f 66/2/2 67/1/1 68/2/2
f 36/3/6 69/3/5 35/3/5
f 69/3/5 36/3/6 70/3/6
f 70/3/6 71/3/5 69/3/5
f 71/3/5 70/3/6 72/3/6
f 75/4/8 74/4/7 73/4/7
f 74/4/7 75/4/8 76/4/8
f 76/4/8 37/4/7 74/4/7
f 37/4/7 76/4/8 39/4/8
f 39/4/8 65/1/1 29/1/1
f 65/1/1 39/4/8 76/4/8
f 76/4/8 67/1/1 65/1/1
f 67/1/1 76/4/8 75/4/8
f 45/1/4 74/4/7 37/4/7
f 74/4/7 45/1/4 77/1/4
f 77/1/4 73/4/7 74/4/7
f 73/4/7 77/1/4 78/1/4
f 35/3/5 79/2/3 48/2/3
f 79/2/3 35/3/5 69/3/5
f 69/3/5 80/2/3 79/2/3
f 80/2/3 69/3/5 71/3/5
f 72/3/6 66/2/2 68/2/2
f 66/2/2 72/3/6 70/3/6
f 70/3/6 30/2/2 66/2/2
f 30/2/2 70/3/6 36/3/6
f 77/1/4 80/2/3 78/1/4
f 80/2/3 77/1/4 79/2/3
f 45/1/4 79/2/3 77/1/4
f 79/2/3 45/1/4 48/2/3
f 81/1/1 52/2/2 51/1/1
f 52/2/2 81/1/1 82/2/2
f 83/1/1 82/2/2 81/1/1
f 82/2/2 83/1/1 84/2/2
f 85/2/3 56/1/4 55/2/3
f 56/1/4 85/2/3 86/1/4
f 87/2/3 86/1/4 85/2/3
f 86/1/4 87/2/3 88/1/4
f 60/3/6 89/3/5 59/3/5
f 89/3/5 60/3/6 90/3/6
f 90/3/6 91/3/5 89/3/5
f 91/3/5 90/3/6 92/3/6
f 95/4/8 94/4/7 93/4/7
f 94/4/7 95/4/8 96/4/8
f 96/4/8 61/4/7 94/4/7
f 61/4/7 96/4/8 63/4/8
f 52/2/2 90/3/6 60/3/6
f 90/3/6 52/2/2 82/2/2
f 82/2/2 92/3/6 90/3/6
f 92/3/6 82/2/2 84/2/2
f 63/4/8 81/1/1 51/1/1
f 81/1/1 63/4/8 96/4/8
f 96/4/8 83/1/1 81/1/1
f 83/1/1 96/4/8 95/4/8
f 56/1/4 94/4/7 61/4/7
f 94/4/7 56/1/4 86/1/4
f 86/1/4 93/4/7 94/4/7
f 93/4/7 86/1/4 88/1/4
f 87/2/3 89/3/5 91/3/5
f 89/3/5 87/2/3 85/2/3
f 85/2/3 59/3/5 89/3/5
f 59/3/5 85/2/3 55/2/3
f 97/1/1 68/2/2 67/1/1
f 68/2/2 97/1/1 98/2/2
f 99/1/1 98/2/2 97/1/1
f 98/2/2 99/1/1 100/2/2
f 72/3/6 101/3/5 71/3/5
f 101/3/5 72/3/6 102/3/6
f 102/3/6 103/3/5 101/3/5
f 103/3/5 102/3/6 104/3/6
f 107/4/8 106/4/7 105/4/7
f 106/4/7 107/4/8 108/4/8
f 108/4/8 73/4/7 106/4/7
f 73/4/7 108/4/8 75/4/8
f 75/4/8 97/1/1 67/1/1
f 97/1/1 75/4/8 108/4/8
f 108/4/8 99/1/1 97/1/1
f 99/1/1 108/4/8 107/4/8
f 78/1/4 106/4/7 73/4/7
f 106/4/7 78/1/4 109/1/4
f 109/1/4 105/4/7 106/4/7
f 105/4/7 109/1/4 110/1/4
f 71/3/5 111/2/3 80/2/3
f 111/2/3 71/3/5 101/3/5
f 101/3/5 112/2/3 111/2/3
f 112/2/3 101/3/5 103/3/5
f 104/3/6 98/2/2 100/2/2
f 98/2/2 104/3/6 102/3/6
f 102/3/6 68/2/2 98/2/2
f 68/2/2 102/3/6 72/3/6
f 109/1/4 112/2/3 110/1/4
f 112/2/3 109/1/4 111/2/3
f 78/1/4 111/2/3 109/1/4
f 111/2/3 78/1/4 80/2/3
f 113/1/1 84/2/2 83/1/1
f 84/2/2 113/1/1 114/2/2
f 115/1/1 114/2/2 113/1/1
f 114/2/2 115/1/1 116/2/2
f 117/2/3 88/1/4 87/2/3
f 88/1/4 117/2/3 118/1/4
f 119/2/3 118/1/4 117/2/3
f 118/1/4 119/2/3 120/1/4
f 92/3/6 121/3/5 91/3/5
f 121/3/5 92/3/6 122/3/6
f 122/3/6 123/3/5 121/3/5
f 123/3/5 122/3/6 124/3/6
f 127/4/8 126/4/7 125/4/7
f 126/4/7 127/4/8 128/4/8
f 128/4/8 93/4/7 126/4/7
f 93/4/7 128/4/8 95/4/8
f 84/2/2 122/3/6 92/3/6
f 122/3/6 84/2/2 114/2/2
f 114/2/2 124/3/6 122/3/6
f 124/3/6 114/2/2 116/2/2
f 95/4/8 113/1/1 83/1/1
f 113/1/1 95/4/8 128/4/8
f 128/4/8 115/1/1 113/1/1
f 115/1/1 128/4/8 127/4/8
f 88/1/4 126/4/7 93/4/7
f 126/4/7 88/1/4 118/1/4
f 118/1/4 125/4/7 126/4/7
f 125/4/7 118/1/4 120/1/4
f 119/2/3 121/3/5 123/3/5
f 121/3/5 119/2/3 117/2/3
f 117/2/3 91/3/5 121/3/5
f 91/3/5 117/2/3 87/2/3
f 129/1/1 100/2/2 99/1/1
f 100/2/2 129/1/1 130/2/2
f 131/1/1 130/2/2 129/1/1
f 130/2/2 131/1/1 132/2/2
f 104/3/6 133/3/5 103/3/5
f 133/3/5 104/3/6 134/3/6
f 134/3/6 135/3/5 133/3/5
f 135/3/5 134/3/6 136/3/6
f 139/4/8 138/4/7 137/4/7
f 138/4/7 139/4/8 140/4/8
f 140/4/8 105/4/7 138/4/7
f 105/4/7 140/4/8 107/4/8
f 107/4/8 129/1/1 99/1/1
f 129/1/1 107/4/8 140/4/8
f 140/4/8 131/1/1 129/1/1
f 131/1/1 140/4/8 139/4/8
f 110/1/4 138/4/7 105/4/7
f 138/4/7 110/1/4 141/1/4
f 141/1/4 137/4/7 138/4/7
f 137/4/7 141/1/4 142/1/4
f 103/3/5 143/2/3 112/2/3
f 143/2/3 103/3/5 133/3/5
f 133/3/5 144/2/3 143/2/3
f 144/2/3 133/3/5 135/3/5
f 136/3/6 130/2/2 132/2/2
f 130/2/2 136/3/6 134/3/6
f 134/3/6 100/2/2 130/2/2
f 100/2/2 134/3/6 104/3/6
f 141/1/4 144/2/3 142/1/4
f 144/2/3 141/1/4 143/2/3
f 110/1/4 143/2/3 141/1/4
f 143/2/3 110/1/4 112/2/3
f 147/1/9 146/4/9 145/4/9
f 146/4/9 147/1/9 148/1/9
f 148/1/9 147/1/9 149/2/9
f 148/1/9 149/2/9 150/2/9
f 150/2/9 149/2/9 151/3/9
f 150/2/9 151/3/9 152/3/9
f 155/1/9 154/4/9 153/4/9
f 154/4/9 155/1/9 156/1/9
f 156/1/9 155/1/9 157/2/9
f 156/1/9 157/2/9 158/2/9
f 158/2/9 157/2/9 159/3/9
f 158/2/9 159/3/9 160/3/9
f 163/1/10 162/4/10 161/4/10
f 162/4/10 163/1/10 131/1/10
f 131/1/10 163/1/10 164/2/10
f 131/1/10 164/2/10 165/2/10
f 165/2/10 164/2/10 166/3/10
f 165/2/10 166/3/10 167/3/10
f 120/1/10 169/4/10 168/4/10
f 169/4/10 120/1/10 170/1/10
f 170/1/10 120/1/10 171/2/10
f 170/1/10 171/2/10 172/2/10
f 172/2/10 171/2/10 173/3/10
f 172/2/10 173/3/10 174/3/10
f 177/4/11 176/4/12 175/4/11
f 176/4/12 177/4/11 178/4/12
f 181/3/13 180/3/14 179/3/13
f 180/3/14 181/3/13 182/3/14
f 180/3/14 177/4/11 175/4/11
f 177/4/11 180/3/14 182/3/14
f 181/3/13 176/4/12 178/4/12
f 176/4/12 181/3/13 179/3/13
f 185/4/11 184/4/12 183/4/11
f 184/4/12 185/4/11 186/4/12
f 189/3/13 188/3/14 187/3/13
f 188/3/14 189/3/13 190/3/14
f 188/3/14 185/4/11 183/4/11
f 185/4/11 188/3/14 190/3/14
f 189/3/13 184/4/12 186/4/12
f 184/4/12 189/3/13 187/3/13
f 193/4/11 192/4/12 191/4/11
f 192/4/12 193/4/11 194/4/12
f 197/3/13 196/3/14 195/3/13
f 196/3/14 197/3/13 198/3/14
f 196/3/14 193/4/11 191/4/11
f 193/4/11 196/3/14 198/3/14
f 197/3/13 192/4/12 194/4/12
f 192/4/12 197/3/13 195/3/13
f 201/4/11 200/4/12 199/4/11
f 200/4/12 201/4/11 202/4/12
f 205/3/13 204/3/14 203/3/13
f 204/3/14 205/3/13 206/3/14
f 204/3/14 201/4/11 199/4/11
f 201/4/11 204/3/14 206/3/14
f 205/3/13 200/4/12 202/4/12
f 200/4/12 205/3/13 203/3/13
f 209/4/11 208/4/12 207/4/11
f 208/4/12 209/4/11 210/4/12
f 213/3/13 212/3/14 211/3/13
f 212/3/14 213/3/13 214/3/14
f 212/3/14 209/4/11 207/4/11
f 209/4/11 212/3/14 214/3/14
f 213/3/13 208/4/12 210/4/12
f 208/4/12 213/3/13 211/3/13
f 217/4/11 216/4/12 215/4/11
f 216/4/12 217/4/11 218/4/12
f 221/3/13 220/3/14 219/3/13
f 220/3/14 221/3/13 222/3/14
f 220/3/14 217/4/11 215/4/11
f 217/4/11 220/3/14 222/3/14
f 221/3/13 216/4/12 218/4/12
f 216/4/12 221/3/13 219/3/13

