# Created by Kenney (www.kenney.nl)

mtllib path-steps.mtl

g path-steps

v 0 0.2 0.6 1 1 1
v 0 0.2 0.4 1 1 1
v -1 0.2 0.6 1 1 1
v -1 0.2 0.4 1 1 1
v 0 0.3 0.4 1 1 1
v 0 0.3 0.6 1 1 1
v -1 0.3 0.4 1 1 1
v -1 0.3 0.6 1 1 1
v 0 0.1 0.4 1 1 1
v 0 0.1 0.2 1 1 1
v -1 0.1 0.4 1 1 1
v -1 0.1 0.2 1 1 1
v 0 0.2 0.2 1 1 1
v -1 0.2 0.2 1 1 1
v 0 0.3 0.8 1 1 1
v 0 0.3 0.6 1 1 1
v -1 0.3 0.8 1 1 1
v -1 0.3 0.6 1 1 1
v 0 0.4 0.6 1 1 1
v 0 0.4 0.8 1 1 1
v -1 0.4 0.6 1 1 1
v -1 0.4 0.8 1 1 1
v 0 0.4 1 1 1 1
v 0 0.4 0.8 1 1 1
v -1 0.4 1 1 1 1
v -1 0.4 0.8 1 1 1
v 0 0.5 0.8 1 1 1
v 0 0.5 1 1 1 1
v -1 0.5 0.8 1 1 1
v -1 0.5 1 1 1 1
v 0 0 0.2 1 1 1
v 0 0 0 1 1 1
v -1 0 0.2 1 1 1
v -1 0 0 1 1 1
v 0 0.1 0 1 1 1
v 0 0.1 0.2 1 1 1
v -1 0.1 0 1 1 1
v -1 0.1 0.2 1 1 1
v -0.95 0.5 0.95 1 1 1
v -0.85 0.5 0.95 1 1 1
v -0.95 0.8 0.95 1 1 1
v -0.85 0.8 0.95 1 1 1
v -0.85 0.8 0.9999999 1 1 1
v -0.95 0.8 0.9999999 1 1 1
v -0.95 0.5 0.9999999 1 1 1
v -0.85 0.5 0.9999999 1 1 1
v -0.15 0.5 0.95 1 1 1
v -0.05 0.5 0.95 1 1 1
v -0.15 0.8 0.95 1 1 1
v -0.05 0.8 0.95 1 1 1
v -0.05 0.8 0.9999999 1 1 1
v -0.15 0.8 0.9999999 1 1 1
v -0.15 0.5 0.9999999 1 1 1
v -0.05 0.5 0.9999999 1 1 1
v -0.15 0.1 0 1 1 1
v -0.05 0.1 0 1 1 1
v -0.15 0.3 0 1 1 1
v -0.05 0.3 0 1 1 1
v -0.05 0.3 0.05 1 1 1
v -0.15 0.3 0.05 1 1 1
v -0.15 0.1 0.05 1 1 1
v -0.05 0.1 0.05 1 1 1
v -0.95 0.1 0 1 1 1
v -0.85 0.1 0 1 1 1
v -0.95 0.3 0 1 1 1
v -0.85 0.3 0 1 1 1
v -0.85 0.3 0.05 1 1 1
v -0.95 0.3 0.05 1 1 1
v -0.95 0.1 0.05 1 1 1
v -0.85 0.1 0.05 1 1 1
v -0.075 0.275 0.05000001 1 1 1
v -0.075 0.775 0.95 1 1 1
v -0.125 0.275 0.05000001 1 1 1
v -0.125 0.775 0.95 1 1 1
v -0.125 0.175 0.05000001 1 1 1
v -0.075 0.175 0.05000001 1 1 1
v -0.075 0.675 0.95 1 1 1
v -0.125 0.675 0.95 1 1 1
v -0.875 0.275 0.05000001 1 1 1
v -0.875 0.775 0.95 1 1 1
v -0.925 0.275 0.05000001 1 1 1
v -0.925 0.775 0.95 1 1 1
v -0.925 0.175 0.05000001 1 1 1
v -0.875 0.175 0.05000001 1 1 1
v -0.875 0.675 0.95 1 1 1
v -0.925 0.675 0.95 1 1 1

vn 0 -1 0
vn 0 1 0
vn 0 0 1
vn -1 0 0
vn 0 0 -1
vn 1 0 0
vn 0 0.8741572 -0.4856429
vn 0 -0.8741572 0.4856429

vt 0.46875 0.025
vt 0.46875 0.225
vt 0.71875 0.025
vt 0.71875 0.125
vt 0.71875 0.09166666
vt 0.71875 0.175
vt 0.71875 0.075
vt 0.71875 0.1583333

usemtl colormap

f 3/1/1 2/1/1 1/1/1
f 2/1/1 3/1/1 4/1/1
f 7/2/2 6/2/2 5/2/2
f 6/2/2 7/2/2 8/2/2
f 6/2/3 3/1/3 1/1/3
f 3/1/3 6/2/3 8/2/3
f 3/1/4 7/2/4 4/1/4
f 7/2/4 3/1/4 8/2/4
f 7/2/5 2/1/5 4/1/5
f 2/1/5 7/2/5 5/2/5
f 6/2/6 2/1/6 5/2/6
f 2/1/6 6/2/6 1/1/6
f 11/1/1 10/1/1 9/1/1
f 10/1/1 11/1/1 12/1/1
f 14/2/2 2/2/2 13/2/2
f 2/2/2 14/2/2 4/2/2
f 2/2/3 11/1/3 9/1/3
f 11/1/3 2/2/3 4/2/3
f 11/1/4 14/2/4 12/1/4
f 14/2/4 11/1/4 4/2/4
f 14/2/5 10/1/5 12/1/5
f 10/1/5 14/2/5 13/2/5
f 2/2/6 10/1/6 13/2/6
f 10/1/6 2/2/6 9/1/6
f 17/1/1 16/1/1 15/1/1
f 16/1/1 17/1/1 18/1/1
f 21/2/2 20/2/2 19/2/2
f 20/2/2 21/2/2 22/2/2
f 20/2/3 17/1/3 15/1/3
f 17/1/3 20/2/3 22/2/3
f 17/1/4 21/2/4 18/1/4
f 21/2/4 17/1/4 22/2/4
f 21/2/5 16/1/5 18/1/5
f 16/1/5 21/2/5 19/2/5
f 20/2/6 16/1/6 19/2/6
f 16/1/6 20/2/6 15/1/6
f 25/1/1 24/1/1 23/1/1
f 24/1/1 25/1/1 26/1/1
f 29/2/2 28/2/2 27/2/2
f 28/2/2 29/2/2 30/2/2
f 28/2/3 25/1/3 23/1/3
f 25/1/3 28/2/3 30/2/3
f 25/1/4 29/2/4 26/1/4
f 29/2/4 25/1/4 30/2/4
f 29/2/5 24/1/5 26/1/5
f 24/1/5 29/2/5 27/2/5
f 28/2/6 24/1/6 27/2/6
f 24/1/6 28/2/6 23/1/6
f 33/1/1 32/1/1 31/1/1
f 32/1/1 33/1/1 34/1/1
f 37/2/2 36/2/2 35/2/2
f 36/2/2 37/2/2 38/2/2
f 36/2/3 33/1/3 31/1/3
f 33/1/3 36/2/3 38/2/3
f 33/1/4 37/2/4 34/1/4
f 37/2/4 33/1/4 38/2/4
f 37/2/5 32/1/5 34/1/5
f 32/1/5 37/2/5 35/2/5
f 36/2/6 32/1/6 35/2/6
f 32/1/6 36/2/6 31/1/6
f 41/4/5 40/3/5 39/3/5
f 40/3/5 41/4/5 42/4/5
f 41/4/2 43/4/2 42/4/2
f 43/4/2 41/4/2 44/4/2
f 45/3/4 41/4/4 39/3/4
f 41/4/4 45/3/4 44/4/4
f 43/4/6 40/3/6 42/4/6
f 40/3/6 43/4/6 46/3/6
f 43/4/3 45/3/3 46/3/3
f 45/3/3 43/4/3 44/4/3
f 49/4/5 48/3/5 47/3/5
f 48/3/5 49/4/5 50/4/5
f 49/4/2 51/4/2 50/4/2
f 51/4/2 49/4/2 52/4/2
f 53/3/4 49/4/4 47/3/4
f 49/4/4 53/3/4 52/4/4
f 51/4/6 48/3/6 50/4/6
f 48/3/6 51/4/6 54/3/6
f 51/4/3 53/3/3 54/3/3
f 53/3/3 51/4/3 52/4/3
f 57/4/5 56/3/5 55/3/5
f 56/3/5 57/4/5 58/4/5
f 57/4/2 59/4/2 58/4/2
f 59/4/2 57/4/2 60/4/2
f 61/3/4 57/4/4 55/3/4
f 57/4/4 61/3/4 60/4/4
f 59/4/6 56/3/6 58/4/6
f 56/3/6 59/4/6 62/3/6
f 59/4/3 61/3/3 62/3/3
f 61/3/3 59/4/3 60/4/3
f 65/4/5 64/3/5 63/3/5
f 64/3/5 65/4/5 66/4/5
f 65/4/2 67/4/2 66/4/2
f 67/4/2 65/4/2 68/4/2
f 69/3/4 65/4/4 63/3/4
f 65/4/4 69/3/4 68/4/4
f 67/4/6 64/3/6 66/4/6
f 64/3/6 67/4/6 70/3/6
f 67/4/3 69/3/3 70/3/3
f 69/3/3 67/4/3 68/4/3
f 73/5/7 72/6/7 71/5/7
f 72/6/7 73/5/7 74/6/7
f 73/5/5 76/7/5 75/7/5
f 76/7/5 73/5/5 71/5/5
f 78/8/8 76/7/8 77/8/8
f 76/7/8 78/8/8 75/7/8
f 75/7/4 74/6/4 73/5/4
f 74/6/4 75/7/4 78/8/4
f 72/6/6 76/7/6 71/5/6
f 76/7/6 72/6/6 77/8/6
f 81/5/7 80/6/7 79/5/7
f 80/6/7 81/5/7 82/6/7
f 81/5/5 84/7/5 83/7/5
f 84/7/5 81/5/5 79/5/5
f 86/8/8 84/7/8 85/8/8
f 84/7/8 86/8/8 83/7/8
f 83/7/4 82/6/4 81/5/4
f 82/6/4 83/7/4 86/8/4
f 80/6/6 84/7/6 79/5/6
f 84/7/6 80/6/6 85/8/6

g path-steps




usemtl colormap

f 3/1/1 2/1/1 1/1/1
f 2/1/1 3/1/1 4/1/1
f 7/2/2 6/2/2 5/2/2
f 6/2/2 7/2/2 8/2/2
f 6/2/3 3/1/3 1/1/3
f 3/1/3 6/2/3 8/2/3
f 3/1/4 7/2/4 4/1/4
f 7/2/4 3/1/4 8/2/4
f 7/2/5 2/1/5 4/1/5
f 2/1/5 7/2/5 5/2/5
f 6/2/6 2/1/6 5/2/6
f 2/1/6 6/2/6 1/1/6
f 11/1/1 10/1/1 9/1/1
f 10/1/1 11/1/1 12/1/1
f 14/2/2 2/2/2 13/2/2
f 2/2/2 14/2/2 4/2/2
f 2/2/3 11/1/3 9/1/3
f 11/1/3 2/2/3 4/2/3
f 11/1/4 14/2/4 12/1/4
f 14/2/4 11/1/4 4/2/4
f 14/2/5 10/1/5 12/1/5
f 10/1/5 14/2/5 13/2/5
f 2/2/6 10/1/6 13/2/6
f 10/1/6 2/2/6 9/1/6
f 17/1/1 16/1/1 15/1/1
f 16/1/1 17/1/1 18/1/1
f 21/2/2 20/2/2 19/2/2
f 20/2/2 21/2/2 22/2/2
f 20/2/3 17/1/3 15/1/3
f 17/1/3 20/2/3 22/2/3
f 17/1/4 21/2/4 18/1/4
f 21/2/4 17/1/4 22/2/4
f 21/2/5 16/1/5 18/1/5
f 16/1/5 21/2/5 19/2/5
f 20/2/6 16/1/6 19/2/6
f 16/1/6 20/2/6 15/1/6
f 25/1/1 24/1/1 23/1/1
f 24/1/1 25/1/1 26/1/1
f 29/2/2 28/2/2 27/2/2
f 28/2/2 29/2/2 30/2/2
f 28/2/3 25/1/3 23/1/3
f 25/1/3 28/2/3 30/2/3
f 25/1/4 29/2/4 26/1/4
f 29/2/4 25/1/4 30/2/4
f 29/2/5 24/1/5 26/1/5
f 24/1/5 29/2/5 27/2/5
f 28/2/6 24/1/6 27/2/6
f 24/1/6 28/2/6 23/1/6
f 33/1/1 32/1/1 31/1/1
f 32/1/1 33/1/1 34/1/1
f 37/2/2 36/2/2 35/2/2
f 36/2/2 37/2/2 38/2/2
f 36/2/3 33/1/3 31/1/3
f 33/1/3 36/2/3 38/2/3
f 33/1/4 37/2/4 34/1/4
f 37/2/4 33/1/4 38/2/4
f 37/2/5 32/1/5 34/1/5
f 32/1/5 37/2/5 35/2/5
f 36/2/6 32/1/6 35/2/6
f 32/1/6 36/2/6 31/1/6
f 41/4/5 40/3/5 39/3/5
f 40/3/5 41/4/5 42/4/5
f 41/4/2 43/4/2 42/4/2
f 43/4/2 41/4/2 44/4/2
f 45/3/4 41/4/4 39/3/4
f 41/4/4 45/3/4 44/4/4
f 43/4/6 40/3/6 42/4/6
f 40/3/6 43/4/6 46/3/6
f 43/4/3 45/3/3 46/3/3
f 45/3/3 43/4/3 44/4/3
f 49/4/5 48/3/5 47/3/5
f 48/3/5 49/4/5 50/4/5
f 49/4/2 51/4/2 50/4/2
f 51/4/2 49/4/2 52/4/2
f 53/3/4 49/4/4 47/3/4
f 49/4/4 53/3/4 52/4/4
f 51/4/6 48/3/6 50/4/6
f 48/3/6 51/4/6 54/3/6
f 51/4/3 53/3/3 54/3/3
f 53/3/3 51/4/3 52/4/3
f 57/4/5 56/3/5 55/3/5
f 56/3/5 57/4/5 58/4/5
f 57/4/2 59/4/2 58/4/2
f 59/4/2 57/4/2 60/4/2
f 61/3/4 57/4/4 55/3/4
f 57/4/4 61/3/4 60/4/4
f 59/4/6 56/3/6 58/4/6
f 56/3/6 59/4/6 62/3/6
f 59/4/3 61/3/3 62/3/3
f 61/3/3 59/4/3 60/4/3
f 65/4/5 64/3/5 63/3/5
f 64/3/5 65/4/5 66/4/5
f 65/4/2 67/4/2 66/4/2
f 67/4/2 65/4/2 68/4/2
f 69/3/4 65/4/4 63/3/4
f 65/4/4 69/3/4 68/4/4
f 67/4/6 64/3/6 66/4/6
f 64/3/6 67/4/6 70/3/6
f 67/4/3 69/3/3 70/3/3
f 69/3/3 67/4/3 68/4/3
f 73/5/7 72/6/7 71/5/7
f 72/6/7 73/5/7 74/6/7
f 73/5/5 76/7/5 75/7/5
f 76/7/5 73/5/5 71/5/5
f 78/8/8 76/7/8 77/8/8
f 76/7/8 78/8/8 75/7/8
f 75/7/4 74/6/4 73/5/4
f 74/6/4 75/7/4 78/8/4
f 72/6/6 76/7/6 71/5/6
f 76/7/6 72/6/6 77/8/6
f 81/5/7 80/6/7 79/5/7
f 80/6/7 81/5/7 82/6/7
f 81/5/5 84/7/5 83/7/5
f 84/7/5 81/5/5 79/5/5
f 86/8/8 84/7/8 85/8/8
f 84/7/8 86/8/8 83/7/8
f 83/7/4 82/6/4 81/5/4
f 82/6/4 83/7/4 86/8/4
f 80/6/6 84/7/6 79/5/6
f 84/7/6 80/6/6 85/8/6

