# Created by Kenney (www.kenney.nl)

mtllib stall-toilets.mtl

g stall-toilets

v 0.35 -2.821695E-31 -0.45 1 1 1
v 0.35 -2.821695E-31 -0.55 1 1 1
v 0.25 -2.821695E-31 -0.45 1 1 1
v 0.25 -2.821695E-31 -0.55 1 1 1
v 0.35 0.55 -0.55 1 1 1
v 0.35 0.55 -0.45 1 1 1
v 0.25 0.5 -0.55 1 1 1
v 0.25 0.5 -0.45 1 1 1
v -0.25 0.5 -0.55 1 1 1
v -0.25 0.5 -0.45 1 1 1
v -0.25 -2.821695E-31 -0.45 1 1 1
v -0.25 -2.821695E-31 -0.55 1 1 1
v -0.35 -2.821695E-31 -0.45 1 1 1
v -0.35 -2.821695E-31 -0.55 1 1 1
v -0.35 0.55 -0.55 1 1 1
v -0.35 0.55 -0.45 1 1 1
v 0.3 0.6 -0.55 1 1 1
v 0.3 0.6 -0.45 1 1 1
v -0.3 0.6 -0.55 1 1 1
v -0.3 0.6 -0.45 1 1 1
v 2.887646E-15 0.8 -0.35 1 1 1
v 2.887646E-15 0.8 -0.45 1 1 1
v -0.212132 0.887868 -0.35 1 1 1
v -0.212132 0.887868 -0.45 1 1 1
v 0.212132 1.312132 -0.45 1 1 1
v 0.212132 1.312132 -0.35 1 1 1
v 2.887646E-15 1.4 -0.45 1 1 1
v 2.887646E-15 1.4 -0.35 1 1 1
v 0.212132 0.887868 -0.35 1 1 1
v 0.3 1.1 -0.35 1 1 1
v -0.3 1.1 -0.35 1 1 1
v -0.212132 1.312132 -0.35 1 1 1
v -0.3 1.1 -0.45 1 1 1
v -0.212132 1.312132 -0.45 1 1 1
v 0.212132 0.887868 -0.45 1 1 1
v 0.3 1.1 -0.45 1 1 1
v 0.05 1.127987E-17 -0.45 1 1 1
v 0.05 1.127987E-17 -0.55 1 1 1
v -0.05 1.127987E-17 -0.45 1 1 1
v -0.05 1.127987E-17 -0.55 1 1 1
v -0.05 0.5 -0.55 1 1 1
v 0.05 0.5 -0.55 1 1 1
v 0.05 0.5 -0.45 1 1 1
v -0.05 0.5 -0.45 1 1 1
v 0.5 0.9 -0.5 1 1 1
v 0.5 0.7 -0.5 1 1 1
v 0.5 1.2 -0.35 1 1 1
v 0.5 0.7 0.5 1 1 1
v 0.5 1.2 -0.15 1 1 1
v 0.5 0.9 0.5 1 1 1
v -0.5 0.7 -0.5 1 1 1
v -0.5 0.9 -0.5 1 1 1
v -0.5 0.7 0.5 1 1 1
v -0.5 1.2 -0.35 1 1 1
v -0.5 1.2 -0.15 1 1 1
v -0.5 0.9 0.5 1 1 1
v 0.5 0.2 0.45 1 1 1
v 0.5 0 0.45 1 1 1
v 0.45 0.2 0.5 1 1 1
v 0.45 0 0.5 1 1 1
v -0.5 0 -0.45 1 1 1
v -0.5 0.2 -0.45 1 1 1
v -0.5 0 0.45 1 1 1
v -0.5 0.2 0.45 1 1 1
v 0.5 0.2 -0.45 1 1 1
v 0.5 0 -0.45 1 1 1
v -0.45 0 0.5 1 1 1
v -0.45 0.2 0.5 1 1 1
v 0.3 0 -0.5 1 1 1
v 0.45 0 -0.5 1 1 1
v 0.3 0.2 -0.5 1 1 1
v 0.45 0.2 -0.5 1 1 1
v 0.3 0 -0.45 1 1 1
v -0.3 0 -0.45 1 1 1
v -0.3 0 -0.5 1 1 1
v -0.45 0 -0.5 1 1 1
v -0.45 0.2 -0.5 1 1 1
v -0.3 0.2 -0.5 1 1 1
v -0.3 0.2 -0.45 1 1 1
v 0.3 0.2 -0.45 1 1 1
v -0.3 1.1 -0.55 1 1 1
v -0.212132 1.312132 -0.55 1 1 1
v -0.3 1.1 -0.45 1 1 1
v 2.887646E-15 1.4 -0.55 1 1 1
v 0.3 1.1 -0.55 1 1 1
v 0.3 1.1 -0.45 1 1 1
v 0.212132 1.312132 -0.55 1 1 1
v 0.212132 0.887868 -0.45 1 1 1
v 0.212132 0.887868 -0.55 1 1 1
v 2.887646E-15 0.8 -0.55 1 1 1
v -0.212132 0.887868 -0.55 1 1 1
v -0.212132 0.887868 -0.45 1 1 1
v 0.12 1.24 -0.5599999 1 1 1
v 0.04 1.24 -0.5599999 1 1 1
v 0.12 1.16 -0.5599999 1 1 1
v 0.04 1.16 -0.5599999 1 1 1
v 0.15 1.16 -0.5599999 1 1 1
v 0.01 1.16 -0.5599999 1 1 1
v 0.15 1.04 -0.5599999 1 1 1
v 0.13 1.04 -0.5599999 1 1 1
v 0.09 1.04 -0.5599999 1 1 1
v 0.13 0.96 -0.5599999 1 1 1
v 0.09 0.96 -0.5599999 1 1 1
v 0.07 1.04 -0.5599999 1 1 1
v 0.03 1.04 -0.5599999 1 1 1
v 0.01 1.04 -0.5599999 1 1 1
v 0.07 0.96 -0.5599999 1 1 1
v 0.03 0.96 -0.5599999 1 1 1
v -0.04 1.24 -0.5599999 1 1 1
v -0.12 1.24 -0.5599999 1 1 1
v -0.04 1.16 -0.5599999 1 1 1
v -0.12 1.16 -0.5599999 1 1 1
v -0.01 1.16 -0.5599999 1 1 1
v -0.02 1.16 -0.5599999 1 1 1
v -0.15 1.16 -0.5599999 1 1 1
v -0.15 1.13 -0.5599999 1 1 1
v -0.01 1.13 -0.5599999 1 1 1
v -0.02875 1.07 -0.5599999 1 1 1
v -0.13125 1.07 -0.5599999 1 1 1
v -0.01 1.02 -0.5599999 1 1 1
v -0.15 1.02 -0.5599999 1 1 1
v -0.01 1 -0.5599999 1 1 1
v -0.03 1 -0.5599999 1 1 1
v -0.07 1 -0.5599999 1 1 1
v -0.03 0.96 -0.5599999 1 1 1
v -0.07 0.96 -0.5599999 1 1 1
v -0.09 1 -0.5599999 1 1 1
v -0.13 1 -0.5599999 1 1 1
v -0.15 1 -0.5599999 1 1 1
v -0.09 0.96 -0.5599999 1 1 1
v -0.13 0.96 -0.5599999 1 1 1
v -0.5 0.317507 -0.2688408 1 1 1
v -0.5 0.469507 -0.2688408 1 1 1
v -0.5 0.317507 -0.0408408 1 1 1
v -0.5 0.469507 -0.0408408 1 1 1
v -0.45 0.317507 -0.0408408 1 1 1
v -0.45 0.469507 -0.0408408 1 1 1
v -0.45 0.469507 -0.2688408 1 1 1
v -0.45 0.317507 -0.2688408 1 1 1
v -0.5 0.5279625 -0.01866489 1 1 1
v -0.5 0.6039625 -0.01866489 1 1 1
v -0.5 0.5279625 0.09533511 1 1 1
v -0.5 0.6039625 0.09533511 1 1 1
v -0.45 0.5279625 0.09533511 1 1 1
v -0.45 0.6039625 0.09533511 1 1 1
v -0.45 0.6039625 -0.01866489 1 1 1
v -0.45 0.5279625 -0.01866489 1 1 1
v -0.45 0.2 -0.45 1 1 1
v -0.45 0.7 -0.45 1 1 1
v -0.45 0.2 0.45 1 1 1
v -0.45 0.7 0.45 1 1 1
v 0.45 0.7 -0.45 1 1 1
v 0.45 0.2 -0.45 1 1 1
v 0.45 0.7 0.45 1 1 1
v 0.45 0.2 0.45 1 1 1
v -0.25 5.639933E-18 -0.5 1 1 1
v 0.25 5.639933E-18 -0.5 1 1 1
v -0.25 0.5 -0.5 1 1 1
v 0.25 0.5 -0.5 1 1 1

vn 0 -1 0
vn 0.9238795 0.3826834 0
vn 1 0 0
vn -1 0 0
vn -0.9238795 0.3826834 0
vn 0.3826834 0.9238795 0
vn -0.3826834 0.9238795 0
vn 0 0 -1
vn -0.7071068 -0.7071068 0
vn 0.7071068 0.7071068 0
vn 0 1 0
vn 0 0 1
vn -0.7071068 0.7071068 0
vn 0.7071068 -0.7071068 0
vn 0.9238795 0 0.3826834
vn 0.3826834 0 0.9238795
vn -0.9238795 0 -0.3826834
vn -0.9238795 0 0.3826834
vn 0.9238795 0 -0.3826834
vn -0.3826834 0 0.9238795
vn 0.3826834 0 -0.9238795
vn -0.3826834 0 -0.9238795
vn 0 0.2297529 -0.973249
vn 0 0.5389535 0.8423355
vn 0 0.4472136 -0.8944272
vn 0 0.9079594 0.4190582
vn -0.6050833 1.667812E-17 -0.7961622
vn -0.6050833 1.667812E-17 0.7961622
vn 2.756335E-17 1 0
vn -2.756335E-17 -1 0
vn -0.6050833 1.667813E-17 -0.7961622
vn -0.6050833 1.667812E-17 0.7961622
vn 1.490119E-08 -1.916725E-24 1
vn 2.756335E-17 1 1.505998E-24
vn -1.490119E-08 1.916725E-24 -1
vn -2.756335E-17 -1 -1.505998E-24

vt 0.46875 0.025
vt 0.46875 0.2083333
vt 0.46875 0.1916666
vt 0.46875 0.225
vt 0.46875 0.05428932
vt 0.46875 0.1957107
vt 0.46875 0.125
vt 0.46875 0.115
vt 0.46875 0.075
vt 0.46875 0.175
vt 0.71875 0.225
vt 0.71875 0.025
vt 0.71875 0.075
vt 0.71875 0.115
vt 0.71875 0.175
vt 0.21875 0.375
vt 0.21875 0.4457107
vt 0.21875 0.475
vt 0.21875 0.3042893
vt 0.21875 0.275
vt 0.59375 0.225
vt 0.59375 0.1678571
vt 0.59375 0.08214285
vt 0.59375 0.025
vt 0.59375 0.1464286
vt 0.59375 0.1035714
vt 0.59375 0.06785714
vt 0.59375 0.05357143
vt 0.90625 0.125
vt 0.96875 0.225
vt 0.96875 0.125
vt 0.34375 0.225
vt 0.34375 0.025

usemtl colormap

f 3/1/1 2/1/1 1/1/1
f 2/1/1 3/1/1 4/1/1
f 6/2/2 2/1/3 5/2/2
f 2/1/3 6/2/2 1/1/3
f 3/1/4 7/3/4 4/1/4
f 7/3/4 3/1/4 8/3/4
f 8/3/1 9/3/1 7/3/1
f 9/3/1 8/3/1 10/3/1
f 13/1/1 12/1/1 11/1/1
f 12/1/1 13/1/1 14/1/1
f 10/3/3 12/1/3 9/3/3
f 12/1/3 10/3/3 11/1/3
f 13/1/4 15/2/5 14/1/4
f 15/2/5 13/1/4 16/2/5
f 19/4/7 18/4/6 17/4/6
f 18/4/6 19/4/7 20/4/7
f 15/2/5 20/4/7 19/4/7
f 20/4/7 15/2/5 16/2/5
f 18/4/6 5/2/2 17/4/6
f 5/2/2 18/4/6 6/2/2
f 15/2/8 12/1/8 14/1/8
f 12/1/8 15/2/8 9/3/8
f 5/2/8 9/3/8 15/2/8
f 5/2/8 15/2/8 19/4/8
f 5/2/8 19/4/8 17/4/8
f 5/2/8 7/3/8 9/3/8
f 2/1/8 7/3/8 5/2/8
f 7/3/8 2/1/8 4/1/8
f 23/5/9 22/1/1 21/1/1
f 22/1/1 23/5/9 24/5/9
f 27/4/11 26/6/10 25/6/10
f 26/6/10 27/4/11 28/4/11
f 29/5/12 23/5/12 21/1/12
f 23/5/12 29/5/12 30/7/12
f 23/5/12 30/7/12 31/7/12
f 31/7/12 30/7/12 26/6/12
f 31/7/12 26/6/12 32/6/12
f 32/6/12 26/6/12 28/4/12
f 23/5/9 33/7/4 24/5/9
f 33/7/4 23/5/9 31/7/4
f 31/7/4 34/6/13 33/7/4
f 34/6/13 31/7/4 32/6/13
f 21/1/1 35/5/14 29/5/14
f 35/5/14 21/1/1 22/1/1
f 34/6/13 28/4/11 27/4/11
f 28/4/11 34/6/13 32/6/13
f 36/7/3 29/5/14 35/5/14
f 29/5/14 36/7/3 30/7/3
f 25/6/10 30/7/3 36/7/3
f 30/7/3 25/6/10 26/6/10
f 39/4/1 38/4/1 37/4/1
f 38/4/1 39/4/1 40/4/1
f 41/1/8 38/4/8 40/4/8
f 38/4/8 41/1/8 42/1/8
f 43/1/3 38/4/3 42/1/3
f 38/4/3 43/1/3 37/4/3
f 43/1/12 39/4/12 37/4/12
f 39/4/12 43/1/12 44/1/12
f 39/4/4 41/1/4 40/4/4
f 41/1/4 39/4/4 44/1/4
f 47/10/3 46/9/3 45/8/3
f 46/9/3 47/10/3 48/9/3
f 48/9/3 47/10/3 49/10/3
f 48/9/3 49/10/3 50/8/3
f 53/9/4 52/8/4 51/9/4
f 52/8/4 53/9/4 54/10/4
f 54/10/4 53/9/4 55/10/4
f 55/10/4 53/9/4 56/8/4
f 53/9/1 46/9/1 48/9/1
f 46/9/1 53/9/1 51/9/1
f 59/11/16 58/12/15 57/11/15
f 58/12/15 59/11/16 60/12/16
f 63/12/18 62/11/17 61/12/17
f 62/11/17 63/12/18 64/11/18
f 57/11/15 66/12/19 65/11/19
f 66/12/19 57/11/15 58/12/15
f 59/11/16 67/12/20 60/12/16
f 67/12/20 59/11/16 68/11/20
f 71/11/8 70/12/21 69/12/8
f 70/12/21 71/11/8 72/11/21
f 60/12/1 66/12/1 58/12/1
f 66/12/1 60/12/1 70/12/1
f 70/12/1 60/12/1 67/12/1
f 70/12/1 67/12/1 73/12/1
f 69/12/1 70/12/1 73/12/1
f 73/12/1 67/12/1 74/12/1
f 74/12/1 67/12/1 75/12/1
f 75/12/1 67/12/1 76/12/1
f 76/12/1 67/12/1 63/12/1
f 76/12/1 63/12/1 61/12/1
f 61/12/17 77/11/22 76/12/22
f 77/11/22 61/12/17 62/11/17
f 67/12/20 64/11/18 63/12/18
f 64/11/18 67/12/20 68/11/20
f 65/11/19 70/12/21 72/11/21
f 70/12/21 65/11/19 66/12/19
f 79/11/3 75/12/3 78/11/3
f 75/12/3 79/11/3 74/12/3
f 73/12/4 71/11/4 69/12/4
f 71/11/4 73/12/4 80/11/4
f 77/11/22 75/12/8 76/12/22
f 75/12/8 77/11/22 78/11/8
f 77/11/11 79/11/11 78/11/11
f 68/11/11 79/11/11 77/11/11
f 68/11/11 77/11/11 62/11/11
f 68/11/11 62/11/11 64/11/11
f 68/11/11 80/11/11 79/11/11
f 59/11/11 80/11/11 68/11/11
f 59/11/11 71/11/11 80/11/11
f 59/11/11 72/11/11 71/11/11
f 57/11/11 72/11/11 59/11/11
f 72/11/11 57/11/11 65/11/11
f 79/11/8 73/12/8 74/12/8
f 73/12/8 79/11/8 80/11/8
f 52/14/23 46/13/8 51/13/8
f 46/13/8 52/14/23 45/14/23
f 50/14/24 53/13/12 48/13/12
f 53/13/12 50/14/24 56/14/24
f 54/15/11 49/15/11 47/15/11
f 49/15/11 54/15/11 55/15/11
f 54/15/25 45/14/23 52/14/23
f 45/14/23 54/15/25 47/15/25
f 55/15/26 50/14/24 49/15/26
f 50/14/24 55/15/26 56/14/24
f 83/16/4 82/17/13 81/16/4
f 82/17/13 83/16/4 34/17/13
f 82/17/13 27/18/11 84/18/11
f 27/18/11 82/17/13 34/17/13
f 87/17/10 86/16/3 85/16/3
f 86/16/3 87/17/10 25/17/10
f 22/20/1 89/19/14 88/19/14
f 89/19/14 22/20/1 90/20/1
f 92/19/9 81/16/4 91/19/9
f 81/16/4 92/19/9 83/16/4
f 85/16/3 88/19/14 89/19/14
f 88/19/14 85/16/3 86/16/3
f 84/18/11 25/17/10 87/17/10
f 25/17/10 84/18/11 27/18/11
f 92/19/9 90/20/1 22/20/1
f 90/20/1 92/19/9 91/19/9
f 91/19/8 89/19/8 90/20/8
f 89/19/8 91/19/8 81/16/8
f 89/19/8 81/16/8 85/16/8
f 85/16/8 81/16/8 82/17/8
f 85/16/8 82/17/8 87/17/8
f 87/17/8 82/17/8 84/18/8
f 95/22/8 94/21/8 93/21/8
f 94/21/8 95/22/8 96/22/8
f 97/22/8 96/22/8 95/22/8
f 97/22/8 98/22/8 96/22/8
f 99/23/8 98/22/8 97/22/8
f 100/23/8 98/22/8 99/23/8
f 101/23/8 98/22/8 100/23/8
f 102/24/8 101/23/8 100/23/8
f 101/23/8 102/24/8 103/24/8
f 104/23/8 98/22/8 101/23/8
f 105/23/8 98/22/8 104/23/8
f 98/22/8 105/23/8 106/23/8
f 107/24/8 105/23/8 104/23/8
f 105/23/8 107/24/8 108/24/8
f 111/22/8 110/21/8 109/21/8
f 110/21/8 111/22/8 112/22/8
f 113/22/8 112/22/8 111/22/8
f 113/22/8 111/22/8 114/22/8
f 113/22/8 115/22/8 112/22/8
f 113/22/8 116/25/8 115/22/8
f 117/25/8 116/25/8 113/22/8
f 118/26/8 116/25/8 117/25/8
f 118/26/8 119/26/8 116/25/8
f 120/27/8 119/26/8 118/26/8
f 120/27/8 121/27/8 119/26/8
f 122/28/8 121/27/8 120/27/8
f 123/28/8 121/27/8 122/28/8
f 124/28/8 121/27/8 123/28/8
f 125/24/8 124/28/8 123/28/8
f 124/28/8 125/24/8 126/24/8
f 127/28/8 121/27/8 124/28/8
f 128/28/8 121/27/8 127/28/8
f 121/27/8 128/28/8 129/28/8
f 130/24/8 128/28/8 127/28/8
f 128/28/8 130/24/8 131/24/8
f 134/29/28 133/29/27 132/29/27
f 133/29/27 134/29/28 135/29/28
f 136/29/12 135/29/28 134/29/28
f 135/29/28 136/29/12 137/29/12
f 133/29/29 137/29/29 138/29/29
f 137/29/29 133/29/29 135/29/29
f 133/29/27 139/29/8 132/29/27
f 139/29/8 133/29/27 138/29/8
f 134/29/30 139/29/30 136/29/30
f 139/29/30 134/29/30 132/29/30
f 142/29/32 141/29/31 140/29/31
f 141/29/31 142/29/32 143/29/32
f 144/29/33 143/29/32 142/29/32
f 143/29/32 144/29/33 145/29/33
f 141/29/34 145/29/34 146/29/34
f 145/29/34 141/29/34 143/29/34
f 141/29/31 147/29/35 140/29/31
f 147/29/35 141/29/31 146/29/35
f 142/29/36 147/29/36 144/29/36
f 147/29/36 142/29/36 140/29/36
f 150/30/4 149/31/4 148/30/4
f 149/31/4 150/30/4 151/31/4
f 154/31/3 153/30/3 152/31/3
f 153/30/3 154/31/3 155/30/3
f 154/31/12 150/30/12 155/30/12
f 150/30/12 154/31/12 151/31/12
f 149/31/8 153/30/8 148/30/8
f 153/30/8 149/31/8 152/31/8
f 158/33/8 157/32/8 156/32/8
f 157/32/8 158/33/8 159/33/8

g stall-toilets




usemtl colormap

f 3/1/1 2/1/1 1/1/1
f 2/1/1 3/1/1 4/1/1
f 6/2/2 2/1/3 5/2/2
f 2/1/3 6/2/2 1/1/3
f 3/1/4 7/3/4 4/1/4
f 7/3/4 3/1/4 8/3/4
f 8/3/1 9/3/1 7/3/1
f 9/3/1 8/3/1 10/3/1
f 13/1/1 12/1/1 11/1/1
f 12/1/1 13/1/1 14/1/1
f 10/3/3 12/1/3 9/3/3
f 12/1/3 10/3/3 11/1/3
f 13/1/4 15/2/5 14/1/4
f 15/2/5 13/1/4 16/2/5
f 19/4/7 18/4/6 17/4/6
f 18/4/6 19/4/7 20/4/7
f 15/2/5 20/4/7 19/4/7
f 20/4/7 15/2/5 16/2/5
f 18/4/6 5/2/2 17/4/6
f 5/2/2 18/4/6 6/2/2
f 15/2/8 12/1/8 14/1/8
f 12/1/8 15/2/8 9/3/8
f 5/2/8 9/3/8 15/2/8
f 5/2/8 15/2/8 19/4/8
f 5/2/8 19/4/8 17/4/8
f 5/2/8 7/3/8 9/3/8
f 2/1/8 7/3/8 5/2/8
f 7/3/8 2/1/8 4/1/8
f 23/5/9 22/1/1 21/1/1
f 22/1/1 23/5/9 24/5/9
f 27/4/11 26/6/10 25/6/10
f 26/6/10 27/4/11 28/4/11
f 29/5/12 23/5/12 21/1/12
f 23/5/12 29/5/12 30/7/12
f 23/5/12 30/7/12 31/7/12
f 31/7/12 30/7/12 26/6/12
f 31/7/12 26/6/12 32/6/12
f 32/6/12 26/6/12 28/4/12
f 23/5/9 33/7/4 24/5/9
f 33/7/4 23/5/9 31/7/4
f 31/7/4 34/6/13 33/7/4
f 34/6/13 31/7/4 32/6/13
f 21/1/1 35/5/14 29/5/14
f 35/5/14 21/1/1 22/1/1
f 34/6/13 28/4/11 27/4/11
f 28/4/11 34/6/13 32/6/13
f 36/7/3 29/5/14 35/5/14
f 29/5/14 36/7/3 30/7/3
f 25/6/10 30/7/3 36/7/3
f 30/7/3 25/6/10 26/6/10
f 39/4/1 38/4/1 37/4/1
f 38/4/1 39/4/1 40/4/1
f 41/1/8 38/4/8 40/4/8
f 38/4/8 41/1/8 42/1/8
f 43/1/3 38/4/3 42/1/3
f 38/4/3 43/1/3 37/4/3
f 43/1/12 39/4/12 37/4/12
f 39/4/12 43/1/12 44/1/12
f 39/4/4 41/1/4 40/4/4
f 41/1/4 39/4/4 44/1/4
f 47/10/3 46/9/3 45/8/3
f 46/9/3 47/10/3 48/9/3
f 48/9/3 47/10/3 49/10/3
f 48/9/3 49/10/3 50/8/3
f 53/9/4 52/8/4 51/9/4
f 52/8/4 53/9/4 54/10/4
f 54/10/4 53/9/4 55/10/4
f 55/10/4 53/9/4 56/8/4
f 53/9/1 46/9/1 48/9/1
f 46/9/1 53/9/1 51/9/1
f 59/11/16 58/12/15 57/11/15
f 58/12/15 59/11/16 60/12/16
f 63/12/18 62/11/17 61/12/17
f 62/11/17 63/12/18 64/11/18
f 57/11/15 66/12/19 65/11/19
f 66/12/19 57/11/15 58/12/15
f 59/11/16 67/12/20 60/12/16
f 67/12/20 59/11/16 68/11/20
f 71/11/8 70/12/21 69/12/8
f 70/12/21 71/11/8 72/11/21
f 60/12/1 66/12/1 58/12/1
f 66/12/1 60/12/1 70/12/1
f 70/12/1 60/12/1 67/12/1
f 70/12/1 67/12/1 73/12/1
f 69/12/1 70/12/1 73/12/1
f 73/12/1 67/12/1 74/12/1
f 74/12/1 67/12/1 75/12/1
f 75/12/1 67/12/1 76/12/1
f 76/12/1 67/12/1 63/12/1
f 76/12/1 63/12/1 61/12/1
f 61/12/17 77/11/22 76/12/22
f 77/11/22 61/12/17 62/11/17
f 67/12/20 64/11/18 63/12/18
f 64/11/18 67/12/20 68/11/20
f 65/11/19 70/12/21 72/11/21
f 70/12/21 65/11/19 66/12/19
f 79/11/3 75/12/3 78/11/3
f 75/12/3 79/11/3 74/12/3
f 73/12/4 71/11/4 69/12/4
f 71/11/4 73/12/4 80/11/4
f 77/11/22 75/12/8 76/12/22
f 75/12/8 77/11/22 78/11/8
f 77/11/11 79/11/11 78/11/11
f 68/11/11 79/11/11 77/11/11
f 68/11/11 77/11/11 62/11/11
f 68/11/11 62/11/11 64/11/11
f 68/11/11 80/11/11 79/11/11
f 59/11/11 80/11/11 68/11/11
f 59/11/11 71/11/11 80/11/11
f 59/11/11 72/11/11 71/11/11
f 57/11/11 72/11/11 59/11/11
f 72/11/11 57/11/11 65/11/11
f 79/11/8 73/12/8 74/12/8
f 73/12/8 79/11/8 80/11/8
f 52/14/23 46/13/8 51/13/8
f 46/13/8 52/14/23 45/14/23
f 50/14/24 53/13/12 48/13/12
f 53/13/12 50/14/24 56/14/24
f 54/15/11 49/15/11 47/15/11
f 49/15/11 54/15/11 55/15/11
f 54/15/25 45/14/23 52/14/23
f 45/14/23 54/15/25 47/15/25
f 55/15/26 50/14/24 49/15/26
f 50/14/24 55/15/26 56/14/24
f 83/16/4 82/17/13 81/16/4
f 82/17/13 83/16/4 34/17/13
f 82/17/13 27/18/11 84/18/11
f 27/18/11 82/17/13 34/17/13
f 87/17/10 86/16/3 85/16/3
f 86/16/3 87/17/10 25/17/10
f 22/20/1 89/19/14 88/19/14
f 89/19/14 22/20/1 90/20/1
f 92/19/9 81/16/4 91/19/9
f 81/16/4 92/19/9 83/16/4
f 85/16/3 88/19/14 89/19/14
f 88/19/14 85/16/3 86/16/3
f 84/18/11 25/17/10 87/17/10
f 25/17/10 84/18/11 27/18/11
f 92/19/9 90/20/1 22/20/1
f 90/20/1 92/19/9 91/19/9
f 91/19/8 89/19/8 90/20/8
f 89/19/8 91/19/8 81/16/8
f 89/19/8 81/16/8 85/16/8
f 85/16/8 81/16/8 82/17/8
f 85/16/8 82/17/8 87/17/8
f 87/17/8 82/17/8 84/18/8
f 95/22/8 94/21/8 93/21/8
f 94/21/8 95/22/8 96/22/8
f 97/22/8 96/22/8 95/22/8
f 97/22/8 98/22/8 96/22/8
f 99/23/8 98/22/8 97/22/8
f 100/23/8 98/22/8 99/23/8
f 101/23/8 98/22/8 100/23/8
f 102/24/8 101/23/8 100/23/8
f 101/23/8 102/24/8 103/24/8
f 104/23/8 98/22/8 101/23/8
f 105/23/8 98/22/8 104/23/8
f 98/22/8 105/23/8 106/23/8
f 107/24/8 105/23/8 104/23/8
f 105/23/8 107/24/8 108/24/8
f 111/22/8 110/21/8 109/21/8
f 110/21/8 111/22/8 112/22/8
f 113/22/8 112/22/8 111/22/8
f 113/22/8 111/22/8 114/22/8
f 113/22/8 115/22/8 112/22/8
f 113/22/8 116/25/8 115/22/8
f 117/25/8 116/25/8 113/22/8
f 118/26/8 116/25/8 117/25/8
f 118/26/8 119/26/8 116/25/8
f 120/27/8 119/26/8 118/26/8
f 120/27/8 121/27/8 119/26/8
f 122/28/8 121/27/8 120/27/8
f 123/28/8 121/27/8 122/28/8
f 124/28/8 121/27/8 123/28/8
f 125/24/8 124/28/8 123/28/8
f 124/28/8 125/24/8 126/24/8
f 127/28/8 121/27/8 124/28/8
f 128/28/8 121/27/8 127/28/8
f 121/27/8 128/28/8 129/28/8
f 130/24/8 128/28/8 127/28/8
f 128/28/8 130/24/8 131/24/8
f 134/29/28 133/29/27 132/29/27
f 133/29/27 134/29/28 135/29/28
f 136/29/12 135/29/28 134/29/28
f 135/29/28 136/29/12 137/29/12
f 133/29/29 137/29/29 138/29/29
f 137/29/29 133/29/29 135/29/29
f 133/29/27 139/29/8 132/29/27
f 139/29/8 133/29/27 138/29/8
f 134/29/30 139/29/30 136/29/30
f 139/29/30 134/29/30 132/29/30
f 142/29/32 141/29/31 140/29/31
f 141/29/31 142/29/32 143/29/32
f 144/29/33 143/29/32 142/29/32
f 143/29/32 144/29/33 145/29/33
f 141/29/34 145/29/34 146/29/34
f 145/29/34 141/29/34 143/29/34
f 141/29/31 147/29/35 140/29/31
f 147/29/35 141/29/31 146/29/35
f 142/29/36 147/29/36 144/29/36
f 147/29/36 142/29/36 140/29/36
f 150/30/4 149/31/4 148/30/4
f 149/31/4 150/30/4 151/31/4
f 154/31/3 153/30/3 152/31/3
f 153/30/3 154/31/3 155/30/3
f 154/31/12 150/30/12 155/30/12
f 150/30/12 154/31/12 151/31/12
f 149/31/8 153/30/8 148/30/8
f 153/30/8 149/31/8 152/31/8
f 158/33/8 157/32/8 156/32/8
f 157/32/8 158/33/8 159/33/8

