# Created by Kenney (www.kenney.nl)

mtllib support-small-horizontal-ring.mtl

g support-small-horizontal-ring

v 0.1078654 0.1078654 -0.5 1 1 1
v 0.07627238 0.03159306 -0.5 1 1 1
v 0.1078654 0.1078654 0.5 1 1 1
v 0.07627238 0.03159306 0.5 1 1 1
v 0.07627238 0.1841378 -0.5 1 1 1
v 0.07627238 0.1841378 0.5 1 1 1
v 3.609557E-16 0.2157309 -0.5 1 1 1
v 3.609557E-16 0.2157309 0.5 1 1 1
v -0.07627238 0.1841378 -0.5 1 1 1
v -0.07627238 0.1841378 0.5 1 1 1
v -0.1078654 0.1078654 -0.5 1 1 1
v -0.1078654 0.1078654 0.5 1 1 1
v -0.07627238 0.03159306 -0.5 1 1 1
v -0.07627238 0.03159306 0.5 1 1 1
v 3.609557E-16 7.547922E-14 0.5 1 1 1
v 3.609557E-16 0 -0.5 1 1 1
v -7.219114E-16 -0.02696636 0.0515625 1 1 1
v -7.219114E-16 -0.02696636 -0.0515625 1 1 1
v -0.09534048 0.01252496 0.0515625 1 1 1
v -0.09534048 0.01252496 -0.0515625 1 1 1
v 0.09534048 0.2032059 -0.0515625 1 1 1
v 0.1348318 0.1078654 -0.0515625 1 1 1
v 0.09534048 0.2032059 0.0515625 1 1 1
v 0.1348318 0.1078654 0.0515625 1 1 1
v -7.219114E-16 0.2426972 -0.0515625 1 1 1
v -7.219114E-16 0.2426972 0.0515625 1 1 1
v -0.09534048 0.2032059 -0.0515625 1 1 1
v -0.09534048 0.2032059 0.0515625 1 1 1
v 0.09534048 0.01252496 0.0515625 1 1 1
v 0.09534048 0.01252496 -0.0515625 1 1 1
v -0.1348318 0.1078654 -0.0515625 1 1 1
v -0.1348318 0.1078654 0.0515625 1 1 1

vn 1 0 0
vn 0.7071068 -0.7071068 0
vn 0.7071068 0.7071068 0
vn 0 1 0
vn -0.7071068 0.7071068 0
vn -1 0 0
vn -0.7071068 -0.7071068 0
vn 0 -1 0
vn 0 0 1
vn 0 0 -1

vt 0.53125 0.375
vt 0.59375 0.325
vt 0.59375 0.3396447
vt 0.59375 0.4103553
vt 0.59375 0.375
vt 0.59375 0.425

usemtl colormap

f 3/1/1 2/1/2 1/1/1
f 2/1/2 3/1/1 4/1/2
f 6/1/3 1/1/1 5/1/3
f 1/1/1 6/1/3 3/1/1
f 7/1/4 6/1/3 5/1/3
f 6/1/3 7/1/4 8/1/4
f 9/1/5 8/1/4 7/1/4
f 8/1/4 9/1/5 10/1/5
f 13/1/7 12/1/6 11/1/6
f 12/1/6 13/1/7 14/1/7
f 11/1/6 10/1/5 9/1/5
f 10/1/5 11/1/6 12/1/6
f 14/1/7 16/1/8 15/1/8
f 16/1/8 14/1/7 13/1/7
f 4/1/9 14/1/9 15/1/9
f 14/1/9 4/1/9 3/1/9
f 14/1/9 3/1/9 12/1/9
f 12/1/9 3/1/9 6/1/9
f 12/1/9 6/1/9 10/1/9
f 10/1/9 6/1/9 8/1/9
f 15/1/8 2/1/2 4/1/2
f 2/1/2 15/1/8 16/1/8
f 13/1/10 2/1/10 16/1/10
f 2/1/10 13/1/10 11/1/10
f 2/1/10 11/1/10 1/1/10
f 1/1/10 11/1/10 9/1/10
f 1/1/10 9/1/10 5/1/10
f 5/1/10 9/1/10 7/1/10
f 19/3/7 18/2/8 17/2/8
f 18/2/8 19/3/7 20/3/7
f 23/4/3 22/5/1 21/4/3
f 22/5/1 23/4/3 24/5/1
f 27/4/5 26/6/4 25/6/4
f 26/6/4 27/4/5 28/4/5
f 25/6/4 23/4/3 21/4/3
f 23/4/3 25/6/4 26/6/4
f 17/2/8 30/3/2 29/3/2
f 30/3/2 17/2/8 18/2/8
f 20/3/7 32/5/6 31/5/6
f 32/5/6 20/3/7 19/3/7
f 24/5/1 30/3/2 22/5/1
f 30/3/2 24/5/1 29/3/2
f 31/5/6 28/4/5 27/4/5
f 28/4/5 31/5/6 32/5/6
f 29/3/9 19/3/9 17/2/9
f 19/3/9 29/3/9 24/5/9
f 19/3/9 24/5/9 32/5/9
f 32/5/9 24/5/9 23/4/9
f 32/5/9 23/4/9 28/4/9
f 28/4/9 23/4/9 26/6/9
f 20/3/10 30/3/10 18/2/10
f 30/3/10 20/3/10 31/5/10
f 30/3/10 31/5/10 22/5/10
f 22/5/10 31/5/10 27/4/10
f 22/5/10 27/4/10 21/4/10
f 21/4/10 27/4/10 25/6/10

g support-small-horizontal-ring




usemtl colormap

f 3/1/1 2/1/2 1/1/1
f 2/1/2 3/1/1 4/1/2
f 6/1/3 1/1/1 5/1/3
f 1/1/1 6/1/3 3/1/1
f 7/1/4 6/1/3 5/1/3
f 6/1/3 7/1/4 8/1/4
f 9/1/5 8/1/4 7/1/4
f 8/1/4 9/1/5 10/1/5
f 13/1/7 12/1/6 11/1/6
f 12/1/6 13/1/7 14/1/7
f 11/1/6 10/1/5 9/1/5
f 10/1/5 11/1/6 12/1/6
f 14/1/7 16/1/8 15/1/8
f 16/1/8 14/1/7 13/1/7
f 4/1/9 14/1/9 15/1/9
f 14/1/9 4/1/9 3/1/9
f 14/1/9 3/1/9 12/1/9
f 12/1/9 3/1/9 6/1/9
f 12/1/9 6/1/9 10/1/9
f 10/1/9 6/1/9 8/1/9
f 15/1/8 2/1/2 4/1/2
f 2/1/2 15/1/8 16/1/8
f 13/1/10 2/1/10 16/1/10
f 2/1/10 13/1/10 11/1/10
f 2/1/10 11/1/10 1/1/10
f 1/1/10 11/1/10 9/1/10
f 1/1/10 9/1/10 5/1/10
f 5/1/10 9/1/10 7/1/10
f 19/3/7 18/2/8 17/2/8
f 18/2/8 19/3/7 20/3/7
f 23/4/3 22/5/1 21/4/3
f 22/5/1 23/4/3 24/5/1
f 27/4/5 26/6/4 25/6/4
f 26/6/4 27/4/5 28/4/5
f 25/6/4 23/4/3 21/4/3
f 23/4/3 25/6/4 26/6/4
f 17/2/8 30/3/2 29/3/2
f 30/3/2 17/2/8 18/2/8
f 20/3/7 32/5/6 31/5/6
f 32/5/6 20/3/7 19/3/7
f 24/5/1 30/3/2 22/5/1
f 30/3/2 24/5/1 29/3/2
f 31/5/6 28/4/5 27/4/5
f 28/4/5 31/5/6 32/5/6
f 29/3/9 19/3/9 17/2/9
f 19/3/9 29/3/9 24/5/9
f 19/3/9 24/5/9 32/5/9
f 32/5/9 24/5/9 23/4/9
f 32/5/9 23/4/9 28/4/9
f 28/4/9 23/4/9 26/6/9
f 20/3/10 30/3/10 18/2/10
f 30/3/10 20/3/10 31/5/10
f 30/3/10 31/5/10 22/5/10
f 22/5/10 31/5/10 27/4/10
f 22/5/10 27/4/10 21/4/10
f 21/4/10 27/4/10 25/6/10

