# Created by Kenney (www.kenney.nl)

mtllib coaster-wood-segment.mtl

g coaster-wood-segment

v -0.5000001 -0.05 0.09999996 1 1 1
v -0.5000001 -0.05 -0.1000001 1 1 1
v -0.5000001 0 0.09999996 1 1 1
v -0.5000001 0 -0.1000001 1 1 1
v 0.5000001 0 0.1000001 1 1 1
v 0.5000001 -0.05 0.1000001 1 1 1
v -1.192093E-08 0 0.1 1 1 1
v -1.192093E-08 -0.05 0.1 1 1 1
v 0.5000001 -0.05 -0.09999996 1 1 1
v 0.5000001 0 -0.09999996 1 1 1
v 1.192093E-08 -0.05 -0.1 1 1 1
v 1.192093E-08 0 -0.1 1 1 1
v 0.4 0 -0.05 1 1 1
v 0.4 0.25 -0.05 1 1 1
v 0.4 0 0.05 1 1 1
v 0.4 0.25 0.05 1 1 1
v 0.45 0 -0.05 1 1 1
v 0.45 0.25 -0.05 1 1 1
v 0.45 0.25 0.05 1 1 1
v 0.45 0 0.05 1 1 1
v -0.45 -4.793943E-17 -0.05 1 1 1
v -0.45 0.25 -0.05 1 1 1
v -0.45 -4.793943E-17 0.05 1 1 1
v -0.45 0.25 0.05 1 1 1
v -0.4 -4.793943E-17 -0.05 1 1 1
v -0.4 0.25 -0.05 1 1 1
v -0.4 0.25 0.05 1 1 1
v -0.4 -4.793943E-17 0.05 1 1 1

vn -1 0 -1.192093E-07
vn -1.192093E-07 0 1
vn 1.192093E-07 0 -1
vn 0 1 0
vn 1 0 1.192093E-07
vn 0 -1 0
vn -1 0 0
vn 0 0 -1
vn 1 0 0
vn 0 0 1

vt 0.71875 0.025
vt 0.71875 0.225

usemtl colormap

f 3/2/1 2/1/1 1/1/1
f 2/1/1 3/2/1 4/2/1
f 7/2/2 6/1/2 5/2/2
f 6/1/2 7/2/2 8/1/2
f 3/2/2 8/1/2 7/2/2
f 8/1/2 3/2/2 1/1/2
f 11/1/3 10/2/3 9/1/3
f 10/2/3 11/1/3 12/2/3
f 2/1/3 12/2/3 11/1/3
f 12/2/3 2/1/3 4/2/3
f 3/2/4 12/2/4 4/2/4
f 12/2/4 3/2/4 7/2/4
f 5/2/4 12/2/4 7/2/4
f 12/2/4 5/2/4 10/2/4
f 10/2/5 6/1/5 9/1/5
f 6/1/5 10/2/5 5/2/5
f 11/1/6 1/1/6 2/1/6
f 1/1/6 11/1/6 8/1/6
f 11/1/6 6/1/6 8/1/6
f 6/1/6 11/1/6 9/1/6
f 15/2/7 14/1/7 13/2/7
f 14/1/7 15/2/7 16/1/7
f 14/1/8 17/2/8 13/2/8
f 17/2/8 14/1/8 18/1/8
f 19/1/9 17/2/9 18/1/9
f 17/2/9 19/1/9 20/2/9
f 19/1/10 15/2/10 20/2/10
f 15/2/10 19/1/10 16/1/10
f 23/2/7 22/1/7 21/2/7
f 22/1/7 23/2/7 24/1/7
f 22/1/8 25/2/8 21/2/8
f 25/2/8 22/1/8 26/1/8
f 27/1/9 25/2/9 26/1/9
f 25/2/9 27/1/9 28/2/9
f 27/1/10 23/2/10 28/2/10
f 23/2/10 27/1/10 24/1/10

g coaster-wood-segment




usemtl colormap

f 3/2/1 2/1/1 1/1/1
f 2/1/1 3/2/1 4/2/1
f 7/2/2 6/1/2 5/2/2
f 6/1/2 7/2/2 8/1/2
f 3/2/2 8/1/2 7/2/2
f 8/1/2 3/2/2 1/1/2
f 11/1/3 10/2/3 9/1/3
f 10/2/3 11/1/3 12/2/3
f 2/1/3 12/2/3 11/1/3
f 12/2/3 2/1/3 4/2/3
f 3/2/4 12/2/4 4/2/4
f 12/2/4 3/2/4 7/2/4
f 5/2/4 12/2/4 7/2/4
f 12/2/4 5/2/4 10/2/4
f 10/2/5 6/1/5 9/1/5
f 6/1/5 10/2/5 5/2/5
f 11/1/6 1/1/6 2/1/6
f 1/1/6 11/1/6 8/1/6
f 11/1/6 6/1/6 8/1/6
f 6/1/6 11/1/6 9/1/6
f 15/2/7 14/1/7 13/2/7
f 14/1/7 15/2/7 16/1/7
f 14/1/8 17/2/8 13/2/8
f 17/2/8 14/1/8 18/1/8
f 19/1/9 17/2/9 18/1/9
f 17/2/9 19/1/9 20/2/9
f 19/1/10 15/2/10 20/2/10
f 15/2/10 19/1/10 16/1/10
f 23/2/7 22/1/7 21/2/7
f 22/1/7 23/2/7 24/1/7
f 22/1/8 25/2/8 21/2/8
f 25/2/8 22/1/8 26/1/8
f 27/1/9 25/2/9 26/1/9
f 25/2/9 27/1/9 28/2/9
f 27/1/10 23/2/10 28/2/10
f 23/2/10 27/1/10 24/1/10

