# Created by Kenney (www.kenney.nl)

mtllib coaster-monorail-track.mtl

g coaster-monorail-track

v -0.1 0 -0.5 1 1 1
v -0.1 0 0 1 1 1
v 0.1 0 -0.5 1 1 1
v 0.1 0 0 1 1 1
v -0.1 0 0.5 1 1 1
v 0.1 0 0.5 1 1 1
v -0.1 0.05 -0.5 1 1 1
v -0.1 0.05 0 1 1 1
v -0.1 0.05 0.5 1 1 1
v 0.1 0.2 -0.5 1 1 1
v 0.1 0.2 0 1 1 1
v -0.1 0.2 -0.5 1 1 1
v -0.1 0.2 0 1 1 1
v 0.1 0.2 0.5 1 1 1
v -0.1 0.2 0.5 1 1 1
v 0.1 0.15 -0.5 1 1 1
v 0.1 0.15 0 1 1 1
v 0.1 0.15 0.5 1 1 1
v -0.075 0.05 -0.5 1 1 1
v -0.075 0.15 -0.5 1 1 1
v -0.075 0.05 0 1 1 1
v -0.075 0.15 0 1 1 1
v -0.075 0.05 0.5 1 1 1
v -0.075 0.15 0.5 1 1 1
v -0.1 0.15 -0.5 1 1 1
v -0.1 0.15 0 1 1 1
v -0.1 0.15 0.5 1 1 1
v 0.075 0.15 -0.5 1 1 1
v 0.075 0.15 0 1 1 1
v 0.075 0.15 0.5 1 1 1
v 0.1 0.05 -0.5 1 1 1
v 0.1 0.05 0 1 1 1
v 0.075 0.05 -0.5 1 1 1
v 0.075 0.05 0 1 1 1
v 0.1 0.05 0.5 1 1 1
v 0.075 0.05 0.5 1 1 1

vn 0 -1 0
vn -1 0 0
vn 0 1 0
vn 1 0 0
vn -0.7071068 0.7071068 0
vn -0.7071068 -0.7071068 0
vn 0.7071068 -0.7071068 0
vn 0.7071068 0.7071068 0

vt 0.46875 0.025
vt 0.46875 0.075
vt 0.46875 0.225
vt 0.46875 0.175

usemtl colormap

f 3/1/1 2/1/1 1/1/1
f 2/1/1 3/1/1 4/1/1
f 4/1/1 5/1/1 2/1/1
f 5/1/1 4/1/1 6/1/1
f 2/1/2 7/2/2 1/1/2
f 7/2/2 2/1/2 8/2/2
f 5/1/2 8/2/2 2/1/2
f 8/2/2 5/1/2 9/2/2
f 12/3/3 11/3/3 10/3/3
f 11/3/3 12/3/3 13/3/3
f 13/3/3 14/3/3 11/3/3
f 14/3/3 13/3/3 15/3/3
f 11/3/4 16/4/4 10/3/4
f 16/4/4 11/3/4 17/4/4
f 14/3/4 17/4/4 11/3/4
f 17/4/4 14/3/4 18/4/4
f 21/2/5 20/4/6 19/2/5
f 20/4/6 21/2/5 22/4/6
f 23/2/5 22/4/6 21/2/5
f 22/4/6 23/2/5 24/4/6
f 26/4/2 12/3/2 25/4/2
f 12/3/2 26/4/2 13/3/2
f 27/4/2 13/3/2 26/4/2
f 13/3/2 27/4/2 15/3/2
f 16/4/1 29/4/7 28/4/7
f 29/4/7 16/4/1 17/4/1
f 17/4/1 30/4/7 29/4/7
f 30/4/7 17/4/1 18/4/1
f 33/2/8 32/2/3 31/2/3
f 32/2/3 33/2/8 34/2/8
f 34/2/8 35/2/3 32/2/3
f 35/2/3 34/2/8 36/2/8
f 29/4/7 33/2/8 28/4/7
f 33/2/8 29/4/7 34/2/8
f 30/4/7 34/2/8 29/4/7
f 34/2/8 30/4/7 36/2/8
f 32/2/4 3/1/4 31/2/4
f 3/1/4 32/2/4 4/1/4
f 35/2/4 4/1/4 32/2/4
f 4/1/4 35/2/4 6/1/4
f 20/4/6 26/4/1 25/4/1
f 26/4/1 20/4/6 22/4/6
f 22/4/6 27/4/1 26/4/1
f 27/4/1 22/4/6 24/4/6
f 7/2/3 21/2/5 19/2/5
f 21/2/5 7/2/3 8/2/3
f 8/2/3 23/2/5 21/2/5
f 23/2/5 8/2/3 9/2/3

g coaster-monorail-track




usemtl colormap

f 3/1/1 2/1/1 1/1/1
f 2/1/1 3/1/1 4/1/1
f 4/1/1 5/1/1 2/1/1
f 5/1/1 4/1/1 6/1/1
f 2/1/2 7/2/2 1/1/2
f 7/2/2 2/1/2 8/2/2
f 5/1/2 8/2/2 2/1/2
f 8/2/2 5/1/2 9/2/2
f 12/3/3 11/3/3 10/3/3
f 11/3/3 12/3/3 13/3/3
f 13/3/3 14/3/3 11/3/3
f 14/3/3 13/3/3 15/3/3
f 11/3/4 16/4/4 10/3/4
f 16/4/4 11/3/4 17/4/4
f 14/3/4 17/4/4 11/3/4
f 17/4/4 14/3/4 18/4/4
f 21/2/5 20/4/6 19/2/5
f 20/4/6 21/2/5 22/4/6
f 23/2/5 22/4/6 21/2/5
f 22/4/6 23/2/5 24/4/6
f 26/4/2 12/3/2 25/4/2
f 12/3/2 26/4/2 13/3/2
f 27/4/2 13/3/2 26/4/2
f 13/3/2 27/4/2 15/3/2
f 16/4/1 29/4/7 28/4/7
f 29/4/7 16/4/1 17/4/1
f 17/4/1 30/4/7 29/4/7
f 30/4/7 17/4/1 18/4/1
f 33/2/8 32/2/3 31/2/3
f 32/2/3 33/2/8 34/2/8
f 34/2/8 35/2/3 32/2/3
f 35/2/3 34/2/8 36/2/8
f 29/4/7 33/2/8 28/4/7
f 33/2/8 29/4/7 34/2/8
f 30/4/7 34/2/8 29/4/7
f 34/2/8 30/4/7 36/2/8
f 32/2/4 3/1/4 31/2/4
f 3/1/4 32/2/4 4/1/4
f 35/2/4 4/1/4 32/2/4
f 4/1/4 35/2/4 6/1/4
f 20/4/6 26/4/1 25/4/1
f 26/4/1 20/4/6 22/4/6
f 22/4/6 27/4/1 26/4/1
f 27/4/1 22/4/6 24/4/6
f 7/2/3 21/2/5 19/2/5
f 21/2/5 7/2/3 8/2/3
f 8/2/3 23/2/5 21/2/5
f 23/2/5 8/2/3 9/2/3

