# Created by Kenney (www.kenney.nl)

mtllib coaster-mouse-segment.mtl

g coaster-mouse-segment

v 0.2 0.025 0.025 1 1 1
v 0.2 0.025 -0.025 1 1 1
v -0.2 0.025 0.025 1 1 1
v -0.2 0.025 -0.025 1 1 1
v 0.2 0.075 -0.025 1 1 1
v 0.2 0.075 0.025 1 1 1
v -0.2 0.075 -0.025 1 1 1
v -0.2 0.075 0.025 1 1 1

vn 0 -0.7071068 0.7071068
vn 0 -0.7071068 -0.7071068
vn 0 0.7071068 -0.7071068
vn 0 0.7071068 0.7071068

vt 0.34375 0.275
vt 0.34375 0.475

usemtl colormap

f 3/1/1 2/1/2 1/1/1
f 2/1/2 3/1/1 4/1/2
f 7/2/3 6/2/4 5/2/3
f 6/2/4 7/2/3 8/2/4
f 6/2/4 3/1/1 1/1/1
f 3/1/1 6/2/4 8/2/4
f 7/2/3 2/1/2 4/1/2
f 2/1/2 7/2/3 5/2/3

g coaster-mouse-segment




usemtl colormap

f 3/1/1 2/1/2 1/1/1
f 2/1/2 3/1/1 4/1/2
f 7/2/3 6/2/4 5/2/3
f 6/2/4 7/2/3 8/2/4
f 6/2/4 3/1/1 1/1/1
f 3/1/1 6/2/4 8/2/4
f 7/2/3 2/1/2 4/1/2
f 2/1/2 7/2/3 5/2/3

