# Created by Kenney (www.kenney.nl)

mtllib coaster-steel-segment.mtl

g coaster-steel-segment

v 0.1862839 0.1833333 0.025 1 1 1
v 0.1862839 0.1833333 -0.025 1 1 1
v -0.1862839 0.1833333 0.025 1 1 1
v -0.1862839 0.1833333 -0.025 1 1 1
v 0.1862839 0.2333333 -0.025 1 1 1
v 0.1862839 0.2333333 0.025 1 1 1
v -0.1862839 0.2333333 -0.025 1 1 1
v -0.1862839 0.2333333 0.025 1 1 1
v -0.05144957 0.03581367 0.05 1 1 1
v -0.3250934 0.2 0.05 1 1 1
v 3.609557E-16 0.121563 0.05 1 1 1
v -0.2736439 0.2857493 0.05 1 1 1
v 0.05144957 0.03581367 0.05 1 1 1
v 0.3250934 0.2 0.05 1 1 1
v 0.2736439 0.2857493 0.05 1 1 1
v 3.609557E-16 0.121563 -0.05 1 1 1
v -0.2736439 0.2857493 -0.05 1 1 1
v -0.05144957 0.03581367 -0.05 1 1 1
v -0.3250934 0.2 -0.05 1 1 1
v 0.05144957 0.03581367 -0.05 1 1 1
v 0.3250934 0.2 -0.05 1 1 1
v 0.2736439 0.2857493 -0.05 1 1 1

vn 0 -0.7071068 0.7071068
vn 0 -0.7071068 -0.7071068
vn 0 0.7071068 -0.7071068
vn 0 0.7071068 0.7071068
vn 0 0 1
vn 0.5144957 0.8574929 0
vn 0 0 -1
vn -0.5144957 -0.8574929 0
vn -0.5144957 0.8574929 0
vn 0.5144957 -0.8574929 0

vt 0.71875 0.275
vt 0.71875 0.475
vt 0.71875 0.4063829
vt 0.71875 0.3436171

usemtl colormap

f 3/1/1 2/1/2 1/1/1
f 2/1/2 3/1/1 4/1/2
f 7/2/3 6/2/4 5/2/3
f 6/2/4 7/2/3 8/2/4
f 6/2/4 3/1/1 1/1/1
f 3/1/1 6/2/4 8/2/4
f 7/2/3 2/1/2 4/1/2
f 2/1/2 7/2/3 5/2/3
f 11/4/5 10/3/5 9/1/5
f 10/3/5 11/4/5 12/2/5
f 14/3/5 11/4/5 13/1/5
f 11/4/5 14/3/5 15/2/5
f 17/2/6 11/4/6 16/4/6
f 11/4/6 17/2/6 12/2/6
f 19/3/7 16/4/7 18/1/7
f 16/4/7 19/3/7 17/2/7
f 16/4/7 21/3/7 20/1/7
f 21/3/7 16/4/7 22/2/7
f 10/3/8 18/1/8 9/1/8
f 18/1/8 10/3/8 19/3/8
f 16/4/9 15/2/9 22/2/9
f 15/2/9 16/4/9 11/4/9
f 13/1/10 21/3/10 14/3/10
f 21/3/10 13/1/10 20/1/10

g coaster-steel-segment




usemtl colormap

f 3/1/1 2/1/2 1/1/1
f 2/1/2 3/1/1 4/1/2
f 7/2/3 6/2/4 5/2/3
f 6/2/4 7/2/3 8/2/4
f 6/2/4 3/1/1 1/1/1
f 3/1/1 6/2/4 8/2/4
f 7/2/3 2/1/2 4/1/2
f 2/1/2 7/2/3 5/2/3
f 11/4/5 10/3/5 9/1/5
f 10/3/5 11/4/5 12/2/5
f 14/3/5 11/4/5 13/1/5
f 11/4/5 14/3/5 15/2/5
f 17/2/6 11/4/6 16/4/6
f 11/4/6 17/2/6 12/2/6
f 19/3/7 16/4/7 18/1/7
f 16/4/7 19/3/7 17/2/7
f 16/4/7 21/3/7 20/1/7
f 21/3/7 16/4/7 22/2/7
f 10/3/8 18/1/8 9/1/8
f 18/1/8 10/3/8 19/3/8
f 16/4/9 15/2/9 22/2/9
f 15/2/9 16/4/9 11/4/9
f 13/1/10 21/3/10 14/3/10
f 21/3/10 13/1/10 20/1/10

