# Created by Kenney (www.kenney.nl)

mtllib coaster-monorail-corner-small-ramp.mtl

g coaster-monorail-corner-small-ramp

v -0.0999999 1.192093E-07 3.099442E-06 1 1 1
v -0.170959 0.07444918 0.4554543 1 1 1
v 0.0999999 0 3.457069E-06 1 1 1
v 0.01957488 0.0682174 0.5159354 1 1 1
v -0.3531814 0.2381459 0.8640566 1 1 1
v -0.1818883 0.2339942 0.9672141 1 1 1
v -0.0999999 0.05000007 2.980232E-06 1 1 1
v -0.165602 0.1227154 0.4435512 1 1 1
v -0.3425066 0.2843446 0.8481905 1 1 1
v 0.1000001 0.1999999 3.099442E-06 1 1 1
v 0.04100323 0.2612817 0.4683225 1 1 1
v -0.0999999 0.2 2.622604E-06 1 1 1
v -0.1495309 0.2675135 0.4078414 1 1 1
v -0.1391892 0.4187889 0.9037495 1 1 1
v -0.3104824 0.4229405 0.8005922 1 1 1
v 0.1000001 0.15 3.218651E-06 1 1 1
v 0.0356462 0.2130157 0.4802258 1 1 1
v -0.149864 0.3725903 0.9196157 1 1 1
v -0.07500005 0.05000007 2.980232E-06 1 1 1
v -0.07499981 0.1500001 2.741814E-06 1 1 1
v -0.1417851 0.1219363 0.4511113 1 1 1
v -0.1310711 0.2184685 0.4273049 1 1 1
v -0.321095 0.2838256 0.8610852 1 1 1
v -0.2997454 0.376223 0.8293529 1 1 1
v -0.0999999 0.1500001 2.741814E-06 1 1 1
v -0.1548879 0.2192475 0.4197447 1 1 1
v -0.3211571 0.3767419 0.8164582 1 1 1
v 0.07500005 0.15 3.099442E-06 1 1 1
v 0.01182938 0.2137946 0.4726655 1 1 1
v -0.1712756 0.3731092 0.9067209 1 1 1
v 0.1000001 0.04999995 3.33786E-06 1 1 1
v 0.02493191 0.1164834 0.5040321 1 1 1
v 0.07500005 0.04999995 3.33786E-06 1 1 1
v 0.001115322 0.1172625 0.4964721 1 1 1
v -0.1712136 0.2801929 0.9513478 1 1 1
v -0.192625 0.2807119 0.9384532 1 1 1
v -0.6117969 0.4406577 1.215773 1 1 1
v -0.4633281 0.4397364 1.349774 1 1 1
v -0.9314152 0.6506286 1.509636 1 1 1
v -0.8099393 0.6529844 1.6685 1 1 1
v -0.5974238 0.4859304 1.20016 1 1 1
v -0.9153318 0.6961589 1.496662 1 1 1
v -0.4058355 0.6208274 1.287319 1 1 1
v -0.5543042 0.6217489 1.153318 1 1 1
v -0.7456053 0.8351059 1.616607 1 1 1
v -0.8670814 0.8327501 1.457742 1 1 1
v -0.4202087 0.5755547 1.302933 1 1 1
v -0.7616888 0.7895756 1.62958 1 1 1
v -0.5788651 0.4858153 1.21691 1 1 1
v -0.5501188 0.5763609 1.185682 1 1 1
v -0.9001472 0.6964535 1.516521 1 1 1
v -0.8679804 0.7875142 1.490574 1 1 1
v -0.5686774 0.5764761 1.168932 1 1 1
v -0.8831649 0.7872196 1.470716 1 1 1
v -0.4387672 0.5756699 1.286183 1 1 1
v -0.7768734 0.789281 1.609722 1 1 1
v -0.4489549 0.4850092 1.33416 1 1 1
v -0.4675136 0.4851243 1.31741 1 1 1
v -0.7938558 0.6985148 1.655527 1 1 1
v -0.8090403 0.6982203 1.635669 1 1 1
v -1.30815 0.8407868 1.737663 1 1 1
v -1.22177 0.8461812 1.917966 1 1 1
v -1.740118 0.9729919 1.876585 1 1 1
v -1.704049 0.9784265 2.07323 1 1 1
v -1.293318 0.8877715 1.729151 1 1 1
v -1.732239 1.022287 1.873777 1 1 1
v -1.162441 1.03412 1.88392 1 1 1
v -1.248821 1.028725 1.703617 1 1 1
v -1.672532 1.175608 2.062 1 1 1
v -1.708601 1.170173 1.865354 1 1 1
v -1.177274 0.9871352 1.892432 1 1 1
v -1.680411 1.126312 2.064807 1 1 1
v -1.282521 0.8884457 1.751689 1 1 1
v -1.252856 0.9824151 1.734666 1 1 1
v -1.72773 1.022967 1.898357 1 1 1
v -1.711972 1.121557 1.892742 1 1 1
v -1.263653 0.9817407 1.712128 1 1 1
v -1.71648 1.120878 1.868162 1 1 1
v -1.188071 0.9864608 1.869894 1 1 1
v -1.68492 1.125633 2.040226 1 1 1
v -1.206938 0.8931658 1.909455 1 1 1
v -1.217736 0.8924916 1.886917 1 1 1
v -1.69617 1.027722 2.070422 1 1 1
v -1.700678 1.027042 2.045842 1 1 1
v -1.999997 1 1.9 1 1 1
v -1.999996 1 2.1 1 1 1
v -1.999997 1.05 1.9 1 1 1
v -1.999996 1.2 2.1 1 1 1
v -1.999996 1.2 1.9 1 1 1
v -1.999996 1.15 2.1 1 1 1
v -1.999997 1.05 1.925 1 1 1
v -1.999997 1.15 1.925 1 1 1
v -1.999997 1.15 1.9 1 1 1
v -1.999996 1.15 2.075 1 1 1
v -1.999996 1.05 2.1 1 1 1
v -1.999996 1.05 2.075 1 1 1
v -0.1 0.15 5.414336E-16 1 1 1
v -0.075 0.15 5.414336E-16 1 1 1
v -0.1 0.2 5.414336E-16 1 1 1
v 0.075 0.15 5.414336E-16 1 1 1
v -0.075 0.05000001 5.414336E-16 1 1 1
v 0.1 0.15 5.414336E-16 1 1 1
v 0.1 0.2 5.414336E-16 1 1 1
v 0.075 0.05000001 5.414336E-16 1 1 1
v -0.1 0.05000001 5.414336E-16 1 1 1
v 0.1 0.05000001 5.414336E-16 1 1 1
v 0.1 0 5.414336E-16 1 1 1
v -0.1 0 5.414336E-16 1 1 1
v -2 1.15 2.1 1 1 1
v -2 1.15 2.075 1 1 1
v -2 1.2 2.1 1 1 1
v -2 1.15 1.925 1 1 1
v -2 1.15 1.9 1 1 1
v -2 1.2 1.9 1 1 1
v -2 1.05 1.925 1 1 1
v -2 1.05 2.075 1 1 1
v -2 1.05 1.9 1 1 1
v -2 1.05 2.1 1 1 1
v -2 1 1.9 1 1 1
v -2 1 2.1 1 1 1
v -0.05139691 0.2905118 0.7257861 1 1 1
v -0.09256351 0.3254695 0.8099483 1 1 1
v -0.2301386 0.2956911 0.6362062 1 1 1
v -0.2713053 0.3306487 0.7203683 1 1 1
v -0.2792368 0.155856 0.6702725 1 1 1
v -0.2569406 0.2729247 0.6325526 1 1 1
v -0.3204034 0.1908137 0.7544347 1 1 1
v -0.2981072 0.3078824 0.7167149 1 1 1
v -0.1237782 0.1615733 0.8627561 1 1 1
v -0.08261161 0.1266156 0.7785939 1 1 1
v -0.3025199 0.1667525 0.7731762 1 1 1
v -0.2613533 0.1317949 0.689014 1 1 1
v -0.03351343 0.2664508 0.7445276 1 1 1
v -0.05580965 0.149382 0.7822474 1 1 1
v -0.07468003 0.3014084 0.8286898 1 1 1
v -0.09697625 0.1843396 0.8664096 1 1 1
v -1.099524 0.9554956 1.853925 1 1 1
v -1.183686 0.9904532 1.895092 1 1 1
v -1.189104 0.9503161 1.675183 1 1 1
v -1.273266 0.9852737 1.71635 1 1 1
v -1.245565 0.8091861 1.679596 1 1 1
v -1.207846 0.9262549 1.6573 1 1 1
v -1.329728 0.8441437 1.720763 1 1 1
v -1.292008 0.9612125 1.698467 1 1 1
v -1.236494 0.826557 1.926307 1 1 1
v -1.152332 0.7915994 1.88514 1 1 1
v -1.326074 0.8213775 1.747565 1 1 1
v -1.241912 0.7864198 1.706398 1 1 1
v -1.095871 0.9327293 1.880727 1 1 1
v -1.13359 0.8156606 1.903023 1 1 1
v -1.180033 0.967687 1.921894 1 1 1
v -1.217753 0.8506182 1.94419 1 1 1

vn -6.090656E-07 -1 2.185581E-06
vn -0.1071417 -0.9653217 0.2380644
vn -0.2134948 -0.9239732 0.3173224
vn -1 6.090609E-07 -2.185584E-06
vn -0.95267 0.03115931 -0.3024052
vn -0.8564653 0.02075831 -0.515787
vn 6.090656E-07 1 -2.185581E-06
vn 0.1071417 0.9653217 -0.2380644
vn 0.2134948 0.9239732 -0.3173224
vn 1 -6.090609E-07 2.185584E-06
vn 0.95267 -0.03115931 0.3024052
vn 0.8564653 -0.02075831 0.515787
vn -0.7071064 0.7071072 -3.09088E-06
vn -0.7071072 -0.7071064 -2.646573E-12
vn -0.5978788 0.7046185 -0.3821698
vn -0.7494 -0.6605526 -0.04549586
vn -0.4546488 0.668026 -0.5890973
vn -0.7565761 -0.6386693 -0.1403356
vn 0.7071064 -0.7071072 3.09088E-06
vn 0.5978788 -0.7046185 0.3821698
vn 0.4546488 -0.668026 0.5890973
vn 0.7071072 0.7071064 2.646573E-12
vn 0.7494 0.6605526 0.04549586
vn 0.7565761 0.6386693 0.1403356
vn -0.2874629 -0.9054555 0.3122744
vn -0.3216693 -0.910607 0.2594681
vn -0.7423437 0.004606932 -0.6700034
vn -0.6073799 -0.01177932 -0.7943242
vn 0.2874629 0.9054555 -0.3122744
vn 0.3216693 0.910607 -0.2594681
vn 0.7423437 -0.004606932 0.6700034
vn 0.6073799 0.01177932 0.7943242
vn -0.3216493 0.6435114 -0.6945753
vn -0.7281833 -0.6369962 -0.2529526
vn -0.2020279 0.6355672 -0.7451437
vn -0.6569369 -0.6522257 -0.3782004
vn 0.3216493 -0.6435114 0.6945753
vn 0.2020279 -0.6355672 0.7451437
vn 0.7281833 0.6369962 0.2529526
vn 0.6569369 0.6522257 0.3782004
vn -0.2966458 -0.9396929 0.1702309
vn -0.1575852 -0.9859077 0.05615138
vn -0.4318997 -0.02697165 -0.9015182
vn -0.180346 -0.02717268 -0.9832278
vn 0.2966458 0.9396929 -0.1702309
vn 0.1575852 0.9859077 -0.05615138
vn 0.4318997 0.02697165 0.9015182
vn 0.180346 0.02717268 0.9832278
vn -0.09563893 0.6453913 -0.7578411
vn -0.5151594 -0.683535 -0.5170982
vn -0.01609433 0.677928 -0.7349521
vn -0.2389534 -0.716356 -0.655542
vn 0.09563893 -0.6453913 0.7578411
vn 0.01609433 -0.677928 0.7349521
vn 0.5151594 0.683535 0.5170982
vn 0.2389534 0.716356 0.655542
vn -2.304711E-06 -1 7.20561E-07
vn -2.741814E-06 -7.205546E-07 -1
vn 2.304711E-06 1 -7.20561E-07
vn 2.741814E-06 7.205546E-07 1
vn -3.576279E-07 0.7071062 -0.7071073
vn -3.516674E-06 -0.7071073 -0.7071063
vn 3.576279E-07 -0.7071062 0.7071073
vn 3.516674E-06 0.7071073 0.7071063
vn 0 0 -1
vn -0.9999999 0 3.576279E-07
vn 0.5067997 0.8553493 -0.1073852
vn -0.1772154 0.8751692 -0.4501927
vn -0.8939383 -0.3344774 -0.2983271
vn -0.7574201 0.3823269 -0.5292835
vn 0.1772154 -0.8751692 0.4501927
vn -0.5067997 -0.8553493 0.1073852
vn 0.8939383 0.3344774 0.2983271
vn 0.7574201 -0.3823269 0.5292835
vn 0.411666 -0.3495764 -0.8416219
vn -0.411666 0.3495764 0.8416219
vn 0.4501921 0.8751699 0.1772137
vn 0.1073842 0.8553486 -0.5068012
vn -0.5292835 -0.3823285 -0.7574193
vn -0.2983278 0.3344757 -0.8939388
vn -0.1073842 -0.8553486 0.5068012
vn -0.4501921 -0.8751699 -0.1772137
vn 0.5292835 0.3823285 0.7574193
vn 0.2983278 -0.3344757 0.8939388
vn 0.8416221 -0.3495764 -0.4116659
vn -0.8416221 0.3495764 0.4116659

vt 0.46875 0.025
vt 0.46875 0.075
vt 0.46875 0.225
vt 0.46875 0.175
vt 0.34375 0.225
vt 0.34375 0.1392857
vt 0.34375 0.2107143
vt 0.34375 0.125

usemtl colormap

f 3/1/1 2/1/2 1/1/1
f 2/1/2 3/1/1 4/1/2
f 4/1/2 5/1/3 2/1/2
f 5/1/3 4/1/2 6/1/3
f 2/1/5 7/2/4 1/1/4
f 7/2/4 2/1/5 8/2/5
f 5/1/6 8/2/5 2/1/5
f 8/2/5 5/1/6 9/2/6
f 12/3/7 11/3/8 10/3/7
f 11/3/8 12/3/7 13/3/8
f 13/3/8 14/3/9 11/3/8
f 14/3/9 13/3/8 15/3/9
f 11/3/11 16/4/10 10/3/10
f 16/4/10 11/3/11 17/4/11
f 14/3/12 17/4/11 11/3/11
f 17/4/11 14/3/12 18/4/12
f 21/2/15 20/4/14 19/2/13
f 20/4/14 21/2/15 22/4/16
f 23/2/17 22/4/16 21/2/15
f 22/4/16 23/2/17 24/4/18
f 26/4/5 12/3/4 25/4/4
f 12/3/4 26/4/5 13/3/5
f 27/4/6 13/3/5 26/4/5
f 13/3/5 27/4/6 15/3/6
f 16/4/1 29/4/20 28/4/19
f 29/4/20 16/4/1 17/4/2
f 17/4/2 30/4/21 29/4/20
f 30/4/21 17/4/2 18/4/3
f 33/2/22 32/2/8 31/2/7
f 32/2/8 33/2/22 34/2/23
f 34/2/23 35/2/9 32/2/8
f 35/2/9 34/2/23 36/2/24
f 29/4/20 33/2/22 28/4/19
f 33/2/22 29/4/20 34/2/23
f 30/4/21 34/2/23 29/4/20
f 34/2/23 30/4/21 36/2/24
f 32/2/11 3/1/10 31/2/10
f 3/1/10 32/2/11 4/1/11
f 35/2/12 4/1/11 32/2/11
f 4/1/11 35/2/12 6/1/12
f 20/4/14 26/4/2 25/4/1
f 26/4/2 20/4/14 22/4/16
f 22/4/16 27/4/3 26/4/2
f 27/4/3 22/4/16 24/4/18
f 7/2/7 21/2/15 19/2/13
f 21/2/15 7/2/7 8/2/8
f 8/2/8 23/2/17 21/2/15
f 23/2/17 8/2/8 9/2/9
f 6/1/3 37/1/25 5/1/3
f 37/1/25 6/1/3 38/1/25
f 38/1/25 39/1/26 37/1/25
f 39/1/26 38/1/25 40/1/26
f 37/1/27 9/2/6 5/1/6
f 9/2/6 37/1/27 41/2/27
f 39/1/28 41/2/27 37/1/27
f 41/2/27 39/1/28 42/2/28
f 15/3/9 43/3/29 14/3/9
f 43/3/29 15/3/9 44/3/29
f 44/3/29 45/3/30 43/3/29
f 45/3/30 44/3/29 46/3/30
f 43/3/31 18/4/12 14/3/12
f 18/4/12 43/3/31 47/4/31
f 45/3/32 47/4/31 43/3/31
f 47/4/31 45/3/32 48/4/32
f 49/2/33 24/4/18 23/2/17
f 24/4/18 49/2/33 50/4/34
f 51/2/35 50/4/34 49/2/33
f 50/4/34 51/2/35 52/4/36
f 53/4/27 15/3/6 27/4/6
f 15/3/6 53/4/27 44/3/27
f 54/4/28 44/3/27 53/4/27
f 44/3/27 54/4/28 46/3/28
f 18/4/3 55/4/37 30/4/21
f 55/4/37 18/4/3 47/4/25
f 47/4/25 56/4/38 55/4/37
f 56/4/38 47/4/25 48/4/26
f 36/2/24 57/2/29 35/2/9
f 57/2/29 36/2/24 58/2/39
f 58/2/39 59/2/30 57/2/29
f 59/2/30 58/2/39 60/2/40
f 55/4/37 36/2/24 30/4/21
f 36/2/24 55/4/37 58/2/39
f 56/4/38 58/2/39 55/4/37
f 58/2/39 56/4/38 60/2/40
f 57/2/31 6/1/12 35/2/12
f 6/1/12 57/2/31 38/1/31
f 59/2/32 38/1/31 57/2/31
f 38/1/31 59/2/32 40/1/32
f 24/4/18 53/4/25 27/4/3
f 53/4/25 24/4/18 50/4/34
f 50/4/34 54/4/26 53/4/25
f 54/4/26 50/4/34 52/4/36
f 9/2/9 49/2/33 23/2/17
f 49/2/33 9/2/9 41/2/29
f 41/2/29 51/2/35 49/2/33
f 51/2/35 41/2/29 42/2/30
f 40/1/26 61/1/41 39/1/26
f 61/1/41 40/1/26 62/1/41
f 62/1/41 63/1/42 61/1/41
f 63/1/42 62/1/41 64/1/42
f 61/1/43 42/2/28 39/1/28
f 42/2/28 61/1/43 65/2/43
f 63/1/44 65/2/43 61/1/43
f 65/2/43 63/1/44 66/2/44
f 46/3/30 67/3/45 45/3/30
f 67/3/45 46/3/30 68/3/45
f 68/3/45 69/3/46 67/3/45
f 69/3/46 68/3/45 70/3/46
f 67/3/47 48/4/32 45/3/32
f 48/4/32 67/3/47 71/4/47
f 69/3/48 71/4/47 67/3/47
f 71/4/47 69/3/48 72/4/48
f 73/2/49 52/4/36 51/2/35
f 52/4/36 73/2/49 74/4/50
f 75/2/51 74/4/50 73/2/49
f 74/4/50 75/2/51 76/4/52
f 77/4/43 46/3/28 54/4/28
f 46/3/28 77/4/43 68/3/43
f 78/4/44 68/3/43 77/4/43
f 68/3/43 78/4/44 70/3/44
f 48/4/26 79/4/53 56/4/38
f 79/4/53 48/4/26 71/4/41
f 71/4/41 80/4/54 79/4/53
f 80/4/54 71/4/41 72/4/42
f 60/2/40 81/2/45 59/2/30
f 81/2/45 60/2/40 82/2/55
f 82/2/55 83/2/46 81/2/45
f 83/2/46 82/2/55 84/2/56
f 79/4/53 60/2/40 56/4/38
f 60/2/40 79/4/53 82/2/55
f 80/4/54 82/2/55 79/4/53
f 82/2/55 80/4/54 84/2/56
f 81/2/47 40/1/32 59/2/32
f 40/1/32 81/2/47 62/1/47
f 83/2/48 62/1/47 81/2/47
f 62/1/47 83/2/48 64/1/48
f 52/4/36 77/4/41 54/4/26
f 77/4/41 52/4/36 74/4/50
f 74/4/50 78/4/42 77/4/41
f 78/4/42 74/4/50 76/4/52
f 42/2/30 73/2/49 51/2/35
f 73/2/49 42/2/30 65/2/45
f 65/2/45 75/2/51 73/2/49
f 75/2/51 65/2/45 66/2/46
f 64/1/42 85/1/57 63/1/42
f 85/1/57 64/1/42 86/1/57
f 86/1/57 85/1/57 85/1/57
f 85/1/57 86/1/57 86/1/57
f 85/1/58 66/2/44 63/1/44
f 66/2/44 85/1/58 87/2/58
f 85/1/58 87/2/58 85/1/58
f 87/2/58 85/1/58 87/2/58
f 70/3/46 88/3/59 69/3/46
f 88/3/59 70/3/46 89/3/59
f 89/3/59 88/3/59 88/3/59
f 88/3/59 89/3/59 89/3/59
f 88/3/60 72/4/48 69/3/48
f 72/4/48 88/3/60 90/4/60
f 88/3/60 90/4/60 88/3/60
f 90/4/60 88/3/60 90/4/60
f 91/2/61 76/4/52 75/2/51
f 76/4/52 91/2/61 92/4/62
f 91/2/61 92/4/62 91/2/61
f 92/4/62 91/2/61 92/4/62
f 93/4/58 70/3/44 78/4/44
f 70/3/44 93/4/58 89/3/58
f 93/4/58 89/3/58 93/4/58
f 89/3/58 93/4/58 89/3/58
f 72/4/42 94/4/63 80/4/54
f 94/4/63 72/4/42 90/4/57
f 90/4/57 94/4/63 94/4/63
f 94/4/63 90/4/57 90/4/57
f 84/2/56 95/2/59 83/2/46
f 95/2/59 84/2/56 96/2/64
f 96/2/64 95/2/59 95/2/59
f 95/2/59 96/2/64 96/2/64
f 94/4/63 84/2/56 80/4/54
f 84/2/56 94/4/63 96/2/64
f 94/4/63 96/2/64 94/4/63
f 96/2/64 94/4/63 96/2/64
f 95/2/60 64/1/48 83/2/48
f 64/1/48 95/2/60 86/1/60
f 95/2/60 86/1/60 95/2/60
f 86/1/60 95/2/60 86/1/60
f 76/4/52 93/4/57 78/4/42
f 93/4/57 76/4/52 92/4/62
f 92/4/62 93/4/57 93/4/57
f 93/4/57 92/4/62 92/4/62
f 66/2/46 91/2/61 75/2/51
f 91/2/61 66/2/46 87/2/59
f 87/2/59 91/2/61 91/2/61
f 91/2/61 87/2/59 87/2/59
f 99/3/65 98/4/65 97/4/65
f 98/4/65 99/3/65 100/4/65
f 100/4/65 101/2/65 98/4/65
f 100/4/65 99/3/65 102/4/65
f 102/4/65 99/3/65 103/3/65
f 104/2/65 101/2/65 100/4/65
f 104/2/65 105/2/65 101/2/65
f 106/2/65 105/2/65 104/2/65
f 107/1/65 105/2/65 106/2/65
f 105/2/65 107/1/65 108/1/65
f 111/3/66 110/4/66 109/4/66
f 110/4/66 111/3/66 112/4/66
f 112/4/66 111/3/66 113/4/66
f 113/4/66 111/3/66 114/3/66
f 115/2/66 110/4/66 112/4/66
f 110/4/66 115/2/66 116/2/66
f 117/2/66 116/2/66 115/2/66
f 117/2/66 118/2/66 116/2/66
f 119/1/66 118/2/66 117/2/66
f 118/2/66 119/1/66 120/1/66
f 123/5/68 122/5/67 121/5/67
f 122/5/67 123/5/68 124/5/68
f 127/6/69 126/7/70 125/6/69
f 126/7/70 127/6/69 128/7/70
f 131/8/72 130/8/71 129/8/71
f 130/8/71 131/8/72 132/8/72
f 135/7/73 134/6/74 133/7/73
f 134/6/74 135/7/73 136/6/74
f 129/8/71 134/6/74 136/6/74
f 134/6/74 129/8/71 130/8/71
f 126/7/70 124/5/68 123/5/68
f 124/5/68 126/7/70 128/7/70
f 127/6/69 132/8/72 131/8/72
f 132/8/72 127/6/69 125/6/69
f 121/5/67 135/7/73 133/7/73
f 135/7/73 121/5/67 122/5/67
f 125/6/75 130/8/75 132/8/75
f 130/8/75 125/6/75 134/6/75
f 134/6/75 125/6/75 126/7/75
f 134/6/75 126/7/75 133/7/75
f 133/7/75 126/7/75 123/5/75
f 133/7/75 123/5/75 121/5/75
f 136/6/76 131/8/76 129/8/76
f 131/8/76 136/6/76 127/6/76
f 127/6/76 136/6/76 135/7/76
f 127/6/76 135/7/76 128/7/76
f 128/7/76 135/7/76 122/5/76
f 128/7/76 122/5/76 124/5/76
f 139/5/78 138/5/77 137/5/77
f 138/5/77 139/5/78 140/5/78
f 143/6/79 142/7/80 141/6/79
f 142/7/80 143/6/79 144/7/80
f 147/8/82 146/8/81 145/8/81
f 146/8/81 147/8/82 148/8/82
f 151/7/83 150/6/84 149/7/83
f 150/6/84 151/7/83 152/6/84
f 145/8/81 150/6/84 152/6/84
f 150/6/84 145/8/81 146/8/81
f 142/7/80 140/5/78 139/5/78
f 140/5/78 142/7/80 144/7/80
f 143/6/79 148/8/82 147/8/82
f 148/8/82 143/6/79 141/6/79
f 137/5/77 151/7/83 149/7/83
f 151/7/83 137/5/77 138/5/77
f 141/6/85 146/8/85 148/8/85
f 146/8/85 141/6/85 150/6/85
f 150/6/85 141/6/85 142/7/85
f 150/6/85 142/7/85 149/7/85
f 149/7/85 142/7/85 139/5/85
f 149/7/85 139/5/85 137/5/85
f 152/6/86 147/8/86 145/8/86
f 147/8/86 152/6/86 143/6/86
f 143/6/86 152/6/86 151/7/86
f 143/6/86 151/7/86 144/7/86
f 144/7/86 151/7/86 138/5/86
f 144/7/86 138/5/86 140/5/86

g coaster-monorail-corner-small-ramp




usemtl colormap

f 3/1/1 2/1/2 1/1/1
f 2/1/2 3/1/1 4/1/2
f 4/1/2 5/1/3 2/1/2
f 5/1/3 4/1/2 6/1/3
f 2/1/5 7/2/4 1/1/4
f 7/2/4 2/1/5 8/2/5
f 5/1/6 8/2/5 2/1/5
f 8/2/5 5/1/6 9/2/6
f 12/3/7 11/3/8 10/3/7
f 11/3/8 12/3/7 13/3/8
f 13/3/8 14/3/9 11/3/8
f 14/3/9 13/3/8 15/3/9
f 11/3/11 16/4/10 10/3/10
f 16/4/10 11/3/11 17/4/11
f 14/3/12 17/4/11 11/3/11
f 17/4/11 14/3/12 18/4/12
f 21/2/15 20/4/14 19/2/13
f 20/4/14 21/2/15 22/4/16
f 23/2/17 22/4/16 21/2/15
f 22/4/16 23/2/17 24/4/18
f 26/4/5 12/3/4 25/4/4
f 12/3/4 26/4/5 13/3/5
f 27/4/6 13/3/5 26/4/5
f 13/3/5 27/4/6 15/3/6
f 16/4/1 29/4/20 28/4/19
f 29/4/20 16/4/1 17/4/2
f 17/4/2 30/4/21 29/4/20
f 30/4/21 17/4/2 18/4/3
f 33/2/22 32/2/8 31/2/7
f 32/2/8 33/2/22 34/2/23
f 34/2/23 35/2/9 32/2/8
f 35/2/9 34/2/23 36/2/24
f 29/4/20 33/2/22 28/4/19
f 33/2/22 29/4/20 34/2/23
f 30/4/21 34/2/23 29/4/20
f 34/2/23 30/4/21 36/2/24
f 32/2/11 3/1/10 31/2/10
f 3/1/10 32/2/11 4/1/11
f 35/2/12 4/1/11 32/2/11
f 4/1/11 35/2/12 6/1/12
f 20/4/14 26/4/2 25/4/1
f 26/4/2 20/4/14 22/4/16
f 22/4/16 27/4/3 26/4/2
f 27/4/3 22/4/16 24/4/18
f 7/2/7 21/2/15 19/2/13
f 21/2/15 7/2/7 8/2/8
f 8/2/8 23/2/17 21/2/15
f 23/2/17 8/2/8 9/2/9
f 6/1/3 37/1/25 5/1/3
f 37/1/25 6/1/3 38/1/25
f 38/1/25 39/1/26 37/1/25
f 39/1/26 38/1/25 40/1/26
f 37/1/27 9/2/6 5/1/6
f 9/2/6 37/1/27 41/2/27
f 39/1/28 41/2/27 37/1/27
f 41/2/27 39/1/28 42/2/28
f 15/3/9 43/3/29 14/3/9
f 43/3/29 15/3/9 44/3/29
f 44/3/29 45/3/30 43/3/29
f 45/3/30 44/3/29 46/3/30
f 43/3/31 18/4/12 14/3/12
f 18/4/12 43/3/31 47/4/31
f 45/3/32 47/4/31 43/3/31
f 47/4/31 45/3/32 48/4/32
f 49/2/33 24/4/18 23/2/17
f 24/4/18 49/2/33 50/4/34
f 51/2/35 50/4/34 49/2/33
f 50/4/34 51/2/35 52/4/36
f 53/4/27 15/3/6 27/4/6
f 15/3/6 53/4/27 44/3/27
f 54/4/28 44/3/27 53/4/27
f 44/3/27 54/4/28 46/3/28
f 18/4/3 55/4/37 30/4/21
f 55/4/37 18/4/3 47/4/25
f 47/4/25 56/4/38 55/4/37
f 56/4/38 47/4/25 48/4/26
f 36/2/24 57/2/29 35/2/9
f 57/2/29 36/2/24 58/2/39
f 58/2/39 59/2/30 57/2/29
f 59/2/30 58/2/39 60/2/40
f 55/4/37 36/2/24 30/4/21
f 36/2/24 55/4/37 58/2/39
f 56/4/38 58/2/39 55/4/37
f 58/2/39 56/4/38 60/2/40
f 57/2/31 6/1/12 35/2/12
f 6/1/12 57/2/31 38/1/31
f 59/2/32 38/1/31 57/2/31
f 38/1/31 59/2/32 40/1/32
f 24/4/18 53/4/25 27/4/3
f 53/4/25 24/4/18 50/4/34
f 50/4/34 54/4/26 53/4/25
f 54/4/26 50/4/34 52/4/36
f 9/2/9 49/2/33 23/2/17
f 49/2/33 9/2/9 41/2/29
f 41/2/29 51/2/35 49/2/33
f 51/2/35 41/2/29 42/2/30
f 40/1/26 61/1/41 39/1/26
f 61/1/41 40/1/26 62/1/41
f 62/1/41 63/1/42 61/1/41
f 63/1/42 62/1/41 64/1/42
f 61/1/43 42/2/28 39/1/28
f 42/2/28 61/1/43 65/2/43
f 63/1/44 65/2/43 61/1/43
f 65/2/43 63/1/44 66/2/44
f 46/3/30 67/3/45 45/3/30
f 67/3/45 46/3/30 68/3/45
f 68/3/45 69/3/46 67/3/45
f 69/3/46 68/3/45 70/3/46
f 67/3/47 48/4/32 45/3/32
f 48/4/32 67/3/47 71/4/47
f 69/3/48 71/4/47 67/3/47
f 71/4/47 69/3/48 72/4/48
f 73/2/49 52/4/36 51/2/35
f 52/4/36 73/2/49 74/4/50
f 75/2/51 74/4/50 73/2/49
f 74/4/50 75/2/51 76/4/52
f 77/4/43 46/3/28 54/4/28
f 46/3/28 77/4/43 68/3/43
f 78/4/44 68/3/43 77/4/43
f 68/3/43 78/4/44 70/3/44
f 48/4/26 79/4/53 56/4/38
f 79/4/53 48/4/26 71/4/41
f 71/4/41 80/4/54 79/4/53
f 80/4/54 71/4/41 72/4/42
f 60/2/40 81/2/45 59/2/30
f 81/2/45 60/2/40 82/2/55
f 82/2/55 83/2/46 81/2/45
f 83/2/46 82/2/55 84/2/56
f 79/4/53 60/2/40 56/4/38
f 60/2/40 79/4/53 82/2/55
f 80/4/54 82/2/55 79/4/53
f 82/2/55 80/4/54 84/2/56
f 81/2/47 40/1/32 59/2/32
f 40/1/32 81/2/47 62/1/47
f 83/2/48 62/1/47 81/2/47
f 62/1/47 83/2/48 64/1/48
f 52/4/36 77/4/41 54/4/26
f 77/4/41 52/4/36 74/4/50
f 74/4/50 78/4/42 77/4/41
f 78/4/42 74/4/50 76/4/52
f 42/2/30 73/2/49 51/2/35
f 73/2/49 42/2/30 65/2/45
f 65/2/45 75/2/51 73/2/49
f 75/2/51 65/2/45 66/2/46
f 64/1/42 85/1/57 63/1/42
f 85/1/57 64/1/42 86/1/57
f 86/1/57 85/1/57 85/1/57
f 85/1/57 86/1/57 86/1/57
f 85/1/58 66/2/44 63/1/44
f 66/2/44 85/1/58 87/2/58
f 85/1/58 87/2/58 85/1/58
f 87/2/58 85/1/58 87/2/58
f 70/3/46 88/3/59 69/3/46
f 88/3/59 70/3/46 89/3/59
f 89/3/59 88/3/59 88/3/59
f 88/3/59 89/3/59 89/3/59
f 88/3/60 72/4/48 69/3/48
f 72/4/48 88/3/60 90/4/60
f 88/3/60 90/4/60 88/3/60
f 90/4/60 88/3/60 90/4/60
f 91/2/61 76/4/52 75/2/51
f 76/4/52 91/2/61 92/4/62
f 91/2/61 92/4/62 91/2/61
f 92/4/62 91/2/61 92/4/62
f 93/4/58 70/3/44 78/4/44
f 70/3/44 93/4/58 89/3/58
f 93/4/58 89/3/58 93/4/58
f 89/3/58 93/4/58 89/3/58
f 72/4/42 94/4/63 80/4/54
f 94/4/63 72/4/42 90/4/57
f 90/4/57 94/4/63 94/4/63
f 94/4/63 90/4/57 90/4/57
f 84/2/56 95/2/59 83/2/46
f 95/2/59 84/2/56 96/2/64
f 96/2/64 95/2/59 95/2/59
f 95/2/59 96/2/64 96/2/64
f 94/4/63 84/2/56 80/4/54
f 84/2/56 94/4/63 96/2/64
f 94/4/63 96/2/64 94/4/63
f 96/2/64 94/4/63 96/2/64
f 95/2/60 64/1/48 83/2/48
f 64/1/48 95/2/60 86/1/60
f 95/2/60 86/1/60 95/2/60
f 86/1/60 95/2/60 86/1/60
f 76/4/52 93/4/57 78/4/42
f 93/4/57 76/4/52 92/4/62
f 92/4/62 93/4/57 93/4/57
f 93/4/57 92/4/62 92/4/62
f 66/2/46 91/2/61 75/2/51
f 91/2/61 66/2/46 87/2/59
f 87/2/59 91/2/61 91/2/61
f 91/2/61 87/2/59 87/2/59
f 99/3/65 98/4/65 97/4/65
f 98/4/65 99/3/65 100/4/65
f 100/4/65 101/2/65 98/4/65
f 100/4/65 99/3/65 102/4/65
f 102/4/65 99/3/65 103/3/65
f 104/2/65 101/2/65 100/4/65
f 104/2/65 105/2/65 101/2/65
f 106/2/65 105/2/65 104/2/65
f 107/1/65 105/2/65 106/2/65
f 105/2/65 107/1/65 108/1/65
f 111/3/66 110/4/66 109/4/66
f 110/4/66 111/3/66 112/4/66
f 112/4/66 111/3/66 113/4/66
f 113/4/66 111/3/66 114/3/66
f 115/2/66 110/4/66 112/4/66
f 110/4/66 115/2/66 116/2/66
f 117/2/66 116/2/66 115/2/66
f 117/2/66 118/2/66 116/2/66
f 119/1/66 118/2/66 117/2/66
f 118/2/66 119/1/66 120/1/66
f 123/5/68 122/5/67 121/5/67
f 122/5/67 123/5/68 124/5/68
f 127/6/69 126/7/70 125/6/69
f 126/7/70 127/6/69 128/7/70
f 131/8/72 130/8/71 129/8/71
f 130/8/71 131/8/72 132/8/72
f 135/7/73 134/6/74 133/7/73
f 134/6/74 135/7/73 136/6/74
f 129/8/71 134/6/74 136/6/74
f 134/6/74 129/8/71 130/8/71
f 126/7/70 124/5/68 123/5/68
f 124/5/68 126/7/70 128/7/70
f 127/6/69 132/8/72 131/8/72
f 132/8/72 127/6/69 125/6/69
f 121/5/67 135/7/73 133/7/73
f 135/7/73 121/5/67 122/5/67
f 125/6/75 130/8/75 132/8/75
f 130/8/75 125/6/75 134/6/75
f 134/6/75 125/6/75 126/7/75
f 134/6/75 126/7/75 133/7/75
f 133/7/75 126/7/75 123/5/75
f 133/7/75 123/5/75 121/5/75
f 136/6/76 131/8/76 129/8/76
f 131/8/76 136/6/76 127/6/76
f 127/6/76 136/6/76 135/7/76
f 127/6/76 135/7/76 128/7/76
f 128/7/76 135/7/76 122/5/76
f 128/7/76 122/5/76 124/5/76
f 139/5/78 138/5/77 137/5/77
f 138/5/77 139/5/78 140/5/78
f 143/6/79 142/7/80 141/6/79
f 142/7/80 143/6/79 144/7/80
f 147/8/82 146/8/81 145/8/81
f 146/8/81 147/8/82 148/8/82
f 151/7/83 150/6/84 149/7/83
f 150/6/84 151/7/83 152/6/84
f 145/8/81 150/6/84 152/6/84
f 150/6/84 145/8/81 146/8/81
f 142/7/80 140/5/78 139/5/78
f 140/5/78 142/7/80 144/7/80
f 143/6/79 148/8/82 147/8/82
f 148/8/82 143/6/79 141/6/79
f 137/5/77 151/7/83 149/7/83
f 151/7/83 137/5/77 138/5/77
f 141/6/85 146/8/85 148/8/85
f 146/8/85 141/6/85 150/6/85
f 150/6/85 141/6/85 142/7/85
f 150/6/85 142/7/85 149/7/85
f 149/7/85 142/7/85 139/5/85
f 149/7/85 139/5/85 137/5/85
f 152/6/86 147/8/86 145/8/86
f 147/8/86 152/6/86 143/6/86
f 143/6/86 152/6/86 151/7/86
f 143/6/86 151/7/86 144/7/86
f 144/7/86 151/7/86 138/5/86
f 144/7/86 138/5/86 140/5/86

