# Created by Kenney (www.kenney.nl)

mtllib coaster-monorail-cap-back.mtl

g coaster-monorail-cap-back

v 0.1 0.15 -7.219114E-16 1 1 1
v 0.075 0.15 -7.219114E-16 1 1 1
v 0.1 0.2 -7.219114E-16 1 1 1
v -0.075 0.15 -7.219114E-16 1 1 1
v -0.1 0.15 -7.219114E-16 1 1 1
v -0.1 0.2 -7.219114E-16 1 1 1
v -0.075 0.05 -7.219114E-16 1 1 1
v 0.075 0.05 -7.219114E-16 1 1 1
v -0.1 0.05 -7.219114E-16 1 1 1
v 0.1 0.05 -7.219114E-16 1 1 1
v -0.1 0 -7.219114E-16 1 1 1
v 0.1 0 -7.219114E-16 1 1 1

vn 0 0 1

vt 0.46875 0.175
vt 0.46875 0.225
vt 0.46875 0.075
vt 0.46875 0.025

usemtl colormap

f 3/2/1 2/1/1 1/1/1
f 2/1/1 3/2/1 4/1/1
f 4/1/1 3/2/1 5/1/1
f 5/1/1 3/2/1 6/2/1
f 7/3/1 2/1/1 4/1/1
f 2/1/1 7/3/1 8/3/1
f 9/3/1 8/3/1 7/3/1
f 9/3/1 10/3/1 8/3/1
f 11/4/1 10/3/1 9/3/1
f 10/3/1 11/4/1 12/4/1

g coaster-monorail-cap-back




usemtl colormap

f 3/2/1 2/1/1 1/1/1
f 2/1/1 3/2/1 4/1/1
f 4/1/1 3/2/1 5/1/1
f 5/1/1 3/2/1 6/2/1
f 7/3/1 2/1/1 4/1/1
f 2/1/1 7/3/1 8/3/1
f 9/3/1 8/3/1 7/3/1
f 9/3/1 10/3/1 8/3/1
f 11/4/1 10/3/1 9/3/1
f 10/3/1 11/4/1 12/4/1

