# Created by Kenney (www.kenney.nl)

mtllib coaster-monorail-corner-small.mtl

g coaster-monorail-corner-small

v -0.0999999 0 2.861023E-06 1 1 1
v -0.1731148 0 0.4622324 1 1 1
v 0.0999999 0 3.33786E-06 1 1 1
v 0.01779747 0 0.5218354 1 1 1
v -0.3707595 0 0.8932521 1 1 1
v -0.2001824 0 0.9976718 1 1 1
v -0.0999999 0.04999995 2.861023E-06 1 1 1
v -0.1731148 0.04999995 0.4622324 1 1 1
v -0.3707595 0.04999995 0.8932521 1 1 1
v 0.0999999 0.2 3.33786E-06 1 1 1
v 0.01779747 0.2 0.5218354 1 1 1
v -0.0999999 0.2 2.861023E-06 1 1 1
v -0.1731148 0.2 0.4622324 1 1 1
v -0.2001824 0.2 0.9976718 1 1 1
v -0.3707595 0.2 0.8932521 1 1 1
v 0.0999999 0.15 3.33786E-06 1 1 1
v 0.01779747 0.15 0.5218354 1 1 1
v -0.2001824 0.15 0.9976718 1 1 1
v -0.07500005 0.04999995 2.980232E-06 1 1 1
v -0.07500005 0.15 2.980232E-06 1 1 1
v -0.1492507 0.04999995 0.4696827 1 1 1
v -0.1492507 0.15 0.4696827 1 1 1
v -0.3494372 0.04999995 0.9063046 1 1 1
v -0.3494372 0.15 0.9063046 1 1 1
v -0.0999999 0.15 2.861023E-06 1 1 1
v -0.1731148 0.15 0.4622324 1 1 1
v -0.3707595 0.15 0.8932521 1 1 1
v 0.07500005 0.15 3.218651E-06 1 1 1
v -0.006066561 0.15 0.514385 1 1 1
v -0.2215044 0.15 0.9846194 1 1 1
v 0.0999999 0.04999995 3.33786E-06 1 1 1
v 0.01779747 0.04999995 0.5218354 1 1 1
v 0.07500005 0.04999995 3.218651E-06 1 1 1
v -0.006066561 0.04999995 0.514385 1 1 1
v -0.2001824 0.04999995 0.9976718 1 1 1
v -0.2215044 0.04999995 0.9846194 1 1 1
v -0.6630695 0 1.270975 1 1 1
v -0.5187924 0 1.409482 1 1 1
v -1.028497 0 1.578955 1 1 1
v -0.9167533 0 1.744827 1 1 1
v -0.6630695 0.04999995 1.270975 1 1 1
v -1.028497 0.04999995 1.578955 1 1 1
v -0.5187924 0.2 1.409482 1 1 1
v -0.6630695 0.2 1.270975 1 1 1
v -0.9167533 0.2 1.744827 1 1 1
v -1.028497 0.2 1.578955 1 1 1
v -0.5187924 0.15 1.409482 1 1 1
v -0.9167533 0.15 1.744827 1 1 1
v -0.6450348 0.04999995 1.288288 1 1 1
v -0.6450348 0.15 1.288288 1 1 1
v -1.014529 0.04999995 1.599689 1 1 1
v -1.014529 0.15 1.599689 1 1 1
v -0.6630695 0.15 1.270975 1 1 1
v -1.028497 0.15 1.578955 1 1 1
v -0.536827 0.15 1.392169 1 1 1
v -0.9307213 0.15 1.724093 1 1 1
v -0.5187924 0.04999995 1.409482 1 1 1
v -0.536827 0.04999995 1.392169 1 1 1
v -0.9167533 0.04999995 1.744827 1 1 1
v -0.9307213 0.04999995 1.724093 1 1 1
v -1.450543 0 1.797135 1 1 1
v -1.381134 0 1.984705 1 1 1
v -1.909077 0 1.89708 1 1 1
v -1.896322 0 2.096673 1 1 1
v -1.450543 0.04999995 1.797135 1 1 1
v -1.909077 0.04999995 1.89708 1 1 1
v -1.381134 0.2 1.984705 1 1 1
v -1.450543 0.2 1.797135 1 1 1
v -1.896322 0.2 2.096673 1 1 1
v -1.909077 0.2 1.89708 1 1 1
v -1.381134 0.15 1.984705 1 1 1
v -1.896322 0.15 2.096673 1 1 1
v -1.441867 0.04999995 1.820581 1 1 1
v -1.441867 0.15 1.820581 1 1 1
v -1.907482 0.04999995 1.922029 1 1 1
v -1.907482 0.15 1.922029 1 1 1
v -1.450543 0.15 1.797135 1 1 1
v -1.909077 0.15 1.89708 1 1 1
v -1.38981 0.15 1.961258 1 1 1
v -1.897916 0.15 2.071723 1 1 1
v -1.381134 0.04999995 1.984705 1 1 1
v -1.38981 0.04999995 1.961258 1 1 1
v -1.896322 0.04999995 2.096673 1 1 1
v -1.897916 0.04999995 2.071723 1 1 1
v -1.999997 0 1.9 1 1 1
v -1.999997 0 2.1 1 1 1
v -1.999997 0.04999995 1.9 1 1 1
v -1.999997 0.2 2.1 1 1 1
v -1.999997 0.2 1.9 1 1 1
v -1.999997 0.15 2.1 1 1 1
v -1.999997 0.04999995 1.925 1 1 1
v -1.999997 0.15 1.925 1 1 1
v -1.999997 0.15 1.9 1 1 1
v -1.999997 0.15 2.075 1 1 1
v -1.999997 0.04999995 2.1 1 1 1
v -1.999997 0.04999995 2.075 1 1 1
v -0.1 0.15 5.414336E-16 1 1 1
v -0.075 0.15 5.414336E-16 1 1 1
v -0.1 0.2 5.414336E-16 1 1 1
v 0.075 0.15 5.414336E-16 1 1 1
v -0.075 0.05000001 5.414336E-16 1 1 1
v 0.1 0.15 5.414336E-16 1 1 1
v 0.1 0.2 5.414336E-16 1 1 1
v 0.075 0.05000001 5.414336E-16 1 1 1
v -0.1 0.05000001 5.414336E-16 1 1 1
v 0.1 0.05000001 5.414336E-16 1 1 1
v 0.1 0 5.414336E-16 1 1 1
v -0.1 0 5.414336E-16 1 1 1
v -2 0.15 2.1 1 1 1
v -2 0.15 2.075 1 1 1
v -2 0.2 2.1 1 1 1
v -2 0.15 1.925 1 1 1
v -2 0.15 1.9 1 1 1
v -2 0.2 1.9 1 1 1
v -2 0.05000001 1.925 1 1 1
v -2 0.05000001 2.075 1 1 1
v -2 0.05000001 1.9 1 1 1
v -2 0.05000001 2.1 1 1 1
v -2 0 1.9 1 1 1
v -2 0 2.1 1 1 1
v -0.06611882 0.15 0.7449201 1 1 1
v -0.1090316 0.15 0.8352445 1 1 1
v -0.2467676 0.15 0.6590945 1 1 1
v -0.2896804 0.15 0.7494189 1 1 1
v -0.2693486 0 0.6483663 1 1 1
v -0.2693486 0.125 0.6483663 1 1 1
v -0.3122615 0 0.7386907 1 1 1
v -0.3122615 0.125 0.7386907 1 1 1
v -0.1090316 -0.02499998 0.8352445 1 1 1
v -0.06611882 -0.02499998 0.7449201 1 1 1
v -0.2896804 -0.02499998 0.7494189 1 1 1
v -0.2467676 -0.02499998 0.6590945 1 1 1
v -0.04353774 0.125 0.7556483 1 1 1
v -0.04353774 0 0.7556483 1 1 1
v -0.08645056 0.125 0.8459727 1 1 1
v -0.08645056 0 0.8459727 1 1 1
v -1.164756 0.15 1.890968 1 1 1
v -1.25508 0.15 1.933881 1 1 1
v -1.250582 0.15 1.71032 1 1 1
v -1.340906 0.15 1.753232 1 1 1
v -1.26131 0 1.687739 1 1 1
v -1.26131 0.125 1.687739 1 1 1
v -1.351634 0 1.730651 1 1 1
v -1.351634 0.125 1.730651 1 1 1
v -1.25508 -0.02499998 1.933881 1 1 1
v -1.164756 -0.02499998 1.890968 1 1 1
v -1.340906 -0.02499998 1.753232 1 1 1
v -1.250582 -0.02499998 1.71032 1 1 1
v -1.154028 0.125 1.913549 1 1 1
v -1.154028 0 1.913549 1 1 1
v -1.244352 0.125 1.956462 1 1 1
v -1.244352 0 1.956462 1 1 1

vn 0 -1 0
vn -1 0 -2.06452E-06
vn -0.954561 0 -0.2980156
vn -0.8528852 0 -0.5220984
vn 0 1 0
vn 1 0 2.06452E-06
vn 0.954561 0 0.2980156
vn 0.8528852 0 0.5220984
vn -0.7071068 0.7071068 -1.459836E-06
vn -0.7071068 -0.7071068 -1.459836E-06
vn -0.6749765 0.7071068 -0.2107289
vn -0.6749765 -0.7071068 -0.2107289
vn -0.603081 0.7071068 -0.3691793
vn -0.603081 -0.7071068 -0.3691793
vn 0.7071068 -0.7071068 1.459836E-06
vn 0.6749765 -0.7071068 0.2107289
vn 0.603081 -0.7071068 0.3691793
vn 0.7071068 0.7071068 1.459836E-06
vn 0.6749765 0.7071068 0.2107289
vn 0.603081 0.7071068 0.3691793
vn -0.7213855 0 -0.6925338
vn -0.5587178 0 -0.8293579
vn 0.7213855 0 0.6925338
vn 0.5587178 0 0.8293579
vn -0.5100965 0.7071068 -0.4896953
vn -0.5100965 -0.7071068 -0.4896953
vn -0.3950732 0.7071068 -0.5864446
vn -0.3950732 -0.7071068 -0.5864446
vn 0.5100965 -0.7071068 0.4896953
vn 0.3950732 -0.7071068 0.5864446
vn 0.5100965 0.7071068 0.4896953
vn 0.3950732 0.7071068 0.5864446
vn -0.3470438 0 -0.937849
vn -0.06377482 0 -0.9979642
vn 0.3470438 0 0.937849
vn 0.06377482 0 0.9979642
vn -0.245397 0.7071068 -0.6631594
vn -0.245397 -0.7071068 -0.6631594
vn -0.04509562 0.7071068 -0.7056673
vn -0.04509562 -0.7071068 -0.7056673
vn 0.245397 -0.7071068 0.6631594
vn 0.04509562 -0.7071068 0.7056673
vn 0.245397 0.7071068 0.6631594
vn 0.04509562 0.7071068 0.7056673
vn -2.205372E-06 0 -0.9999999
vn 2.205372E-06 0 0.9999999
vn -1.549721E-06 0.7071068 -0.7071067
vn -1.549721E-06 -0.7071068 -0.7071067
vn 1.549721E-06 -0.7071068 0.7071067
vn 1.549721E-06 0.7071068 0.7071067
vn 0 0 -1
vn -0.9999999 0 3.576279E-07
vn 0.3456564 0.9238795 0.1642202
vn -0.3456564 0.9238795 -0.1642202
vn -0.8344883 -0.3826834 -0.3964627
vn -0.8344883 0.3826834 -0.3964627
vn 0.3456564 -0.9238795 0.1642202
vn -0.3456564 -0.9238795 -0.1642202
vn 0.8344883 0.3826834 0.3964627
vn 0.8344883 -0.3826834 0.3964627
vn 0.4291282 0 -0.9032436
vn -0.4291282 0 0.9032436
vn 0.1642202 0.9238795 0.3456564
vn -0.1642202 0.9238795 -0.3456564
vn -0.3964626 -0.3826834 -0.8344883
vn -0.3964626 0.3826834 -0.8344883
vn 0.1642202 -0.9238795 0.3456564
vn -0.1642202 -0.9238795 -0.3456564
vn 0.3964626 0.3826834 0.8344883
vn 0.3964626 -0.3826834 0.8344883
vn 0.9032437 0 -0.429128
vn -0.9032437 0 0.429128

vt 0.46875 0.025
vt 0.46875 0.075
vt 0.46875 0.225
vt 0.46875 0.175
vt 0.34375 0.225
vt 0.34375 0.1392857
vt 0.34375 0.2107143
vt 0.34375 0.125

usemtl colormap

f 3/1/1 2/1/1 1/1/1
f 2/1/1 3/1/1 4/1/1
f 4/1/1 5/1/1 2/1/1
f 5/1/1 4/1/1 6/1/1
f 2/1/3 7/2/2 1/1/2
f 7/2/2 2/1/3 8/2/3
f 5/1/4 8/2/3 2/1/3
f 8/2/3 5/1/4 9/2/4
f 12/3/5 11/3/5 10/3/5
f 11/3/5 12/3/5 13/3/5
f 13/3/5 14/3/5 11/3/5
f 14/3/5 13/3/5 15/3/5
f 11/3/7 16/4/6 10/3/6
f 16/4/6 11/3/7 17/4/7
f 14/3/8 17/4/7 11/3/7
f 17/4/7 14/3/8 18/4/8
f 21/2/11 20/4/10 19/2/9
f 20/4/10 21/2/11 22/4/12
f 23/2/13 22/4/12 21/2/11
f 22/4/12 23/2/13 24/4/14
f 26/4/3 12/3/2 25/4/2
f 12/3/2 26/4/3 13/3/3
f 27/4/4 13/3/3 26/4/3
f 13/3/3 27/4/4 15/3/4
f 16/4/1 29/4/16 28/4/15
f 29/4/16 16/4/1 17/4/1
f 17/4/1 30/4/17 29/4/16
f 30/4/17 17/4/1 18/4/1
f 33/2/18 32/2/5 31/2/5
f 32/2/5 33/2/18 34/2/19
f 34/2/19 35/2/5 32/2/5
f 35/2/5 34/2/19 36/2/20
f 29/4/16 33/2/18 28/4/15
f 33/2/18 29/4/16 34/2/19
f 30/4/17 34/2/19 29/4/16
f 34/2/19 30/4/17 36/2/20
f 32/2/7 3/1/6 31/2/6
f 3/1/6 32/2/7 4/1/7
f 35/2/8 4/1/7 32/2/7
f 4/1/7 35/2/8 6/1/8
f 20/4/10 26/4/1 25/4/1
f 26/4/1 20/4/10 22/4/12
f 22/4/12 27/4/1 26/4/1
f 27/4/1 22/4/12 24/4/14
f 7/2/5 21/2/11 19/2/9
f 21/2/11 7/2/5 8/2/5
f 8/2/5 23/2/13 21/2/11
f 23/2/13 8/2/5 9/2/5
f 6/1/1 37/1/1 5/1/1
f 37/1/1 6/1/1 38/1/1
f 38/1/1 39/1/1 37/1/1
f 39/1/1 38/1/1 40/1/1
f 37/1/21 9/2/4 5/1/4
f 9/2/4 37/1/21 41/2/21
f 39/1/22 41/2/21 37/1/21
f 41/2/21 39/1/22 42/2/22
f 15/3/5 43/3/5 14/3/5
f 43/3/5 15/3/5 44/3/5
f 44/3/5 45/3/5 43/3/5
f 45/3/5 44/3/5 46/3/5
f 43/3/23 18/4/8 14/3/8
f 18/4/8 43/3/23 47/4/23
f 45/3/24 47/4/23 43/3/23
f 47/4/23 45/3/24 48/4/24
f 49/2/25 24/4/14 23/2/13
f 24/4/14 49/2/25 50/4/26
f 51/2/27 50/4/26 49/2/25
f 50/4/26 51/2/27 52/4/28
f 53/4/21 15/3/4 27/4/4
f 15/3/4 53/4/21 44/3/21
f 54/4/22 44/3/21 53/4/21
f 44/3/21 54/4/22 46/3/22
f 18/4/1 55/4/29 30/4/17
f 55/4/29 18/4/1 47/4/1
f 47/4/1 56/4/30 55/4/29
f 56/4/30 47/4/1 48/4/1
f 36/2/20 57/2/5 35/2/5
f 57/2/5 36/2/20 58/2/31
f 58/2/31 59/2/5 57/2/5
f 59/2/5 58/2/31 60/2/32
f 55/4/29 36/2/20 30/4/17
f 36/2/20 55/4/29 58/2/31
f 56/4/30 58/2/31 55/4/29
f 58/2/31 56/4/30 60/2/32
f 57/2/23 6/1/8 35/2/8
f 6/1/8 57/2/23 38/1/23
f 59/2/24 38/1/23 57/2/23
f 38/1/23 59/2/24 40/1/24
f 24/4/14 53/4/1 27/4/1
f 53/4/1 24/4/14 50/4/26
f 50/4/26 54/4/1 53/4/1
f 54/4/1 50/4/26 52/4/28
f 9/2/5 49/2/25 23/2/13
f 49/2/25 9/2/5 41/2/5
f 41/2/5 51/2/27 49/2/25
f 51/2/27 41/2/5 42/2/5
f 40/1/1 61/1/1 39/1/1
f 61/1/1 40/1/1 62/1/1
f 62/1/1 63/1/1 61/1/1
f 63/1/1 62/1/1 64/1/1
f 61/1/33 42/2/22 39/1/22
f 42/2/22 61/1/33 65/2/33
f 63/1/34 65/2/33 61/1/33
f 65/2/33 63/1/34 66/2/34
f 46/3/5 67/3/5 45/3/5
f 67/3/5 46/3/5 68/3/5
f 68/3/5 69/3/5 67/3/5
f 69/3/5 68/3/5 70/3/5
f 67/3/35 48/4/24 45/3/24
f 48/4/24 67/3/35 71/4/35
f 69/3/36 71/4/35 67/3/35
f 71/4/35 69/3/36 72/4/36
f 73/2/37 52/4/28 51/2/27
f 52/4/28 73/2/37 74/4/38
f 75/2/39 74/4/38 73/2/37
f 74/4/38 75/2/39 76/4/40
f 77/4/33 46/3/22 54/4/22
f 46/3/22 77/4/33 68/3/33
f 78/4/34 68/3/33 77/4/33
f 68/3/33 78/4/34 70/3/34
f 48/4/1 79/4/41 56/4/30
f 79/4/41 48/4/1 71/4/1
f 71/4/1 80/4/42 79/4/41
f 80/4/42 71/4/1 72/4/1
f 60/2/32 81/2/5 59/2/5
f 81/2/5 60/2/32 82/2/43
f 82/2/43 83/2/5 81/2/5
f 83/2/5 82/2/43 84/2/44
f 79/4/41 60/2/32 56/4/30
f 60/2/32 79/4/41 82/2/43
f 80/4/42 82/2/43 79/4/41
f 82/2/43 80/4/42 84/2/44
f 81/2/35 40/1/24 59/2/24
f 40/1/24 81/2/35 62/1/35
f 83/2/36 62/1/35 81/2/35
f 62/1/35 83/2/36 64/1/36
f 52/4/28 77/4/1 54/4/1
f 77/4/1 52/4/28 74/4/38
f 74/4/38 78/4/1 77/4/1
f 78/4/1 74/4/38 76/4/40
f 42/2/5 73/2/37 51/2/27
f 73/2/37 42/2/5 65/2/5
f 65/2/5 75/2/39 73/2/37
f 75/2/39 65/2/5 66/2/5
f 64/1/1 85/1/1 63/1/1
f 85/1/1 64/1/1 86/1/1
f 86/1/1 85/1/1 85/1/1
f 85/1/1 86/1/1 86/1/1
f 85/1/45 66/2/34 63/1/34
f 66/2/34 85/1/45 87/2/45
f 85/1/45 87/2/45 85/1/45
f 87/2/45 85/1/45 87/2/45
f 70/3/5 88/3/5 69/3/5
f 88/3/5 70/3/5 89/3/5
f 89/3/5 88/3/5 88/3/5
f 88/3/5 89/3/5 89/3/5
f 88/3/46 72/4/36 69/3/36
f 72/4/36 88/3/46 90/4/46
f 88/3/46 90/4/46 88/3/46
f 90/4/46 88/3/46 90/4/46
f 91/2/47 76/4/40 75/2/39
f 76/4/40 91/2/47 92/4/48
f 91/2/47 92/4/48 91/2/47
f 92/4/48 91/2/47 92/4/48
f 93/4/45 70/3/34 78/4/34
f 70/3/34 93/4/45 89/3/45
f 93/4/45 89/3/45 93/4/45
f 89/3/45 93/4/45 89/3/45
f 72/4/1 94/4/49 80/4/42
f 94/4/49 72/4/1 90/4/1
f 90/4/1 94/4/49 94/4/49
f 94/4/49 90/4/1 90/4/1
f 84/2/44 95/2/5 83/2/5
f 95/2/5 84/2/44 96/2/50
f 96/2/50 95/2/5 95/2/5
f 95/2/5 96/2/50 96/2/50
f 94/4/49 84/2/44 80/4/42
f 84/2/44 94/4/49 96/2/50
f 94/4/49 96/2/50 94/4/49
f 96/2/50 94/4/49 96/2/50
f 95/2/46 64/1/36 83/2/36
f 64/1/36 95/2/46 86/1/46
f 95/2/46 86/1/46 95/2/46
f 86/1/46 95/2/46 86/1/46
f 76/4/40 93/4/1 78/4/1
f 93/4/1 76/4/40 92/4/48
f 92/4/48 93/4/1 93/4/1
f 93/4/1 92/4/48 92/4/48
f 66/2/5 91/2/47 75/2/39
f 91/2/47 66/2/5 87/2/5
f 87/2/5 91/2/47 91/2/47
f 91/2/47 87/2/5 87/2/5
f 99/3/51 98/4/51 97/4/51
f 98/4/51 99/3/51 100/4/51
f 100/4/51 101/2/51 98/4/51
f 100/4/51 99/3/51 102/4/51
f 102/4/51 99/3/51 103/3/51
f 104/2/51 101/2/51 100/4/51
f 104/2/51 105/2/51 101/2/51
f 106/2/51 105/2/51 104/2/51
f 107/1/51 105/2/51 106/2/51
f 105/2/51 107/1/51 108/1/51
f 111/3/52 110/4/52 109/4/52
f 110/4/52 111/3/52 112/4/52
f 112/4/52 111/3/52 113/4/52
f 113/4/52 111/3/52 114/3/52
f 115/2/52 110/4/52 112/4/52
f 110/4/52 115/2/52 116/2/52
f 117/2/52 116/2/52 115/2/52
f 117/2/52 118/2/52 116/2/52
f 119/1/52 118/2/52 117/2/52
f 118/2/52 119/1/52 120/1/52
f 123/5/54 122/5/53 121/5/53
f 122/5/53 123/5/54 124/5/54
f 127/6/55 126/7/56 125/6/55
f 126/7/56 127/6/55 128/7/56
f 131/8/58 130/8/57 129/8/57
f 130/8/57 131/8/58 132/8/58
f 135/7/59 134/6/60 133/7/59
f 134/6/60 135/7/59 136/6/60
f 129/8/57 134/6/60 136/6/60
f 134/6/60 129/8/57 130/8/57
f 126/7/56 124/5/54 123/5/54
f 124/5/54 126/7/56 128/7/56
f 127/6/55 132/8/58 131/8/58
f 132/8/58 127/6/55 125/6/55
f 121/5/53 135/7/59 133/7/59
f 135/7/59 121/5/53 122/5/53
f 125/6/61 130/8/61 132/8/61
f 130/8/61 125/6/61 134/6/61
f 134/6/61 125/6/61 126/7/61
f 134/6/61 126/7/61 133/7/61
f 133/7/61 126/7/61 123/5/61
f 133/7/61 123/5/61 121/5/61
f 136/6/62 131/8/62 129/8/62
f 131/8/62 136/6/62 127/6/62
f 127/6/62 136/6/62 135/7/62
f 127/6/62 135/7/62 128/7/62
f 128/7/62 135/7/62 122/5/62
f 128/7/62 122/5/62 124/5/62
f 139/5/64 138/5/63 137/5/63
f 138/5/63 139/5/64 140/5/64
f 143/6/65 142/7/66 141/6/65
f 142/7/66 143/6/65 144/7/66
f 147/8/68 146/8/67 145/8/67
f 146/8/67 147/8/68 148/8/68
f 151/7/69 150/6/70 149/7/69
f 150/6/70 151/7/69 152/6/70
f 145/8/67 150/6/70 152/6/70
f 150/6/70 145/8/67 146/8/67
f 142/7/66 140/5/64 139/5/64
f 140/5/64 142/7/66 144/7/66
f 143/6/65 148/8/68 147/8/68
f 148/8/68 143/6/65 141/6/65
f 137/5/63 151/7/69 149/7/69
f 151/7/69 137/5/63 138/5/63
f 141/6/71 146/8/71 148/8/71
f 146/8/71 141/6/71 150/6/71
f 150/6/71 141/6/71 142/7/71
f 150/6/71 142/7/71 149/7/71
f 149/7/71 142/7/71 139/5/71
f 149/7/71 139/5/71 137/5/71
f 152/6/72 147/8/72 145/8/72
f 147/8/72 152/6/72 143/6/72
f 143/6/72 152/6/72 151/7/72
f 143/6/72 151/7/72 144/7/72
f 144/7/72 151/7/72 138/5/72
f 144/7/72 138/5/72 140/5/72

g coaster-monorail-corner-small




usemtl colormap

f 3/1/1 2/1/1 1/1/1
f 2/1/1 3/1/1 4/1/1
f 4/1/1 5/1/1 2/1/1
f 5/1/1 4/1/1 6/1/1
f 2/1/3 7/2/2 1/1/2
f 7/2/2 2/1/3 8/2/3
f 5/1/4 8/2/3 2/1/3
f 8/2/3 5/1/4 9/2/4
f 12/3/5 11/3/5 10/3/5
f 11/3/5 12/3/5 13/3/5
f 13/3/5 14/3/5 11/3/5
f 14/3/5 13/3/5 15/3/5
f 11/3/7 16/4/6 10/3/6
f 16/4/6 11/3/7 17/4/7
f 14/3/8 17/4/7 11/3/7
f 17/4/7 14/3/8 18/4/8
f 21/2/11 20/4/10 19/2/9
f 20/4/10 21/2/11 22/4/12
f 23/2/13 22/4/12 21/2/11
f 22/4/12 23/2/13 24/4/14
f 26/4/3 12/3/2 25/4/2
f 12/3/2 26/4/3 13/3/3
f 27/4/4 13/3/3 26/4/3
f 13/3/3 27/4/4 15/3/4
f 16/4/1 29/4/16 28/4/15
f 29/4/16 16/4/1 17/4/1
f 17/4/1 30/4/17 29/4/16
f 30/4/17 17/4/1 18/4/1
f 33/2/18 32/2/5 31/2/5
f 32/2/5 33/2/18 34/2/19
f 34/2/19 35/2/5 32/2/5
f 35/2/5 34/2/19 36/2/20
f 29/4/16 33/2/18 28/4/15
f 33/2/18 29/4/16 34/2/19
f 30/4/17 34/2/19 29/4/16
f 34/2/19 30/4/17 36/2/20
f 32/2/7 3/1/6 31/2/6
f 3/1/6 32/2/7 4/1/7
f 35/2/8 4/1/7 32/2/7
f 4/1/7 35/2/8 6/1/8
f 20/4/10 26/4/1 25/4/1
f 26/4/1 20/4/10 22/4/12
f 22/4/12 27/4/1 26/4/1
f 27/4/1 22/4/12 24/4/14
f 7/2/5 21/2/11 19/2/9
f 21/2/11 7/2/5 8/2/5
f 8/2/5 23/2/13 21/2/11
f 23/2/13 8/2/5 9/2/5
f 6/1/1 37/1/1 5/1/1
f 37/1/1 6/1/1 38/1/1
f 38/1/1 39/1/1 37/1/1
f 39/1/1 38/1/1 40/1/1
f 37/1/21 9/2/4 5/1/4
f 9/2/4 37/1/21 41/2/21
f 39/1/22 41/2/21 37/1/21
f 41/2/21 39/1/22 42/2/22
f 15/3/5 43/3/5 14/3/5
f 43/3/5 15/3/5 44/3/5
f 44/3/5 45/3/5 43/3/5
f 45/3/5 44/3/5 46/3/5
f 43/3/23 18/4/8 14/3/8
f 18/4/8 43/3/23 47/4/23
f 45/3/24 47/4/23 43/3/23
f 47/4/23 45/3/24 48/4/24
f 49/2/25 24/4/14 23/2/13
f 24/4/14 49/2/25 50/4/26
f 51/2/27 50/4/26 49/2/25
f 50/4/26 51/2/27 52/4/28
f 53/4/21 15/3/4 27/4/4
f 15/3/4 53/4/21 44/3/21
f 54/4/22 44/3/21 53/4/21
f 44/3/21 54/4/22 46/3/22
f 18/4/1 55/4/29 30/4/17
f 55/4/29 18/4/1 47/4/1
f 47/4/1 56/4/30 55/4/29
f 56/4/30 47/4/1 48/4/1
f 36/2/20 57/2/5 35/2/5
f 57/2/5 36/2/20 58/2/31
f 58/2/31 59/2/5 57/2/5
f 59/2/5 58/2/31 60/2/32
f 55/4/29 36/2/20 30/4/17
f 36/2/20 55/4/29 58/2/31
f 56/4/30 58/2/31 55/4/29
f 58/2/31 56/4/30 60/2/32
f 57/2/23 6/1/8 35/2/8
f 6/1/8 57/2/23 38/1/23
f 59/2/24 38/1/23 57/2/23
f 38/1/23 59/2/24 40/1/24
f 24/4/14 53/4/1 27/4/1
f 53/4/1 24/4/14 50/4/26
f 50/4/26 54/4/1 53/4/1
f 54/4/1 50/4/26 52/4/28
f 9/2/5 49/2/25 23/2/13
f 49/2/25 9/2/5 41/2/5
f 41/2/5 51/2/27 49/2/25
f 51/2/27 41/2/5 42/2/5
f 40/1/1 61/1/1 39/1/1
f 61/1/1 40/1/1 62/1/1
f 62/1/1 63/1/1 61/1/1
f 63/1/1 62/1/1 64/1/1
f 61/1/33 42/2/22 39/1/22
f 42/2/22 61/1/33 65/2/33
f 63/1/34 65/2/33 61/1/33
f 65/2/33 63/1/34 66/2/34
f 46/3/5 67/3/5 45/3/5
f 67/3/5 46/3/5 68/3/5
f 68/3/5 69/3/5 67/3/5
f 69/3/5 68/3/5 70/3/5
f 67/3/35 48/4/24 45/3/24
f 48/4/24 67/3/35 71/4/35
f 69/3/36 71/4/35 67/3/35
f 71/4/35 69/3/36 72/4/36
f 73/2/37 52/4/28 51/2/27
f 52/4/28 73/2/37 74/4/38
f 75/2/39 74/4/38 73/2/37
f 74/4/38 75/2/39 76/4/40
f 77/4/33 46/3/22 54/4/22
f 46/3/22 77/4/33 68/3/33
f 78/4/34 68/3/33 77/4/33
f 68/3/33 78/4/34 70/3/34
f 48/4/1 79/4/41 56/4/30
f 79/4/41 48/4/1 71/4/1
f 71/4/1 80/4/42 79/4/41
f 80/4/42 71/4/1 72/4/1
f 60/2/32 81/2/5 59/2/5
f 81/2/5 60/2/32 82/2/43
f 82/2/43 83/2/5 81/2/5
f 83/2/5 82/2/43 84/2/44
f 79/4/41 60/2/32 56/4/30
f 60/2/32 79/4/41 82/2/43
f 80/4/42 82/2/43 79/4/41
f 82/2/43 80/4/42 84/2/44
f 81/2/35 40/1/24 59/2/24
f 40/1/24 81/2/35 62/1/35
f 83/2/36 62/1/35 81/2/35
f 62/1/35 83/2/36 64/1/36
f 52/4/28 77/4/1 54/4/1
f 77/4/1 52/4/28 74/4/38
f 74/4/38 78/4/1 77/4/1
f 78/4/1 74/4/38 76/4/40
f 42/2/5 73/2/37 51/2/27
f 73/2/37 42/2/5 65/2/5
f 65/2/5 75/2/39 73/2/37
f 75/2/39 65/2/5 66/2/5
f 64/1/1 85/1/1 63/1/1
f 85/1/1 64/1/1 86/1/1
f 86/1/1 85/1/1 85/1/1
f 85/1/1 86/1/1 86/1/1
f 85/1/45 66/2/34 63/1/34
f 66/2/34 85/1/45 87/2/45
f 85/1/45 87/2/45 85/1/45
f 87/2/45 85/1/45 87/2/45
f 70/3/5 88/3/5 69/3/5
f 88/3/5 70/3/5 89/3/5
f 89/3/5 88/3/5 88/3/5
f 88/3/5 89/3/5 89/3/5
f 88/3/46 72/4/36 69/3/36
f 72/4/36 88/3/46 90/4/46
f 88/3/46 90/4/46 88/3/46
f 90/4/46 88/3/46 90/4/46
f 91/2/47 76/4/40 75/2/39
f 76/4/40 91/2/47 92/4/48
f 91/2/47 92/4/48 91/2/47
f 92/4/48 91/2/47 92/4/48
f 93/4/45 70/3/34 78/4/34
f 70/3/34 93/4/45 89/3/45
f 93/4/45 89/3/45 93/4/45
f 89/3/45 93/4/45 89/3/45
f 72/4/1 94/4/49 80/4/42
f 94/4/49 72/4/1 90/4/1
f 90/4/1 94/4/49 94/4/49
f 94/4/49 90/4/1 90/4/1
f 84/2/44 95/2/5 83/2/5
f 95/2/5 84/2/44 96/2/50
f 96/2/50 95/2/5 95/2/5
f 95/2/5 96/2/50 96/2/50
f 94/4/49 84/2/44 80/4/42
f 84/2/44 94/4/49 96/2/50
f 94/4/49 96/2/50 94/4/49
f 96/2/50 94/4/49 96/2/50
f 95/2/46 64/1/36 83/2/36
f 64/1/36 95/2/46 86/1/46
f 95/2/46 86/1/46 95/2/46
f 86/1/46 95/2/46 86/1/46
f 76/4/40 93/4/1 78/4/1
f 93/4/1 76/4/40 92/4/48
f 92/4/48 93/4/1 93/4/1
f 93/4/1 92/4/48 92/4/48
f 66/2/5 91/2/47 75/2/39
f 91/2/47 66/2/5 87/2/5
f 87/2/5 91/2/47 91/2/47
f 91/2/47 87/2/5 87/2/5
f 99/3/51 98/4/51 97/4/51
f 98/4/51 99/3/51 100/4/51
f 100/4/51 101/2/51 98/4/51
f 100/4/51 99/3/51 102/4/51
f 102/4/51 99/3/51 103/3/51
f 104/2/51 101/2/51 100/4/51
f 104/2/51 105/2/51 101/2/51
f 106/2/51 105/2/51 104/2/51
f 107/1/51 105/2/51 106/2/51
f 105/2/51 107/1/51 108/1/51
f 111/3/52 110/4/52 109/4/52
f 110/4/52 111/3/52 112/4/52
f 112/4/52 111/3/52 113/4/52
f 113/4/52 111/3/52 114/3/52
f 115/2/52 110/4/52 112/4/52
f 110/4/52 115/2/52 116/2/52
f 117/2/52 116/2/52 115/2/52
f 117/2/52 118/2/52 116/2/52
f 119/1/52 118/2/52 117/2/52
f 118/2/52 119/1/52 120/1/52
f 123/5/54 122/5/53 121/5/53
f 122/5/53 123/5/54 124/5/54
f 127/6/55 126/7/56 125/6/55
f 126/7/56 127/6/55 128/7/56
f 131/8/58 130/8/57 129/8/57
f 130/8/57 131/8/58 132/8/58
f 135/7/59 134/6/60 133/7/59
f 134/6/60 135/7/59 136/6/60
f 129/8/57 134/6/60 136/6/60
f 134/6/60 129/8/57 130/8/57
f 126/7/56 124/5/54 123/5/54
f 124/5/54 126/7/56 128/7/56
f 127/6/55 132/8/58 131/8/58
f 132/8/58 127/6/55 125/6/55
f 121/5/53 135/7/59 133/7/59
f 135/7/59 121/5/53 122/5/53
f 125/6/61 130/8/61 132/8/61
f 130/8/61 125/6/61 134/6/61
f 134/6/61 125/6/61 126/7/61
f 134/6/61 126/7/61 133/7/61
f 133/7/61 126/7/61 123/5/61
f 133/7/61 123/5/61 121/5/61
f 136/6/62 131/8/62 129/8/62
f 131/8/62 136/6/62 127/6/62
f 127/6/62 136/6/62 135/7/62
f 127/6/62 135/7/62 128/7/62
f 128/7/62 135/7/62 122/5/62
f 128/7/62 122/5/62 124/5/62
f 139/5/64 138/5/63 137/5/63
f 138/5/63 139/5/64 140/5/64
f 143/6/65 142/7/66 141/6/65
f 142/7/66 143/6/65 144/7/66
f 147/8/68 146/8/67 145/8/67
f 146/8/67 147/8/68 148/8/68
f 151/7/69 150/6/70 149/7/69
f 150/6/70 151/7/69 152/6/70
f 145/8/67 150/6/70 152/6/70
f 150/6/70 145/8/67 146/8/67
f 142/7/66 140/5/64 139/5/64
f 140/5/64 142/7/66 144/7/66
f 143/6/65 148/8/68 147/8/68
f 148/8/68 143/6/65 141/6/65
f 137/5/63 151/7/69 149/7/69
f 151/7/69 137/5/63 138/5/63
f 141/6/71 146/8/71 148/8/71
f 146/8/71 141/6/71 150/6/71
f 150/6/71 141/6/71 142/7/71
f 150/6/71 142/7/71 149/7/71
f 149/7/71 142/7/71 139/5/71
f 149/7/71 139/5/71 137/5/71
f 152/6/72 147/8/72 145/8/72
f 147/8/72 152/6/72 143/6/72
f 143/6/72 152/6/72 151/7/72
f 143/6/72 151/7/72 144/7/72
f 144/7/72 151/7/72 138/5/72
f 144/7/72 138/5/72 140/5/72

