# Created by Kenney (www.kenney.nl)

mtllib coaster-wood-track.mtl

g coaster-wood-track

v 0.5 0.25 0.5 1 1 1
v 0.4 0.25 0.5 1 1 1
v 0.5 0.3 0.5 1 1 1
v 0.4 0.3 0.5 1 1 1
v 0.5 0.3 -0.5 1 1 1
v 0.5 0.3 0 1 1 1
v 0.4 0.3 -0.5 1 1 1
v 0.4 0.3 0 1 1 1
v 0.5 0.25 -0.5 1 1 1
v 0.5 0.25 0 1 1 1
v 0.4 0.25 -0.5 1 1 1
v 0.4 0.25 0 1 1 1
v -0.4 0.25 0.5 1 1 1
v -0.5 0.25 0.5 1 1 1
v -0.4 0.3 0.5 1 1 1
v -0.5 0.3 0.5 1 1 1
v -0.4 0.3 -0.5 1 1 1
v -0.4 0.3 0 1 1 1
v -0.5 0.3 -0.5 1 1 1
v -0.5 0.3 0 1 1 1
v -0.4 0.25 -0.5 1 1 1
v -0.4 0.25 0 1 1 1
v -0.5 0.25 -0.5 1 1 1
v -0.5 0.25 0 1 1 1
v 0.2 0.1 0.5 1 1 1
v 0.3 0.1 0.5 1 1 1
v 0.2 0.05 0.5 1 1 1
v 0.3 0.05 0.5 1 1 1
v 0.15 0.05 0.5 1 1 1
v 0.35 0.05 0.5 1 1 1
v 0.15 0 0.5 1 1 1
v 0.35 0 0.5 1 1 1
v 0.2 0.05 -0.5 1 1 1
v 0.2 0.1 -0.5 1 1 1
v 0.2 0.05 7.219114E-16 1 1 1
v 0.2 0.1 7.219114E-16 1 1 1
v 0.3 0.1 -0.5 1 1 1
v 0.3 0.05 -0.5 1 1 1
v 0.35 0.05 -0.5 1 1 1
v 0.15 0.05 -0.5 1 1 1
v 0.35 0 -0.5 1 1 1
v 0.15 0 -0.5 1 1 1
v 0.35 0 7.219114E-16 1 1 1
v 0.15 0 7.219114E-16 1 1 1
v 0.35 0.05 7.219114E-16 1 1 1
v 0.3 0.05 7.219114E-16 1 1 1
v 0.15 0.05 7.219114E-16 1 1 1
v 0.3 0.1 7.219114E-16 1 1 1
v -0.3 0.1 0.5 1 1 1
v -0.2 0.1 0.5 1 1 1
v -0.3 0.05 0.5 1 1 1
v -0.2 0.05 0.5 1 1 1
v -0.35 0.05 0.5 1 1 1
v -0.15 0.05 0.5 1 1 1
v -0.35 0 0.5 1 1 1
v -0.15 0 0.5 1 1 1
v -0.3 0.05 -0.5 1 1 1
v -0.3 0.1 -0.5 1 1 1
v -0.3 0.05 -1.443823E-15 1 1 1
v -0.3 0.1 -1.443823E-15 1 1 1
v -0.2 0.1 -0.5 1 1 1
v -0.2 0.05 -0.5 1 1 1
v -0.15 0.05 -0.5 1 1 1
v -0.35 0.05 -0.5 1 1 1
v -0.15 0 -0.5 1 1 1
v -0.35 0 -0.5 1 1 1
v -0.15 0 -1.443823E-15 1 1 1
v -0.35 0 -1.443823E-15 1 1 1
v -0.15 0.05 -1.443823E-15 1 1 1
v -0.2 0.05 -1.443823E-15 1 1 1
v -0.35 0.05 -1.443823E-15 1 1 1
v -0.2 0.1 -1.443823E-15 1 1 1

vn 0 0 1
vn 0.7071068 0.7071068 0
vn -0.7071068 0.7071068 0
vn 1 0 0
vn -1 0 0
vn 0 0 -1
vn 0 -1 0
vn 0 1 0

vt 0.71875 0.025
vt 0.71875 0.225
vt 0.71875 0.125
vt 0.46875 0.225

usemtl colormap

f 3/2/1 2/1/1 1/1/1
f 2/1/1 3/2/1 4/2/1
f 7/2/3 6/2/2 5/2/2
f 6/2/2 7/2/3 8/2/3
f 8/2/3 3/2/2 6/2/2
f 3/2/2 8/2/3 4/2/3
f 6/2/2 9/1/4 5/2/2
f 9/1/4 6/2/2 10/1/4
f 3/2/2 10/1/4 6/2/2
f 10/1/4 3/2/2 1/1/4
f 12/1/5 7/2/3 11/1/5
f 7/2/3 12/1/5 8/2/3
f 2/1/5 8/2/3 12/1/5
f 8/2/3 2/1/5 4/2/3
f 7/2/6 9/1/6 11/1/6
f 9/1/6 7/2/6 5/2/6
f 2/1/7 10/1/7 1/1/7
f 10/1/7 2/1/7 12/1/7
f 12/1/7 9/1/7 10/1/7
f 9/1/7 12/1/7 11/1/7
f 15/2/1 14/1/1 13/1/1
f 14/1/1 15/2/1 16/2/1
f 19/2/3 18/2/2 17/2/2
f 18/2/2 19/2/3 20/2/3
f 20/2/3 15/2/2 18/2/2
f 15/2/2 20/2/3 16/2/3
f 18/2/2 21/1/4 17/2/2
f 21/1/4 18/2/2 22/1/4
f 15/2/2 22/1/4 18/2/2
f 22/1/4 15/2/2 13/1/4
f 24/1/5 19/2/3 23/1/5
f 19/2/3 24/1/5 20/2/3
f 14/1/5 20/2/3 24/1/5
f 20/2/3 14/1/5 16/2/3
f 19/2/6 21/1/6 23/1/6
f 21/1/6 19/2/6 17/2/6
f 14/1/7 22/1/7 13/1/7
f 22/1/7 14/1/7 24/1/7
f 24/1/7 21/1/7 22/1/7
f 21/1/7 24/1/7 23/1/7
f 27/3/1 26/2/1 25/2/1
f 26/2/1 27/3/1 28/3/1
f 29/3/1 28/3/1 27/3/1
f 29/3/1 30/3/1 28/3/1
f 31/1/1 30/3/1 29/3/1
f 30/3/1 31/1/1 32/1/1
f 35/3/5 34/2/3 33/3/5
f 34/2/3 35/3/5 36/2/3
f 27/3/5 36/2/3 35/3/5
f 36/2/3 27/3/5 25/2/3
f 38/3/6 34/2/6 37/2/6
f 34/2/6 38/3/6 33/3/6
f 39/3/6 33/3/6 38/3/6
f 39/3/6 40/3/6 33/3/6
f 41/1/6 40/3/6 39/3/6
f 40/3/6 41/1/6 42/1/6
f 31/1/7 43/1/7 32/1/7
f 43/1/7 31/1/7 44/1/7
f 44/1/7 41/1/7 43/1/7
f 41/1/7 44/1/7 42/1/7
f 38/3/8 45/3/8 39/3/8
f 45/3/8 38/3/8 46/3/8
f 46/3/8 30/3/8 45/3/8
f 30/3/8 46/3/8 28/3/8
f 45/3/4 41/1/4 39/3/4
f 41/1/4 45/3/4 43/1/4
f 30/3/4 43/1/4 45/3/4
f 43/1/4 30/3/4 32/1/4
f 44/1/5 40/3/5 42/1/5
f 40/3/5 44/1/5 47/3/5
f 31/1/5 47/3/5 44/1/5
f 47/3/5 31/1/5 29/3/5
f 46/3/4 26/2/2 28/3/4
f 26/2/2 46/3/4 48/2/2
f 38/3/4 48/2/2 46/3/4
f 48/2/2 38/3/4 37/2/2
f 27/3/8 47/3/8 29/3/8
f 47/3/8 27/3/8 35/3/8
f 35/3/8 40/3/8 47/3/8
f 40/3/8 35/3/8 33/3/8
f 51/3/1 50/2/1 49/2/1
f 50/2/1 51/3/1 52/3/1
f 53/3/1 52/3/1 51/3/1
f 53/3/1 54/3/1 52/3/1
f 55/1/1 54/3/1 53/3/1
f 54/3/1 55/1/1 56/1/1
f 59/3/5 58/2/3 57/3/5
f 58/2/3 59/3/5 60/2/3
f 51/3/5 60/2/3 59/3/5
f 60/2/3 51/3/5 49/2/3
f 62/3/6 58/2/6 61/2/6
f 58/2/6 62/3/6 57/3/6
f 63/3/6 57/3/6 62/3/6
f 63/3/6 64/3/6 57/3/6
f 65/1/6 64/3/6 63/3/6
f 64/3/6 65/1/6 66/1/6
f 55/1/7 67/1/7 56/1/7
f 67/1/7 55/1/7 68/1/7
f 68/1/7 65/1/7 67/1/7
f 65/1/7 68/1/7 66/1/7
f 62/3/8 69/3/8 63/3/8
f 69/3/8 62/3/8 70/3/8
f 70/3/8 54/3/8 69/3/8
f 54/3/8 70/3/8 52/3/8
f 69/3/4 65/1/4 63/3/4
f 65/1/4 69/3/4 67/1/4
f 54/3/4 67/1/4 69/3/4
f 67/1/4 54/3/4 56/1/4
f 68/1/5 64/3/5 66/1/5
f 64/3/5 68/1/5 71/3/5
f 55/1/5 71/3/5 68/1/5
f 71/3/5 55/1/5 53/3/5
f 70/3/4 50/2/2 52/3/4
f 50/2/2 70/3/4 72/2/2
f 62/3/4 72/2/2 70/3/4
f 72/2/2 62/3/4 61/2/2
f 51/3/8 71/3/8 53/3/8
f 71/3/8 51/3/8 59/3/8
f 59/3/8 64/3/8 71/3/8
f 64/3/8 59/3/8 57/3/8
f 34/4/3 48/4/2 37/4/2
f 48/4/2 34/4/3 36/4/3
f 36/4/3 26/4/2 48/4/2
f 26/4/2 36/4/3 25/4/3
f 58/4/3 72/4/2 61/4/2
f 72/4/2 58/4/3 60/4/3
f 60/4/3 50/4/2 72/4/2
f 50/4/2 60/4/3 49/4/3

g coaster-wood-track




usemtl colormap

f 3/2/1 2/1/1 1/1/1
f 2/1/1 3/2/1 4/2/1
f 7/2/3 6/2/2 5/2/2
f 6/2/2 7/2/3 8/2/3
f 8/2/3 3/2/2 6/2/2
f 3/2/2 8/2/3 4/2/3
f 6/2/2 9/1/4 5/2/2
f 9/1/4 6/2/2 10/1/4
f 3/2/2 10/1/4 6/2/2
f 10/1/4 3/2/2 1/1/4
f 12/1/5 7/2/3 11/1/5
f 7/2/3 12/1/5 8/2/3
f 2/1/5 8/2/3 12/1/5
f 8/2/3 2/1/5 4/2/3
f 7/2/6 9/1/6 11/1/6
f 9/1/6 7/2/6 5/2/6
f 2/1/7 10/1/7 1/1/7
f 10/1/7 2/1/7 12/1/7
f 12/1/7 9/1/7 10/1/7
f 9/1/7 12/1/7 11/1/7
f 15/2/1 14/1/1 13/1/1
f 14/1/1 15/2/1 16/2/1
f 19/2/3 18/2/2 17/2/2
f 18/2/2 19/2/3 20/2/3
f 20/2/3 15/2/2 18/2/2
f 15/2/2 20/2/3 16/2/3
f 18/2/2 21/1/4 17/2/2
f 21/1/4 18/2/2 22/1/4
f 15/2/2 22/1/4 18/2/2
f 22/1/4 15/2/2 13/1/4
f 24/1/5 19/2/3 23/1/5
f 19/2/3 24/1/5 20/2/3
f 14/1/5 20/2/3 24/1/5
f 20/2/3 14/1/5 16/2/3
f 19/2/6 21/1/6 23/1/6
f 21/1/6 19/2/6 17/2/6
f 14/1/7 22/1/7 13/1/7
f 22/1/7 14/1/7 24/1/7
f 24/1/7 21/1/7 22/1/7
f 21/1/7 24/1/7 23/1/7
f 27/3/1 26/2/1 25/2/1
f 26/2/1 27/3/1 28/3/1
f 29/3/1 28/3/1 27/3/1
f 29/3/1 30/3/1 28/3/1
f 31/1/1 30/3/1 29/3/1
f 30/3/1 31/1/1 32/1/1
f 35/3/5 34/2/3 33/3/5
f 34/2/3 35/3/5 36/2/3
f 27/3/5 36/2/3 35/3/5
f 36/2/3 27/3/5 25/2/3
f 38/3/6 34/2/6 37/2/6
f 34/2/6 38/3/6 33/3/6
f 39/3/6 33/3/6 38/3/6
f 39/3/6 40/3/6 33/3/6
f 41/1/6 40/3/6 39/3/6
f 40/3/6 41/1/6 42/1/6
f 31/1/7 43/1/7 32/1/7
f 43/1/7 31/1/7 44/1/7
f 44/1/7 41/1/7 43/1/7
f 41/1/7 44/1/7 42/1/7
f 38/3/8 45/3/8 39/3/8
f 45/3/8 38/3/8 46/3/8
f 46/3/8 30/3/8 45/3/8
f 30/3/8 46/3/8 28/3/8
f 45/3/4 41/1/4 39/3/4
f 41/1/4 45/3/4 43/1/4
f 30/3/4 43/1/4 45/3/4
f 43/1/4 30/3/4 32/1/4
f 44/1/5 40/3/5 42/1/5
f 40/3/5 44/1/5 47/3/5
f 31/1/5 47/3/5 44/1/5
f 47/3/5 31/1/5 29/3/5
f 46/3/4 26/2/2 28/3/4
f 26/2/2 46/3/4 48/2/2
f 38/3/4 48/2/2 46/3/4
f 48/2/2 38/3/4 37/2/2
f 27/3/8 47/3/8 29/3/8
f 47/3/8 27/3/8 35/3/8
f 35/3/8 40/3/8 47/3/8
f 40/3/8 35/3/8 33/3/8
f 51/3/1 50/2/1 49/2/1
f 50/2/1 51/3/1 52/3/1
f 53/3/1 52/3/1 51/3/1
f 53/3/1 54/3/1 52/3/1
f 55/1/1 54/3/1 53/3/1
f 54/3/1 55/1/1 56/1/1
f 59/3/5 58/2/3 57/3/5
f 58/2/3 59/3/5 60/2/3
f 51/3/5 60/2/3 59/3/5
f 60/2/3 51/3/5 49/2/3
f 62/3/6 58/2/6 61/2/6
f 58/2/6 62/3/6 57/3/6
f 63/3/6 57/3/6 62/3/6
f 63/3/6 64/3/6 57/3/6
f 65/1/6 64/3/6 63/3/6
f 64/3/6 65/1/6 66/1/6
f 55/1/7 67/1/7 56/1/7
f 67/1/7 55/1/7 68/1/7
f 68/1/7 65/1/7 67/1/7
f 65/1/7 68/1/7 66/1/7
f 62/3/8 69/3/8 63/3/8
f 69/3/8 62/3/8 70/3/8
f 70/3/8 54/3/8 69/3/8
f 54/3/8 70/3/8 52/3/8
f 69/3/4 65/1/4 63/3/4
f 65/1/4 69/3/4 67/1/4
f 54/3/4 67/1/4 69/3/4
f 67/1/4 54/3/4 56/1/4
f 68/1/5 64/3/5 66/1/5
f 64/3/5 68/1/5 71/3/5
f 55/1/5 71/3/5 68/1/5
f 71/3/5 55/1/5 53/3/5
f 70/3/4 50/2/2 52/3/4
f 50/2/2 70/3/4 72/2/2
f 62/3/4 72/2/2 70/3/4
f 72/2/2 62/3/4 61/2/2
f 51/3/8 71/3/8 53/3/8
f 71/3/8 51/3/8 59/3/8
f 59/3/8 64/3/8 71/3/8
f 64/3/8 59/3/8 57/3/8
f 34/4/3 48/4/2 37/4/2
f 48/4/2 34/4/3 36/4/3
f 36/4/3 26/4/2 48/4/2
f 26/4/2 36/4/3 25/4/3
f 58/4/3 72/4/2 61/4/2
f 72/4/2 58/4/3 60/4/3
f 60/4/3 50/4/2 72/4/2
f 50/4/2 60/4/3 49/4/3

