# Created by Kenney (www.kenney.nl)

mtllib coaster-mouse-cap-front.mtl

g coaster-mouse-cap-front

v 0.175 -5.639933E-17 5.05338E-15 1 1 1
v 0.225 -5.639933E-17 5.05338E-15 1 1 1
v 0.15 0.025 5.05338E-15 1 1 1
v 0.25 0.025 5.05338E-15 1 1 1
v 0.15 0.075 5.05338E-15 1 1 1
v 0.25 0.075 5.05338E-15 1 1 1
v 0.175 0.1 5.05338E-15 1 1 1
v 0.225 0.1 5.05338E-15 1 1 1
v -0.225 -5.639933E-17 3.609557E-15 1 1 1
v -0.175 -5.639933E-17 3.609557E-15 1 1 1
v -0.25 0.025 3.609557E-15 1 1 1
v -0.15 0.025 3.609557E-15 1 1 1
v -0.25 0.075 3.609557E-15 1 1 1
v -0.15 0.075 3.609557E-15 1 1 1
v -0.225 0.1 3.609557E-15 1 1 1
v -0.175 0.1 3.609557E-15 1 1 1

vn 0 0 -1

vt 0.34375 0.275
vt 0.34375 0.325
vt 0.34375 0.425
vt 0.34375 0.475

usemtl colormap

f 3/2/1 2/1/1 1/1/1
f 2/1/1 3/2/1 4/2/1
f 4/2/1 3/2/1 5/3/1
f 4/2/1 5/3/1 6/3/1
f 6/3/1 5/3/1 7/4/1
f 6/3/1 7/4/1 8/4/1
f 11/2/1 10/1/1 9/1/1
f 10/1/1 11/2/1 12/2/1
f 12/2/1 11/2/1 13/3/1
f 12/2/1 13/3/1 14/3/1
f 14/3/1 13/3/1 15/4/1
f 14/3/1 15/4/1 16/4/1

g coaster-mouse-cap-front




usemtl colormap

f 3/2/1 2/1/1 1/1/1
f 2/1/1 3/2/1 4/2/1
f 4/2/1 3/2/1 5/3/1
f 4/2/1 5/3/1 6/3/1
f 6/3/1 5/3/1 7/4/1
f 6/3/1 7/4/1 8/4/1
f 11/2/1 10/1/1 9/1/1
f 10/1/1 11/2/1 12/2/1
f 12/2/1 11/2/1 13/3/1
f 12/2/1 13/3/1 14/3/1
f 14/3/1 13/3/1 15/4/1
f 14/3/1 15/4/1 16/4/1

