# Created by Kenney (www.kenney.nl)

mtllib coaster-monorail-straight.mtl

g coaster-monorail-straight

v -0.0999999 0 0 1 1 1
v -0.0999999 0 0.4981065 1 1 1
v 0.0999999 0 0 1 1 1
v 0.0999999 0 0.4981065 1 1 1
v -0.0999999 0 0.9987755 1 1 1
v 0.0999999 0 0.9987755 1 1 1
v -0.0999999 0.04999995 0 1 1 1
v -0.0999999 0.04999995 0.4981065 1 1 1
v -0.0999999 0.04999995 0.9987755 1 1 1
v 0.0999999 0.2 0 1 1 1
v 0.0999999 0.2 0.4981065 1 1 1
v -0.0999999 0.2 0 1 1 1
v -0.0999999 0.2 0.4981065 1 1 1
v 0.0999999 0.2 0.9987755 1 1 1
v -0.0999999 0.2 0.9987755 1 1 1
v 0.0999999 0.15 0 1 1 1
v 0.0999999 0.15 0.4981065 1 1 1
v 0.0999999 0.15 0.9987755 1 1 1
v -0.07500005 0.04999995 0 1 1 1
v -0.07500005 0.15 0 1 1 1
v -0.07500005 0.04999995 0.4981065 1 1 1
v -0.07500005 0.15 0.4981065 1 1 1
v -0.07500005 0.04999995 0.9987755 1 1 1
v -0.07500005 0.15 0.9987755 1 1 1
v -0.0999999 0.15 0 1 1 1
v -0.0999999 0.15 0.4981065 1 1 1
v -0.0999999 0.15 0.9987755 1 1 1
v 0.07500005 0.15 0 1 1 1
v 0.07500005 0.15 0.4981065 1 1 1
v 0.07500005 0.15 0.9987755 1 1 1
v 0.0999999 0.04999995 0 1 1 1
v 0.0999999 0.04999995 0.4981065 1 1 1
v 0.07500005 0.04999995 0 1 1 1
v 0.07500005 0.04999995 0.4981065 1 1 1
v 0.0999999 0.04999995 0.9987755 1 1 1
v 0.07500005 0.04999995 0.9987755 1 1 1
v -0.0999999 0 1.499881 1 1 1
v 0.0999999 0 1.499881 1 1 1
v -0.0999999 0 2 1 1 1
v 0.0999999 0 2 1 1 1
v -0.0999999 0.04999995 1.499881 1 1 1
v -0.0999999 0.04999995 2 1 1 1
v 0.0999999 0.2 1.499881 1 1 1
v -0.0999999 0.2 1.499881 1 1 1
v 0.0999999 0.2 2 1 1 1
v -0.0999999 0.2 2 1 1 1
v 0.0999999 0.15 1.499881 1 1 1
v 0.0999999 0.15 2 1 1 1
v -0.07500005 0.04999995 1.499881 1 1 1
v -0.07500005 0.15 1.499881 1 1 1
v -0.07500005 0.04999995 2 1 1 1
v -0.07500005 0.15 2 1 1 1
v -0.0999999 0.15 1.499881 1 1 1
v -0.0999999 0.15 2 1 1 1
v 0.07500005 0.15 1.499881 1 1 1
v 0.07500005 0.15 2 1 1 1
v 0.0999999 0.04999995 1.499881 1 1 1
v 0.07500005 0.04999995 1.499881 1 1 1
v 0.0999999 0.04999995 2 1 1 1
v 0.07500005 0.04999995 2 1 1 1
v -0.0999999 0 2.500119 1 1 1
v 0.0999999 0 2.500119 1 1 1
v -0.0999999 0 3.001224 1 1 1
v 0.0999999 0 3.001224 1 1 1
v -0.0999999 0.04999995 2.500119 1 1 1
v -0.0999999 0.04999995 3.001224 1 1 1
v 0.0999999 0.2 2.500119 1 1 1
v -0.0999999 0.2 2.500119 1 1 1
v 0.0999999 0.2 3.001224 1 1 1
v -0.0999999 0.2 3.001224 1 1 1
v 0.0999999 0.15 2.500119 1 1 1
v 0.0999999 0.15 3.001224 1 1 1
v -0.07500005 0.04999995 2.500119 1 1 1
v -0.07500005 0.15 2.500119 1 1 1
v -0.07500005 0.04999995 3.001224 1 1 1
v -0.07500005 0.15 3.001224 1 1 1
v -0.0999999 0.15 2.500119 1 1 1
v -0.0999999 0.15 3.001224 1 1 1
v 0.07500005 0.15 2.500119 1 1 1
v 0.07500005 0.15 3.001224 1 1 1
v 0.0999999 0.04999995 2.500119 1 1 1
v 0.07500005 0.04999995 2.500119 1 1 1
v 0.0999999 0.04999995 3.001224 1 1 1
v 0.07500005 0.04999995 3.001224 1 1 1
v -0.0999999 0 3.501894 1 1 1
v 0.0999999 0 3.501894 1 1 1
v -0.0999999 0 4 1 1 1
v 0.0999999 0 4 1 1 1
v -0.0999999 0.04999995 3.501894 1 1 1
v -0.0999999 0.04999995 4 1 1 1
v 0.0999999 0.2 3.501894 1 1 1
v -0.0999999 0.2 3.501894 1 1 1
v 0.0999999 0.2 4 1 1 1
v -0.0999999 0.2 4 1 1 1
v 0.0999999 0.15 3.501894 1 1 1
v 0.0999999 0.15 4 1 1 1
v -0.07500005 0.04999995 3.501894 1 1 1
v -0.07500005 0.15 3.501894 1 1 1
v -0.07500005 0.04999995 4 1 1 1
v -0.07500005 0.15 4 1 1 1
v -0.0999999 0.15 3.501894 1 1 1
v -0.0999999 0.15 4 1 1 1
v 0.07500005 0.15 3.501894 1 1 1
v 0.07500005 0.15 4 1 1 1
v 0.0999999 0.04999995 3.501894 1 1 1
v 0.07500005 0.04999995 3.501894 1 1 1
v 0.0999999 0.04999995 4 1 1 1
v 0.07500005 0.04999995 4 1 1 1
v -0.1 0.15 5.414336E-16 1 1 1
v -0.075 0.15 5.414336E-16 1 1 1
v -0.1 0.2 5.414336E-16 1 1 1
v 0.075 0.15 5.414336E-16 1 1 1
v -0.075 0.05000001 5.414336E-16 1 1 1
v 0.1 0.15 5.414336E-16 1 1 1
v 0.1 0.2 5.414336E-16 1 1 1
v 0.075 0.05000001 5.414336E-16 1 1 1
v -0.1 0.05000001 5.414336E-16 1 1 1
v 0.1 0.05000001 5.414336E-16 1 1 1
v 0.1 0 5.414336E-16 1 1 1
v -0.1 0 5.414336E-16 1 1 1
v 0.1 0.15 4 1 1 1
v 0.075 0.15 4 1 1 1
v 0.1 0.2 4 1 1 1
v -0.075 0.15 4 1 1 1
v -0.1 0.15 4 1 1 1
v -0.1 0.2 4 1 1 1
v -0.075 0.05000001 4 1 1 1
v 0.075 0.05000001 4 1 1 1
v -0.1 0.05000001 4 1 1 1
v 0.1 0.05000001 4 1 1 1
v -0.1 0 4 1 1 1
v 0.1 0 4 1 1 1
v 0.1 0.15 0.9487755 1 1 1
v 0.1 0.15 1.048775 1 1 1
v -0.1 0.15 0.9487755 1 1 1
v -0.1 0.15 1.048775 1 1 1
v -0.125 0 0.9487755 1 1 1
v -0.125 0.125 0.9487755 1 1 1
v -0.125 0 1.048775 1 1 1
v -0.125 0.125 1.048775 1 1 1
v 0.1 -0.02499998 1.048775 1 1 1
v 0.1 -0.02499998 0.9487755 1 1 1
v -0.1 -0.02499998 1.048775 1 1 1
v -0.1 -0.02499998 0.9487755 1 1 1
v 0.125 0.125 0.9487755 1 1 1
v 0.125 0 0.9487755 1 1 1
v 0.125 0.125 1.048775 1 1 1
v 0.125 0 1.048775 1 1 1
v 0.1 0.15 2.951224 1 1 1
v 0.1 0.15 3.051224 1 1 1
v -0.1 0.15 2.951224 1 1 1
v -0.1 0.15 3.051224 1 1 1
v -0.125 0 2.951224 1 1 1
v -0.125 0.125 2.951224 1 1 1
v -0.125 0 3.051224 1 1 1
v -0.125 0.125 3.051224 1 1 1
v 0.1 -0.02499998 3.051224 1 1 1
v 0.1 -0.02499998 2.951224 1 1 1
v -0.1 -0.02499998 3.051224 1 1 1
v -0.1 -0.02499998 2.951224 1 1 1
v 0.125 0.125 2.951224 1 1 1
v 0.125 0 2.951224 1 1 1
v 0.125 0.125 3.051224 1 1 1
v 0.125 0 3.051224 1 1 1

vn 0 -1 0
vn -1 0 0
vn 0 1 0
vn 1 0 0
vn -0.7071068 0.7071068 0
vn -0.7071068 -0.7071068 0
vn 0.7071068 -0.7071068 0
vn 0.7071068 0.7071068 0
vn 0 0 -1
vn 0 0 1
vn 0.3826834 0.9238795 0
vn -0.3826834 0.9238795 0
vn -0.9238795 -0.3826834 0
vn -0.9238795 0.3826834 0
vn 0.3826834 -0.9238795 0
vn -0.3826834 -0.9238795 0
vn 0.9238795 0.3826834 0
vn 0.9238795 -0.3826834 0

vt 0.46875 0.025
vt 0.46875 0.075
vt 0.46875 0.225
vt 0.46875 0.175
vt 0.34375 0.225
vt 0.34375 0.1392857
vt 0.34375 0.2107143
vt 0.34375 0.125

usemtl colormap

f 3/1/1 2/1/1 1/1/1
f 2/1/1 3/1/1 4/1/1
f 4/1/1 5/1/1 2/1/1
f 5/1/1 4/1/1 6/1/1
f 2/1/2 7/2/2 1/1/2
f 7/2/2 2/1/2 8/2/2
f 5/1/2 8/2/2 2/1/2
f 8/2/2 5/1/2 9/2/2
f 12/3/3 11/3/3 10/3/3
f 11/3/3 12/3/3 13/3/3
f 13/3/3 14/3/3 11/3/3
f 14/3/3 13/3/3 15/3/3
f 11/3/4 16/4/4 10/3/4
f 16/4/4 11/3/4 17/4/4
f 14/3/4 17/4/4 11/3/4
f 17/4/4 14/3/4 18/4/4
f 21/2/5 20/4/6 19/2/5
f 20/4/6 21/2/5 22/4/6
f 23/2/5 22/4/6 21/2/5
f 22/4/6 23/2/5 24/4/6
f 26/4/2 12/3/2 25/4/2
f 12/3/2 26/4/2 13/3/2
f 27/4/2 13/3/2 26/4/2
f 13/3/2 27/4/2 15/3/2
f 16/4/1 29/4/7 28/4/7
f 29/4/7 16/4/1 17/4/1
f 17/4/1 30/4/7 29/4/7
f 30/4/7 17/4/1 18/4/1
f 33/2/8 32/2/3 31/2/3
f 32/2/3 33/2/8 34/2/8
f 34/2/8 35/2/3 32/2/3
f 35/2/3 34/2/8 36/2/8
f 29/4/7 33/2/8 28/4/7
f 33/2/8 29/4/7 34/2/8
f 30/4/7 34/2/8 29/4/7
f 34/2/8 30/4/7 36/2/8
f 32/2/4 3/1/4 31/2/4
f 3/1/4 32/2/4 4/1/4
f 35/2/4 4/1/4 32/2/4
f 4/1/4 35/2/4 6/1/4
f 20/4/6 26/4/1 25/4/1
f 26/4/1 20/4/6 22/4/6
f 22/4/6 27/4/1 26/4/1
f 27/4/1 22/4/6 24/4/6
f 7/2/3 21/2/5 19/2/5
f 21/2/5 7/2/3 8/2/3
f 8/2/3 23/2/5 21/2/5
f 23/2/5 8/2/3 9/2/3
f 6/1/1 37/1/1 5/1/1
f 37/1/1 6/1/1 38/1/1
f 38/1/1 39/1/1 37/1/1
f 39/1/1 38/1/1 40/1/1
f 37/1/2 9/2/2 5/1/2
f 9/2/2 37/1/2 41/2/2
f 39/1/2 41/2/2 37/1/2
f 41/2/2 39/1/2 42/2/2
f 15/3/3 43/3/3 14/3/3
f 43/3/3 15/3/3 44/3/3
f 44/3/3 45/3/3 43/3/3
f 45/3/3 44/3/3 46/3/3
f 43/3/4 18/4/4 14/3/4
f 18/4/4 43/3/4 47/4/4
f 45/3/4 47/4/4 43/3/4
f 47/4/4 45/3/4 48/4/4
f 49/2/5 24/4/6 23/2/5
f 24/4/6 49/2/5 50/4/6
f 51/2/5 50/4/6 49/2/5
f 50/4/6 51/2/5 52/4/6
f 53/4/2 15/3/2 27/4/2
f 15/3/2 53/4/2 44/3/2
f 54/4/2 44/3/2 53/4/2
f 44/3/2 54/4/2 46/3/2
f 18/4/1 55/4/7 30/4/7
f 55/4/7 18/4/1 47/4/1
f 47/4/1 56/4/7 55/4/7
f 56/4/7 47/4/1 48/4/1
f 36/2/8 57/2/3 35/2/3
f 57/2/3 36/2/8 58/2/8
f 58/2/8 59/2/3 57/2/3
f 59/2/3 58/2/8 60/2/8
f 55/4/7 36/2/8 30/4/7
f 36/2/8 55/4/7 58/2/8
f 56/4/7 58/2/8 55/4/7
f 58/2/8 56/4/7 60/2/8
f 57/2/4 6/1/4 35/2/4
f 6/1/4 57/2/4 38/1/4
f 59/2/4 38/1/4 57/2/4
f 38/1/4 59/2/4 40/1/4
f 24/4/6 53/4/1 27/4/1
f 53/4/1 24/4/6 50/4/6
f 50/4/6 54/4/1 53/4/1
f 54/4/1 50/4/6 52/4/6
f 9/2/3 49/2/5 23/2/5
f 49/2/5 9/2/3 41/2/3
f 41/2/3 51/2/5 49/2/5
f 51/2/5 41/2/3 42/2/3
f 40/1/1 61/1/1 39/1/1
f 61/1/1 40/1/1 62/1/1
f 62/1/1 63/1/1 61/1/1
f 63/1/1 62/1/1 64/1/1
f 61/1/2 42/2/2 39/1/2
f 42/2/2 61/1/2 65/2/2
f 63/1/2 65/2/2 61/1/2
f 65/2/2 63/1/2 66/2/2
f 46/3/3 67/3/3 45/3/3
f 67/3/3 46/3/3 68/3/3
f 68/3/3 69/3/3 67/3/3
f 69/3/3 68/3/3 70/3/3
f 67/3/4 48/4/4 45/3/4
f 48/4/4 67/3/4 71/4/4
f 69/3/4 71/4/4 67/3/4
f 71/4/4 69/3/4 72/4/4
f 73/2/5 52/4/6 51/2/5
f 52/4/6 73/2/5 74/4/6
f 75/2/5 74/4/6 73/2/5
f 74/4/6 75/2/5 76/4/6
f 77/4/2 46/3/2 54/4/2
f 46/3/2 77/4/2 68/3/2
f 78/4/2 68/3/2 77/4/2
f 68/3/2 78/4/2 70/3/2
f 48/4/1 79/4/7 56/4/7
f 79/4/7 48/4/1 71/4/1
f 71/4/1 80/4/7 79/4/7
f 80/4/7 71/4/1 72/4/1
f 60/2/8 81/2/3 59/2/3
f 81/2/3 60/2/8 82/2/8
f 82/2/8 83/2/3 81/2/3
f 83/2/3 82/2/8 84/2/8
f 79/4/7 60/2/8 56/4/7
f 60/2/8 79/4/7 82/2/8
f 80/4/7 82/2/8 79/4/7
f 82/2/8 80/4/7 84/2/8
f 81/2/4 40/1/4 59/2/4
f 40/1/4 81/2/4 62/1/4
f 83/2/4 62/1/4 81/2/4
f 62/1/4 83/2/4 64/1/4
f 52/4/6 77/4/1 54/4/1
f 77/4/1 52/4/6 74/4/6
f 74/4/6 78/4/1 77/4/1
f 78/4/1 74/4/6 76/4/6
f 42/2/3 73/2/5 51/2/5
f 73/2/5 42/2/3 65/2/3
f 65/2/3 75/2/5 73/2/5
f 75/2/5 65/2/3 66/2/3
f 64/1/1 85/1/1 63/1/1
f 85/1/1 64/1/1 86/1/1
f 86/1/1 87/1/1 85/1/1
f 87/1/1 86/1/1 88/1/1
f 85/1/2 66/2/2 63/1/2
f 66/2/2 85/1/2 89/2/2
f 87/1/2 89/2/2 85/1/2
f 89/2/2 87/1/2 90/2/2
f 70/3/3 91/3/3 69/3/3
f 91/3/3 70/3/3 92/3/3
f 92/3/3 93/3/3 91/3/3
f 93/3/3 92/3/3 94/3/3
f 91/3/4 72/4/4 69/3/4
f 72/4/4 91/3/4 95/4/4
f 93/3/4 95/4/4 91/3/4
f 95/4/4 93/3/4 96/4/4
f 97/2/5 76/4/6 75/2/5
f 76/4/6 97/2/5 98/4/6
f 99/2/5 98/4/6 97/2/5
f 98/4/6 99/2/5 100/4/6
f 101/4/2 70/3/2 78/4/2
f 70/3/2 101/4/2 92/3/2
f 102/4/2 92/3/2 101/4/2
f 92/3/2 102/4/2 94/3/2
f 72/4/1 103/4/7 80/4/7
f 103/4/7 72/4/1 95/4/1
f 95/4/1 104/4/7 103/4/7
f 104/4/7 95/4/1 96/4/1
f 84/2/8 105/2/3 83/2/3
f 105/2/3 84/2/8 106/2/8
f 106/2/8 107/2/3 105/2/3
f 107/2/3 106/2/8 108/2/8
f 103/4/7 84/2/8 80/4/7
f 84/2/8 103/4/7 106/2/8
f 104/4/7 106/2/8 103/4/7
f 106/2/8 104/4/7 108/2/8
f 105/2/4 64/1/4 83/2/4
f 64/1/4 105/2/4 86/1/4
f 107/2/4 86/1/4 105/2/4
f 86/1/4 107/2/4 88/1/4
f 76/4/6 101/4/1 78/4/1
f 101/4/1 76/4/6 98/4/6
f 98/4/6 102/4/1 101/4/1
f 102/4/1 98/4/6 100/4/6
f 66/2/3 97/2/5 75/2/5
f 97/2/5 66/2/3 89/2/3
f 89/2/3 99/2/5 97/2/5
f 99/2/5 89/2/3 90/2/3
f 111/3/9 110/4/9 109/4/9
f 110/4/9 111/3/9 112/4/9
f 112/4/9 113/2/9 110/4/9
f 112/4/9 111/3/9 114/4/9
f 114/4/9 111/3/9 115/3/9
f 116/2/9 113/2/9 112/4/9
f 116/2/9 117/2/9 113/2/9
f 118/2/9 117/2/9 116/2/9
f 119/1/9 117/2/9 118/2/9
f 117/2/9 119/1/9 120/1/9
f 123/3/10 122/4/10 121/4/10
f 122/4/10 123/3/10 124/4/10
f 124/4/10 123/3/10 125/4/10
f 125/4/10 123/3/10 126/3/10
f 127/2/10 122/4/10 124/4/10
f 122/4/10 127/2/10 128/2/10
f 129/2/10 128/2/10 127/2/10
f 129/2/10 130/2/10 128/2/10
f 131/1/10 130/2/10 129/2/10
f 130/2/10 131/1/10 132/1/10
f 135/5/12 134/5/11 133/5/11
f 134/5/11 135/5/12 136/5/12
f 139/6/13 138/7/14 137/6/13
f 138/7/14 139/6/13 140/7/14
f 143/8/16 142/8/15 141/8/15
f 142/8/15 143/8/16 144/8/16
f 147/7/17 146/6/18 145/7/17
f 146/6/18 147/7/17 148/6/18
f 141/8/15 146/6/18 148/6/18
f 146/6/18 141/8/15 142/8/15
f 138/7/14 136/5/12 135/5/12
f 136/5/12 138/7/14 140/7/14
f 139/6/13 144/8/16 143/8/16
f 144/8/16 139/6/13 137/6/13
f 133/5/11 147/7/17 145/7/17
f 147/7/17 133/5/11 134/5/11
f 137/6/9 142/8/9 144/8/9
f 142/8/9 137/6/9 146/6/9
f 146/6/9 137/6/9 138/7/9
f 146/6/9 138/7/9 145/7/9
f 145/7/9 138/7/9 135/5/9
f 145/7/9 135/5/9 133/5/9
f 148/6/10 143/8/10 141/8/10
f 143/8/10 148/6/10 139/6/10
f 139/6/10 148/6/10 147/7/10
f 139/6/10 147/7/10 140/7/10
f 140/7/10 147/7/10 134/5/10
f 140/7/10 134/5/10 136/5/10
f 151/5/12 150/5/11 149/5/11
f 150/5/11 151/5/12 152/5/12
f 155/6/13 154/7/14 153/6/13
f 154/7/14 155/6/13 156/7/14
f 159/8/16 158/8/15 157/8/15
f 158/8/15 159/8/16 160/8/16
f 163/7/17 162/6/18 161/7/17
f 162/6/18 163/7/17 164/6/18
f 157/8/15 162/6/18 164/6/18
f 162/6/18 157/8/15 158/8/15
f 154/7/14 152/5/12 151/5/12
f 152/5/12 154/7/14 156/7/14
f 155/6/13 160/8/16 159/8/16
f 160/8/16 155/6/13 153/6/13
f 149/5/11 163/7/17 161/7/17
f 163/7/17 149/5/11 150/5/11
f 153/6/9 158/8/9 160/8/9
f 158/8/9 153/6/9 162/6/9
f 162/6/9 153/6/9 154/7/9
f 162/6/9 154/7/9 161/7/9
f 161/7/9 154/7/9 151/5/9
f 161/7/9 151/5/9 149/5/9
f 164/6/10 159/8/10 157/8/10
f 159/8/10 164/6/10 155/6/10
f 155/6/10 164/6/10 163/7/10
f 155/6/10 163/7/10 156/7/10
f 156/7/10 163/7/10 150/5/10
f 156/7/10 150/5/10 152/5/10

g coaster-monorail-straight




usemtl colormap

f 3/1/1 2/1/1 1/1/1
f 2/1/1 3/1/1 4/1/1
f 4/1/1 5/1/1 2/1/1
f 5/1/1 4/1/1 6/1/1
f 2/1/2 7/2/2 1/1/2
f 7/2/2 2/1/2 8/2/2
f 5/1/2 8/2/2 2/1/2
f 8/2/2 5/1/2 9/2/2
f 12/3/3 11/3/3 10/3/3
f 11/3/3 12/3/3 13/3/3
f 13/3/3 14/3/3 11/3/3
f 14/3/3 13/3/3 15/3/3
f 11/3/4 16/4/4 10/3/4
f 16/4/4 11/3/4 17/4/4
f 14/3/4 17/4/4 11/3/4
f 17/4/4 14/3/4 18/4/4
f 21/2/5 20/4/6 19/2/5
f 20/4/6 21/2/5 22/4/6
f 23/2/5 22/4/6 21/2/5
f 22/4/6 23/2/5 24/4/6
f 26/4/2 12/3/2 25/4/2
f 12/3/2 26/4/2 13/3/2
f 27/4/2 13/3/2 26/4/2
f 13/3/2 27/4/2 15/3/2
f 16/4/1 29/4/7 28/4/7
f 29/4/7 16/4/1 17/4/1
f 17/4/1 30/4/7 29/4/7
f 30/4/7 17/4/1 18/4/1
f 33/2/8 32/2/3 31/2/3
f 32/2/3 33/2/8 34/2/8
f 34/2/8 35/2/3 32/2/3
f 35/2/3 34/2/8 36/2/8
f 29/4/7 33/2/8 28/4/7
f 33/2/8 29/4/7 34/2/8
f 30/4/7 34/2/8 29/4/7
f 34/2/8 30/4/7 36/2/8
f 32/2/4 3/1/4 31/2/4
f 3/1/4 32/2/4 4/1/4
f 35/2/4 4/1/4 32/2/4
f 4/1/4 35/2/4 6/1/4
f 20/4/6 26/4/1 25/4/1
f 26/4/1 20/4/6 22/4/6
f 22/4/6 27/4/1 26/4/1
f 27/4/1 22/4/6 24/4/6
f 7/2/3 21/2/5 19/2/5
f 21/2/5 7/2/3 8/2/3
f 8/2/3 23/2/5 21/2/5
f 23/2/5 8/2/3 9/2/3
f 6/1/1 37/1/1 5/1/1
f 37/1/1 6/1/1 38/1/1
f 38/1/1 39/1/1 37/1/1
f 39/1/1 38/1/1 40/1/1
f 37/1/2 9/2/2 5/1/2
f 9/2/2 37/1/2 41/2/2
f 39/1/2 41/2/2 37/1/2
f 41/2/2 39/1/2 42/2/2
f 15/3/3 43/3/3 14/3/3
f 43/3/3 15/3/3 44/3/3
f 44/3/3 45/3/3 43/3/3
f 45/3/3 44/3/3 46/3/3
f 43/3/4 18/4/4 14/3/4
f 18/4/4 43/3/4 47/4/4
f 45/3/4 47/4/4 43/3/4
f 47/4/4 45/3/4 48/4/4
f 49/2/5 24/4/6 23/2/5
f 24/4/6 49/2/5 50/4/6
f 51/2/5 50/4/6 49/2/5
f 50/4/6 51/2/5 52/4/6
f 53/4/2 15/3/2 27/4/2
f 15/3/2 53/4/2 44/3/2
f 54/4/2 44/3/2 53/4/2
f 44/3/2 54/4/2 46/3/2
f 18/4/1 55/4/7 30/4/7
f 55/4/7 18/4/1 47/4/1
f 47/4/1 56/4/7 55/4/7
f 56/4/7 47/4/1 48/4/1
f 36/2/8 57/2/3 35/2/3
f 57/2/3 36/2/8 58/2/8
f 58/2/8 59/2/3 57/2/3
f 59/2/3 58/2/8 60/2/8
f 55/4/7 36/2/8 30/4/7
f 36/2/8 55/4/7 58/2/8
f 56/4/7 58/2/8 55/4/7
f 58/2/8 56/4/7 60/2/8
f 57/2/4 6/1/4 35/2/4
f 6/1/4 57/2/4 38/1/4
f 59/2/4 38/1/4 57/2/4
f 38/1/4 59/2/4 40/1/4
f 24/4/6 53/4/1 27/4/1
f 53/4/1 24/4/6 50/4/6
f 50/4/6 54/4/1 53/4/1
f 54/4/1 50/4/6 52/4/6
f 9/2/3 49/2/5 23/2/5
f 49/2/5 9/2/3 41/2/3
f 41/2/3 51/2/5 49/2/5
f 51/2/5 41/2/3 42/2/3
f 40/1/1 61/1/1 39/1/1
f 61/1/1 40/1/1 62/1/1
f 62/1/1 63/1/1 61/1/1
f 63/1/1 62/1/1 64/1/1
f 61/1/2 42/2/2 39/1/2
f 42/2/2 61/1/2 65/2/2
f 63/1/2 65/2/2 61/1/2
f 65/2/2 63/1/2 66/2/2
f 46/3/3 67/3/3 45/3/3
f 67/3/3 46/3/3 68/3/3
f 68/3/3 69/3/3 67/3/3
f 69/3/3 68/3/3 70/3/3
f 67/3/4 48/4/4 45/3/4
f 48/4/4 67/3/4 71/4/4
f 69/3/4 71/4/4 67/3/4
f 71/4/4 69/3/4 72/4/4
f 73/2/5 52/4/6 51/2/5
f 52/4/6 73/2/5 74/4/6
f 75/2/5 74/4/6 73/2/5
f 74/4/6 75/2/5 76/4/6
f 77/4/2 46/3/2 54/4/2
f 46/3/2 77/4/2 68/3/2
f 78/4/2 68/3/2 77/4/2
f 68/3/2 78/4/2 70/3/2
f 48/4/1 79/4/7 56/4/7
f 79/4/7 48/4/1 71/4/1
f 71/4/1 80/4/7 79/4/7
f 80/4/7 71/4/1 72/4/1
f 60/2/8 81/2/3 59/2/3
f 81/2/3 60/2/8 82/2/8
f 82/2/8 83/2/3 81/2/3
f 83/2/3 82/2/8 84/2/8
f 79/4/7 60/2/8 56/4/7
f 60/2/8 79/4/7 82/2/8
f 80/4/7 82/2/8 79/4/7
f 82/2/8 80/4/7 84/2/8
f 81/2/4 40/1/4 59/2/4
f 40/1/4 81/2/4 62/1/4
f 83/2/4 62/1/4 81/2/4
f 62/1/4 83/2/4 64/1/4
f 52/4/6 77/4/1 54/4/1
f 77/4/1 52/4/6 74/4/6
f 74/4/6 78/4/1 77/4/1
f 78/4/1 74/4/6 76/4/6
f 42/2/3 73/2/5 51/2/5
f 73/2/5 42/2/3 65/2/3
f 65/2/3 75/2/5 73/2/5
f 75/2/5 65/2/3 66/2/3
f 64/1/1 85/1/1 63/1/1
f 85/1/1 64/1/1 86/1/1
f 86/1/1 87/1/1 85/1/1
f 87/1/1 86/1/1 88/1/1
f 85/1/2 66/2/2 63/1/2
f 66/2/2 85/1/2 89/2/2
f 87/1/2 89/2/2 85/1/2
f 89/2/2 87/1/2 90/2/2
f 70/3/3 91/3/3 69/3/3
f 91/3/3 70/3/3 92/3/3
f 92/3/3 93/3/3 91/3/3
f 93/3/3 92/3/3 94/3/3
f 91/3/4 72/4/4 69/3/4
f 72/4/4 91/3/4 95/4/4
f 93/3/4 95/4/4 91/3/4
f 95/4/4 93/3/4 96/4/4
f 97/2/5 76/4/6 75/2/5
f 76/4/6 97/2/5 98/4/6
f 99/2/5 98/4/6 97/2/5
f 98/4/6 99/2/5 100/4/6
f 101/4/2 70/3/2 78/4/2
f 70/3/2 101/4/2 92/3/2
f 102/4/2 92/3/2 101/4/2
f 92/3/2 102/4/2 94/3/2
f 72/4/1 103/4/7 80/4/7
f 103/4/7 72/4/1 95/4/1
f 95/4/1 104/4/7 103/4/7
f 104/4/7 95/4/1 96/4/1
f 84/2/8 105/2/3 83/2/3
f 105/2/3 84/2/8 106/2/8
f 106/2/8 107/2/3 105/2/3
f 107/2/3 106/2/8 108/2/8
f 103/4/7 84/2/8 80/4/7
f 84/2/8 103/4/7 106/2/8
f 104/4/7 106/2/8 103/4/7
f 106/2/8 104/4/7 108/2/8
f 105/2/4 64/1/4 83/2/4
f 64/1/4 105/2/4 86/1/4
f 107/2/4 86/1/4 105/2/4
f 86/1/4 107/2/4 88/1/4
f 76/4/6 101/4/1 78/4/1
f 101/4/1 76/4/6 98/4/6
f 98/4/6 102/4/1 101/4/1
f 102/4/1 98/4/6 100/4/6
f 66/2/3 97/2/5 75/2/5
f 97/2/5 66/2/3 89/2/3
f 89/2/3 99/2/5 97/2/5
f 99/2/5 89/2/3 90/2/3
f 111/3/9 110/4/9 109/4/9
f 110/4/9 111/3/9 112/4/9
f 112/4/9 113/2/9 110/4/9
f 112/4/9 111/3/9 114/4/9
f 114/4/9 111/3/9 115/3/9
f 116/2/9 113/2/9 112/4/9
f 116/2/9 117/2/9 113/2/9
f 118/2/9 117/2/9 116/2/9
f 119/1/9 117/2/9 118/2/9
f 117/2/9 119/1/9 120/1/9
f 123/3/10 122/4/10 121/4/10
f 122/4/10 123/3/10 124/4/10
f 124/4/10 123/3/10 125/4/10
f 125/4/10 123/3/10 126/3/10
f 127/2/10 122/4/10 124/4/10
f 122/4/10 127/2/10 128/2/10
f 129/2/10 128/2/10 127/2/10
f 129/2/10 130/2/10 128/2/10
f 131/1/10 130/2/10 129/2/10
f 130/2/10 131/1/10 132/1/10
f 135/5/12 134/5/11 133/5/11
f 134/5/11 135/5/12 136/5/12
f 139/6/13 138/7/14 137/6/13
f 138/7/14 139/6/13 140/7/14
f 143/8/16 142/8/15 141/8/15
f 142/8/15 143/8/16 144/8/16
f 147/7/17 146/6/18 145/7/17
f 146/6/18 147/7/17 148/6/18
f 141/8/15 146/6/18 148/6/18
f 146/6/18 141/8/15 142/8/15
f 138/7/14 136/5/12 135/5/12
f 136/5/12 138/7/14 140/7/14
f 139/6/13 144/8/16 143/8/16
f 144/8/16 139/6/13 137/6/13
f 133/5/11 147/7/17 145/7/17
f 147/7/17 133/5/11 134/5/11
f 137/6/9 142/8/9 144/8/9
f 142/8/9 137/6/9 146/6/9
f 146/6/9 137/6/9 138/7/9
f 146/6/9 138/7/9 145/7/9
f 145/7/9 138/7/9 135/5/9
f 145/7/9 135/5/9 133/5/9
f 148/6/10 143/8/10 141/8/10
f 143/8/10 148/6/10 139/6/10
f 139/6/10 148/6/10 147/7/10
f 139/6/10 147/7/10 140/7/10
f 140/7/10 147/7/10 134/5/10
f 140/7/10 134/5/10 136/5/10
f 151/5/12 150/5/11 149/5/11
f 150/5/11 151/5/12 152/5/12
f 155/6/13 154/7/14 153/6/13
f 154/7/14 155/6/13 156/7/14
f 159/8/16 158/8/15 157/8/15
f 158/8/15 159/8/16 160/8/16
f 163/7/17 162/6/18 161/7/17
f 162/6/18 163/7/17 164/6/18
f 157/8/15 162/6/18 164/6/18
f 162/6/18 157/8/15 158/8/15
f 154/7/14 152/5/12 151/5/12
f 152/5/12 154/7/14 156/7/14
f 155/6/13 160/8/16 159/8/16
f 160/8/16 155/6/13 153/6/13
f 149/5/11 163/7/17 161/7/17
f 163/7/17 149/5/11 150/5/11
f 153/6/9 158/8/9 160/8/9
f 158/8/9 153/6/9 162/6/9
f 162/6/9 153/6/9 154/7/9
f 162/6/9 154/7/9 161/7/9
f 161/7/9 154/7/9 151/5/9
f 161/7/9 151/5/9 149/5/9
f 164/6/10 159/8/10 157/8/10
f 159/8/10 164/6/10 155/6/10
f 155/6/10 164/6/10 163/7/10
f 155/6/10 163/7/10 156/7/10
f 156/7/10 163/7/10 150/5/10
f 156/7/10 150/5/10 152/5/10

