# Created by Kenney (www.kenney.nl)

mtllib coaster-monorail-straight-bend.mtl

g coaster-monorail-straight-bend

v -0.1000004 0 3.099442E-06 1 1 1
v -0.1000004 0.07765305 0.4920355 1 1 1
v 0.1000004 0 3.099442E-06 1 1 1
v 0.1000004 0.07766402 0.4920321 1 1 1
v -0.1000004 0.2854612 0.9454677 1 1 1
v 0.1000004 0.2854804 0.9454559 1 1 1
v -0.1000004 0.04999995 2.980232E-06 1 1 1
v -0.1000032 0.1253811 0.4771347 1 1 1
v -0.1000061 0.3281054 0.9193628 1 1 1
v 0.1000004 0.2 2.682209E-06 1 1 1
v 0.09998894 0.2685761 0.432429 1 1 1
v -0.1000004 0.2 2.682209E-06 1 1 1
v -0.1000118 0.2685653 0.4324324 1 1 1
v 0.09997749 0.4560574 0.8410363 1 1 1
v -0.1000223 0.4560382 0.8410481 1 1 1
v 0.1000004 0.15 2.801418E-06 1 1 1
v 0.0999918 0.2208482 0.4473298 1 1 1
v 0.09998322 0.4134132 0.8671412 1 1 1
v -0.07499981 0.04999995 2.980232E-06 1 1 1
v -0.07499981 0.15 2.801418E-06 1 1 1
v -0.07500267 0.1253825 0.4771343 1 1 1
v -0.07500839 0.2208385 0.4473327 1 1 1
v -0.07500553 0.3281078 0.9193614 1 1 1
v -0.07501698 0.4133964 0.8671515 1 1 1
v -0.1000004 0.15 2.801418E-06 1 1 1
v -0.100009 0.2208372 0.4473332 1 1 1
v -0.1000166 0.413394 0.867153 1 1 1
v 0.07499981 0.15 2.801418E-06 1 1 1
v 0.07499123 0.2208469 0.4473302 1 1 1
v 0.07498264 0.4134108 0.8671427 1 1 1
v 0.1000004 0.04999995 2.980232E-06 1 1 1
v 0.09999752 0.1253921 0.4771314 1 1 1
v 0.07499981 0.04999995 2.980232E-06 1 1 1
v 0.07499695 0.1253908 0.4771317 1 1 1
v 0.09999466 0.3281246 0.919351 1 1 1
v 0.07499409 0.3281223 0.9193525 1 1 1
v -0.1000004 0.5909188 1.34024 1 1 1
v 0.1000004 0.5909429 1.340217 1 1 1
v -0.1000004 0.9726125 1.661909 1 1 1
v 0.1000004 0.9726373 1.661872 1 1 1
v -0.100008 0.6269879 1.305613 1 1 1
v -0.1000109 1.000548 1.620441 1 1 1
v 0.09996605 0.73522 1.20171 1 1 1
v -0.1000338 0.7351959 1.201733 1 1 1
v 0.09995556 1.084381 1.496001 1 1 1
v -0.1000443 1.084356 1.496038 1 1 1
v 0.09997463 0.6991508 1.236337 1 1 1
v 0.099967 1.056445 1.537469 1 1 1
v -0.07500839 0.626991 1.30561 1 1 1
v -0.07502556 0.6991296 1.236357 1 1 1
v -0.07501125 1.000551 1.620437 1 1 1
v -0.07503319 1.056423 1.537501 1 1 1
v -0.1000252 0.6991266 1.23636 1 1 1
v -0.1000338 1.05642 1.537506 1 1 1
v 0.07497501 0.6991477 1.23634 1 1 1
v 0.07496643 1.056442 1.537473 1 1 1
v 0.0999918 0.6270123 1.30559 1 1 1
v 0.07499123 0.6270092 1.305593 1 1 1
v 0.09998894 1.000573 1.620404 1 1 1
v 0.07498932 1.00057 1.620409 1 1 1
v -0.1000004 1.415829 1.890946 1 1 1
v 0.1000004 1.415848 1.890894 1 1 1
v -0.1000004 1.902698 1.996907 1 1 1
v 0.1000004 1.902702 1.996845 1 1 1
v -0.1000137 1.433181 1.844054 1 1 1
v -0.1000156 1.905886 1.947009 1 1 1
v 0.09994411 1.485257 1.703324 1 1 1
v -0.1000557 1.485238 1.703376 1 1 1
v 0.09993744 1.915457 1.797252 1 1 1
v -0.1000633 1.915452 1.797315 1 1 1
v 0.09995842 1.467905 1.750217 1 1 1
v 0.0999527 1.912268 1.84715 1 1 1
v -0.07501411 1.433184 1.844047 1 1 1
v -0.07504177 1.467888 1.750262 1 1 1
v -0.07501602 1.905887 1.947001 1 1 1
v -0.07504749 1.912264 1.847205 1 1 1
v -0.1000414 1.467885 1.750269 1 1 1
v -0.1000471 1.912264 1.847213 1 1 1
v 0.0749588 1.467902 1.750223 1 1 1
v 0.07495308 1.912267 1.847158 1 1 1
v 0.09998608 1.4332 1.844001 1 1 1
v 0.07498646 1.433198 1.844008 1 1 1
v 0.09998417 1.90589 1.946947 1 1 1
v 0.07498455 1.90589 1.946954 1 1 1
v -0.1000004 1.999997 2 1 1 1
v 0.1000004 1.999997 2 1 1 1
v -0.1000004 1.999997 1.95 1 1 1
v 0.1000004 1.999997 1.8 1 1 1
v -0.1000004 1.999997 1.8 1 1 1
v 0.1000004 1.999997 1.85 1 1 1
v -0.07499981 1.999997 1.95 1 1 1
v -0.07499981 1.999997 1.85 1 1 1
v -0.1000004 1.999997 1.85 1 1 1
v 0.07499981 1.999997 1.85 1 1 1
v 0.1000004 1.999997 1.95 1 1 1
v 0.07499981 1.999997 1.95 1 1 1
v -0.1 0.15 5.414336E-16 1 1 1
v -0.075 0.15 5.414336E-16 1 1 1
v -0.1 0.2 5.414336E-16 1 1 1
v 0.075 0.15 5.414336E-16 1 1 1
v -0.075 0.05000001 5.414336E-16 1 1 1
v 0.1 0.15 5.414336E-16 1 1 1
v 0.1 0.2 5.414336E-16 1 1 1
v 0.075 0.05000001 5.414336E-16 1 1 1
v -0.1 0.05000001 5.414336E-16 1 1 1
v 0.1 0.05000001 5.414336E-16 1 1 1
v 0.1 0 5.414336E-16 1 1 1
v -0.1 0 5.414336E-16 1 1 1
v 0.1 2 1.85 1 1 1
v 0.075 2 1.85 1 1 1
v 0.1 2 1.8 1 1 1
v -0.075 2 1.85 1 1 1
v -0.1 2 1.85 1 1 1
v -0.1 2 1.8 1 1 1
v -0.075 2 1.95 1 1 1
v 0.075 2 1.95 1 1 1
v -0.1 2 1.95 1 1 1
v 0.1 2 1.95 1 1 1
v -0.1 2 2 1 1 1
v 0.1 2 2 1 1 1
v 0.0999868 0.2919376 0.637634 1 1 1
v 0.0999868 0.3348504 0.7279583 1 1 1
v -0.1000132 0.2919217 0.6376415 1 1 1
v -0.1000132 0.3348345 0.7279659 1 1 1
v -0.125 0.1564332 0.7020117 1 1 1
v -0.125011 0.2693386 0.6483707 1 1 1
v -0.125 0.1993459 0.792336 1 1 1
v -0.125011 0.3122514 0.738695 1 1 1
v 0.1000022 0.1767827 0.8030558 1 1 1
v 0.1000022 0.1338699 0.7127314 1 1 1
v -0.0999978 0.1767669 0.8030633 1 1 1
v -0.0999978 0.133854 0.7127389 1 1 1
v 0.124989 0.2693585 0.6483612 1 1 1
v 0.125 0.156453 0.7020022 1 1 1
v 0.124989 0.3122713 0.7386856 1 1 1
v 0.125 0.1993658 0.7923266 1 1 1
v 0.09996133 1.272049 1.665134 1 1 1
v 0.09996133 1.362373 1.708047 1 1 1
v -0.1000387 1.272026 1.66518 1 1 1
v -0.1000387 1.362351 1.708093 1 1 1
v -0.125 1.207654 1.800673 1 1 1
v -0.1250322 1.261296 1.687767 1 1 1
v -0.125 1.297979 1.843586 1 1 1
v -0.1250322 1.35162 1.73068 1 1 1
v 0.1000064 1.287276 1.866114 1 1 1
v 0.1000064 1.196951 1.823202 1 1 1
v -0.09999355 1.287253 1.866161 1 1 1
v -0.09999355 1.196929 1.823248 1 1 1
v 0.1249678 1.261323 1.687709 1 1 1
v 0.125 1.207682 1.800615 1 1 1
v 0.1249678 1.351647 1.730622 1 1 1
v 0.125 1.298007 1.843527 1 1 1

vn 3.571274E-10 -1 2.064519E-06
vn 5.723807E-05 -0.954561 0.2980156
vn 0.0001129571 -0.8528854 0.5220981
vn -1 -3.571274E-10 7.372964E-16
vn -1 -5.463722E-05 1.705784E-05
vn -1 -9.633944E-05 5.897469E-05
vn -3.571274E-10 1 -2.064519E-06
vn -5.723807E-05 0.954561 -0.2980156
vn -0.0001129571 0.8528854 -0.5220981
vn 1 3.571274E-10 -7.372964E-16
vn 1 5.463722E-05 -1.705784E-05
vn 1 9.633944E-05 -5.897469E-05
vn -0.7071068 0.7071068 -1.459836E-06
vn -0.7071068 -0.7071068 1.459836E-06
vn -0.7071472 0.6749379 -0.2107168
vn -0.7070663 -0.6750152 0.2107409
vn -0.7071866 0.6030129 -0.3691374
vn -0.7070269 -0.6031491 0.3692208
vn 0.7071068 -0.7071068 1.459836E-06
vn 0.7071472 -0.6749379 0.2107168
vn 0.7071866 -0.6030129 0.3691374
vn 0.7071068 0.7071068 -1.459836E-06
vn 0.7070663 0.6750152 -0.2107409
vn 0.7070269 0.6031491 -0.3692208
vn 0.0001674844 -0.7213856 0.6925336
vn 0.0002219777 -0.5587181 0.8293576
vn -1 -0.0001208208 0.0001159886
vn -1 -0.0001240229 0.0001840989
vn -0.0001674844 0.7213856 -0.6925336
vn -0.0002219777 0.5587181 -0.8293576
vn 1 0.0001208208 -0.0001159886
vn 1 0.0001240229 -0.0001840989
vn -0.7072252 0.5100113 -0.4896131
vn -0.7069883 -0.5101821 0.4897772
vn -0.7072637 0.3949857 -0.5863142
vn -0.7069498 -0.3951611 0.5865746
vn 0.7072252 -0.5100113 0.4896131
vn 0.7072637 -0.3949857 0.5863142
vn 0.7069883 0.5101821 -0.4897772
vn 0.7069498 0.3951611 -0.5865746
vn 0.0002774554 -0.3470438 0.9378489
vn 0.0003143509 -0.0637747 0.9979643
vn -0.9999999 -9.628916E-05 0.0002602113
vn -0.9999999 -2.004761E-05 0.000313711
vn -0.0002774554 0.3470438 -0.9378489
vn -0.0003143509 0.0637747 -0.9979643
vn 0.9999999 9.628916E-05 -0.0002602113
vn 0.9999999 2.004761E-05 -0.000313711
vn -0.7073029 0.2453289 -0.6629753
vn -0.7069106 -0.245465 0.6633433
vn -0.707329 0.04508126 -0.7054455
vn -0.7068844 -0.04510975 0.7058891
vn 0.7073029 -0.2453289 0.6629753
vn 0.707329 -0.04508126 0.7054455
vn 0.7069106 0.245465 -0.6633433
vn 0.7068844 0.04510975 -0.7058891
vn 1.136924E-08 -2.384186E-06 0.9999999
vn -1 -2.575717E-14 1.136924E-08
vn -1.136924E-08 2.384186E-06 -0.9999999
vn 1 2.575717E-14 -1.136924E-08
vn -0.7071068 1.66893E-06 -0.7071067
vn -0.7071068 -1.66893E-06 0.7071067
vn 0.7071068 -1.66893E-06 0.7071067
vn 0.7071068 1.66893E-06 -0.7071067
vn 0 0 -1
vn 1.110223E-16 0.9999999 3.576279E-07
vn 0.3826021 0.8345187 -0.396477
vn -0.3827647 0.8344579 -0.3964481
vn -0.9238458 -0.3457298 0.1642551
vn -0.9239132 0.3455829 -0.1641853
vn 0.3827647 -0.8344579 0.3964481
vn -0.3826021 -0.8345187 0.396477
vn 0.9238458 0.3457298 -0.1642551
vn 0.9239132 -0.3455829 0.1641853
vn 0 -0.429128 -0.9032437
vn 0 0.429128 0.9032437
vn 0.3824453 0.396505 -0.8345774
vn -0.3829215 0.3964204 -0.8343992
vn -0.9237808 -0.1643224 0.3458714
vn -0.9239781 0.164118 -0.3454413
vn 0.3829215 -0.3964204 0.8343992
vn -0.3824453 -0.396505 0.8345774
vn 0.9237808 0.1643224 -0.3458714
vn 0.9239781 -0.164118 0.3454413
vn 7.275958E-12 -0.9032437 -0.4291281
vn -7.275958E-12 0.9032437 0.4291281

vt 0.46875 0.025
vt 0.46875 0.075
vt 0.46875 0.225
vt 0.46875 0.175
vt 0.34375 0.225
vt 0.34375 0.1392857
vt 0.34375 0.2107143
vt 0.34375 0.125

usemtl colormap

f 3/1/1 2/1/2 1/1/1
f 2/1/2 3/1/1 4/1/2
f 4/1/2 5/1/3 2/1/2
f 5/1/3 4/1/2 6/1/3
f 2/1/5 7/2/4 1/1/4
f 7/2/4 2/1/5 8/2/5
f 5/1/6 8/2/5 2/1/5
f 8/2/5 5/1/6 9/2/6
f 12/3/7 11/3/8 10/3/7
f 11/3/8 12/3/7 13/3/8
f 13/3/8 14/3/9 11/3/8
f 14/3/9 13/3/8 15/3/9
f 11/3/11 16/4/10 10/3/10
f 16/4/10 11/3/11 17/4/11
f 14/3/12 17/4/11 11/3/11
f 17/4/11 14/3/12 18/4/12
f 21/2/15 20/4/14 19/2/13
f 20/4/14 21/2/15 22/4/16
f 23/2/17 22/4/16 21/2/15
f 22/4/16 23/2/17 24/4/18
f 26/4/5 12/3/4 25/4/4
f 12/3/4 26/4/5 13/3/5
f 27/4/6 13/3/5 26/4/5
f 13/3/5 27/4/6 15/3/6
f 16/4/1 29/4/20 28/4/19
f 29/4/20 16/4/1 17/4/2
f 17/4/2 30/4/21 29/4/20
f 30/4/21 17/4/2 18/4/3
f 33/2/22 32/2/8 31/2/7
f 32/2/8 33/2/22 34/2/23
f 34/2/23 35/2/9 32/2/8
f 35/2/9 34/2/23 36/2/24
f 29/4/20 33/2/22 28/4/19
f 33/2/22 29/4/20 34/2/23
f 30/4/21 34/2/23 29/4/20
f 34/2/23 30/4/21 36/2/24
f 32/2/11 3/1/10 31/2/10
f 3/1/10 32/2/11 4/1/11
f 35/2/12 4/1/11 32/2/11
f 4/1/11 35/2/12 6/1/12
f 20/4/14 26/4/2 25/4/1
f 26/4/2 20/4/14 22/4/16
f 22/4/16 27/4/3 26/4/2
f 27/4/3 22/4/16 24/4/18
f 7/2/7 21/2/15 19/2/13
f 21/2/15 7/2/7 8/2/8
f 8/2/8 23/2/17 21/2/15
f 23/2/17 8/2/8 9/2/9
f 6/1/3 37/1/25 5/1/3
f 37/1/25 6/1/3 38/1/25
f 38/1/25 39/1/26 37/1/25
f 39/1/26 38/1/25 40/1/26
f 37/1/27 9/2/6 5/1/6
f 9/2/6 37/1/27 41/2/27
f 39/1/28 41/2/27 37/1/27
f 41/2/27 39/1/28 42/2/28
f 15/3/9 43/3/29 14/3/9
f 43/3/29 15/3/9 44/3/29
f 44/3/29 45/3/30 43/3/29
f 45/3/30 44/3/29 46/3/30
f 43/3/31 18/4/12 14/3/12
f 18/4/12 43/3/31 47/4/31
f 45/3/32 47/4/31 43/3/31
f 47/4/31 45/3/32 48/4/32
f 49/2/33 24/4/18 23/2/17
f 24/4/18 49/2/33 50/4/34
f 51/2/35 50/4/34 49/2/33
f 50/4/34 51/2/35 52/4/36
f 53/4/27 15/3/6 27/4/6
f 15/3/6 53/4/27 44/3/27
f 54/4/28 44/3/27 53/4/27
f 44/3/27 54/4/28 46/3/28
f 18/4/3 55/4/37 30/4/21
f 55/4/37 18/4/3 47/4/25
f 47/4/25 56/4/38 55/4/37
f 56/4/38 47/4/25 48/4/26
f 36/2/24 57/2/29 35/2/9
f 57/2/29 36/2/24 58/2/39
f 58/2/39 59/2/30 57/2/29
f 59/2/30 58/2/39 60/2/40
f 55/4/37 36/2/24 30/4/21
f 36/2/24 55/4/37 58/2/39
f 56/4/38 58/2/39 55/4/37
f 58/2/39 56/4/38 60/2/40
f 57/2/31 6/1/12 35/2/12
f 6/1/12 57/2/31 38/1/31
f 59/2/32 38/1/31 57/2/31
f 38/1/31 59/2/32 40/1/32
f 24/4/18 53/4/25 27/4/3
f 53/4/25 24/4/18 50/4/34
f 50/4/34 54/4/26 53/4/25
f 54/4/26 50/4/34 52/4/36
f 9/2/9 49/2/33 23/2/17
f 49/2/33 9/2/9 41/2/29
f 41/2/29 51/2/35 49/2/33
f 51/2/35 41/2/29 42/2/30
f 40/1/26 61/1/41 39/1/26
f 61/1/41 40/1/26 62/1/41
f 62/1/41 63/1/42 61/1/41
f 63/1/42 62/1/41 64/1/42
f 61/1/43 42/2/28 39/1/28
f 42/2/28 61/1/43 65/2/43
f 63/1/44 65/2/43 61/1/43
f 65/2/43 63/1/44 66/2/44
f 46/3/30 67/3/45 45/3/30
f 67/3/45 46/3/30 68/3/45
f 68/3/45 69/3/46 67/3/45
f 69/3/46 68/3/45 70/3/46
f 67/3/47 48/4/32 45/3/32
f 48/4/32 67/3/47 71/4/47
f 69/3/48 71/4/47 67/3/47
f 71/4/47 69/3/48 72/4/48
f 73/2/49 52/4/36 51/2/35
f 52/4/36 73/2/49 74/4/50
f 75/2/51 74/4/50 73/2/49
f 74/4/50 75/2/51 76/4/52
f 77/4/43 46/3/28 54/4/28
f 46/3/28 77/4/43 68/3/43
f 78/4/44 68/3/43 77/4/43
f 68/3/43 78/4/44 70/3/44
f 48/4/26 79/4/53 56/4/38
f 79/4/53 48/4/26 71/4/41
f 71/4/41 80/4/54 79/4/53
f 80/4/54 71/4/41 72/4/42
f 60/2/40 81/2/45 59/2/30
f 81/2/45 60/2/40 82/2/55
f 82/2/55 83/2/46 81/2/45
f 83/2/46 82/2/55 84/2/56
f 79/4/53 60/2/40 56/4/38
f 60/2/40 79/4/53 82/2/55
f 80/4/54 82/2/55 79/4/53
f 82/2/55 80/4/54 84/2/56
f 81/2/47 40/1/32 59/2/32
f 40/1/32 81/2/47 62/1/47
f 83/2/48 62/1/47 81/2/47
f 62/1/47 83/2/48 64/1/48
f 52/4/36 77/4/41 54/4/26
f 77/4/41 52/4/36 74/4/50
f 74/4/50 78/4/42 77/4/41
f 78/4/42 74/4/50 76/4/52
f 42/2/30 73/2/49 51/2/35
f 73/2/49 42/2/30 65/2/45
f 65/2/45 75/2/51 73/2/49
f 75/2/51 65/2/45 66/2/46
f 64/1/42 85/1/57 63/1/42
f 85/1/57 64/1/42 86/1/57
f 86/1/57 85/1/57 85/1/57
f 85/1/57 86/1/57 86/1/57
f 85/1/58 66/2/44 63/1/44
f 66/2/44 85/1/58 87/2/58
f 85/1/58 87/2/58 85/1/58
f 87/2/58 85/1/58 87/2/58
f 70/3/46 88/3/59 69/3/46
f 88/3/59 70/3/46 89/3/59
f 89/3/59 88/3/59 88/3/59
f 88/3/59 89/3/59 89/3/59
f 88/3/60 72/4/48 69/3/48
f 72/4/48 88/3/60 90/4/60
f 88/3/60 90/4/60 88/3/60
f 90/4/60 88/3/60 90/4/60
f 91/2/61 76/4/52 75/2/51
f 76/4/52 91/2/61 92/4/62
f 91/2/61 92/4/62 91/2/61
f 92/4/62 91/2/61 92/4/62
f 93/4/58 70/3/44 78/4/44
f 70/3/44 93/4/58 89/3/58
f 93/4/58 89/3/58 93/4/58
f 89/3/58 93/4/58 89/3/58
f 72/4/42 94/4/63 80/4/54
f 94/4/63 72/4/42 90/4/57
f 90/4/57 94/4/63 94/4/63
f 94/4/63 90/4/57 90/4/57
f 84/2/56 95/2/59 83/2/46
f 95/2/59 84/2/56 96/2/64
f 96/2/64 95/2/59 95/2/59
f 95/2/59 96/2/64 96/2/64
f 94/4/63 84/2/56 80/4/54
f 84/2/56 94/4/63 96/2/64
f 94/4/63 96/2/64 94/4/63
f 96/2/64 94/4/63 96/2/64
f 95/2/60 64/1/48 83/2/48
f 64/1/48 95/2/60 86/1/60
f 95/2/60 86/1/60 95/2/60
f 86/1/60 95/2/60 86/1/60
f 76/4/52 93/4/57 78/4/42
f 93/4/57 76/4/52 92/4/62
f 92/4/62 93/4/57 93/4/57
f 93/4/57 92/4/62 92/4/62
f 66/2/46 91/2/61 75/2/51
f 91/2/61 66/2/46 87/2/59
f 87/2/59 91/2/61 91/2/61
f 91/2/61 87/2/59 87/2/59
f 99/3/65 98/4/65 97/4/65
f 98/4/65 99/3/65 100/4/65
f 100/4/65 101/2/65 98/4/65
f 100/4/65 99/3/65 102/4/65
f 102/4/65 99/3/65 103/3/65
f 104/2/65 101/2/65 100/4/65
f 104/2/65 105/2/65 101/2/65
f 106/2/65 105/2/65 104/2/65
f 107/1/65 105/2/65 106/2/65
f 105/2/65 107/1/65 108/1/65
f 111/3/66 110/4/66 109/4/66
f 110/4/66 111/3/66 112/4/66
f 112/4/66 111/3/66 113/4/66
f 113/4/66 111/3/66 114/3/66
f 115/2/66 110/4/66 112/4/66
f 110/4/66 115/2/66 116/2/66
f 117/2/66 116/2/66 115/2/66
f 117/2/66 118/2/66 116/2/66
f 119/1/66 118/2/66 117/2/66
f 118/2/66 119/1/66 120/1/66
f 123/5/68 122/5/67 121/5/67
f 122/5/67 123/5/68 124/5/68
f 127/6/69 126/7/70 125/6/69
f 126/7/70 127/6/69 128/7/70
f 131/8/72 130/8/71 129/8/71
f 130/8/71 131/8/72 132/8/72
f 135/7/73 134/6/74 133/7/73
f 134/6/74 135/7/73 136/6/74
f 129/8/71 134/6/74 136/6/74
f 134/6/74 129/8/71 130/8/71
f 126/7/70 124/5/68 123/5/68
f 124/5/68 126/7/70 128/7/70
f 127/6/69 132/8/72 131/8/72
f 132/8/72 127/6/69 125/6/69
f 121/5/67 135/7/73 133/7/73
f 135/7/73 121/5/67 122/5/67
f 125/6/75 130/8/75 132/8/75
f 130/8/75 125/6/75 134/6/75
f 134/6/75 125/6/75 126/7/75
f 134/6/75 126/7/75 133/7/75
f 133/7/75 126/7/75 123/5/75
f 133/7/75 123/5/75 121/5/75
f 136/6/76 131/8/76 129/8/76
f 131/8/76 136/6/76 127/6/76
f 127/6/76 136/6/76 135/7/76
f 127/6/76 135/7/76 128/7/76
f 128/7/76 135/7/76 122/5/76
f 128/7/76 122/5/76 124/5/76
f 139/5/78 138/5/77 137/5/77
f 138/5/77 139/5/78 140/5/78
f 143/6/79 142/7/80 141/6/79
f 142/7/80 143/6/79 144/7/80
f 147/8/82 146/8/81 145/8/81
f 146/8/81 147/8/82 148/8/82
f 151/7/83 150/6/84 149/7/83
f 150/6/84 151/7/83 152/6/84
f 145/8/81 150/6/84 152/6/84
f 150/6/84 145/8/81 146/8/81
f 142/7/80 140/5/78 139/5/78
f 140/5/78 142/7/80 144/7/80
f 143/6/79 148/8/82 147/8/82
f 148/8/82 143/6/79 141/6/79
f 137/5/77 151/7/83 149/7/83
f 151/7/83 137/5/77 138/5/77
f 141/6/85 146/8/85 148/8/85
f 146/8/85 141/6/85 150/6/85
f 150/6/85 141/6/85 142/7/85
f 150/6/85 142/7/85 149/7/85
f 149/7/85 142/7/85 139/5/85
f 149/7/85 139/5/85 137/5/85
f 152/6/86 147/8/86 145/8/86
f 147/8/86 152/6/86 143/6/86
f 143/6/86 152/6/86 151/7/86
f 143/6/86 151/7/86 144/7/86
f 144/7/86 151/7/86 138/5/86
f 144/7/86 138/5/86 140/5/86

g coaster-monorail-straight-bend




usemtl colormap

f 3/1/1 2/1/2 1/1/1
f 2/1/2 3/1/1 4/1/2
f 4/1/2 5/1/3 2/1/2
f 5/1/3 4/1/2 6/1/3
f 2/1/5 7/2/4 1/1/4
f 7/2/4 2/1/5 8/2/5
f 5/1/6 8/2/5 2/1/5
f 8/2/5 5/1/6 9/2/6
f 12/3/7 11/3/8 10/3/7
f 11/3/8 12/3/7 13/3/8
f 13/3/8 14/3/9 11/3/8
f 14/3/9 13/3/8 15/3/9
f 11/3/11 16/4/10 10/3/10
f 16/4/10 11/3/11 17/4/11
f 14/3/12 17/4/11 11/3/11
f 17/4/11 14/3/12 18/4/12
f 21/2/15 20/4/14 19/2/13
f 20/4/14 21/2/15 22/4/16
f 23/2/17 22/4/16 21/2/15
f 22/4/16 23/2/17 24/4/18
f 26/4/5 12/3/4 25/4/4
f 12/3/4 26/4/5 13/3/5
f 27/4/6 13/3/5 26/4/5
f 13/3/5 27/4/6 15/3/6
f 16/4/1 29/4/20 28/4/19
f 29/4/20 16/4/1 17/4/2
f 17/4/2 30/4/21 29/4/20
f 30/4/21 17/4/2 18/4/3
f 33/2/22 32/2/8 31/2/7
f 32/2/8 33/2/22 34/2/23
f 34/2/23 35/2/9 32/2/8
f 35/2/9 34/2/23 36/2/24
f 29/4/20 33/2/22 28/4/19
f 33/2/22 29/4/20 34/2/23
f 30/4/21 34/2/23 29/4/20
f 34/2/23 30/4/21 36/2/24
f 32/2/11 3/1/10 31/2/10
f 3/1/10 32/2/11 4/1/11
f 35/2/12 4/1/11 32/2/11
f 4/1/11 35/2/12 6/1/12
f 20/4/14 26/4/2 25/4/1
f 26/4/2 20/4/14 22/4/16
f 22/4/16 27/4/3 26/4/2
f 27/4/3 22/4/16 24/4/18
f 7/2/7 21/2/15 19/2/13
f 21/2/15 7/2/7 8/2/8
f 8/2/8 23/2/17 21/2/15
f 23/2/17 8/2/8 9/2/9
f 6/1/3 37/1/25 5/1/3
f 37/1/25 6/1/3 38/1/25
f 38/1/25 39/1/26 37/1/25
f 39/1/26 38/1/25 40/1/26
f 37/1/27 9/2/6 5/1/6
f 9/2/6 37/1/27 41/2/27
f 39/1/28 41/2/27 37/1/27
f 41/2/27 39/1/28 42/2/28
f 15/3/9 43/3/29 14/3/9
f 43/3/29 15/3/9 44/3/29
f 44/3/29 45/3/30 43/3/29
f 45/3/30 44/3/29 46/3/30
f 43/3/31 18/4/12 14/3/12
f 18/4/12 43/3/31 47/4/31
f 45/3/32 47/4/31 43/3/31
f 47/4/31 45/3/32 48/4/32
f 49/2/33 24/4/18 23/2/17
f 24/4/18 49/2/33 50/4/34
f 51/2/35 50/4/34 49/2/33
f 50/4/34 51/2/35 52/4/36
f 53/4/27 15/3/6 27/4/6
f 15/3/6 53/4/27 44/3/27
f 54/4/28 44/3/27 53/4/27
f 44/3/27 54/4/28 46/3/28
f 18/4/3 55/4/37 30/4/21
f 55/4/37 18/4/3 47/4/25
f 47/4/25 56/4/38 55/4/37
f 56/4/38 47/4/25 48/4/26
f 36/2/24 57/2/29 35/2/9
f 57/2/29 36/2/24 58/2/39
f 58/2/39 59/2/30 57/2/29
f 59/2/30 58/2/39 60/2/40
f 55/4/37 36/2/24 30/4/21
f 36/2/24 55/4/37 58/2/39
f 56/4/38 58/2/39 55/4/37
f 58/2/39 56/4/38 60/2/40
f 57/2/31 6/1/12 35/2/12
f 6/1/12 57/2/31 38/1/31
f 59/2/32 38/1/31 57/2/31
f 38/1/31 59/2/32 40/1/32
f 24/4/18 53/4/25 27/4/3
f 53/4/25 24/4/18 50/4/34
f 50/4/34 54/4/26 53/4/25
f 54/4/26 50/4/34 52/4/36
f 9/2/9 49/2/33 23/2/17
f 49/2/33 9/2/9 41/2/29
f 41/2/29 51/2/35 49/2/33
f 51/2/35 41/2/29 42/2/30
f 40/1/26 61/1/41 39/1/26
f 61/1/41 40/1/26 62/1/41
f 62/1/41 63/1/42 61/1/41
f 63/1/42 62/1/41 64/1/42
f 61/1/43 42/2/28 39/1/28
f 42/2/28 61/1/43 65/2/43
f 63/1/44 65/2/43 61/1/43
f 65/2/43 63/1/44 66/2/44
f 46/3/30 67/3/45 45/3/30
f 67/3/45 46/3/30 68/3/45
f 68/3/45 69/3/46 67/3/45
f 69/3/46 68/3/45 70/3/46
f 67/3/47 48/4/32 45/3/32
f 48/4/32 67/3/47 71/4/47
f 69/3/48 71/4/47 67/3/47
f 71/4/47 69/3/48 72/4/48
f 73/2/49 52/4/36 51/2/35
f 52/4/36 73/2/49 74/4/50
f 75/2/51 74/4/50 73/2/49
f 74/4/50 75/2/51 76/4/52
f 77/4/43 46/3/28 54/4/28
f 46/3/28 77/4/43 68/3/43
f 78/4/44 68/3/43 77/4/43
f 68/3/43 78/4/44 70/3/44
f 48/4/26 79/4/53 56/4/38
f 79/4/53 48/4/26 71/4/41
f 71/4/41 80/4/54 79/4/53
f 80/4/54 71/4/41 72/4/42
f 60/2/40 81/2/45 59/2/30
f 81/2/45 60/2/40 82/2/55
f 82/2/55 83/2/46 81/2/45
f 83/2/46 82/2/55 84/2/56
f 79/4/53 60/2/40 56/4/38
f 60/2/40 79/4/53 82/2/55
f 80/4/54 82/2/55 79/4/53
f 82/2/55 80/4/54 84/2/56
f 81/2/47 40/1/32 59/2/32
f 40/1/32 81/2/47 62/1/47
f 83/2/48 62/1/47 81/2/47
f 62/1/47 83/2/48 64/1/48
f 52/4/36 77/4/41 54/4/26
f 77/4/41 52/4/36 74/4/50
f 74/4/50 78/4/42 77/4/41
f 78/4/42 74/4/50 76/4/52
f 42/2/30 73/2/49 51/2/35
f 73/2/49 42/2/30 65/2/45
f 65/2/45 75/2/51 73/2/49
f 75/2/51 65/2/45 66/2/46
f 64/1/42 85/1/57 63/1/42
f 85/1/57 64/1/42 86/1/57
f 86/1/57 85/1/57 85/1/57
f 85/1/57 86/1/57 86/1/57
f 85/1/58 66/2/44 63/1/44
f 66/2/44 85/1/58 87/2/58
f 85/1/58 87/2/58 85/1/58
f 87/2/58 85/1/58 87/2/58
f 70/3/46 88/3/59 69/3/46
f 88/3/59 70/3/46 89/3/59
f 89/3/59 88/3/59 88/3/59
f 88/3/59 89/3/59 89/3/59
f 88/3/60 72/4/48 69/3/48
f 72/4/48 88/3/60 90/4/60
f 88/3/60 90/4/60 88/3/60
f 90/4/60 88/3/60 90/4/60
f 91/2/61 76/4/52 75/2/51
f 76/4/52 91/2/61 92/4/62
f 91/2/61 92/4/62 91/2/61
f 92/4/62 91/2/61 92/4/62
f 93/4/58 70/3/44 78/4/44
f 70/3/44 93/4/58 89/3/58
f 93/4/58 89/3/58 93/4/58
f 89/3/58 93/4/58 89/3/58
f 72/4/42 94/4/63 80/4/54
f 94/4/63 72/4/42 90/4/57
f 90/4/57 94/4/63 94/4/63
f 94/4/63 90/4/57 90/4/57
f 84/2/56 95/2/59 83/2/46
f 95/2/59 84/2/56 96/2/64
f 96/2/64 95/2/59 95/2/59
f 95/2/59 96/2/64 96/2/64
f 94/4/63 84/2/56 80/4/54
f 84/2/56 94/4/63 96/2/64
f 94/4/63 96/2/64 94/4/63
f 96/2/64 94/4/63 96/2/64
f 95/2/60 64/1/48 83/2/48
f 64/1/48 95/2/60 86/1/60
f 95/2/60 86/1/60 95/2/60
f 86/1/60 95/2/60 86/1/60
f 76/4/52 93/4/57 78/4/42
f 93/4/57 76/4/52 92/4/62
f 92/4/62 93/4/57 93/4/57
f 93/4/57 92/4/62 92/4/62
f 66/2/46 91/2/61 75/2/51
f 91/2/61 66/2/46 87/2/59
f 87/2/59 91/2/61 91/2/61
f 91/2/61 87/2/59 87/2/59
f 99/3/65 98/4/65 97/4/65
f 98/4/65 99/3/65 100/4/65
f 100/4/65 101/2/65 98/4/65
f 100/4/65 99/3/65 102/4/65
f 102/4/65 99/3/65 103/3/65
f 104/2/65 101/2/65 100/4/65
f 104/2/65 105/2/65 101/2/65
f 106/2/65 105/2/65 104/2/65
f 107/1/65 105/2/65 106/2/65
f 105/2/65 107/1/65 108/1/65
f 111/3/66 110/4/66 109/4/66
f 110/4/66 111/3/66 112/4/66
f 112/4/66 111/3/66 113/4/66
f 113/4/66 111/3/66 114/3/66
f 115/2/66 110/4/66 112/4/66
f 110/4/66 115/2/66 116/2/66
f 117/2/66 116/2/66 115/2/66
f 117/2/66 118/2/66 116/2/66
f 119/1/66 118/2/66 117/2/66
f 118/2/66 119/1/66 120/1/66
f 123/5/68 122/5/67 121/5/67
f 122/5/67 123/5/68 124/5/68
f 127/6/69 126/7/70 125/6/69
f 126/7/70 127/6/69 128/7/70
f 131/8/72 130/8/71 129/8/71
f 130/8/71 131/8/72 132/8/72
f 135/7/73 134/6/74 133/7/73
f 134/6/74 135/7/73 136/6/74
f 129/8/71 134/6/74 136/6/74
f 134/6/74 129/8/71 130/8/71
f 126/7/70 124/5/68 123/5/68
f 124/5/68 126/7/70 128/7/70
f 127/6/69 132/8/72 131/8/72
f 132/8/72 127/6/69 125/6/69
f 121/5/67 135/7/73 133/7/73
f 135/7/73 121/5/67 122/5/67
f 125/6/75 130/8/75 132/8/75
f 130/8/75 125/6/75 134/6/75
f 134/6/75 125/6/75 126/7/75
f 134/6/75 126/7/75 133/7/75
f 133/7/75 126/7/75 123/5/75
f 133/7/75 123/5/75 121/5/75
f 136/6/76 131/8/76 129/8/76
f 131/8/76 136/6/76 127/6/76
f 127/6/76 136/6/76 135/7/76
f 127/6/76 135/7/76 128/7/76
f 128/7/76 135/7/76 122/5/76
f 128/7/76 122/5/76 124/5/76
f 139/5/78 138/5/77 137/5/77
f 138/5/77 139/5/78 140/5/78
f 143/6/79 142/7/80 141/6/79
f 142/7/80 143/6/79 144/7/80
f 147/8/82 146/8/81 145/8/81
f 146/8/81 147/8/82 148/8/82
f 151/7/83 150/6/84 149/7/83
f 150/6/84 151/7/83 152/6/84
f 145/8/81 150/6/84 152/6/84
f 150/6/84 145/8/81 146/8/81
f 142/7/80 140/5/78 139/5/78
f 140/5/78 142/7/80 144/7/80
f 143/6/79 148/8/82 147/8/82
f 148/8/82 143/6/79 141/6/79
f 137/5/77 151/7/83 149/7/83
f 151/7/83 137/5/77 138/5/77
f 141/6/85 146/8/85 148/8/85
f 146/8/85 141/6/85 150/6/85
f 150/6/85 141/6/85 142/7/85
f 150/6/85 142/7/85 149/7/85
f 149/7/85 142/7/85 139/5/85
f 149/7/85 139/5/85 137/5/85
f 152/6/86 147/8/86 145/8/86
f 147/8/86 152/6/86 143/6/86
f 143/6/86 152/6/86 151/7/86
f 143/6/86 151/7/86 144/7/86
f 144/7/86 151/7/86 138/5/86
f 144/7/86 138/5/86 140/5/86

