# Created by Kenney (www.kenney.nl)

mtllib path-exit.mtl

g path-exit

v -0.5 4.841908E-31 -0.5 1 1 1
v -0.5 0.1 -0.5 1 1 1
v -0.5 4.841908E-31 0.5 1 1 1
v -0.5 0.1 0.5 1 1 1
v 0.5 4.841908E-31 0.5 1 1 1
v 0.5 0.1 0.5 1 1 1
v 0.5 4.841908E-31 -0.5 1 1 1
v 0.5 0.1 -0.5 1 1 1
v -0.3 0.639046 -0.425 1 1 1
v -0.2498558 0.6515878 -0.425 1 1 1
v -0.3 0.8359656 -0.425 1 1 1
v -0.1269196 0.6691502 -0.425 1 1 1
v -3.248601E-15 0.6750541 -0.425 1 1 1
v 0.3 0.8359656 -0.425 1 1 1
v 0.1269196 0.6691502 -0.425 1 1 1
v 0.2498558 0.6515878 -0.425 1 1 1
v 0.3 0.639046 -0.425 1 1 1
v -0.2306015 0.8533232 -0.425 1 1 1
v 0.2306015 0.8533232 -0.425 1 1 1
v -0.1175038 0.86948 -0.425 1 1 1
v 0.1175038 0.86948 -0.425 1 1 1
v 1.082867E-15 0.8749459 -0.425 1 1 1
v -0.2402287 0.9024556 -0.425 1 1 1
v -0.2402287 0.9024556 -0.375 1 1 1
v -0.35 0.875 -0.425 1 1 1
v -0.35 0.875 -0.375 1 1 1
v 0.2402287 0.9024556 -0.425 1 1 1
v 0.2402287 0.9024556 -0.375 1 1 1
v 0.1222117 0.9193151 -0.425 1 1 1
v 0.1222117 0.9193151 -0.375 1 1 1
v -0.1222117 0.6193151 -0.375 1 1 1
v -0.1222117 0.6193151 -0.425 1 1 1
v -0.2402287 0.6024556 -0.375 1 1 1
v -0.2402287 0.6024556 -0.425 1 1 1
v 0 0.925 -0.425 1 1 1
v 0 0.925 -0.375 1 1 1
v -0.1222117 0.9193151 -0.425 1 1 1
v -0.1222117 0.9193151 -0.375 1 1 1
v -1.443823E-15 0.625 -0.375 1 1 1
v -1.443823E-15 0.625 -0.425 1 1 1
v 0.1222117 0.6193151 -0.375 1 1 1
v 0.1222117 0.6193151 -0.425 1 1 1
v 0.2402287 0.6024556 -0.375 1 1 1
v 0.2402287 0.6024556 -0.425 1 1 1
v 0.35 0.875 -0.425 1 1 1
v 0.35 0.875 -0.375 1 1 1
v -0.35 0.575 -0.375 1 1 1
v -0.35 0.575 -0.425 1 1 1
v 0.35 0.575 -0.375 1 1 1
v -2.887646E-15 0.6750541 -0.425 1 1 1
v -0.1269196 0.6691502 -0.425 1 1 1
v 0.1269196 0.6691502 -0.425 1 1 1
v -0.2498558 0.6515878 -0.425 1 1 1
v 0.2498558 0.6515878 -0.425 1 1 1
v -0.3 0.639046 -0.425 1 1 1
v 0.3 0.639046 -0.425 1 1 1
v 0.35 0.575 -0.425 1 1 1
v 0.3 0.8359655 -0.425 1 1 1
v 0.2306015 0.8533232 -0.425 1 1 1
v -0.3 0.8359655 -0.425 1 1 1
v 0.1175038 0.86948 -0.425 1 1 1
v -0.2306015 0.8533232 -0.425 1 1 1
v -0.1175038 0.86948 -0.425 1 1 1
v 1.443823E-15 0.8749459 -0.425 1 1 1
v 0.35 0.1 -0.45 1 1 1
v 0.45 0.1 -0.45 1 1 1
v 0.35 0.9 -0.45 1 1 1
v 0.45 0.9 -0.45 1 1 1
v 0.45 0.9 -0.35 1 1 1
v 0.35 0.9 -0.35 1 1 1
v 0.35 0.1 -0.35 1 1 1
v 0.45 0.1 -0.35 1 1 1
v -0.45 0.1 -0.45 1 1 1
v -0.35 0.1 -0.45 1 1 1
v -0.45 0.9 -0.45 1 1 1
v -0.35 0.9 -0.45 1 1 1
v -0.35 0.9 -0.35 1 1 1
v -0.45 0.9 -0.35 1 1 1
v -0.45 0.1 -0.35 1 1 1
v -0.35 0.1 -0.35 1 1 1
v 0.35 0.1 0.45 1 1 1
v 0.45 0.1 0.45 1 1 1
v 0.35 0.3 0.45 1 1 1
v 0.45 0.3 0.45 1 1 1
v 0.45 0.3 0.5 1 1 1
v 0.35 0.3 0.5 1 1 1
v 0.35 0.1 0.5 1 1 1
v 0.45 0.1 0.5 1 1 1
v -0.45 0.1 0.45 1 1 1
v -0.35 0.1 0.45 1 1 1
v -0.45 0.3 0.45 1 1 1
v -0.35 0.3 0.45 1 1 1
v -0.35 0.3 0.5 1 1 1
v -0.45 0.3 0.5 1 1 1
v -0.45 0.1 0.5 1 1 1
v -0.35 0.1 0.5 1 1 1
v 0.425 0.275 -0.35 1 1 1
v 0.425 0.275 0.45 1 1 1
v 0.375 0.275 -0.35 1 1 1
v 0.375 0.275 0.45 1 1 1
v 0.425 0.175 0.45 1 1 1
v 0.425 0.175 -0.35 1 1 1
v 0.375 0.175 0.45 1 1 1
v 0.375 0.175 -0.35 1 1 1
v -0.375 0.275 -0.35 1 1 1
v -0.375 0.275 0.45 1 1 1
v -0.425 0.275 -0.35 1 1 1
v -0.425 0.275 0.45 1 1 1
v -0.375 0.175 0.45 1 1 1
v -0.375 0.175 -0.35 1 1 1
v -0.425 0.175 0.45 1 1 1
v -0.425 0.175 -0.35 1 1 1

vn -1 0 0
vn 0 0 1
vn 0 0 -1
vn 1 0 0
vn 0 1 0
vn 0 -1 0
vn -0.1922872 0.9813387 0
vn -0.2426413 0.9701161 0
vn 0.1922872 0.9813387 0
vn 0.09405096 0.9955674 0
vn 0.09405096 -0.9955674 0
vn 0.1922872 -0.9813387 0
vn -0.09405096 0.9955674 0
vn -0.09405096 -0.9955674 0
vn -0.1922872 -0.9813387 0
vn 0.2426413 0.9701161 0
vn 0.2426413 -0.9701161 0
vn -0.2426413 -0.9701161 0

vt 0.46875 0.025
vt 0.46875 0.225
vt 0.34375 0.025
vt 0.34375 0.0356332
vt 0.34375 0.1919518
vt 0.34375 0.05052282
vt 0.34375 0.05552825
vt 0.34375 0.2066679
vt 0.34375 0.2203659
vt 0.34375 0.225
vt 0.71875 0.2121174
vt 0.71875 0.1964286
vt 0.71875 0.2217515
vt 0.71875 0.05032292
vt 0.71875 0.04068888
vt 0.71875 0.225
vt 0.71875 0.05357143
vt 0.71875 0.025
vt 0.71875 0.08217375
vt 0.71875 0.0788001
vt 0.71875 0.06876449
vt 0.71875 0.06159772
vt 0.71875 0.1741232
vt 0.71875 0.1840419
vt 0.71875 0.1932743
vt 0.71875 0.1963977
vt 0.71875 0.125
vt 0.71875 0.175
vt 0.71875 0.075

usemtl colormap

f 3/1/1 2/2/1 1/1/1
f 2/2/1 3/1/1 4/2/1
f 6/2/2 3/1/2 5/1/2
f 3/1/2 6/2/2 4/2/2
f 2/2/3 7/1/3 1/1/3
f 7/1/3 2/2/3 8/2/3
f 6/2/4 7/1/4 8/2/4
f 7/1/4 6/2/4 5/1/4
f 2/2/5 6/2/5 8/2/5
f 6/2/5 2/2/5 4/2/5
f 3/1/6 7/1/6 5/1/6
f 7/1/6 3/1/6 1/1/6
f 11/5/3 10/4/3 9/3/3
f 10/4/3 11/5/3 12/6/3
f 12/6/3 11/5/3 13/7/3
f 14/5/3 13/7/3 11/5/3
f 14/5/3 15/6/3 13/7/3
f 14/5/3 16/4/3 15/6/3
f 16/4/3 14/5/3 17/3/3
f 14/5/3 11/5/3 18/8/3
f 14/5/3 18/8/3 19/8/3
f 19/8/3 18/8/3 20/9/3
f 19/8/3 20/9/3 21/9/3
f 21/9/3 20/9/3 22/10/3
f 25/12/8 24/11/7 23/11/7
f 24/11/7 25/12/8 26/12/8
f 29/13/10 28/11/9 27/11/9
f 28/11/9 29/13/10 30/13/10
f 33/15/12 32/14/11 31/14/11
f 32/14/11 33/15/12 34/15/12
f 37/13/13 36/16/5 35/16/5
f 36/16/5 37/13/13 38/13/13
f 23/11/7 38/13/13 37/13/13
f 38/13/13 23/11/7 24/11/7
f 31/14/11 40/17/6 39/17/6
f 40/17/6 31/14/11 32/14/11
f 39/17/6 42/14/14 41/14/14
f 42/14/14 39/17/6 40/17/6
f 41/14/14 44/15/15 43/15/15
f 44/15/15 41/14/14 42/14/14
f 27/11/9 46/12/16 45/12/16
f 46/12/16 27/11/9 28/11/9
f 35/16/5 30/13/10 29/13/10
f 30/13/10 35/16/5 36/16/5
f 47/18/17 34/15/12 33/15/12
f 34/15/12 47/18/17 48/18/17
f 46/12/2 43/15/2 49/18/2
f 43/15/2 46/12/2 41/14/2
f 41/14/2 46/12/2 39/17/2
f 26/12/2 39/17/2 46/12/2
f 26/12/2 31/14/2 39/17/2
f 26/12/2 33/15/2 31/14/2
f 33/15/2 26/12/2 47/18/2
f 26/12/2 46/12/2 28/11/2
f 26/12/2 28/11/2 24/11/2
f 24/11/2 28/11/2 30/13/2
f 24/11/2 30/13/2 38/13/2
f 38/13/2 30/13/2 36/16/2
f 52/20/3 51/20/3 50/19/3
f 52/20/3 53/21/3 51/20/3
f 54/21/3 53/21/3 52/20/3
f 54/21/3 55/22/3 53/21/3
f 55/22/3 54/21/3 56/22/3
f 40/17/3 55/22/3 56/22/3
f 56/22/3 42/14/3 40/17/3
f 32/14/3 55/22/3 40/17/3
f 56/22/3 44/15/3 42/14/3
f 56/22/3 57/18/3 44/15/3
f 57/18/3 56/22/3 45/12/3
f 34/15/3 55/22/3 32/14/3
f 48/18/3 55/22/3 34/15/3
f 45/12/3 56/22/3 58/23/3
f 55/22/3 48/18/3 25/12/3
f 45/12/3 58/23/3 59/24/3
f 55/22/3 25/12/3 60/23/3
f 45/12/3 59/24/3 61/25/3
f 60/23/3 25/12/3 62/24/3
f 62/24/3 25/12/3 63/25/3
f 63/25/3 25/12/3 64/26/3
f 45/12/3 61/25/3 64/26/3
f 45/12/3 64/26/3 25/12/3
f 45/12/3 25/12/3 23/11/3
f 45/12/3 23/11/3 27/11/3
f 27/11/3 23/11/3 37/13/3
f 27/11/3 37/13/3 29/13/3
f 29/13/3 37/13/3 35/16/3
f 43/15/15 57/18/18 49/18/18
f 57/18/18 43/15/15 44/15/15
f 67/27/3 66/18/3 65/18/3
f 66/18/3 67/27/3 68/27/3
f 67/27/5 69/27/5 68/27/5
f 69/27/5 67/27/5 70/27/5
f 71/18/1 67/27/1 65/18/1
f 67/27/1 71/18/1 70/27/1
f 69/27/4 66/18/4 68/27/4
f 66/18/4 69/27/4 72/18/4
f 69/27/2 71/18/2 72/18/2
f 71/18/2 69/27/2 70/27/2
f 75/27/3 74/18/3 73/18/3
f 74/18/3 75/27/3 76/27/3
f 75/27/5 77/27/5 76/27/5
f 77/27/5 75/27/5 78/27/5
f 79/18/1 75/27/1 73/18/1
f 75/27/1 79/18/1 78/27/1
f 77/27/4 74/18/4 76/27/4
f 74/18/4 77/27/4 80/18/4
f 77/27/2 79/18/2 80/18/2
f 79/18/2 77/27/2 78/27/2
f 83/27/3 82/18/3 81/18/3
f 82/18/3 83/27/3 84/27/3
f 83/27/5 85/27/5 84/27/5
f 85/27/5 83/27/5 86/27/5
f 87/18/1 83/27/1 81/18/1
f 83/27/1 87/18/1 86/27/1
f 85/27/4 82/18/4 84/27/4
f 82/18/4 85/27/4 88/18/4
f 85/27/2 87/18/2 88/18/2
f 87/18/2 85/27/2 86/27/2
f 91/27/3 90/18/3 89/18/3
f 90/18/3 91/27/3 92/27/3
f 91/27/5 93/27/5 92/27/5
f 93/27/5 91/27/5 94/27/5
f 95/18/1 91/27/1 89/18/1
f 91/27/1 95/18/1 94/27/1
f 93/27/4 90/18/4 92/27/4
f 90/18/4 93/27/4 96/18/4
f 93/27/2 95/18/2 96/18/2
f 95/18/2 93/27/2 94/27/2
f 99/28/5 98/28/5 97/28/5
f 98/28/5 99/28/5 100/28/5
f 103/29/6 102/29/6 101/29/6
f 102/29/6 103/29/6 104/29/6
f 104/29/1 100/28/1 99/28/1
f 100/28/1 104/29/1 103/29/1
f 98/28/4 102/29/4 97/28/4
f 102/29/4 98/28/4 101/29/4
f 107/28/5 106/28/5 105/28/5
f 106/28/5 107/28/5 108/28/5
f 111/29/6 110/29/6 109/29/6
f 110/29/6 111/29/6 112/29/6
f 112/29/1 108/28/1 107/28/1
f 108/28/1 112/29/1 111/29/1
f 106/28/4 110/29/4 105/28/4
f 110/29/4 106/28/4 109/29/4

g path-exit




usemtl colormap

f 3/1/1 2/2/1 1/1/1
f 2/2/1 3/1/1 4/2/1
f 6/2/2 3/1/2 5/1/2
f 3/1/2 6/2/2 4/2/2
f 2/2/3 7/1/3 1/1/3
f 7/1/3 2/2/3 8/2/3
f 6/2/4 7/1/4 8/2/4
f 7/1/4 6/2/4 5/1/4
f 2/2/5 6/2/5 8/2/5
f 6/2/5 2/2/5 4/2/5
f 3/1/6 7/1/6 5/1/6
f 7/1/6 3/1/6 1/1/6
f 11/5/3 10/4/3 9/3/3
f 10/4/3 11/5/3 12/6/3
f 12/6/3 11/5/3 13/7/3
f 14/5/3 13/7/3 11/5/3
f 14/5/3 15/6/3 13/7/3
f 14/5/3 16/4/3 15/6/3
f 16/4/3 14/5/3 17/3/3
f 14/5/3 11/5/3 18/8/3
f 14/5/3 18/8/3 19/8/3
f 19/8/3 18/8/3 20/9/3
f 19/8/3 20/9/3 21/9/3
f 21/9/3 20/9/3 22/10/3
f 25/12/8 24/11/7 23/11/7
f 24/11/7 25/12/8 26/12/8
f 29/13/10 28/11/9 27/11/9
f 28/11/9 29/13/10 30/13/10
f 33/15/12 32/14/11 31/14/11
f 32/14/11 33/15/12 34/15/12
f 37/13/13 36/16/5 35/16/5
f 36/16/5 37/13/13 38/13/13
f 23/11/7 38/13/13 37/13/13
f 38/13/13 23/11/7 24/11/7
f 31/14/11 40/17/6 39/17/6
f 40/17/6 31/14/11 32/14/11
f 39/17/6 42/14/14 41/14/14
f 42/14/14 39/17/6 40/17/6
f 41/14/14 44/15/15 43/15/15
f 44/15/15 41/14/14 42/14/14
f 27/11/9 46/12/16 45/12/16
f 46/12/16 27/11/9 28/11/9
f 35/16/5 30/13/10 29/13/10
f 30/13/10 35/16/5 36/16/5
f 47/18/17 34/15/12 33/15/12
f 34/15/12 47/18/17 48/18/17
f 46/12/2 43/15/2 49/18/2
f 43/15/2 46/12/2 41/14/2
f 41/14/2 46/12/2 39/17/2
f 26/12/2 39/17/2 46/12/2
f 26/12/2 31/14/2 39/17/2
f 26/12/2 33/15/2 31/14/2
f 33/15/2 26/12/2 47/18/2
f 26/12/2 46/12/2 28/11/2
f 26/12/2 28/11/2 24/11/2
f 24/11/2 28/11/2 30/13/2
f 24/11/2 30/13/2 38/13/2
f 38/13/2 30/13/2 36/16/2
f 52/20/3 51/20/3 50/19/3
f 52/20/3 53/21/3 51/20/3
f 54/21/3 53/21/3 52/20/3
f 54/21/3 55/22/3 53/21/3
f 55/22/3 54/21/3 56/22/3
f 40/17/3 55/22/3 56/22/3
f 56/22/3 42/14/3 40/17/3
f 32/14/3 55/22/3 40/17/3
f 56/22/3 44/15/3 42/14/3
f 56/22/3 57/18/3 44/15/3
f 57/18/3 56/22/3 45/12/3
f 34/15/3 55/22/3 32/14/3
f 48/18/3 55/22/3 34/15/3
f 45/12/3 56/22/3 58/23/3
f 55/22/3 48/18/3 25/12/3
f 45/12/3 58/23/3 59/24/3
f 55/22/3 25/12/3 60/23/3
f 45/12/3 59/24/3 61/25/3
f 60/23/3 25/12/3 62/24/3
f 62/24/3 25/12/3 63/25/3
f 63/25/3 25/12/3 64/26/3
f 45/12/3 61/25/3 64/26/3
f 45/12/3 64/26/3 25/12/3
f 45/12/3 25/12/3 23/11/3
f 45/12/3 23/11/3 27/11/3
f 27/11/3 23/11/3 37/13/3
f 27/11/3 37/13/3 29/13/3
f 29/13/3 37/13/3 35/16/3
f 43/15/15 57/18/18 49/18/18
f 57/18/18 43/15/15 44/15/15
f 67/27/3 66/18/3 65/18/3
f 66/18/3 67/27/3 68/27/3
f 67/27/5 69/27/5 68/27/5
f 69/27/5 67/27/5 70/27/5
f 71/18/1 67/27/1 65/18/1
f 67/27/1 71/18/1 70/27/1
f 69/27/4 66/18/4 68/27/4
f 66/18/4 69/27/4 72/18/4
f 69/27/2 71/18/2 72/18/2
f 71/18/2 69/27/2 70/27/2
f 75/27/3 74/18/3 73/18/3
f 74/18/3 75/27/3 76/27/3
f 75/27/5 77/27/5 76/27/5
f 77/27/5 75/27/5 78/27/5
f 79/18/1 75/27/1 73/18/1
f 75/27/1 79/18/1 78/27/1
f 77/27/4 74/18/4 76/27/4
f 74/18/4 77/27/4 80/18/4
f 77/27/2 79/18/2 80/18/2
f 79/18/2 77/27/2 78/27/2
f 83/27/3 82/18/3 81/18/3
f 82/18/3 83/27/3 84/27/3
f 83/27/5 85/27/5 84/27/5
f 85/27/5 83/27/5 86/27/5
f 87/18/1 83/27/1 81/18/1
f 83/27/1 87/18/1 86/27/1
f 85/27/4 82/18/4 84/27/4
f 82/18/4 85/27/4 88/18/4
f 85/27/2 87/18/2 88/18/2
f 87/18/2 85/27/2 86/27/2
f 91/27/3 90/18/3 89/18/3
f 90/18/3 91/27/3 92/27/3
f 91/27/5 93/27/5 92/27/5
f 93/27/5 91/27/5 94/27/5
f 95/18/1 91/27/1 89/18/1
f 91/27/1 95/18/1 94/27/1
f 93/27/4 90/18/4 92/27/4
f 90/18/4 93/27/4 96/18/4
f 93/27/2 95/18/2 96/18/2
f 95/18/2 93/27/2 94/27/2
f 99/28/5 98/28/5 97/28/5
f 98/28/5 99/28/5 100/28/5
f 103/29/6 102/29/6 101/29/6
f 102/29/6 103/29/6 104/29/6
f 104/29/1 100/28/1 99/28/1
f 100/28/1 104/29/1 103/29/1
f 98/28/4 102/29/4 97/28/4
f 102/29/4 98/28/4 101/29/4
f 107/28/5 106/28/5 105/28/5
f 106/28/5 107/28/5 108/28/5
f 111/29/6 110/29/6 109/29/6
f 110/29/6 111/29/6 112/29/6
f 112/29/1 108/28/1 107/28/1
f 108/28/1 112/29/1 111/29/1
f 106/28/4 110/29/4 105/28/4
f 110/29/4 106/28/4 109/29/4

