# Created by Kenney (www.kenney.nl)

mtllib path-split.mtl

g path-split

v 0.5 0 0.5 1 1 1
v 0.5 0 -0.5 1 1 1
v -0.5 0 0.5 1 1 1
v -0.5 0 -0.5 1 1 1
v 0.5 0.1 -0.5 1 1 1
v 0.5 0.1 0.5 1 1 1
v -0.5 0.1 -0.5 1 1 1
v -0.5 0.1 0.5 1 1 1
v 0.35 0.1 -0.5 1 1 1
v 0.45 0.1 -0.5 1 1 1
v 0.35 0.3 -0.5 1 1 1
v 0.45 0.3 -0.5 1 1 1
v 0.45 0.3 -0.45 1 1 1
v 0.35 0.3 -0.45 1 1 1
v 0.35 0.1 -0.45 1 1 1
v 0.45 0.1 -0.45 1 1 1
v 0.35 0.1 0.45 1 1 1
v 0.45 0.1 0.45 1 1 1
v 0.35 0.3 0.45 1 1 1
v 0.45 0.3 0.45 1 1 1
v 0.45 0.3 0.5 1 1 1
v 0.35 0.3 0.5 1 1 1
v 0.35 0.1 0.5 1 1 1
v 0.45 0.1 0.5 1 1 1
v -0.45 0.1 0.45 1 1 1
v -0.35 0.1 0.45 1 1 1
v -0.45 0.3 0.45 1 1 1
v -0.35 0.3 0.45 1 1 1
v -0.35 0.3 0.5 1 1 1
v -0.45 0.3 0.5 1 1 1
v -0.45 0.1 0.5 1 1 1
v -0.35 0.1 0.5 1 1 1
v -0.45 0.1 0.35 1 1 1
v -0.45 0.1 0.45 1 1 1
v -0.45 0.3 0.35 1 1 1
v -0.45 0.3 0.45 1 1 1
v -0.5 0.3 0.45 1 1 1
v -0.5 0.3 0.35 1 1 1
v -0.5 0.1 0.35 1 1 1
v -0.5 0.1 0.45 1 1 1
v -0.45 0.1 -0.5 1 1 1
v -0.35 0.1 -0.5 1 1 1
v -0.45 0.3 -0.5 1 1 1
v -0.35 0.3 -0.5 1 1 1
v -0.35 0.3 -0.45 1 1 1
v -0.45 0.3 -0.45 1 1 1
v -0.45 0.1 -0.45 1 1 1
v -0.35 0.1 -0.45 1 1 1
v -0.45 0.1 -0.35 1 1 1
v -0.45 0.1 -0.45 1 1 1
v -0.45 0.3 -0.35 1 1 1
v -0.45 0.3 -0.45 1 1 1
v -0.5 0.3 -0.45 1 1 1
v -0.5 0.3 -0.35 1 1 1
v -0.5 0.1 -0.35 1 1 1
v -0.5 0.1 -0.45 1 1 1
v 0.425 0.275 -0.45 1 1 1
v 0.425 0.275 0.45 1 1 1
v 0.375 0.275 -0.45 1 1 1
v 0.375 0.275 0.45 1 1 1
v 0.425 0.175 0.45 1 1 1
v 0.425 0.175 -0.45 1 1 1
v 0.375 0.175 0.45 1 1 1
v 0.375 0.175 -0.45 1 1 1
v -0.375 0.175 0.425 1 1 1
v -0.3875 0.175 0.3875 1 1 1
v -0.375 0.175 0.45 1 1 1
v -0.425 0.175 0.45 1 1 1
v -0.425 0.175 0.375 1 1 1
v -0.425 0.175 0.425 1 1 1
v -0.45 0.175 0.425 1 1 1
v -0.45 0.175 0.375 1 1 1
v -0.375 0.275 0.425 1 1 1
v -0.375 0.275 0.45 1 1 1
v -0.45 0.275 0.425 1 1 1
v -0.45 0.275 0.375 1 1 1
v -0.425 0.275 0.425 1 1 1
v -0.425 0.275 0.375 1 1 1
v -0.425 0.275 0.45 1 1 1
v -0.3875 0.275 0.3875 1 1 1
v -0.375 0.175 -0.425 1 1 1
v -0.3875 0.175 -0.3875 1 1 1
v -0.375 0.175 -0.45 1 1 1
v -0.425 0.175 -0.45 1 1 1
v -0.425 0.175 -0.375 1 1 1
v -0.425 0.175 -0.425 1 1 1
v -0.45 0.175 -0.425 1 1 1
v -0.45 0.175 -0.375 1 1 1
v -0.375 0.275 -0.425 1 1 1
v -0.375 0.275 -0.45 1 1 1
v -0.45 0.275 -0.425 1 1 1
v -0.45 0.275 -0.375 1 1 1
v -0.425 0.275 -0.425 1 1 1
v -0.425 0.275 -0.375 1 1 1
v -0.425 0.275 -0.45 1 1 1
v -0.3875 0.275 -0.3875 1 1 1

vn 0 -1 0
vn 0 1 0
vn 1 0 0
vn 0 0 -1
vn -1 0 0
vn 0 0 1
vn 1 0 1.192093E-07
vn 1.192093E-07 0 -1
vn -1.192093E-07 0 1
vn -1 0 -1.192093E-07
vn 0.9870875 0 -0.1601822
vn 0.1601822 0 -0.9870875
vn 0.7071068 0 -0.7071068
vn 0.9870875 0 0.1601822
vn 0.1601822 0 0.9870875
vn 0.7071068 0 0.7071068

vt 0.46875 0.025
vt 0.46875 0.225
vt 0.71875 0.025
vt 0.71875 0.125
vt 0.71875 0.175
vt 0.71875 0.075

usemtl colormap

f 3/1/1 2/1/1 1/1/1
f 2/1/1 3/1/1 4/1/1
f 7/2/2 6/2/2 5/2/2
f 6/2/2 7/2/2 8/2/2
f 6/2/3 2/1/3 5/2/3
f 2/1/3 6/2/3 1/1/3
f 7/2/4 2/1/4 4/1/4
f 2/1/4 7/2/4 5/2/4
f 3/1/5 7/2/5 4/1/5
f 7/2/5 3/1/5 8/2/5
f 6/2/6 3/1/6 1/1/6
f 3/1/6 6/2/6 8/2/6
f 11/4/4 10/3/4 9/3/4
f 10/3/4 11/4/4 12/4/4
f 11/4/2 13/4/2 12/4/2
f 13/4/2 11/4/2 14/4/2
f 15/3/5 11/4/5 9/3/5
f 11/4/5 15/3/5 14/4/5
f 13/4/3 10/3/3 12/4/3
f 10/3/3 13/4/3 16/3/3
f 13/4/6 15/3/6 16/3/6
f 15/3/6 13/4/6 14/4/6
f 19/4/4 18/3/4 17/3/4
f 18/3/4 19/4/4 20/4/4
f 19/4/2 21/4/2 20/4/2
f 21/4/2 19/4/2 22/4/2
f 23/3/5 19/4/5 17/3/5
f 19/4/5 23/3/5 22/4/5
f 21/4/3 18/3/3 20/4/3
f 18/3/3 21/4/3 24/3/3
f 21/4/6 23/3/6 24/3/6
f 23/3/6 21/4/6 22/4/6
f 27/4/4 26/3/4 25/3/4
f 26/3/4 27/4/4 28/4/4
f 27/4/2 29/4/2 28/4/2
f 29/4/2 27/4/2 30/4/2
f 31/3/5 27/4/5 25/3/5
f 27/4/5 31/3/5 30/4/5
f 29/4/3 26/3/3 28/4/3
f 26/3/3 29/4/3 32/3/3
f 29/4/6 31/3/6 32/3/6
f 31/3/6 29/4/6 30/4/6
f 35/4/7 34/3/7 33/3/7
f 34/3/7 35/4/7 36/4/7
f 35/4/2 37/4/2 36/4/2
f 37/4/2 35/4/2 38/4/2
f 39/3/8 35/4/8 33/3/8
f 35/4/8 39/3/8 38/4/8
f 37/4/9 34/3/9 36/4/9
f 34/3/9 37/4/9 40/3/9
f 37/4/10 39/3/10 40/3/10
f 39/3/10 37/4/10 38/4/10
f 43/4/4 42/3/4 41/3/4
f 42/3/4 43/4/4 44/4/4
f 43/4/2 45/4/2 44/4/2
f 45/4/2 43/4/2 46/4/2
f 47/3/5 43/4/5 41/3/5
f 43/4/5 47/3/5 46/4/5
f 45/4/3 42/3/3 44/4/3
f 42/3/3 45/4/3 48/3/3
f 45/4/6 47/3/6 48/3/6
f 47/3/6 45/4/6 46/4/6
f 54/4/10 53/4/10 55/3/10
f 56/3/10 55/3/10 53/4/10
f 56/3/8 53/4/8 50/3/8
f 52/4/8 50/3/8 53/4/8
f 54/4/9 55/3/9 51/4/9
f 49/3/9 51/4/9 55/3/9
f 54/4/2 51/4/2 53/4/2
f 52/4/2 53/4/2 51/4/2
f 52/4/7 51/4/7 50/3/7
f 49/3/7 50/3/7 51/4/7
f 59/5/2 58/5/2 57/5/2
f 58/5/2 59/5/2 60/5/2
f 63/6/1 62/6/1 61/6/1
f 62/6/1 63/6/1 64/6/1
f 64/6/5 60/5/5 59/5/5
f 60/5/5 64/6/5 63/6/5
f 58/5/3 62/6/3 57/5/3
f 62/6/3 58/5/3 61/6/3
f 67/6/1 66/6/1 65/6/1
f 66/6/1 67/6/1 68/6/1
f 66/6/1 68/6/1 69/6/1
f 69/6/1 68/6/1 70/6/1
f 69/6/1 70/6/1 71/6/1
f 69/6/1 71/6/1 72/6/1
f 74/5/3 65/6/11 73/5/11
f 65/6/11 74/5/3 67/6/3
f 77/5/2 76/5/2 75/5/2
f 76/5/2 77/5/2 78/5/2
f 79/5/2 78/5/2 77/5/2
f 79/5/2 80/5/2 78/5/2
f 74/5/2 80/5/2 79/5/2
f 80/5/2 74/5/2 73/5/2
f 76/5/4 69/6/12 72/6/4
f 69/6/12 76/5/4 78/5/12
f 69/6/12 80/5/13 66/6/13
f 80/5/13 69/6/12 78/5/12
f 80/5/13 65/6/11 66/6/13
f 65/6/11 80/5/13 73/5/11
f 68/6/5 77/5/5 70/6/5
f 77/5/5 68/6/5 79/5/5
f 70/6/6 75/5/6 71/6/6
f 75/5/6 70/6/6 77/5/6
f 93/5/4 86/6/4 91/5/4
f 87/6/4 91/5/4 86/6/4
f 95/5/5 84/6/5 93/5/5
f 86/6/5 93/5/5 84/6/5
f 89/5/14 96/5/16 81/6/14
f 82/6/16 81/6/14 96/5/16
f 94/5/15 85/6/15 96/5/16
f 82/6/16 96/5/16 85/6/15
f 94/5/15 92/5/6 85/6/15
f 88/6/6 85/6/15 92/5/6
f 89/5/2 90/5/2 96/5/2
f 95/5/2 96/5/2 90/5/2
f 94/5/2 96/5/2 95/5/2
f 93/5/2 94/5/2 95/5/2
f 94/5/2 93/5/2 92/5/2
f 91/5/2 92/5/2 93/5/2
f 83/6/3 90/5/3 81/6/14
f 89/5/14 81/6/14 90/5/3
f 88/6/1 87/6/1 85/6/1
f 87/6/1 86/6/1 85/6/1
f 86/6/1 84/6/1 85/6/1
f 85/6/1 84/6/1 82/6/1
f 84/6/1 83/6/1 82/6/1
f 81/6/1 82/6/1 83/6/1

g path-split




usemtl colormap

f 3/1/1 2/1/1 1/1/1
f 2/1/1 3/1/1 4/1/1
f 7/2/2 6/2/2 5/2/2
f 6/2/2 7/2/2 8/2/2
f 6/2/3 2/1/3 5/2/3
f 2/1/3 6/2/3 1/1/3
f 7/2/4 2/1/4 4/1/4
f 2/1/4 7/2/4 5/2/4
f 3/1/5 7/2/5 4/1/5
f 7/2/5 3/1/5 8/2/5
f 6/2/6 3/1/6 1/1/6
f 3/1/6 6/2/6 8/2/6
f 11/4/4 10/3/4 9/3/4
f 10/3/4 11/4/4 12/4/4
f 11/4/2 13/4/2 12/4/2
f 13/4/2 11/4/2 14/4/2
f 15/3/5 11/4/5 9/3/5
f 11/4/5 15/3/5 14/4/5
f 13/4/3 10/3/3 12/4/3
f 10/3/3 13/4/3 16/3/3
f 13/4/6 15/3/6 16/3/6
f 15/3/6 13/4/6 14/4/6
f 19/4/4 18/3/4 17/3/4
f 18/3/4 19/4/4 20/4/4
f 19/4/2 21/4/2 20/4/2
f 21/4/2 19/4/2 22/4/2
f 23/3/5 19/4/5 17/3/5
f 19/4/5 23/3/5 22/4/5
f 21/4/3 18/3/3 20/4/3
f 18/3/3 21/4/3 24/3/3
f 21/4/6 23/3/6 24/3/6
f 23/3/6 21/4/6 22/4/6
f 27/4/4 26/3/4 25/3/4
f 26/3/4 27/4/4 28/4/4
f 27/4/2 29/4/2 28/4/2
f 29/4/2 27/4/2 30/4/2
f 31/3/5 27/4/5 25/3/5
f 27/4/5 31/3/5 30/4/5
f 29/4/3 26/3/3 28/4/3
f 26/3/3 29/4/3 32/3/3
f 29/4/6 31/3/6 32/3/6
f 31/3/6 29/4/6 30/4/6
f 35/4/7 34/3/7 33/3/7
f 34/3/7 35/4/7 36/4/7
f 35/4/2 37/4/2 36/4/2
f 37/4/2 35/4/2 38/4/2
f 39/3/8 35/4/8 33/3/8
f 35/4/8 39/3/8 38/4/8
f 37/4/9 34/3/9 36/4/9
f 34/3/9 37/4/9 40/3/9
f 37/4/10 39/3/10 40/3/10
f 39/3/10 37/4/10 38/4/10
f 43/4/4 42/3/4 41/3/4
f 42/3/4 43/4/4 44/4/4
f 43/4/2 45/4/2 44/4/2
f 45/4/2 43/4/2 46/4/2
f 47/3/5 43/4/5 41/3/5
f 43/4/5 47/3/5 46/4/5
f 45/4/3 42/3/3 44/4/3
f 42/3/3 45/4/3 48/3/3
f 45/4/6 47/3/6 48/3/6
f 47/3/6 45/4/6 46/4/6
f 54/4/10 53/4/10 55/3/10
f 56/3/10 55/3/10 53/4/10
f 56/3/8 53/4/8 50/3/8
f 52/4/8 50/3/8 53/4/8
f 54/4/9 55/3/9 51/4/9
f 49/3/9 51/4/9 55/3/9
f 54/4/2 51/4/2 53/4/2
f 52/4/2 53/4/2 51/4/2
f 52/4/7 51/4/7 50/3/7
f 49/3/7 50/3/7 51/4/7
f 59/5/2 58/5/2 57/5/2
f 58/5/2 59/5/2 60/5/2
f 63/6/1 62/6/1 61/6/1
f 62/6/1 63/6/1 64/6/1
f 64/6/5 60/5/5 59/5/5
f 60/5/5 64/6/5 63/6/5
f 58/5/3 62/6/3 57/5/3
f 62/6/3 58/5/3 61/6/3
f 67/6/1 66/6/1 65/6/1
f 66/6/1 67/6/1 68/6/1
f 66/6/1 68/6/1 69/6/1
f 69/6/1 68/6/1 70/6/1
f 69/6/1 70/6/1 71/6/1
f 69/6/1 71/6/1 72/6/1
f 74/5/3 65/6/11 73/5/11
f 65/6/11 74/5/3 67/6/3
f 77/5/2 76/5/2 75/5/2
f 76/5/2 77/5/2 78/5/2
f 79/5/2 78/5/2 77/5/2
f 79/5/2 80/5/2 78/5/2
f 74/5/2 80/5/2 79/5/2
f 80/5/2 74/5/2 73/5/2
f 76/5/4 69/6/12 72/6/4
f 69/6/12 76/5/4 78/5/12
f 69/6/12 80/5/13 66/6/13
f 80/5/13 69/6/12 78/5/12
f 80/5/13 65/6/11 66/6/13
f 65/6/11 80/5/13 73/5/11
f 68/6/5 77/5/5 70/6/5
f 77/5/5 68/6/5 79/5/5
f 70/6/6 75/5/6 71/6/6
f 75/5/6 70/6/6 77/5/6
f 93/5/4 86/6/4 91/5/4
f 87/6/4 91/5/4 86/6/4
f 95/5/5 84/6/5 93/5/5
f 86/6/5 93/5/5 84/6/5
f 89/5/14 96/5/16 81/6/14
f 82/6/16 81/6/14 96/5/16
f 94/5/15 85/6/15 96/5/16
f 82/6/16 96/5/16 85/6/15
f 94/5/15 92/5/6 85/6/15
f 88/6/6 85/6/15 92/5/6
f 89/5/2 90/5/2 96/5/2
f 95/5/2 96/5/2 90/5/2
f 94/5/2 96/5/2 95/5/2
f 93/5/2 94/5/2 95/5/2
f 94/5/2 93/5/2 92/5/2
f 91/5/2 92/5/2 93/5/2
f 83/6/3 90/5/3 81/6/14
f 89/5/14 81/6/14 90/5/3
f 88/6/1 87/6/1 85/6/1
f 87/6/1 86/6/1 85/6/1
f 86/6/1 84/6/1 85/6/1
f 85/6/1 84/6/1 82/6/1
f 84/6/1 83/6/1 82/6/1
f 81/6/1 82/6/1 83/6/1

