# Created by Kenney (www.kenney.nl)

mtllib queue-crossing.mtl

g queue-crossing

v -0.5 0 -0.5 1 1 1
v -0.3 0 -0.5 1 1 1
v -0.5 0.1 -0.5 1 1 1
v -0.3 0.1 -0.5 1 1 1
v -0.3 0.1 -0.3 1 1 1
v -0.5 0.1 -0.3 1 1 1
v -0.3 0 -0.3 1 1 1
v -0.5 0 -0.3 1 1 1
v -0.5 0 0.3 1 1 1
v -0.3 0 0.3 1 1 1
v -0.5 0.1 0.3 1 1 1
v -0.3 0.1 0.3 1 1 1
v -0.3 0.1 0.5 1 1 1
v -0.5 0.1 0.5 1 1 1
v -0.3 0 0.5 1 1 1
v -0.5 0 0.5 1 1 1
v 0.5 0 -0.5 1 1 1
v 0.3 0 -0.5 1 1 1
v 0.5 0.1 -0.5 1 1 1
v 0.3 0.1 -0.5 1 1 1
v 0.3 0.1 -0.3 1 1 1
v 0.5 0.1 -0.3 1 1 1
v 0.3 0 -0.3 1 1 1
v 0.5 0 -0.3 1 1 1
v 0.5 0 0.3 1 1 1
v 0.3 0 0.3 1 1 1
v 0.5 0.1 0.3 1 1 1
v 0.3 0.1 0.3 1 1 1
v 0.3 0.1 0.5 1 1 1
v 0.5 0.1 0.5 1 1 1
v 0.3 0 0.5 1 1 1
v 0.5 0 0.5 1 1 1
v -0.45 0.1 0.45 1 1 1
v -0.35 0.1 0.45 1 1 1
v -0.45 0.4 0.45 1 1 1
v -0.35 0.4 0.45 1 1 1
v -0.35 0.4 0.5 1 1 1
v -0.45 0.4 0.5 1 1 1
v -0.45 0.1 0.5 1 1 1
v -0.35 0.1 0.5 1 1 1
v -0.45 0.1 -0.5 1 1 1
v -0.35 0.1 -0.5 1 1 1
v -0.45 0.4 -0.5 1 1 1
v -0.35 0.4 -0.5 1 1 1
v -0.35 0.4 -0.45 1 1 1
v -0.45 0.4 -0.45 1 1 1
v -0.45 0.1 -0.45 1 1 1
v -0.35 0.1 -0.45 1 1 1
v -0.45 0.1 -0.45 1 1 1
v -0.45 0.1 -0.35 1 1 1
v -0.45 0.4 -0.45 1 1 1
v -0.45 0.4 -0.35 1 1 1
v -0.5 0.4 -0.35 1 1 1
v -0.5 0.4 -0.45 1 1 1
v -0.5 0.1 -0.45 1 1 1
v -0.5 0.1 -0.35 1 1 1
v -0.45 0.1 0.35 1 1 1
v -0.45 0.1 0.45 1 1 1
v -0.45 0.4 0.35 1 1 1
v -0.45 0.4 0.45 1 1 1
v -0.5 0.4 0.45 1 1 1
v -0.5 0.4 0.35 1 1 1
v -0.5 0.1 0.35 1 1 1
v -0.5 0.1 0.45 1 1 1
v 0.45 0.1 0.45 1 1 1
v 0.35 0.1 0.45 1 1 1
v 0.45 0.4 0.45 1 1 1
v 0.35 0.4 0.45 1 1 1
v 0.35 0.4 0.5 1 1 1
v 0.45 0.4 0.5 1 1 1
v 0.45 0.1 0.5 1 1 1
v 0.35 0.1 0.5 1 1 1
v 0.45 0.1 -0.5 1 1 1
v 0.35 0.1 -0.5 1 1 1
v 0.45 0.4 -0.5 1 1 1
v 0.35 0.4 -0.5 1 1 1
v 0.35 0.4 -0.45 1 1 1
v 0.45 0.4 -0.45 1 1 1
v 0.45 0.1 -0.45 1 1 1
v 0.35 0.1 -0.45 1 1 1
v 0.45 0.1 0.35 1 1 1
v 0.45 0.1 0.45 1 1 1
v 0.45 0.4 0.35 1 1 1
v 0.45 0.4 0.45 1 1 1
v 0.5 0.4 0.45 1 1 1
v 0.5 0.4 0.35 1 1 1
v 0.5 0.1 0.35 1 1 1
v 0.5 0.1 0.45 1 1 1
v 0.45 0.1 -0.45 1 1 1
v 0.45 0.1 -0.35 1 1 1
v 0.45 0.4 -0.45 1 1 1
v 0.45 0.4 -0.35 1 1 1
v 0.5 0.4 -0.35 1 1 1
v 0.5 0.4 -0.45 1 1 1
v 0.5 0.1 -0.45 1 1 1
v 0.5 0.1 -0.35 1 1 1
v -0.375 0.275 0.425 1 1 1
v -0.3875 0.275 0.3875 1 1 1
v -0.375 0.275 0.45 1 1 1
v -0.425 0.275 0.45 1 1 1
v -0.425 0.275 0.375 1 1 1
v -0.425 0.275 0.425 1 1 1
v -0.45 0.275 0.425 1 1 1
v -0.45 0.275 0.375 1 1 1
v -0.375 0.375 0.425 1 1 1
v -0.375 0.375 0.45 1 1 1
v -0.45 0.375 0.425 1 1 1
v -0.45 0.375 0.375 1 1 1
v -0.425 0.375 0.425 1 1 1
v -0.425 0.375 0.375 1 1 1
v -0.425 0.375 0.45 1 1 1
v -0.3875 0.375 0.3875 1 1 1
v -0.425 0.275 -0.375 1 1 1
v -0.3875 0.275 -0.3875 1 1 1
v -0.45 0.275 -0.375 1 1 1
v -0.45 0.275 -0.425 1 1 1
v -0.375 0.275 -0.425 1 1 1
v -0.425 0.275 -0.425 1 1 1
v -0.425 0.275 -0.45 1 1 1
v -0.375 0.275 -0.45 1 1 1
v -0.425 0.375 -0.375 1 1 1
v -0.45 0.375 -0.375 1 1 1
v -0.425 0.375 -0.45 1 1 1
v -0.375 0.375 -0.45 1 1 1
v -0.425 0.375 -0.425 1 1 1
v -0.375 0.375 -0.425 1 1 1
v -0.45 0.375 -0.425 1 1 1
v -0.3875 0.375 -0.3875 1 1 1
v 0.375 0.275 0.425 1 1 1
v 0.3875 0.275 0.3875 1 1 1
v 0.375 0.275 0.45 1 1 1
v 0.425 0.275 0.45 1 1 1
v 0.425 0.275 0.375 1 1 1
v 0.425 0.275 0.425 1 1 1
v 0.45 0.275 0.425 1 1 1
v 0.45 0.275 0.375 1 1 1
v 0.375 0.375 0.425 1 1 1
v 0.375 0.375 0.45 1 1 1
v 0.45 0.375 0.425 1 1 1
v 0.45 0.375 0.375 1 1 1
v 0.425 0.375 0.425 1 1 1
v 0.425 0.375 0.375 1 1 1
v 0.425 0.375 0.45 1 1 1
v 0.3875 0.375 0.3875 1 1 1
v 0.425 0.275 -0.375 1 1 1
v 0.3875 0.275 -0.3875 1 1 1
v 0.45 0.275 -0.375 1 1 1
v 0.45 0.275 -0.425 1 1 1
v 0.375 0.275 -0.425 1 1 1
v 0.425 0.275 -0.425 1 1 1
v 0.425 0.275 -0.45 1 1 1
v 0.375 0.275 -0.45 1 1 1
v 0.425 0.375 -0.375 1 1 1
v 0.45 0.375 -0.375 1 1 1
v 0.425 0.375 -0.45 1 1 1
v 0.375 0.375 -0.45 1 1 1
v 0.425 0.375 -0.425 1 1 1
v 0.375 0.375 -0.425 1 1 1
v 0.45 0.375 -0.425 1 1 1
v 0.3875 0.375 -0.3875 1 1 1

vn 0 0 -1
vn 0 1 0
vn 1 0 0
vn -1 0 0
vn 0 0 1
vn 0 -1 0
vn 1 0 1.192093E-07
vn 1.192093E-07 0 -1
vn -1.192093E-07 0 1
vn -1 0 -1.192093E-07
vn -1 0 1.192093E-07
vn -1.192093E-07 0 -1
vn 1.192093E-07 0 1
vn 1 0 -1.192093E-07
vn 0.9870875 0 -0.1601822
vn 0.1601822 0 -0.9870875
vn 0.7071068 0 -0.7071068
vn 0.1601821 0 0.9870876
vn 0.9870876 0 0.1601824
vn 0.7071068 0 0.7071069
vn -0.9870875 0 -0.1601822
vn -0.1601822 0 -0.9870875
vn -0.7071068 0 -0.7071068
vn -0.1601821 0 0.9870876
vn -0.9870876 0 0.1601824
vn -0.7071068 0 0.7071069

vt 0.46875 0.025
vt 0.46875 0.225
vt 0.71875 0.275
vt 0.71875 0.475
vt 0.96875 0.025
vt 0.96875 0.125
vt 0.96875 0.075
vt 0.96875 0.175

usemtl colormap

f 3/2/1 2/1/1 1/1/1
f 2/1/1 3/2/1 4/2/1
f 3/2/2 5/2/2 4/2/2
f 5/2/2 3/2/2 6/2/2
f 5/2/3 2/1/3 4/2/3
f 2/1/3 5/2/3 7/1/3
f 8/1/4 3/2/4 1/1/4
f 3/2/4 8/1/4 6/2/4
f 5/2/5 8/1/5 7/1/5
f 8/1/5 5/2/5 6/2/5
f 8/1/6 2/1/6 7/1/6
f 2/1/6 8/1/6 1/1/6
f 11/2/1 10/1/1 9/1/1
f 10/1/1 11/2/1 12/2/1
f 11/2/2 13/2/2 12/2/2
f 13/2/2 11/2/2 14/2/2
f 13/2/3 10/1/3 12/2/3
f 10/1/3 13/2/3 15/1/3
f 16/1/4 11/2/4 9/1/4
f 11/2/4 16/1/4 14/2/4
f 13/2/5 16/1/5 15/1/5
f 16/1/5 13/2/5 14/2/5
f 16/1/6 10/1/6 15/1/6
f 10/1/6 16/1/6 9/1/6
f 17/1/6 24/1/6 18/1/6
f 23/1/6 18/1/6 24/1/6
f 22/2/5 21/2/5 24/1/5
f 23/1/5 24/1/5 21/2/5
f 22/2/3 24/1/3 19/2/3
f 17/1/3 19/2/3 24/1/3
f 23/1/4 21/2/4 18/1/4
f 20/2/4 18/1/4 21/2/4
f 22/2/2 19/2/2 21/2/2
f 20/2/2 21/2/2 19/2/2
f 20/2/1 19/2/1 18/1/1
f 17/1/1 18/1/1 19/2/1
f 25/1/6 32/1/6 26/1/6
f 31/1/6 26/1/6 32/1/6
f 30/2/5 29/2/5 32/1/5
f 31/1/5 32/1/5 29/2/5
f 30/2/3 32/1/3 27/2/3
f 25/1/3 27/2/3 32/1/3
f 31/1/4 29/2/4 26/1/4
f 28/2/4 26/1/4 29/2/4
f 30/2/2 27/2/2 29/2/2
f 28/2/2 29/2/2 27/2/2
f 28/2/1 27/2/1 26/1/1
f 25/1/1 26/1/1 27/2/1
f 4/4/1 18/3/1 2/3/1
f 18/3/1 4/4/1 20/4/1
f 4/4/2 29/4/2 20/4/2
f 29/4/2 4/4/2 13/4/2
f 29/4/5 15/3/5 31/3/5
f 15/3/5 29/4/5 13/4/5
f 15/3/6 18/3/6 31/3/6
f 18/3/6 15/3/6 2/3/6
f 6/4/2 12/4/2 5/4/2
f 12/4/2 6/4/2 11/4/2
f 9/3/6 7/3/6 10/3/6
f 7/3/6 9/3/6 8/3/6
f 9/3/4 6/4/4 8/3/4
f 6/4/4 9/3/4 11/4/4
f 27/4/3 25/3/3 22/4/3
f 24/3/3 22/4/3 25/3/3
f 24/3/6 25/3/6 23/3/6
f 26/3/6 23/3/6 25/3/6
f 27/4/2 22/4/2 28/4/2
f 21/4/2 28/4/2 22/4/2
f 35/6/1 34/5/1 33/5/1
f 34/5/1 35/6/1 36/6/1
f 35/6/2 37/6/2 36/6/2
f 37/6/2 35/6/2 38/6/2
f 39/5/4 35/6/4 33/5/4
f 35/6/4 39/5/4 38/6/4
f 37/6/3 34/5/3 36/6/3
f 34/5/3 37/6/3 40/5/3
f 37/6/5 39/5/5 40/5/5
f 39/5/5 37/6/5 38/6/5
f 43/6/1 42/5/1 41/5/1
f 42/5/1 43/6/1 44/6/1
f 43/6/2 45/6/2 44/6/2
f 45/6/2 43/6/2 46/6/2
f 47/5/4 43/6/4 41/5/4
f 43/6/4 47/5/4 46/6/4
f 45/6/3 42/5/3 44/6/3
f 42/5/3 45/6/3 48/5/3
f 45/6/5 47/5/5 48/5/5
f 47/5/5 45/6/5 46/6/5
f 51/6/7 50/5/7 49/5/7
f 50/5/7 51/6/7 52/6/7
f 51/6/2 53/6/2 52/6/2
f 53/6/2 51/6/2 54/6/2
f 55/5/8 51/6/8 49/5/8
f 51/6/8 55/5/8 54/6/8
f 53/6/9 50/5/9 52/6/9
f 50/5/9 53/6/9 56/5/9
f 53/6/10 55/5/10 56/5/10
f 55/5/10 53/6/10 54/6/10
f 59/6/7 58/5/7 57/5/7
f 58/5/7 59/6/7 60/6/7
f 59/6/2 61/6/2 60/6/2
f 61/6/2 59/6/2 62/6/2
f 63/5/8 59/6/8 57/5/8
f 59/6/8 63/5/8 62/6/8
f 61/6/9 58/5/9 60/6/9
f 58/5/9 61/6/9 64/5/9
f 61/6/10 63/5/10 64/5/10
f 63/5/10 61/6/10 62/6/10
f 70/6/5 69/6/5 71/5/5
f 72/5/5 71/5/5 69/6/5
f 72/5/4 69/6/4 66/5/4
f 68/6/4 66/5/4 69/6/4
f 70/6/3 71/5/3 67/6/3
f 65/5/3 67/6/3 71/5/3
f 70/6/2 67/6/2 69/6/2
f 68/6/2 69/6/2 67/6/2
f 68/6/1 67/6/1 66/5/1
f 65/5/1 66/5/1 67/6/1
f 78/6/5 77/6/5 79/5/5
f 80/5/5 79/5/5 77/6/5
f 80/5/4 77/6/4 74/5/4
f 76/6/4 74/5/4 77/6/4
f 78/6/3 79/5/3 75/6/3
f 73/5/3 75/6/3 79/5/3
f 78/6/2 75/6/2 77/6/2
f 76/6/2 77/6/2 75/6/2
f 76/6/1 75/6/1 74/5/1
f 73/5/1 74/5/1 75/6/1
f 86/6/14 85/6/14 87/5/14
f 88/5/14 87/5/14 85/6/14
f 88/5/13 85/6/13 82/5/13
f 84/6/13 82/5/13 85/6/13
f 86/6/12 87/5/12 83/6/12
f 81/5/12 83/6/12 87/5/12
f 86/6/2 83/6/2 85/6/2
f 84/6/2 85/6/2 83/6/2
f 84/6/11 83/6/11 82/5/11
f 81/5/11 82/5/11 83/6/11
f 94/6/14 93/6/14 95/5/14
f 96/5/14 95/5/14 93/6/14
f 96/5/13 93/6/13 90/5/13
f 92/6/13 90/5/13 93/6/13
f 94/6/12 95/5/12 91/6/12
f 89/5/12 91/6/12 95/5/12
f 94/6/2 91/6/2 93/6/2
f 92/6/2 93/6/2 91/6/2
f 92/6/11 91/6/11 90/5/11
f 89/5/11 90/5/11 91/6/11
f 99/7/6 98/7/6 97/7/6
f 98/7/6 99/7/6 100/7/6
f 98/7/6 100/7/6 101/7/6
f 101/7/6 100/7/6 102/7/6
f 101/7/6 102/7/6 103/7/6
f 101/7/6 103/7/6 104/7/6
f 106/8/3 97/7/15 105/8/15
f 97/7/15 106/8/3 99/7/3
f 109/8/2 108/8/2 107/8/2
f 108/8/2 109/8/2 110/8/2
f 111/8/2 110/8/2 109/8/2
f 111/8/2 112/8/2 110/8/2
f 106/8/2 112/8/2 111/8/2
f 112/8/2 106/8/2 105/8/2
f 108/8/1 101/7/16 104/7/1
f 101/7/16 108/8/1 110/8/16
f 101/7/16 112/8/17 98/7/17
f 112/8/17 101/7/16 110/8/16
f 112/8/17 97/7/15 98/7/17
f 97/7/15 112/8/17 105/8/15
f 100/7/4 109/8/4 102/7/4
f 109/8/4 100/7/4 111/8/4
f 102/7/5 107/8/5 103/7/5
f 107/8/5 102/7/5 109/8/5
f 115/7/6 114/7/6 113/7/6
f 114/7/6 115/7/6 116/7/6
f 114/7/6 116/7/6 117/7/6
f 117/7/6 116/7/6 118/7/6
f 117/7/6 118/7/6 119/7/6
f 117/7/6 119/7/6 120/7/6
f 122/8/9 113/7/18 121/8/18
f 113/7/18 122/8/9 115/7/9
f 125/8/2 124/8/2 123/8/2
f 124/8/2 125/8/2 126/8/2
f 127/8/2 126/8/2 125/8/2
f 127/8/2 128/8/2 126/8/2
f 122/8/2 128/8/2 127/8/2
f 128/8/2 122/8/2 121/8/2
f 124/8/7 117/7/19 120/7/7
f 117/7/19 124/8/7 126/8/19
f 117/7/19 128/8/20 114/7/20
f 128/8/20 117/7/19 126/8/19
f 128/8/20 113/7/18 114/7/20
f 113/7/18 128/8/20 121/8/18
f 116/7/8 125/8/8 118/7/8
f 125/8/8 116/7/8 127/8/8
f 118/7/10 123/8/10 119/7/10
f 123/8/10 118/7/10 125/8/10
f 141/8/5 134/7/5 139/8/5
f 135/7/5 139/8/5 134/7/5
f 143/8/3 132/7/3 141/8/3
f 134/7/3 141/8/3 132/7/3
f 137/8/21 144/8/23 129/7/21
f 130/7/23 129/7/21 144/8/23
f 142/8/22 133/7/22 144/8/23
f 130/7/23 144/8/23 133/7/22
f 142/8/22 140/8/1 133/7/22
f 136/7/1 133/7/22 140/8/1
f 137/8/2 138/8/2 144/8/2
f 143/8/2 144/8/2 138/8/2
f 142/8/2 144/8/2 143/8/2
f 141/8/2 142/8/2 143/8/2
f 142/8/2 141/8/2 140/8/2
f 139/8/2 140/8/2 141/8/2
f 131/7/4 138/8/4 129/7/21
f 137/8/21 129/7/21 138/8/4
f 136/7/6 135/7/6 133/7/6
f 135/7/6 134/7/6 133/7/6
f 134/7/6 132/7/6 133/7/6
f 133/7/6 132/7/6 130/7/6
f 132/7/6 131/7/6 130/7/6
f 129/7/6 130/7/6 131/7/6
f 157/8/14 150/7/14 155/8/14
f 151/7/14 155/8/14 150/7/14
f 159/8/12 148/7/12 157/8/12
f 150/7/12 157/8/12 148/7/12
f 153/8/24 160/8/26 145/7/24
f 146/7/26 145/7/24 160/8/26
f 158/8/25 149/7/25 160/8/26
f 146/7/26 160/8/26 149/7/25
f 158/8/25 156/8/11 149/7/25
f 152/7/11 149/7/25 156/8/11
f 153/8/2 154/8/2 160/8/2
f 159/8/2 160/8/2 154/8/2
f 158/8/2 160/8/2 159/8/2
f 157/8/2 158/8/2 159/8/2
f 158/8/2 157/8/2 156/8/2
f 155/8/2 156/8/2 157/8/2
f 147/7/13 154/8/13 145/7/24
f 153/8/24 145/7/24 154/8/13
f 152/7/6 151/7/6 149/7/6
f 151/7/6 150/7/6 149/7/6
f 150/7/6 148/7/6 149/7/6
f 149/7/6 148/7/6 146/7/6
f 148/7/6 147/7/6 146/7/6
f 145/7/6 146/7/6 147/7/6

g queue-crossing




usemtl colormap

f 3/2/1 2/1/1 1/1/1
f 2/1/1 3/2/1 4/2/1
f 3/2/2 5/2/2 4/2/2
f 5/2/2 3/2/2 6/2/2
f 5/2/3 2/1/3 4/2/3
f 2/1/3 5/2/3 7/1/3
f 8/1/4 3/2/4 1/1/4
f 3/2/4 8/1/4 6/2/4
f 5/2/5 8/1/5 7/1/5
f 8/1/5 5/2/5 6/2/5
f 8/1/6 2/1/6 7/1/6
f 2/1/6 8/1/6 1/1/6
f 11/2/1 10/1/1 9/1/1
f 10/1/1 11/2/1 12/2/1
f 11/2/2 13/2/2 12/2/2
f 13/2/2 11/2/2 14/2/2
f 13/2/3 10/1/3 12/2/3
f 10/1/3 13/2/3 15/1/3
f 16/1/4 11/2/4 9/1/4
f 11/2/4 16/1/4 14/2/4
f 13/2/5 16/1/5 15/1/5
f 16/1/5 13/2/5 14/2/5
f 16/1/6 10/1/6 15/1/6
f 10/1/6 16/1/6 9/1/6
f 17/1/6 24/1/6 18/1/6
f 23/1/6 18/1/6 24/1/6
f 22/2/5 21/2/5 24/1/5
f 23/1/5 24/1/5 21/2/5
f 22/2/3 24/1/3 19/2/3
f 17/1/3 19/2/3 24/1/3
f 23/1/4 21/2/4 18/1/4
f 20/2/4 18/1/4 21/2/4
f 22/2/2 19/2/2 21/2/2
f 20/2/2 21/2/2 19/2/2
f 20/2/1 19/2/1 18/1/1
f 17/1/1 18/1/1 19/2/1
f 25/1/6 32/1/6 26/1/6
f 31/1/6 26/1/6 32/1/6
f 30/2/5 29/2/5 32/1/5
f 31/1/5 32/1/5 29/2/5
f 30/2/3 32/1/3 27/2/3
f 25/1/3 27/2/3 32/1/3
f 31/1/4 29/2/4 26/1/4
f 28/2/4 26/1/4 29/2/4
f 30/2/2 27/2/2 29/2/2
f 28/2/2 29/2/2 27/2/2
f 28/2/1 27/2/1 26/1/1
f 25/1/1 26/1/1 27/2/1
f 4/4/1 18/3/1 2/3/1
f 18/3/1 4/4/1 20/4/1
f 4/4/2 29/4/2 20/4/2
f 29/4/2 4/4/2 13/4/2
f 29/4/5 15/3/5 31/3/5
f 15/3/5 29/4/5 13/4/5
f 15/3/6 18/3/6 31/3/6
f 18/3/6 15/3/6 2/3/6
f 6/4/2 12/4/2 5/4/2
f 12/4/2 6/4/2 11/4/2
f 9/3/6 7/3/6 10/3/6
f 7/3/6 9/3/6 8/3/6
f 9/3/4 6/4/4 8/3/4
f 6/4/4 9/3/4 11/4/4
f 27/4/3 25/3/3 22/4/3
f 24/3/3 22/4/3 25/3/3
f 24/3/6 25/3/6 23/3/6
f 26/3/6 23/3/6 25/3/6
f 27/4/2 22/4/2 28/4/2
f 21/4/2 28/4/2 22/4/2
f 35/6/1 34/5/1 33/5/1
f 34/5/1 35/6/1 36/6/1
f 35/6/2 37/6/2 36/6/2
f 37/6/2 35/6/2 38/6/2
f 39/5/4 35/6/4 33/5/4
f 35/6/4 39/5/4 38/6/4
f 37/6/3 34/5/3 36/6/3
f 34/5/3 37/6/3 40/5/3
f 37/6/5 39/5/5 40/5/5
f 39/5/5 37/6/5 38/6/5
f 43/6/1 42/5/1 41/5/1
f 42/5/1 43/6/1 44/6/1
f 43/6/2 45/6/2 44/6/2
f 45/6/2 43/6/2 46/6/2
f 47/5/4 43/6/4 41/5/4
f 43/6/4 47/5/4 46/6/4
f 45/6/3 42/5/3 44/6/3
f 42/5/3 45/6/3 48/5/3
f 45/6/5 47/5/5 48/5/5
f 47/5/5 45/6/5 46/6/5
f 51/6/7 50/5/7 49/5/7
f 50/5/7 51/6/7 52/6/7
f 51/6/2 53/6/2 52/6/2
f 53/6/2 51/6/2 54/6/2
f 55/5/8 51/6/8 49/5/8
f 51/6/8 55/5/8 54/6/8
f 53/6/9 50/5/9 52/6/9
f 50/5/9 53/6/9 56/5/9
f 53/6/10 55/5/10 56/5/10
f 55/5/10 53/6/10 54/6/10
f 59/6/7 58/5/7 57/5/7
f 58/5/7 59/6/7 60/6/7
f 59/6/2 61/6/2 60/6/2
f 61/6/2 59/6/2 62/6/2
f 63/5/8 59/6/8 57/5/8
f 59/6/8 63/5/8 62/6/8
f 61/6/9 58/5/9 60/6/9
f 58/5/9 61/6/9 64/5/9
f 61/6/10 63/5/10 64/5/10
f 63/5/10 61/6/10 62/6/10
f 70/6/5 69/6/5 71/5/5
f 72/5/5 71/5/5 69/6/5
f 72/5/4 69/6/4 66/5/4
f 68/6/4 66/5/4 69/6/4
f 70/6/3 71/5/3 67/6/3
f 65/5/3 67/6/3 71/5/3
f 70/6/2 67/6/2 69/6/2
f 68/6/2 69/6/2 67/6/2
f 68/6/1 67/6/1 66/5/1
f 65/5/1 66/5/1 67/6/1
f 78/6/5 77/6/5 79/5/5
f 80/5/5 79/5/5 77/6/5
f 80/5/4 77/6/4 74/5/4
f 76/6/4 74/5/4 77/6/4
f 78/6/3 79/5/3 75/6/3
f 73/5/3 75/6/3 79/5/3
f 78/6/2 75/6/2 77/6/2
f 76/6/2 77/6/2 75/6/2
f 76/6/1 75/6/1 74/5/1
f 73/5/1 74/5/1 75/6/1
f 86/6/14 85/6/14 87/5/14
f 88/5/14 87/5/14 85/6/14
f 88/5/13 85/6/13 82/5/13
f 84/6/13 82/5/13 85/6/13
f 86/6/12 87/5/12 83/6/12
f 81/5/12 83/6/12 87/5/12
f 86/6/2 83/6/2 85/6/2
f 84/6/2 85/6/2 83/6/2
f 84/6/11 83/6/11 82/5/11
f 81/5/11 82/5/11 83/6/11
f 94/6/14 93/6/14 95/5/14
f 96/5/14 95/5/14 93/6/14
f 96/5/13 93/6/13 90/5/13
f 92/6/13 90/5/13 93/6/13
f 94/6/12 95/5/12 91/6/12
f 89/5/12 91/6/12 95/5/12
f 94/6/2 91/6/2 93/6/2
f 92/6/2 93/6/2 91/6/2
f 92/6/11 91/6/11 90/5/11
f 89/5/11 90/5/11 91/6/11
f 99/7/6 98/7/6 97/7/6
f 98/7/6 99/7/6 100/7/6
f 98/7/6 100/7/6 101/7/6
f 101/7/6 100/7/6 102/7/6
f 101/7/6 102/7/6 103/7/6
f 101/7/6 103/7/6 104/7/6
f 106/8/3 97/7/15 105/8/15
f 97/7/15 106/8/3 99/7/3
f 109/8/2 108/8/2 107/8/2
f 108/8/2 109/8/2 110/8/2
f 111/8/2 110/8/2 109/8/2
f 111/8/2 112/8/2 110/8/2
f 106/8/2 112/8/2 111/8/2
f 112/8/2 106/8/2 105/8/2
f 108/8/1 101/7/16 104/7/1
f 101/7/16 108/8/1 110/8/16
f 101/7/16 112/8/17 98/7/17
f 112/8/17 101/7/16 110/8/16
f 112/8/17 97/7/15 98/7/17
f 97/7/15 112/8/17 105/8/15
f 100/7/4 109/8/4 102/7/4
f 109/8/4 100/7/4 111/8/4
f 102/7/5 107/8/5 103/7/5
f 107/8/5 102/7/5 109/8/5
f 115/7/6 114/7/6 113/7/6
f 114/7/6 115/7/6 116/7/6
f 114/7/6 116/7/6 117/7/6
f 117/7/6 116/7/6 118/7/6
f 117/7/6 118/7/6 119/7/6
f 117/7/6 119/7/6 120/7/6
f 122/8/9 113/7/18 121/8/18
f 113/7/18 122/8/9 115/7/9
f 125/8/2 124/8/2 123/8/2
f 124/8/2 125/8/2 126/8/2
f 127/8/2 126/8/2 125/8/2
f 127/8/2 128/8/2 126/8/2
f 122/8/2 128/8/2 127/8/2
f 128/8/2 122/8/2 121/8/2
f 124/8/7 117/7/19 120/7/7
f 117/7/19 124/8/7 126/8/19
f 117/7/19 128/8/20 114/7/20
f 128/8/20 117/7/19 126/8/19
f 128/8/20 113/7/18 114/7/20
f 113/7/18 128/8/20 121/8/18
f 116/7/8 125/8/8 118/7/8
f 125/8/8 116/7/8 127/8/8
f 118/7/10 123/8/10 119/7/10
f 123/8/10 118/7/10 125/8/10
f 141/8/5 134/7/5 139/8/5
f 135/7/5 139/8/5 134/7/5
f 143/8/3 132/7/3 141/8/3
f 134/7/3 141/8/3 132/7/3
f 137/8/21 144/8/23 129/7/21
f 130/7/23 129/7/21 144/8/23
f 142/8/22 133/7/22 144/8/23
f 130/7/23 144/8/23 133/7/22
f 142/8/22 140/8/1 133/7/22
f 136/7/1 133/7/22 140/8/1
f 137/8/2 138/8/2 144/8/2
f 143/8/2 144/8/2 138/8/2
f 142/8/2 144/8/2 143/8/2
f 141/8/2 142/8/2 143/8/2
f 142/8/2 141/8/2 140/8/2
f 139/8/2 140/8/2 141/8/2
f 131/7/4 138/8/4 129/7/21
f 137/8/21 129/7/21 138/8/4
f 136/7/6 135/7/6 133/7/6
f 135/7/6 134/7/6 133/7/6
f 134/7/6 132/7/6 133/7/6
f 133/7/6 132/7/6 130/7/6
f 132/7/6 131/7/6 130/7/6
f 129/7/6 130/7/6 131/7/6
f 157/8/14 150/7/14 155/8/14
f 151/7/14 155/8/14 150/7/14
f 159/8/12 148/7/12 157/8/12
f 150/7/12 157/8/12 148/7/12
f 153/8/24 160/8/26 145/7/24
f 146/7/26 145/7/24 160/8/26
f 158/8/25 149/7/25 160/8/26
f 146/7/26 160/8/26 149/7/25
f 158/8/25 156/8/11 149/7/25
f 152/7/11 149/7/25 156/8/11
f 153/8/2 154/8/2 160/8/2
f 159/8/2 160/8/2 154/8/2
f 158/8/2 160/8/2 159/8/2
f 157/8/2 158/8/2 159/8/2
f 158/8/2 157/8/2 156/8/2
f 155/8/2 156/8/2 157/8/2
f 147/7/13 154/8/13 145/7/24
f 153/8/24 145/7/24 154/8/13
f 152/7/6 151/7/6 149/7/6
f 151/7/6 150/7/6 149/7/6
f 150/7/6 148/7/6 149/7/6
f 149/7/6 148/7/6 146/7/6
f 148/7/6 147/7/6 146/7/6
f 145/7/6 146/7/6 147/7/6

