# Created by Kenney (www.kenney.nl)

mtllib queue-split.mtl

g queue-split

v 0.3 4.841908E-31 -0.5 1 1 1
v 0.5 4.841908E-31 -0.5 1 1 1
v 0.3 0.1 -0.5 1 1 1
v 0.5 0.1 -0.5 1 1 1
v 0.5 0.1 0.5 1 1 1
v 0.3 0.1 0.5 1 1 1
v 0.5 4.841908E-31 0.5 1 1 1
v 0.3 4.841908E-31 0.5 1 1 1
v -0.5 0 -0.5 1 1 1
v -0.3 0 -0.5 1 1 1
v -0.5 0.1 -0.5 1 1 1
v -0.3 0.1 -0.5 1 1 1
v -0.3 0.1 -0.3 1 1 1
v -0.5 0.1 -0.3 1 1 1
v -0.3 0 -0.3 1 1 1
v -0.5 0 -0.3 1 1 1
v -0.5 0 0.3 1 1 1
v -0.3 0 0.3 1 1 1
v -0.5 0.1 0.3 1 1 1
v -0.3 0.1 0.3 1 1 1
v -0.3 0.1 0.5 1 1 1
v -0.5 0.1 0.5 1 1 1
v -0.3 0 0.5 1 1 1
v -0.5 0 0.5 1 1 1
v 0.3 0 -0.5 1 1 1
v 0.3 0 0.5 1 1 1
v 0.35 0.1 -0.5 1 1 1
v 0.45 0.1 -0.5 1 1 1
v 0.35 0.4 -0.5 1 1 1
v 0.45 0.4 -0.5 1 1 1
v 0.45 0.4 -0.45 1 1 1
v 0.35 0.4 -0.45 1 1 1
v 0.35 0.1 -0.45 1 1 1
v 0.45 0.1 -0.45 1 1 1
v 0.35 0.1 0.45 1 1 1
v 0.45 0.1 0.45 1 1 1
v 0.35 0.4 0.45 1 1 1
v 0.45 0.4 0.45 1 1 1
v 0.45 0.4 0.5 1 1 1
v 0.35 0.4 0.5 1 1 1
v 0.35 0.1 0.5 1 1 1
v 0.45 0.1 0.5 1 1 1
v -0.45 0.1 0.45 1 1 1
v -0.35 0.1 0.45 1 1 1
v -0.45 0.4 0.45 1 1 1
v -0.35 0.4 0.45 1 1 1
v -0.35 0.4 0.5 1 1 1
v -0.45 0.4 0.5 1 1 1
v -0.45 0.1 0.5 1 1 1
v -0.35 0.1 0.5 1 1 1
v -0.45 0.1 -0.5 1 1 1
v -0.35 0.1 -0.5 1 1 1
v -0.45 0.4 -0.5 1 1 1
v -0.35 0.4 -0.5 1 1 1
v -0.35 0.4 -0.45 1 1 1
v -0.45 0.4 -0.45 1 1 1
v -0.45 0.1 -0.45 1 1 1
v -0.35 0.1 -0.45 1 1 1
v -0.45 0.1 -0.45 1 1 1
v -0.45 0.1 -0.35 1 1 1
v -0.45 0.4 -0.45 1 1 1
v -0.45 0.4 -0.35 1 1 1
v -0.5 0.4 -0.35 1 1 1
v -0.5 0.4 -0.45 1 1 1
v -0.5 0.1 -0.45 1 1 1
v -0.5 0.1 -0.35 1 1 1
v -0.45 0.1 0.35 1 1 1
v -0.45 0.1 0.45 1 1 1
v -0.45 0.4 0.35 1 1 1
v -0.45 0.4 0.45 1 1 1
v -0.5 0.4 0.45 1 1 1
v -0.5 0.4 0.35 1 1 1
v -0.5 0.1 0.35 1 1 1
v -0.5 0.1 0.45 1 1 1
v 0.425 0.375 -0.45 1 1 1
v 0.425 0.375 0.45 1 1 1
v 0.375 0.375 -0.45 1 1 1
v 0.375 0.375 0.45 1 1 1
v 0.425 0.275 0.45 1 1 1
v 0.425 0.275 -0.45 1 1 1
v 0.375 0.275 0.45 1 1 1
v 0.375 0.275 -0.45 1 1 1
v -0.375 0.275 0.425 1 1 1
v -0.3875 0.275 0.3875 1 1 1
v -0.375 0.275 0.45 1 1 1
v -0.425 0.275 0.45 1 1 1
v -0.425 0.275 0.375 1 1 1
v -0.425 0.275 0.425 1 1 1
v -0.45 0.275 0.425 1 1 1
v -0.45 0.275 0.375 1 1 1
v -0.375 0.375 0.425 1 1 1
v -0.375 0.375 0.45 1 1 1
v -0.45 0.375 0.425 1 1 1
v -0.45 0.375 0.375 1 1 1
v -0.425 0.375 0.425 1 1 1
v -0.425 0.375 0.375 1 1 1
v -0.425 0.375 0.45 1 1 1
v -0.3875 0.375 0.3875 1 1 1
v -0.425 0.275 -0.375 1 1 1
v -0.3875 0.275 -0.3875 1 1 1
v -0.45 0.275 -0.375 1 1 1
v -0.45 0.275 -0.425 1 1 1
v -0.375 0.275 -0.425 1 1 1
v -0.425 0.275 -0.425 1 1 1
v -0.425 0.275 -0.45 1 1 1
v -0.375 0.275 -0.45 1 1 1
v -0.425 0.375 -0.375 1 1 1
v -0.45 0.375 -0.375 1 1 1
v -0.425 0.375 -0.45 1 1 1
v -0.375 0.375 -0.45 1 1 1
v -0.425 0.375 -0.425 1 1 1
v -0.375 0.375 -0.425 1 1 1
v -0.45 0.375 -0.425 1 1 1
v -0.3875 0.375 -0.3875 1 1 1

vn 0 0 -1
vn 0 1 0
vn 1 0 0
vn -1 0 0
vn 0 0 1
vn 0 -1 0
vn 1 0 1.192093E-07
vn 1.192093E-07 0 -1
vn -1.192093E-07 0 1
vn -1 0 -1.192093E-07
vn 0.9870875 0 -0.1601822
vn 0.1601822 0 -0.9870875
vn 0.7071068 0 -0.7071068
vn 0.1601821 0 0.9870876
vn 0.9870876 0 0.1601824
vn 0.7071068 0 0.7071069

vt 0.46875 0.025
vt 0.46875 0.225
vt 0.71875 0.275
vt 0.71875 0.475
vt 0.96875 0.025
vt 0.96875 0.125
vt 0.96875 0.175
vt 0.96875 0.075

usemtl colormap

f 3/2/1 2/1/1 1/1/1
f 2/1/1 3/2/1 4/2/1
f 3/2/2 5/2/2 4/2/2
f 5/2/2 3/2/2 6/2/2
f 5/2/3 2/1/3 4/2/3
f 2/1/3 5/2/3 7/1/3
f 8/1/4 3/2/4 1/1/4
f 3/2/4 8/1/4 6/2/4
f 5/2/5 8/1/5 7/1/5
f 8/1/5 5/2/5 6/2/5
f 8/1/6 2/1/6 7/1/6
f 2/1/6 8/1/6 1/1/6
f 11/2/1 10/1/1 9/1/1
f 10/1/1 11/2/1 12/2/1
f 11/2/2 13/2/2 12/2/2
f 13/2/2 11/2/2 14/2/2
f 13/2/3 10/1/3 12/2/3
f 10/1/3 13/2/3 15/1/3
f 16/1/4 11/2/4 9/1/4
f 11/2/4 16/1/4 14/2/4
f 13/2/5 16/1/5 15/1/5
f 16/1/5 13/2/5 14/2/5
f 16/1/6 10/1/6 15/1/6
f 10/1/6 16/1/6 9/1/6
f 19/2/1 18/1/1 17/1/1
f 18/1/1 19/2/1 20/2/1
f 19/2/2 21/2/2 20/2/2
f 21/2/2 19/2/2 22/2/2
f 21/2/3 18/1/3 20/2/3
f 18/1/3 21/2/3 23/1/3
f 24/1/4 19/2/4 17/1/4
f 19/2/4 24/1/4 22/2/4
f 21/2/5 24/1/5 23/1/5
f 24/1/5 21/2/5 22/2/5
f 24/1/6 18/1/6 23/1/6
f 18/1/6 24/1/6 17/1/6
f 12/4/1 25/3/1 10/3/1
f 25/3/1 12/4/1 3/4/1
f 12/4/2 6/4/2 3/4/2
f 6/4/2 12/4/2 21/4/2
f 6/4/5 23/3/5 26/3/5
f 23/3/5 6/4/5 21/4/5
f 23/3/6 25/3/6 26/3/6
f 25/3/6 23/3/6 10/3/6
f 14/4/2 20/4/2 13/4/2
f 20/4/2 14/4/2 19/4/2
f 17/3/6 15/3/6 18/3/6
f 15/3/6 17/3/6 16/3/6
f 17/3/4 14/4/4 16/3/4
f 14/4/4 17/3/4 19/4/4
f 29/6/1 28/5/1 27/5/1
f 28/5/1 29/6/1 30/6/1
f 29/6/2 31/6/2 30/6/2
f 31/6/2 29/6/2 32/6/2
f 33/5/4 29/6/4 27/5/4
f 29/6/4 33/5/4 32/6/4
f 31/6/3 28/5/3 30/6/3
f 28/5/3 31/6/3 34/5/3
f 31/6/5 33/5/5 34/5/5
f 33/5/5 31/6/5 32/6/5
f 37/6/1 36/5/1 35/5/1
f 36/5/1 37/6/1 38/6/1
f 37/6/2 39/6/2 38/6/2
f 39/6/2 37/6/2 40/6/2
f 41/5/4 37/6/4 35/5/4
f 37/6/4 41/5/4 40/6/4
f 39/6/3 36/5/3 38/6/3
f 36/5/3 39/6/3 42/5/3
f 39/6/5 41/5/5 42/5/5
f 41/5/5 39/6/5 40/6/5
f 45/6/1 44/5/1 43/5/1
f 44/5/1 45/6/1 46/6/1
f 45/6/2 47/6/2 46/6/2
f 47/6/2 45/6/2 48/6/2
f 49/5/4 45/6/4 43/5/4
f 45/6/4 49/5/4 48/6/4
f 47/6/3 44/5/3 46/6/3
f 44/5/3 47/6/3 50/5/3
f 47/6/5 49/5/5 50/5/5
f 49/5/5 47/6/5 48/6/5
f 53/6/1 52/5/1 51/5/1
f 52/5/1 53/6/1 54/6/1
f 53/6/2 55/6/2 54/6/2
f 55/6/2 53/6/2 56/6/2
f 57/5/4 53/6/4 51/5/4
f 53/6/4 57/5/4 56/6/4
f 55/6/3 52/5/3 54/6/3
f 52/5/3 55/6/3 58/5/3
f 55/6/5 57/5/5 58/5/5
f 57/5/5 55/6/5 56/6/5
f 61/6/7 60/5/7 59/5/7
f 60/5/7 61/6/7 62/6/7
f 61/6/2 63/6/2 62/6/2
f 63/6/2 61/6/2 64/6/2
f 65/5/8 61/6/8 59/5/8
f 61/6/8 65/5/8 64/6/8
f 63/6/9 60/5/9 62/6/9
f 60/5/9 63/6/9 66/5/9
f 63/6/10 65/5/10 66/5/10
f 65/5/10 63/6/10 64/6/10
f 69/6/7 68/5/7 67/5/7
f 68/5/7 69/6/7 70/6/7
f 69/6/2 71/6/2 70/6/2
f 71/6/2 69/6/2 72/6/2
f 73/5/8 69/6/8 67/5/8
f 69/6/8 73/5/8 72/6/8
f 71/6/9 68/5/9 70/6/9
f 68/5/9 71/6/9 74/5/9
f 71/6/10 73/5/10 74/5/10
f 73/5/10 71/6/10 72/6/10
f 77/7/2 76/7/2 75/7/2
f 76/7/2 77/7/2 78/7/2
f 81/8/6 80/8/6 79/8/6
f 80/8/6 81/8/6 82/8/6
f 82/8/4 78/7/4 77/7/4
f 78/7/4 82/8/4 81/8/4
f 76/7/3 80/8/3 75/7/3
f 80/8/3 76/7/3 79/8/3
f 85/8/6 84/8/6 83/8/6
f 84/8/6 85/8/6 86/8/6
f 84/8/6 86/8/6 87/8/6
f 87/8/6 86/8/6 88/8/6
f 87/8/6 88/8/6 89/8/6
f 87/8/6 89/8/6 90/8/6
f 92/7/3 83/8/11 91/7/11
f 83/8/11 92/7/3 85/8/3
f 95/7/2 94/7/2 93/7/2
f 94/7/2 95/7/2 96/7/2
f 97/7/2 96/7/2 95/7/2
f 97/7/2 98/7/2 96/7/2
f 92/7/2 98/7/2 97/7/2
f 98/7/2 92/7/2 91/7/2
f 94/7/1 87/8/12 90/8/1
f 87/8/12 94/7/1 96/7/12
f 87/8/12 98/7/13 84/8/13
f 98/7/13 87/8/12 96/7/12
f 98/7/13 83/8/11 84/8/13
f 83/8/11 98/7/13 91/7/11
f 86/8/4 95/7/4 88/8/4
f 95/7/4 86/8/4 97/7/4
f 88/8/5 93/7/5 89/8/5
f 93/7/5 88/8/5 95/7/5
f 101/8/6 100/8/6 99/8/6
f 100/8/6 101/8/6 102/8/6
f 100/8/6 102/8/6 103/8/6
f 103/8/6 102/8/6 104/8/6
f 103/8/6 104/8/6 105/8/6
f 103/8/6 105/8/6 106/8/6
f 108/7/9 99/8/14 107/7/14
f 99/8/14 108/7/9 101/8/9
f 111/7/2 110/7/2 109/7/2
f 110/7/2 111/7/2 112/7/2
f 113/7/2 112/7/2 111/7/2
f 113/7/2 114/7/2 112/7/2
f 108/7/2 114/7/2 113/7/2
f 114/7/2 108/7/2 107/7/2
f 110/7/7 103/8/15 106/8/7
f 103/8/15 110/7/7 112/7/15
f 103/8/15 114/7/16 100/8/16
f 114/7/16 103/8/15 112/7/15
f 114/7/16 99/8/14 100/8/16
f 99/8/14 114/7/16 107/7/14
f 102/8/8 111/7/8 104/8/8
f 111/7/8 102/8/8 113/7/8
f 104/8/10 109/7/10 105/8/10
f 109/7/10 104/8/10 111/7/10

g queue-split




usemtl colormap

f 3/2/1 2/1/1 1/1/1
f 2/1/1 3/2/1 4/2/1
f 3/2/2 5/2/2 4/2/2
f 5/2/2 3/2/2 6/2/2
f 5/2/3 2/1/3 4/2/3
f 2/1/3 5/2/3 7/1/3
f 8/1/4 3/2/4 1/1/4
f 3/2/4 8/1/4 6/2/4
f 5/2/5 8/1/5 7/1/5
f 8/1/5 5/2/5 6/2/5
f 8/1/6 2/1/6 7/1/6
f 2/1/6 8/1/6 1/1/6
f 11/2/1 10/1/1 9/1/1
f 10/1/1 11/2/1 12/2/1
f 11/2/2 13/2/2 12/2/2
f 13/2/2 11/2/2 14/2/2
f 13/2/3 10/1/3 12/2/3
f 10/1/3 13/2/3 15/1/3
f 16/1/4 11/2/4 9/1/4
f 11/2/4 16/1/4 14/2/4
f 13/2/5 16/1/5 15/1/5
f 16/1/5 13/2/5 14/2/5
f 16/1/6 10/1/6 15/1/6
f 10/1/6 16/1/6 9/1/6
f 19/2/1 18/1/1 17/1/1
f 18/1/1 19/2/1 20/2/1
f 19/2/2 21/2/2 20/2/2
f 21/2/2 19/2/2 22/2/2
f 21/2/3 18/1/3 20/2/3
f 18/1/3 21/2/3 23/1/3
f 24/1/4 19/2/4 17/1/4
f 19/2/4 24/1/4 22/2/4
f 21/2/5 24/1/5 23/1/5
f 24/1/5 21/2/5 22/2/5
f 24/1/6 18/1/6 23/1/6
f 18/1/6 24/1/6 17/1/6
f 12/4/1 25/3/1 10/3/1
f 25/3/1 12/4/1 3/4/1
f 12/4/2 6/4/2 3/4/2
f 6/4/2 12/4/2 21/4/2
f 6/4/5 23/3/5 26/3/5
f 23/3/5 6/4/5 21/4/5
f 23/3/6 25/3/6 26/3/6
f 25/3/6 23/3/6 10/3/6
f 14/4/2 20/4/2 13/4/2
f 20/4/2 14/4/2 19/4/2
f 17/3/6 15/3/6 18/3/6
f 15/3/6 17/3/6 16/3/6
f 17/3/4 14/4/4 16/3/4
f 14/4/4 17/3/4 19/4/4
f 29/6/1 28/5/1 27/5/1
f 28/5/1 29/6/1 30/6/1
f 29/6/2 31/6/2 30/6/2
f 31/6/2 29/6/2 32/6/2
f 33/5/4 29/6/4 27/5/4
f 29/6/4 33/5/4 32/6/4
f 31/6/3 28/5/3 30/6/3
f 28/5/3 31/6/3 34/5/3
f 31/6/5 33/5/5 34/5/5
f 33/5/5 31/6/5 32/6/5
f 37/6/1 36/5/1 35/5/1
f 36/5/1 37/6/1 38/6/1
f 37/6/2 39/6/2 38/6/2
f 39/6/2 37/6/2 40/6/2
f 41/5/4 37/6/4 35/5/4
f 37/6/4 41/5/4 40/6/4
f 39/6/3 36/5/3 38/6/3
f 36/5/3 39/6/3 42/5/3
f 39/6/5 41/5/5 42/5/5
f 41/5/5 39/6/5 40/6/5
f 45/6/1 44/5/1 43/5/1
f 44/5/1 45/6/1 46/6/1
f 45/6/2 47/6/2 46/6/2
f 47/6/2 45/6/2 48/6/2
f 49/5/4 45/6/4 43/5/4
f 45/6/4 49/5/4 48/6/4
f 47/6/3 44/5/3 46/6/3
f 44/5/3 47/6/3 50/5/3
f 47/6/5 49/5/5 50/5/5
f 49/5/5 47/6/5 48/6/5
f 53/6/1 52/5/1 51/5/1
f 52/5/1 53/6/1 54/6/1
f 53/6/2 55/6/2 54/6/2
f 55/6/2 53/6/2 56/6/2
f 57/5/4 53/6/4 51/5/4
f 53/6/4 57/5/4 56/6/4
f 55/6/3 52/5/3 54/6/3
f 52/5/3 55/6/3 58/5/3
f 55/6/5 57/5/5 58/5/5
f 57/5/5 55/6/5 56/6/5
f 61/6/7 60/5/7 59/5/7
f 60/5/7 61/6/7 62/6/7
f 61/6/2 63/6/2 62/6/2
f 63/6/2 61/6/2 64/6/2
f 65/5/8 61/6/8 59/5/8
f 61/6/8 65/5/8 64/6/8
f 63/6/9 60/5/9 62/6/9
f 60/5/9 63/6/9 66/5/9
f 63/6/10 65/5/10 66/5/10
f 65/5/10 63/6/10 64/6/10
f 69/6/7 68/5/7 67/5/7
f 68/5/7 69/6/7 70/6/7
f 69/6/2 71/6/2 70/6/2
f 71/6/2 69/6/2 72/6/2
f 73/5/8 69/6/8 67/5/8
f 69/6/8 73/5/8 72/6/8
f 71/6/9 68/5/9 70/6/9
f 68/5/9 71/6/9 74/5/9
f 71/6/10 73/5/10 74/5/10
f 73/5/10 71/6/10 72/6/10
f 77/7/2 76/7/2 75/7/2
f 76/7/2 77/7/2 78/7/2
f 81/8/6 80/8/6 79/8/6
f 80/8/6 81/8/6 82/8/6
f 82/8/4 78/7/4 77/7/4
f 78/7/4 82/8/4 81/8/4
f 76/7/3 80/8/3 75/7/3
f 80/8/3 76/7/3 79/8/3
f 85/8/6 84/8/6 83/8/6
f 84/8/6 85/8/6 86/8/6
f 84/8/6 86/8/6 87/8/6
f 87/8/6 86/8/6 88/8/6
f 87/8/6 88/8/6 89/8/6
f 87/8/6 89/8/6 90/8/6
f 92/7/3 83/8/11 91/7/11
f 83/8/11 92/7/3 85/8/3
f 95/7/2 94/7/2 93/7/2
f 94/7/2 95/7/2 96/7/2
f 97/7/2 96/7/2 95/7/2
f 97/7/2 98/7/2 96/7/2
f 92/7/2 98/7/2 97/7/2
f 98/7/2 92/7/2 91/7/2
f 94/7/1 87/8/12 90/8/1
f 87/8/12 94/7/1 96/7/12
f 87/8/12 98/7/13 84/8/13
f 98/7/13 87/8/12 96/7/12
f 98/7/13 83/8/11 84/8/13
f 83/8/11 98/7/13 91/7/11
f 86/8/4 95/7/4 88/8/4
f 95/7/4 86/8/4 97/7/4
f 88/8/5 93/7/5 89/8/5
f 93/7/5 88/8/5 95/7/5
f 101/8/6 100/8/6 99/8/6
f 100/8/6 101/8/6 102/8/6
f 100/8/6 102/8/6 103/8/6
f 103/8/6 102/8/6 104/8/6
f 103/8/6 104/8/6 105/8/6
f 103/8/6 105/8/6 106/8/6
f 108/7/9 99/8/14 107/7/14
f 99/8/14 108/7/9 101/8/9
f 111/7/2 110/7/2 109/7/2
f 110/7/2 111/7/2 112/7/2
f 113/7/2 112/7/2 111/7/2
f 113/7/2 114/7/2 112/7/2
f 108/7/2 114/7/2 113/7/2
f 114/7/2 108/7/2 107/7/2
f 110/7/7 103/8/15 106/8/7
f 103/8/15 110/7/7 112/7/15
f 103/8/15 114/7/16 100/8/16
f 114/7/16 103/8/15 112/7/15
f 114/7/16 99/8/14 100/8/16
f 99/8/14 114/7/16 107/7/14
f 102/8/8 111/7/8 104/8/8
f 111/7/8 102/8/8 113/7/8
f 104/8/10 109/7/10 105/8/10
f 109/7/10 104/8/10 111/7/10

