# Created by Kenney (www.kenney.nl)

mtllib queue-corner.mtl

g queue-corner

v -0.3 0.1 -0.3 1 1 1
v -0.3 0.1 0.3 1 1 1
v -0.5 0.1 -0.3 1 1 1
v -0.5 0.1 0.3 1 1 1
v -0.3 0 0.3 1 1 1
v -0.3 0 -0.3 1 1 1
v -0.5 0 0.3 1 1 1
v -0.5 0 -0.3 1 1 1
v 0.3 0 -0.3 1 1 1
v 0.3 0.1 -0.3 1 1 1
v 0.3 0.1 0.5 1 1 1
v -0.3 0.1 0.5 1 1 1
v 0.3 0 0.5 1 1 1
v -0.3 0 0.5 1 1 1
v 0.5 0 -0.3 1 1 1
v 0.3 0 -0.3 1 1 1
v 0.5 0.1 -0.3 1 1 1
v 0.3 0.1 -0.3 1 1 1
v 0.5 0.1 0.5 1 1 1
v 0.5 0 0.5 1 1 1
v -0.5 0.1 0.5 1 1 1
v -0.5 0 0.5 1 1 1
v 0.5 0 -0.5 1 1 1
v -0.5 0 -0.5 1 1 1
v 0.5 0.1 -0.5 1 1 1
v -0.5 0.1 -0.5 1 1 1
v -0.5 0.1 -0.3 1 1 1
v 0.5 0.1 -0.3 1 1 1
v -0.5 0 -0.3 1 1 1
v 0.5 0 -0.3 1 1 1
v 0.35 0.1 -0.45 1 1 1
v 0.45 0.1 -0.45 1 1 1
v 0.35 0.4 -0.45 1 1 1
v 0.45 0.4 -0.45 1 1 1
v 0.45 0.4 -0.35 1 1 1
v 0.35 0.4 -0.35 1 1 1
v 0.35 0.1 -0.35 1 1 1
v 0.45 0.1 -0.35 1 1 1
v 0.35 0.1 0.45 1 1 1
v 0.45 0.1 0.45 1 1 1
v 0.35 0.4 0.45 1 1 1
v 0.45 0.4 0.45 1 1 1
v 0.45 0.4 0.5 1 1 1
v 0.35 0.4 0.5 1 1 1
v 0.35 0.1 0.5 1 1 1
v 0.45 0.1 0.5 1 1 1
v -0.45 0.1 0.45 1 1 1
v -0.35 0.1 0.45 1 1 1
v -0.45 0.4 0.45 1 1 1
v -0.35 0.4 0.45 1 1 1
v -0.35 0.4 0.5 1 1 1
v -0.45 0.4 0.5 1 1 1
v -0.45 0.1 0.5 1 1 1
v -0.35 0.1 0.5 1 1 1
v -0.45 0.1 0.35 1 1 1
v -0.45 0.1 0.45 1 1 1
v -0.45 0.4 0.35 1 1 1
v -0.45 0.4 0.45 1 1 1
v -0.5 0.4 0.45 1 1 1
v -0.5 0.4 0.35 1 1 1
v -0.5 0.1 0.35 1 1 1
v -0.5 0.1 0.45 1 1 1
v -0.45 0.1 -0.45 1 1 1
v -0.45 0.1 -0.35 1 1 1
v -0.45 0.4 -0.45 1 1 1
v -0.45 0.4 -0.35 1 1 1
v -0.5000001 0.4 -0.35 1 1 1
v -0.5 0.4 -0.45 1 1 1
v -0.5 0.1 -0.45 1 1 1
v -0.5000001 0.1 -0.35 1 1 1
v 0.425 0.375 -0.35 1 1 1
v 0.425 0.375 0.45 1 1 1
v 0.375 0.375 -0.35 1 1 1
v 0.375 0.375 0.45 1 1 1
v 0.425 0.275 0.45 1 1 1
v 0.425 0.275 -0.35 1 1 1
v 0.375 0.275 0.45 1 1 1
v 0.375 0.275 -0.35 1 1 1
v -0.375 0.275 0.425 1 1 1
v -0.3875 0.275 0.3875 1 1 1
v -0.375 0.275 0.45 1 1 1
v -0.425 0.275 0.45 1 1 1
v -0.425 0.275 0.375 1 1 1
v -0.425 0.275 0.425 1 1 1
v -0.45 0.275 0.425 1 1 1
v -0.45 0.275 0.375 1 1 1
v -0.375 0.375 0.425 1 1 1
v -0.375 0.375 0.45 1 1 1
v -0.45 0.375 0.425 1 1 1
v -0.45 0.375 0.375 1 1 1
v -0.425 0.375 0.425 1 1 1
v -0.425 0.375 0.375 1 1 1
v -0.425 0.375 0.45 1 1 1
v -0.3875 0.375 0.3875 1 1 1
v 0.35 0.375 -0.3749999 1 1 1
v -0.45 0.375 -0.3750001 1 1 1
v 0.35 0.375 -0.425 1 1 1
v -0.45 0.375 -0.425 1 1 1
v 0.35 0.275 -0.3749999 1 1 1
v 0.35 0.275 -0.425 1 1 1
v -0.45 0.275 -0.3750001 1 1 1
v -0.45 0.275 -0.425 1 1 1

vn 0 1 0
vn 0 -1 0
vn -1 0 0
vn 0 0 -1
vn 0 0 1
vn 1 0 0
vn 1 0 1.192093E-07
vn 1.192093E-07 0 -1
vn -1.192093E-07 0 1
vn -1 0 -1.192093E-07
vn 0.9870875 0 -0.1601822
vn 0.1601822 0 -0.9870875
vn 0.7071068 0 -0.7071068

vt 0.71875 0.475
vt 0.71875 0.275
vt 0.46875 0.025
vt 0.46875 0.225
vt 0.96875 0.025
vt 0.96875 0.125
vt 0.96875 0.175
vt 0.96875 0.075

usemtl colormap

f 3/1/1 2/1/1 1/1/1
f 2/1/1 3/1/1 4/1/1
f 7/2/2 6/2/2 5/2/2
f 6/2/2 7/2/2 8/2/2
f 7/2/3 3/1/3 8/2/3
f 3/1/3 7/2/3 4/1/3
f 1/1/4 9/2/4 6/2/4
f 9/2/4 1/1/4 10/1/4
f 1/1/1 11/1/1 10/1/1
f 11/1/1 1/1/1 12/1/1
f 11/1/5 14/2/5 13/2/5
f 14/2/5 11/1/5 12/1/5
f 14/2/2 9/2/2 13/2/2
f 9/2/2 14/2/2 6/2/2
f 15/3/2 20/3/2 16/3/2
f 13/3/2 16/3/2 20/3/2
f 19/4/5 11/4/5 20/3/5
f 13/3/5 20/3/5 11/4/5
f 19/4/6 20/3/6 17/4/6
f 15/3/6 17/4/6 20/3/6
f 13/3/3 11/4/3 16/3/3
f 18/4/3 16/3/3 11/4/3
f 19/4/1 17/4/1 11/4/1
f 18/4/1 11/4/1 17/4/1
f 18/4/4 17/4/4 16/3/4
f 15/3/4 16/3/4 17/4/4
f 4/4/4 5/3/4 7/3/4
f 5/3/4 4/4/4 2/4/4
f 4/4/1 12/4/1 2/4/1
f 12/4/1 4/4/1 21/4/1
f 12/4/6 5/3/6 2/4/6
f 5/3/6 12/4/6 14/3/6
f 22/3/3 4/4/3 7/3/3
f 4/4/3 22/3/3 21/4/3
f 12/4/5 22/3/5 14/3/5
f 22/3/5 12/4/5 21/4/5
f 22/3/2 5/3/2 14/3/2
f 5/3/2 22/3/2 7/3/2
f 23/3/2 30/3/2 24/3/2
f 29/3/2 24/3/2 30/3/2
f 28/4/5 27/4/5 30/3/5
f 29/3/5 30/3/5 27/4/5
f 28/4/6 30/3/6 25/4/6
f 23/3/6 25/4/6 30/3/6
f 29/3/3 27/4/3 24/3/3
f 26/4/3 24/3/3 27/4/3
f 28/4/1 25/4/1 27/4/1
f 26/4/1 27/4/1 25/4/1
f 26/4/4 25/4/4 24/3/4
f 23/3/4 24/3/4 25/4/4
f 33/6/4 32/5/4 31/5/4
f 32/5/4 33/6/4 34/6/4
f 33/6/1 35/6/1 34/6/1
f 35/6/1 33/6/1 36/6/1
f 37/5/3 33/6/3 31/5/3
f 33/6/3 37/5/3 36/6/3
f 35/6/6 32/5/6 34/6/6
f 32/5/6 35/6/6 38/5/6
f 35/6/5 37/5/5 38/5/5
f 37/5/5 35/6/5 36/6/5
f 41/6/4 40/5/4 39/5/4
f 40/5/4 41/6/4 42/6/4
f 41/6/1 43/6/1 42/6/1
f 43/6/1 41/6/1 44/6/1
f 45/5/3 41/6/3 39/5/3
f 41/6/3 45/5/3 44/6/3
f 43/6/6 40/5/6 42/6/6
f 40/5/6 43/6/6 46/5/6
f 43/6/5 45/5/5 46/5/5
f 45/5/5 43/6/5 44/6/5
f 49/6/4 48/5/4 47/5/4
f 48/5/4 49/6/4 50/6/4
f 49/6/1 51/6/1 50/6/1
f 51/6/1 49/6/1 52/6/1
f 53/5/3 49/6/3 47/5/3
f 49/6/3 53/5/3 52/6/3
f 51/6/6 48/5/6 50/6/6
f 48/5/6 51/6/6 54/5/6
f 51/6/5 53/5/5 54/5/5
f 53/5/5 51/6/5 52/6/5
f 57/6/7 56/5/7 55/5/7
f 56/5/7 57/6/7 58/6/7
f 57/6/1 59/6/1 58/6/1
f 59/6/1 57/6/1 60/6/1
f 61/5/8 57/6/8 55/5/8
f 57/6/8 61/5/8 60/6/8
f 59/6/9 56/5/9 58/6/9
f 56/5/9 59/6/9 62/5/9
f 59/6/10 61/5/10 62/5/10
f 61/5/10 59/6/10 60/6/10
f 65/6/7 64/5/7 63/5/7
f 64/5/7 65/6/7 66/6/7
f 66/6/1 68/6/1 67/6/1
f 68/6/1 66/6/1 65/6/1
f 69/5/8 65/6/8 63/5/8
f 65/6/8 69/5/8 68/6/8
f 67/6/9 64/5/9 66/6/9
f 64/5/9 67/6/9 70/5/9
f 67/6/10 69/5/10 70/5/10
f 69/5/10 67/6/10 68/6/10
f 73/7/1 72/7/1 71/7/1
f 72/7/1 73/7/1 74/7/1
f 77/8/2 76/8/2 75/8/2
f 76/8/2 77/8/2 78/8/2
f 78/8/3 74/7/3 73/7/3
f 74/7/3 78/8/3 77/8/3
f 72/7/6 76/8/6 71/7/6
f 76/8/6 72/7/6 75/8/6
f 81/8/2 80/8/2 79/8/2
f 80/8/2 81/8/2 82/8/2
f 80/8/2 82/8/2 83/8/2
f 83/8/2 82/8/2 84/8/2
f 83/8/2 84/8/2 85/8/2
f 83/8/2 85/8/2 86/8/2
f 88/7/6 79/8/11 87/7/11
f 79/8/11 88/7/6 81/8/6
f 91/7/1 90/7/1 89/7/1
f 90/7/1 91/7/1 92/7/1
f 93/7/1 92/7/1 91/7/1
f 93/7/1 94/7/1 92/7/1
f 88/7/1 94/7/1 93/7/1
f 94/7/1 88/7/1 87/7/1
f 90/7/4 83/8/12 86/8/4
f 83/8/12 90/7/4 92/7/12
f 83/8/12 94/7/13 80/8/13
f 94/7/13 83/8/12 92/7/12
f 94/7/13 79/8/11 80/8/13
f 79/8/11 94/7/13 87/7/11
f 82/8/3 91/7/3 84/8/3
f 91/7/3 82/8/3 93/7/3
f 84/8/5 89/7/5 85/8/5
f 89/7/5 84/8/5 91/7/5
f 97/7/1 96/7/1 95/7/1
f 96/7/1 97/7/1 98/7/1
f 101/8/2 100/8/2 99/8/2
f 100/8/2 101/8/2 102/8/2
f 100/8/8 98/7/8 97/7/8
f 98/7/8 100/8/8 102/8/8
f 96/7/9 99/8/9 95/7/9
f 99/8/9 96/7/9 101/8/9

g queue-corner




usemtl colormap

f 3/1/1 2/1/1 1/1/1
f 2/1/1 3/1/1 4/1/1
f 7/2/2 6/2/2 5/2/2
f 6/2/2 7/2/2 8/2/2
f 7/2/3 3/1/3 8/2/3
f 3/1/3 7/2/3 4/1/3
f 1/1/4 9/2/4 6/2/4
f 9/2/4 1/1/4 10/1/4
f 1/1/1 11/1/1 10/1/1
f 11/1/1 1/1/1 12/1/1
f 11/1/5 14/2/5 13/2/5
f 14/2/5 11/1/5 12/1/5
f 14/2/2 9/2/2 13/2/2
f 9/2/2 14/2/2 6/2/2
f 15/3/2 20/3/2 16/3/2
f 13/3/2 16/3/2 20/3/2
f 19/4/5 11/4/5 20/3/5
f 13/3/5 20/3/5 11/4/5
f 19/4/6 20/3/6 17/4/6
f 15/3/6 17/4/6 20/3/6
f 13/3/3 11/4/3 16/3/3
f 18/4/3 16/3/3 11/4/3
f 19/4/1 17/4/1 11/4/1
f 18/4/1 11/4/1 17/4/1
f 18/4/4 17/4/4 16/3/4
f 15/3/4 16/3/4 17/4/4
f 4/4/4 5/3/4 7/3/4
f 5/3/4 4/4/4 2/4/4
f 4/4/1 12/4/1 2/4/1
f 12/4/1 4/4/1 21/4/1
f 12/4/6 5/3/6 2/4/6
f 5/3/6 12/4/6 14/3/6
f 22/3/3 4/4/3 7/3/3
f 4/4/3 22/3/3 21/4/3
f 12/4/5 22/3/5 14/3/5
f 22/3/5 12/4/5 21/4/5
f 22/3/2 5/3/2 14/3/2
f 5/3/2 22/3/2 7/3/2
f 23/3/2 30/3/2 24/3/2
f 29/3/2 24/3/2 30/3/2
f 28/4/5 27/4/5 30/3/5
f 29/3/5 30/3/5 27/4/5
f 28/4/6 30/3/6 25/4/6
f 23/3/6 25/4/6 30/3/6
f 29/3/3 27/4/3 24/3/3
f 26/4/3 24/3/3 27/4/3
f 28/4/1 25/4/1 27/4/1
f 26/4/1 27/4/1 25/4/1
f 26/4/4 25/4/4 24/3/4
f 23/3/4 24/3/4 25/4/4
f 33/6/4 32/5/4 31/5/4
f 32/5/4 33/6/4 34/6/4
f 33/6/1 35/6/1 34/6/1
f 35/6/1 33/6/1 36/6/1
f 37/5/3 33/6/3 31/5/3
f 33/6/3 37/5/3 36/6/3
f 35/6/6 32/5/6 34/6/6
f 32/5/6 35/6/6 38/5/6
f 35/6/5 37/5/5 38/5/5
f 37/5/5 35/6/5 36/6/5
f 41/6/4 40/5/4 39/5/4
f 40/5/4 41/6/4 42/6/4
f 41/6/1 43/6/1 42/6/1
f 43/6/1 41/6/1 44/6/1
f 45/5/3 41/6/3 39/5/3
f 41/6/3 45/5/3 44/6/3
f 43/6/6 40/5/6 42/6/6
f 40/5/6 43/6/6 46/5/6
f 43/6/5 45/5/5 46/5/5
f 45/5/5 43/6/5 44/6/5
f 49/6/4 48/5/4 47/5/4
f 48/5/4 49/6/4 50/6/4
f 49/6/1 51/6/1 50/6/1
f 51/6/1 49/6/1 52/6/1
f 53/5/3 49/6/3 47/5/3
f 49/6/3 53/5/3 52/6/3
f 51/6/6 48/5/6 50/6/6
f 48/5/6 51/6/6 54/5/6
f 51/6/5 53/5/5 54/5/5
f 53/5/5 51/6/5 52/6/5
f 57/6/7 56/5/7 55/5/7
f 56/5/7 57/6/7 58/6/7
f 57/6/1 59/6/1 58/6/1
f 59/6/1 57/6/1 60/6/1
f 61/5/8 57/6/8 55/5/8
f 57/6/8 61/5/8 60/6/8
f 59/6/9 56/5/9 58/6/9
f 56/5/9 59/6/9 62/5/9
f 59/6/10 61/5/10 62/5/10
f 61/5/10 59/6/10 60/6/10
f 65/6/7 64/5/7 63/5/7
f 64/5/7 65/6/7 66/6/7
f 66/6/1 68/6/1 67/6/1
f 68/6/1 66/6/1 65/6/1
f 69/5/8 65/6/8 63/5/8
f 65/6/8 69/5/8 68/6/8
f 67/6/9 64/5/9 66/6/9
f 64/5/9 67/6/9 70/5/9
f 67/6/10 69/5/10 70/5/10
f 69/5/10 67/6/10 68/6/10
f 73/7/1 72/7/1 71/7/1
f 72/7/1 73/7/1 74/7/1
f 77/8/2 76/8/2 75/8/2
f 76/8/2 77/8/2 78/8/2
f 78/8/3 74/7/3 73/7/3
f 74/7/3 78/8/3 77/8/3
f 72/7/6 76/8/6 71/7/6
f 76/8/6 72/7/6 75/8/6
f 81/8/2 80/8/2 79/8/2
f 80/8/2 81/8/2 82/8/2
f 80/8/2 82/8/2 83/8/2
f 83/8/2 82/8/2 84/8/2
f 83/8/2 84/8/2 85/8/2
f 83/8/2 85/8/2 86/8/2
f 88/7/6 79/8/11 87/7/11
f 79/8/11 88/7/6 81/8/6
f 91/7/1 90/7/1 89/7/1
f 90/7/1 91/7/1 92/7/1
f 93/7/1 92/7/1 91/7/1
f 93/7/1 94/7/1 92/7/1
f 88/7/1 94/7/1 93/7/1
f 94/7/1 88/7/1 87/7/1
f 90/7/4 83/8/12 86/8/4
f 83/8/12 90/7/4 92/7/12
f 83/8/12 94/7/13 80/8/13
f 94/7/13 83/8/12 92/7/12
f 94/7/13 79/8/11 80/8/13
f 79/8/11 94/7/13 87/7/11
f 82/8/3 91/7/3 84/8/3
f 91/7/3 82/8/3 93/7/3
f 84/8/5 89/7/5 85/8/5
f 89/7/5 84/8/5 91/7/5
f 97/7/1 96/7/1 95/7/1
f 96/7/1 97/7/1 98/7/1
f 101/8/2 100/8/2 99/8/2
f 100/8/2 101/8/2 102/8/2
f 100/8/8 98/7/8 97/7/8
f 98/7/8 100/8/8 102/8/8
f 96/7/9 99/8/9 95/7/9
f 99/8/9 96/7/9 101/8/9

