# Created by Kenney (www.kenney.nl)

mtllib stall-drinks.mtl

g stall-drinks

v 0.5 0.2 0.45 1 1 1
v 0.5 0 0.45 1 1 1
v 0.45 0.2 0.5 1 1 1
v 0.45 0 0.5 1 1 1
v -0.5 0 -0.45 1 1 1
v -0.5 0.2 -0.45 1 1 1
v -0.5 0 0.45 1 1 1
v -0.5 0.2 0.45 1 1 1
v 0.5 0.2 -0.45 1 1 1
v 0.5 0 -0.45 1 1 1
v -0.45 0 0.5 1 1 1
v -0.45 0.2 0.5 1 1 1
v 0.3 0 -0.5 1 1 1
v 0.45 0 -0.5 1 1 1
v 0.3 0.2 -0.5 1 1 1
v 0.45 0.2 -0.5 1 1 1
v 0.3 0 -0.45 1 1 1
v -0.3 0 -0.45 1 1 1
v -0.3 0 -0.5 1 1 1
v -0.45 0 -0.5 1 1 1
v -0.45 0.2 -0.5 1 1 1
v -0.3 0.2 -0.5 1 1 1
v -0.3 0.2 -0.45 1 1 1
v 0.3 0.2 -0.45 1 1 1
v 0.35 -2.821695E-31 -0.45 1 1 1
v 0.35 -2.821695E-31 -0.55 1 1 1
v 0.25 -2.821695E-31 -0.45 1 1 1
v 0.25 -2.821695E-31 -0.55 1 1 1
v 0.35 0.55 -0.55 1 1 1
v 0.35 0.55 -0.45 1 1 1
v 0.25 0.5 -0.55 1 1 1
v 0.25 0.5 -0.45 1 1 1
v -0.25 0.5 -0.55 1 1 1
v -0.25 0.5 -0.45 1 1 1
v -0.25 -2.821695E-31 -0.45 1 1 1
v -0.25 -2.821695E-31 -0.55 1 1 1
v -0.35 -2.821695E-31 -0.45 1 1 1
v -0.35 -2.821695E-31 -0.55 1 1 1
v -0.35 0.55 -0.55 1 1 1
v -0.35 0.55 -0.45 1 1 1
v 0.3 0.6 -0.55 1 1 1
v 0.3 0.6 -0.45 1 1 1
v -0.3 0.6 -0.55 1 1 1
v -0.3 0.6 -0.45 1 1 1
v 0.05 1.28 -0.05 1 1 1
v 0.05 1 -0.05 1 1 1
v 0.05 1.28 0.05 1 1 1
v 0.05 1 0.05 1 1 1
v -0.05 1 0.05 1 1 1
v -0.05 1.28 0.05 1 1 1
v -0.05 1 -0.05 1 1 1
v -0.05 1.28 -0.05 1 1 1
v -0.5 0.7 -0.5 1 1 1
v 0.5 0.7 -0.5 1 1 1
v -0.5 0.9 -0.5 1 1 1
v 0.5 0.9 -0.5 1 1 1
v 0.5 0.7 0.5 1 1 1
v -0.5 0.7 0.5 1 1 1
v 0.5 0.9 0.5 1 1 1
v -0.5 0.9 0.5 1 1 1
v 0.5 1 -0.05 1 1 1
v 0.5 1 0.05 1 1 1
v -0.5 1 -0.05 1 1 1
v -0.5 1 0.05 1 1 1
v 0.25 0.2 -0.4999999 1 1 1
v 0.25 0.15 -0.4999999 1 1 1
v -0.25 0.2 -0.5 1 1 1
v -0.25 0.15 -0.5 1 1 1
v 0.25 0.15 -0.6 1 1 1
v 0.25 0.2 -0.6 1 1 1
v 0.2 0.15 -0.65 1 1 1
v 0.2 0.2 -0.65 1 1 1
v -0.2 0.15 -0.65 1 1 1
v -0.2 0.2 -0.65 1 1 1
v -0.25 0.15 -0.6 1 1 1
v -0.25 0.2 -0.6 1 1 1
v 0.5 0.7 -0.5 1 1 1
v 0.5 0.7 -0.7 1 1 1
v 0.3 0.7 -0.5 1 1 1
v 0.3 0.7 -0.7 1 1 1
v 0.4 0.6 -0.7 1 1 1
v 0.4707107 0.6292893 -0.7 1 1 1
v 0.3292893 0.6292893 -0.7 1 1 1
v 0.3 0.8 -0.7 1 1 1
v 0.5 0.8 -0.7 1 1 1
v 0.5 0.9 -0.5 1 1 1
v 0.3 0.9 -0.5 1 1 1
v 7.450602E-10 0.6 -0.7 1 1 1
v 0.07071068 0.6292893 -0.7 1 1 1
v -0.07071068 0.6292893 -0.7 1 1 1
v -0.1 0.7 -0.7 1 1 1
v 0.1 0.7 -0.7 1 1 1
v -0.1 0.8 -0.7 1 1 1
v 0.1 0.8 -0.7 1 1 1
v 0.1 0.9 -0.5 1 1 1
v -0.1 0.9 -0.5 1 1 1
v 0.1 0.7 -0.5 1 1 1
v -0.1 0.7 -0.5 1 1 1
v -0.3 0.8 -0.7 1 1 1
v -0.3 0.9 -0.5 1 1 1
v -0.5 0.8 -0.7 1 1 1
v -0.5 0.9 -0.5 1 1 1
v -0.3 0.7 -0.7 1 1 1
v -0.5 0.7 -0.7 1 1 1
v -0.3292893 0.6292893 -0.7 1 1 1
v -0.4707107 0.6292893 -0.7 1 1 1
v -0.4 0.6 -0.7 1 1 1
v -0.5 0.7 -0.5 1 1 1
v -0.3 0.7 -0.5 1 1 1
v 0.2287501 1.061293 0.183 1 1 1
v 0.116686 0.9965931 0.1294005 1 1 1
v -0.04574994 1.536741 0.23241 1 1 1
v -0.1880714 1.454572 0.1643387 1 1 1
v 0.2287501 1.061293 -0.183 1 1 1
v 0.3408143 1.125994 -0.1294005 1 1 1
v -0.04574994 1.536741 -0.23241 1 1 1
v 0.09657153 1.618911 -0.1643387 1 1 1
v 0.116686 0.9965931 -0.1294005 1 1 1
v -0.1880714 1.454572 -0.1643387 1 1 1
v 0.155523 1.652946 2.887646E-15 1 1 1
v 0.3872328 1.152793 2.887646E-15 1 1 1
v 0.09657153 1.618911 0.1643387 1 1 1
v 0.3408143 1.125994 0.1294005 1 1 1
v 0.07026747 0.9697933 2.887646E-15 1 1 1
v -0.2470229 1.420536 2.887646E-15 1 1 1
v -0.1827756 1.88025 -0.05308661 1 1 1
v -0.1827756 1.88025 0.05308661 1 1 1
v -0.2747243 1.827163 -0.05308661 1 1 1
v -0.2747243 1.827163 0.05308661 1 1 1
v -0.05744484 1.635644 0.03932342 1 1 1
v -0.125555 1.596321 0.03932342 1 1 1
v -0.125555 1.596321 -0.03932342 1 1 1
v -0.05744484 1.635644 -0.03932342 1 1 1
v 0.2 0.6 -0.7 1 1 1
v 0.2707107 0.6292893 -0.7 1 1 1
v 0.1292893 0.6292893 -0.7 1 1 1
v -0.2 0.6 -0.7 1 1 1
v -0.1292893 0.6292893 -0.7 1 1 1
v -0.2707107 0.6292893 -0.7 1 1 1
v 0.1541625 1.757816 2.887646E-15 1 1 1
v 0.08220957 1.716274 0.2005826 1 1 1
v 0.08220957 1.716274 -0.2005826 1 1 1
v -0.09150003 1.615983 -0.2836666 1 1 1
v -0.09150003 1.615983 0.2836666 1 1 1
v -0.2652096 1.515691 -0.2005826 1 1 1
v -0.2652096 1.515691 0.2005826 1 1 1
v -0.3371626 1.474149 2.887646E-15 1 1 1
v 0.1999125 1.678575 2.887646E-15 1 1 1
v 0.1279596 1.637033 -0.2005826 1 1 1
v 0.1279596 1.637033 0.2005826 1 1 1
v -0.04575003 1.536741 0.2836666 1 1 1
v -0.04575003 1.536741 -0.2836666 1 1 1
v -0.2194596 1.43645 0.2005826 1 1 1
v -0.2194596 1.43645 -0.2005826 1 1 1
v -0.2914125 1.394908 2.887646E-15 1 1 1
v -0.5 0.3112474 -0.319288 1 1 1
v -0.5 0.4632474 -0.319288 1 1 1
v -0.5 0.3112474 -0.09128798 1 1 1
v -0.5 0.4632474 -0.09128798 1 1 1
v -0.45 0.3112474 -0.09128798 1 1 1
v -0.45 0.4632474 -0.09128798 1 1 1
v -0.45 0.4632474 -0.319288 1 1 1
v -0.45 0.3112474 -0.319288 1 1 1
v -0.5 0.5210516 -0.06114817 1 1 1
v -0.5 0.5970516 -0.06114817 1 1 1
v -0.5 0.5210516 0.05285183 1 1 1
v -0.5 0.5970516 0.05285183 1 1 1
v -0.45 0.5210516 0.05285183 1 1 1
v -0.45 0.5970516 0.05285183 1 1 1
v -0.45 0.5970516 -0.06114817 1 1 1
v -0.45 0.5210516 -0.06114817 1 1 1
v -0.45 0.2 -0.45 1 1 1
v -0.45 0.7 -0.45 1 1 1
v -0.45 0.2 0.45 1 1 1
v -0.45 0.7 0.45 1 1 1
v 0.45 0.7 -0.45 1 1 1
v 0.45 0.2 -0.45 1 1 1
v 0.45 0.7 0.45 1 1 1
v 0.45 0.2 0.45 1 1 1
v -0.25 0.2 -0.5 1 1 1
v 0.25 0.2 -0.5 1 1 1
v -0.25 0.5 -0.5 1 1 1
v 0.25 0.5 -0.5 1 1 1

vn 0.9238795 0 0.3826834
vn 0.3826834 0 0.9238795
vn -0.9238795 0 -0.3826834
vn -0.9238795 0 0.3826834
vn 0.9238795 0 -0.3826834
vn -0.3826834 0 0.9238795
vn 0 0 -1
vn 0.3826834 0 -0.9238795
vn 0 -1 0
vn -0.3826834 0 -0.9238795
vn 1 0 0
vn -1 0 0
vn 0 1 0
vn 0.9238795 0.3826834 0
vn -0.9238795 0.3826834 0
vn 0.3826834 0.9238795 0
vn -0.3826834 0.9238795 0
vn 0 0 1
vn 0 0.6257274 -0.7800418
vn 0 0.6257274 0.7800418
vn 0 0.9761871 0.2169305
vn 0 0.9761871 -0.2169305
vn -1.192093E-07 0 1
vn 0.9238797 0 -0.3826834
vn 1 0 1.192093E-07
vn 0.3826836 0 -0.9238796
vn -0.3826834 0 -0.9238797
vn -1 0 -1.192093E-07
vn -0.9238796 0 -0.3826836
vn 0 0.5257311 -0.8506508
vn 0 0.8944272 -0.4472136
vn 0.04481886 -0.07762853 0.9959745
vn -0.5650883 -0.4297587 0.7042602
vn 0.04481886 -0.07762853 -0.9959745
vn 0.6547261 0.2745017 -0.7042602
vn -0.5650883 -0.4297587 -0.7042602
vn 0.9073581 0.4203588 0
vn 0.6547261 0.2745017 0.7042602
vn 0.5000001 -0.8660254 0
vn -0.8177203 -0.5756159 0
vn -0.5000001 0.8660254 0
vn 0.6462037 0.2914141 0.7053359
vn -0.5754738 -0.4139219 0.7053359
vn -0.5754738 -0.4139219 -0.7053359
vn 0.6462037 0.2914141 -0.7053359
vn -0.5000001 0.8660254 0
vn 0.6123724 0.3535535 -0.7071068
vn 0.8660254 0.5000001 0
vn 0.6123724 0.3535535 0.7071068
vn -0.6123724 -0.3535535 -0.7071068
vn -0.8660254 -0.5000001 0
vn -0.6123724 -0.3535535 0.7071068
vn -0.6050833 1.667812E-17 -0.7961622
vn -0.6050833 1.667812E-17 0.7961622
vn 2.756335E-17 1 0
vn -2.756335E-17 -1 0
vn -0.6050833 1.667813E-17 -0.7961622
vn -0.6050833 1.667812E-17 0.7961622
vn 1.490119E-08 -1.916725E-24 1
vn 2.756335E-17 1 1.505998E-24
vn -1.490119E-08 1.916725E-24 -1
vn -2.756335E-17 -1 -1.505998E-24

vt 0.71875 0.225
vt 0.71875 0.025
vt 0.46875 0.025
vt 0.46875 0.2083333
vt 0.46875 0.1916666
vt 0.46875 0.225
vt 0.46875 0.075
vt 0.46875 0.1416667
vt 0.46875 0.175
vt 0.59375 0.3416667
vt 0.59375 0.275
vt 0.59375 0.2945262
vt 0.59375 0.4083333
vt 0.59375 0.475
vt 0.59375 0.425
vt 0.59375 0.325
vt 0.71875 0.2945262
vt 0.71875 0.275
vt 0.71875 0.3416667
vt 0.59375 0.09166666
vt 0.59375 0.1583333
vt 0.59375 0.225
vt 0.59375 0.025
vt 0.59375 0.04452622
vt 0.90625 0.125
vt 0.96875 0.225
vt 0.96875 0.125
vt 0.34375 0.225
vt 0.34375 0.025

usemtl colormap

f 3/1/2 2/2/1 1/1/1
f 2/2/1 3/1/2 4/2/2
f 7/2/4 6/1/3 5/2/3
f 6/1/3 7/2/4 8/1/4
f 1/1/1 10/2/5 9/1/5
f 10/2/5 1/1/1 2/2/1
f 3/1/2 11/2/6 4/2/2
f 11/2/6 3/1/2 12/1/6
f 15/1/7 14/2/8 13/2/7
f 14/2/8 15/1/7 16/1/8
f 4/2/9 10/2/9 2/2/9
f 10/2/9 4/2/9 14/2/9
f 14/2/9 4/2/9 11/2/9
f 14/2/9 11/2/9 17/2/9
f 13/2/9 14/2/9 17/2/9
f 17/2/9 11/2/9 18/2/9
f 18/2/9 11/2/9 19/2/9
f 19/2/9 11/2/9 20/2/9
f 20/2/9 11/2/9 7/2/9
f 20/2/9 7/2/9 5/2/9
f 5/2/3 21/1/10 20/2/10
f 21/1/10 5/2/3 6/1/3
f 11/2/6 8/1/4 7/2/4
f 8/1/4 11/2/6 12/1/6
f 9/1/5 14/2/8 16/1/8
f 14/2/8 9/1/5 10/2/5
f 23/1/11 19/2/11 22/1/11
f 19/2/11 23/1/11 18/2/11
f 17/2/12 15/1/12 13/2/12
f 15/1/12 17/2/12 24/1/12
f 21/1/10 19/2/7 20/2/10
f 19/2/7 21/1/10 22/1/7
f 21/1/13 23/1/13 22/1/13
f 12/1/13 23/1/13 21/1/13
f 12/1/13 21/1/13 6/1/13
f 12/1/13 6/1/13 8/1/13
f 12/1/13 24/1/13 23/1/13
f 3/1/13 24/1/13 12/1/13
f 3/1/13 15/1/13 24/1/13
f 3/1/13 16/1/13 15/1/13
f 1/1/13 16/1/13 3/1/13
f 16/1/13 1/1/13 9/1/13
f 23/1/7 17/2/7 18/2/7
f 17/2/7 23/1/7 24/1/7
f 27/3/9 26/3/9 25/3/9
f 26/3/9 27/3/9 28/3/9
f 30/4/14 26/3/11 29/4/14
f 26/3/11 30/4/14 25/3/11
f 27/3/12 31/5/12 28/3/12
f 31/5/12 27/3/12 32/5/12
f 32/5/9 33/5/9 31/5/9
f 33/5/9 32/5/9 34/5/9
f 37/3/9 36/3/9 35/3/9
f 36/3/9 37/3/9 38/3/9
f 34/5/11 36/3/11 33/5/11
f 36/3/11 34/5/11 35/3/11
f 37/3/12 39/4/15 38/3/12
f 39/4/15 37/3/12 40/4/15
f 43/6/17 42/6/16 41/6/16
f 42/6/16 43/6/17 44/6/17
f 39/4/15 44/6/17 43/6/17
f 44/6/17 39/4/15 40/4/15
f 42/6/16 29/4/14 41/6/16
f 29/4/14 42/6/16 30/4/14
f 39/4/7 36/3/7 38/3/7
f 36/3/7 39/4/7 33/5/7
f 29/4/7 33/5/7 39/4/7
f 29/4/7 39/4/7 43/6/7
f 29/4/7 43/6/7 41/6/7
f 29/4/7 31/5/7 33/5/7
f 26/3/7 31/5/7 29/4/7
f 31/5/7 26/3/7 28/3/7
f 47/3/11 46/6/11 45/3/11
f 46/6/11 47/3/11 48/6/11
f 47/3/18 49/6/18 48/6/18
f 49/6/18 47/3/18 50/3/18
f 49/6/12 52/3/12 51/6/12
f 52/3/12 49/6/12 50/3/12
f 52/3/7 46/6/7 51/6/7
f 46/6/7 52/3/7 45/3/7
f 55/8/19 54/7/7 53/7/7
f 54/7/7 55/8/19 56/8/19
f 59/8/20 58/7/18 57/7/18
f 58/7/18 59/8/20 60/8/20
f 58/7/9 54/7/9 57/7/9
f 54/7/9 58/7/9 53/7/9
f 63/9/13 62/9/13 61/9/13
f 62/9/13 63/9/13 64/9/13
f 58/7/12 55/8/12 53/7/12
f 55/8/12 58/7/12 63/9/12
f 63/9/12 58/7/12 64/9/12
f 64/9/12 58/7/12 60/8/12
f 61/9/11 54/7/11 56/8/11
f 54/7/11 61/9/11 57/7/11
f 57/7/11 61/9/11 62/9/11
f 57/7/11 62/9/11 59/8/11
f 64/9/21 59/8/20 62/9/21
f 59/8/20 64/9/21 60/8/20
f 56/8/19 63/9/22 61/9/22
f 63/9/22 56/8/19 55/8/19
f 67/9/23 66/7/23 65/9/23
f 66/7/23 67/9/23 68/7/23
f 70/9/24 66/7/25 69/7/24
f 66/7/25 70/9/24 65/9/25
f 73/7/27 72/9/26 71/7/26
f 72/9/26 73/7/27 74/9/27
f 67/9/28 75/7/29 68/7/28
f 75/7/29 67/9/28 76/9/29
f 76/9/29 73/7/27 75/7/29
f 73/7/27 76/9/29 74/9/27
f 71/7/26 70/9/24 69/7/24
f 70/9/24 71/7/26 72/9/26
f 70/9/13 67/9/13 65/9/13
f 67/9/13 70/9/13 76/9/13
f 76/9/13 70/9/13 72/9/13
f 76/9/13 72/9/13 74/9/13
f 68/7/9 69/7/9 66/7/9
f 69/7/9 68/7/9 75/7/9
f 69/7/9 75/7/9 71/7/9
f 71/7/9 75/7/9 73/7/9
f 79/10/9 78/10/9 77/10/9
f 78/10/9 79/10/9 80/10/9
f 83/12/7 82/12/7 81/11/7
f 82/12/7 83/12/7 80/10/7
f 82/12/7 80/10/7 78/10/7
f 84/13/30 78/10/7 80/10/7
f 78/10/7 84/13/30 85/13/30
f 86/14/11 78/10/11 85/13/11
f 78/10/11 86/14/11 77/10/11
f 84/13/30 86/14/31 85/13/30
f 86/14/31 84/13/30 87/14/31
f 90/12/7 89/12/7 88/11/7
f 89/12/7 90/12/7 91/10/7
f 89/12/7 91/10/7 92/10/7
f 93/13/30 92/10/7 91/10/7
f 92/10/7 93/13/30 94/13/30
f 93/13/30 95/14/31 94/13/30
f 95/14/31 93/13/30 96/14/31
f 98/10/9 92/10/9 97/10/9
f 92/10/9 98/10/9 91/10/9
f 101/13/30 100/14/31 99/13/30
f 100/14/31 101/13/30 102/14/31
f 103/10/7 101/13/30 99/13/30
f 101/13/30 103/10/7 104/10/7
f 105/12/7 104/10/7 103/10/7
f 105/12/7 106/12/7 104/10/7
f 106/12/7 105/12/7 107/11/7
f 108/10/12 101/13/12 104/10/12
f 101/13/12 108/10/12 102/14/12
f 108/10/9 103/10/9 109/10/9
f 103/10/9 108/10/9 104/10/9
f 112/11/32 111/14/33 110/14/32
f 111/14/33 112/11/32 113/11/33
f 116/11/34 115/14/35 114/14/34
f 115/14/35 116/11/34 117/11/35
f 119/11/36 114/14/34 118/14/36
f 114/14/34 119/11/36 116/11/34
f 122/11/38 121/14/37 120/11/37
f 121/14/37 122/11/38 123/14/38
f 122/11/38 110/14/32 123/14/38
f 110/14/32 122/11/38 112/11/32
f 120/11/37 115/14/35 117/11/35
f 115/14/35 120/11/37 121/14/37
f 123/14/39 115/14/39 121/14/39
f 115/14/39 123/14/39 110/14/39
f 115/14/39 110/14/39 114/14/39
f 114/14/39 110/14/39 111/14/39
f 114/14/39 111/14/39 118/14/39
f 118/14/39 111/14/39 124/14/39
f 111/14/33 125/11/40 124/14/40
f 125/11/40 111/14/33 113/11/33
f 118/14/36 125/11/40 119/11/36
f 125/11/40 118/14/36 124/14/40
f 128/15/41 127/15/41 126/15/41
f 127/15/41 128/15/41 129/15/41
f 127/15/42 131/16/43 130/16/42
f 131/16/43 127/15/42 129/15/43
f 128/15/44 133/16/45 132/16/44
f 133/16/45 128/15/44 126/15/45
f 127/15/42 133/16/45 126/15/45
f 133/16/45 127/15/42 130/16/42
f 132/16/44 129/15/43 128/15/44
f 129/15/43 132/16/44 131/16/43
f 81/18/18 82/17/18 83/17/18
f 80/19/18 83/17/18 82/17/18
f 78/19/18 80/19/18 82/17/18
f 88/18/18 89/17/18 90/17/18
f 91/19/18 90/17/18 89/17/18
f 92/19/18 91/19/18 89/17/18
f 107/18/18 105/17/18 106/17/18
f 104/19/18 106/17/18 105/17/18
f 103/19/18 104/19/18 105/17/18
f 94/21/30 80/20/7 92/20/7
f 80/20/7 94/21/30 84/21/30
f 94/21/30 87/22/31 84/21/30
f 87/22/31 94/21/30 95/22/31
f 97/20/9 80/20/9 79/20/9
f 80/20/9 97/20/9 92/20/9
f 136/24/7 135/24/7 134/23/7
f 135/24/7 136/24/7 92/20/7
f 135/24/7 92/20/7 80/20/7
f 99/21/30 91/20/7 103/20/7
f 91/20/7 99/21/30 93/21/30
f 99/21/30 96/22/31 93/21/30
f 96/22/31 99/21/30 100/22/31
f 139/24/7 138/24/7 137/23/7
f 138/24/7 139/24/7 103/20/7
f 138/24/7 103/20/7 91/20/7
f 109/20/9 91/20/9 98/20/9
f 91/20/9 109/20/9 103/20/9
f 142/22/46 141/22/46 140/22/46
f 141/22/46 142/22/46 143/22/46
f 141/22/46 143/22/46 144/22/46
f 144/22/46 143/22/46 145/22/46
f 144/22/46 145/22/46 146/22/46
f 146/22/46 145/22/46 147/22/46
f 150/23/39 149/23/39 148/23/39
f 149/23/39 150/23/39 151/23/39
f 149/23/39 151/23/39 152/23/39
f 152/23/39 151/23/39 153/23/39
f 152/23/39 153/23/39 154/23/39
f 154/23/39 153/23/39 155/23/39
f 140/22/48 149/23/47 142/22/47
f 149/23/47 143/22/7 142/22/47
f 149/23/47 140/22/48 148/23/48
f 143/22/7 149/23/47 152/23/7
f 141/22/49 148/23/48 140/22/48
f 148/23/48 141/22/49 150/23/49
f 141/22/49 151/23/18 150/23/49
f 151/23/18 141/22/49 144/22/18
f 152/23/7 145/22/50 143/22/7
f 145/22/50 152/23/7 154/23/50
f 155/23/51 145/22/50 154/23/50
f 145/22/50 155/23/51 147/22/51
f 144/22/18 153/23/52 151/23/18
f 153/23/52 147/22/51 155/23/51
f 153/23/52 144/22/18 146/22/52
f 147/22/51 153/23/52 146/22/52
f 134/23/18 135/24/18 136/24/18
f 92/20/18 136/24/18 135/24/18
f 80/20/18 92/20/18 135/24/18
f 137/23/18 138/24/18 139/24/18
f 103/20/18 139/24/18 138/24/18
f 91/20/18 103/20/18 138/24/18
f 158/25/54 157/25/53 156/25/53
f 157/25/53 158/25/54 159/25/54
f 160/25/18 159/25/54 158/25/54
f 159/25/54 160/25/18 161/25/18
f 157/25/55 161/25/55 162/25/55
f 161/25/55 157/25/55 159/25/55
f 157/25/53 163/25/7 156/25/53
f 163/25/7 157/25/53 162/25/7
f 158/25/56 163/25/56 160/25/56
f 163/25/56 158/25/56 156/25/56
f 166/25/58 165/25/57 164/25/57
f 165/25/57 166/25/58 167/25/58
f 168/25/59 167/25/58 166/25/58
f 167/25/58 168/25/59 169/25/59
f 165/25/60 169/25/60 170/25/60
f 169/25/60 165/25/60 167/25/60
f 165/25/57 171/25/61 164/25/57
f 171/25/61 165/25/57 170/25/61
f 166/25/62 171/25/62 168/25/62
f 171/25/62 166/25/62 164/25/62
f 174/26/12 173/27/12 172/26/12
f 173/27/12 174/26/12 175/27/12
f 178/27/11 177/26/11 176/27/11
f 177/26/11 178/27/11 179/26/11
f 178/27/18 174/26/18 179/26/18
f 174/26/18 178/27/18 175/27/18
f 173/27/7 177/26/7 172/26/7
f 177/26/7 173/27/7 176/27/7
f 182/29/7 181/28/7 180/28/7
f 181/28/7 182/29/7 183/29/7

g stall-drinks




usemtl colormap

f 3/1/2 2/2/1 1/1/1
f 2/2/1 3/1/2 4/2/2
f 7/2/4 6/1/3 5/2/3
f 6/1/3 7/2/4 8/1/4
f 1/1/1 10/2/5 9/1/5
f 10/2/5 1/1/1 2/2/1
f 3/1/2 11/2/6 4/2/2
f 11/2/6 3/1/2 12/1/6
f 15/1/7 14/2/8 13/2/7
f 14/2/8 15/1/7 16/1/8
f 4/2/9 10/2/9 2/2/9
f 10/2/9 4/2/9 14/2/9
f 14/2/9 4/2/9 11/2/9
f 14/2/9 11/2/9 17/2/9
f 13/2/9 14/2/9 17/2/9
f 17/2/9 11/2/9 18/2/9
f 18/2/9 11/2/9 19/2/9
f 19/2/9 11/2/9 20/2/9
f 20/2/9 11/2/9 7/2/9
f 20/2/9 7/2/9 5/2/9
f 5/2/3 21/1/10 20/2/10
f 21/1/10 5/2/3 6/1/3
f 11/2/6 8/1/4 7/2/4
f 8/1/4 11/2/6 12/1/6
f 9/1/5 14/2/8 16/1/8
f 14/2/8 9/1/5 10/2/5
f 23/1/11 19/2/11 22/1/11
f 19/2/11 23/1/11 18/2/11
f 17/2/12 15/1/12 13/2/12
f 15/1/12 17/2/12 24/1/12
f 21/1/10 19/2/7 20/2/10
f 19/2/7 21/1/10 22/1/7
f 21/1/13 23/1/13 22/1/13
f 12/1/13 23/1/13 21/1/13
f 12/1/13 21/1/13 6/1/13
f 12/1/13 6/1/13 8/1/13
f 12/1/13 24/1/13 23/1/13
f 3/1/13 24/1/13 12/1/13
f 3/1/13 15/1/13 24/1/13
f 3/1/13 16/1/13 15/1/13
f 1/1/13 16/1/13 3/1/13
f 16/1/13 1/1/13 9/1/13
f 23/1/7 17/2/7 18/2/7
f 17/2/7 23/1/7 24/1/7
f 27/3/9 26/3/9 25/3/9
f 26/3/9 27/3/9 28/3/9
f 30/4/14 26/3/11 29/4/14
f 26/3/11 30/4/14 25/3/11
f 27/3/12 31/5/12 28/3/12
f 31/5/12 27/3/12 32/5/12
f 32/5/9 33/5/9 31/5/9
f 33/5/9 32/5/9 34/5/9
f 37/3/9 36/3/9 35/3/9
f 36/3/9 37/3/9 38/3/9
f 34/5/11 36/3/11 33/5/11
f 36/3/11 34/5/11 35/3/11
f 37/3/12 39/4/15 38/3/12
f 39/4/15 37/3/12 40/4/15
f 43/6/17 42/6/16 41/6/16
f 42/6/16 43/6/17 44/6/17
f 39/4/15 44/6/17 43/6/17
f 44/6/17 39/4/15 40/4/15
f 42/6/16 29/4/14 41/6/16
f 29/4/14 42/6/16 30/4/14
f 39/4/7 36/3/7 38/3/7
f 36/3/7 39/4/7 33/5/7
f 29/4/7 33/5/7 39/4/7
f 29/4/7 39/4/7 43/6/7
f 29/4/7 43/6/7 41/6/7
f 29/4/7 31/5/7 33/5/7
f 26/3/7 31/5/7 29/4/7
f 31/5/7 26/3/7 28/3/7
f 47/3/11 46/6/11 45/3/11
f 46/6/11 47/3/11 48/6/11
f 47/3/18 49/6/18 48/6/18
f 49/6/18 47/3/18 50/3/18
f 49/6/12 52/3/12 51/6/12
f 52/3/12 49/6/12 50/3/12
f 52/3/7 46/6/7 51/6/7
f 46/6/7 52/3/7 45/3/7
f 55/8/19 54/7/7 53/7/7
f 54/7/7 55/8/19 56/8/19
f 59/8/20 58/7/18 57/7/18
f 58/7/18 59/8/20 60/8/20
f 58/7/9 54/7/9 57/7/9
f 54/7/9 58/7/9 53/7/9
f 63/9/13 62/9/13 61/9/13
f 62/9/13 63/9/13 64/9/13
f 58/7/12 55/8/12 53/7/12
f 55/8/12 58/7/12 63/9/12
f 63/9/12 58/7/12 64/9/12
f 64/9/12 58/7/12 60/8/12
f 61/9/11 54/7/11 56/8/11
f 54/7/11 61/9/11 57/7/11
f 57/7/11 61/9/11 62/9/11
f 57/7/11 62/9/11 59/8/11
f 64/9/21 59/8/20 62/9/21
f 59/8/20 64/9/21 60/8/20
f 56/8/19 63/9/22 61/9/22
f 63/9/22 56/8/19 55/8/19
f 67/9/23 66/7/23 65/9/23
f 66/7/23 67/9/23 68/7/23
f 70/9/24 66/7/25 69/7/24
f 66/7/25 70/9/24 65/9/25
f 73/7/27 72/9/26 71/7/26
f 72/9/26 73/7/27 74/9/27
f 67/9/28 75/7/29 68/7/28
f 75/7/29 67/9/28 76/9/29
f 76/9/29 73/7/27 75/7/29
f 73/7/27 76/9/29 74/9/27
f 71/7/26 70/9/24 69/7/24
f 70/9/24 71/7/26 72/9/26
f 70/9/13 67/9/13 65/9/13
f 67/9/13 70/9/13 76/9/13
f 76/9/13 70/9/13 72/9/13
f 76/9/13 72/9/13 74/9/13
f 68/7/9 69/7/9 66/7/9
f 69/7/9 68/7/9 75/7/9
f 69/7/9 75/7/9 71/7/9
f 71/7/9 75/7/9 73/7/9
f 79/10/9 78/10/9 77/10/9
f 78/10/9 79/10/9 80/10/9
f 83/12/7 82/12/7 81/11/7
f 82/12/7 83/12/7 80/10/7
f 82/12/7 80/10/7 78/10/7
f 84/13/30 78/10/7 80/10/7
f 78/10/7 84/13/30 85/13/30
f 86/14/11 78/10/11 85/13/11
f 78/10/11 86/14/11 77/10/11
f 84/13/30 86/14/31 85/13/30
f 86/14/31 84/13/30 87/14/31
f 90/12/7 89/12/7 88/11/7
f 89/12/7 90/12/7 91/10/7
f 89/12/7 91/10/7 92/10/7
f 93/13/30 92/10/7 91/10/7
f 92/10/7 93/13/30 94/13/30
f 93/13/30 95/14/31 94/13/30
f 95/14/31 93/13/30 96/14/31
f 98/10/9 92/10/9 97/10/9
f 92/10/9 98/10/9 91/10/9
f 101/13/30 100/14/31 99/13/30
f 100/14/31 101/13/30 102/14/31
f 103/10/7 101/13/30 99/13/30
f 101/13/30 103/10/7 104/10/7
f 105/12/7 104/10/7 103/10/7
f 105/12/7 106/12/7 104/10/7
f 106/12/7 105/12/7 107/11/7
f 108/10/12 101/13/12 104/10/12
f 101/13/12 108/10/12 102/14/12
f 108/10/9 103/10/9 109/10/9
f 103/10/9 108/10/9 104/10/9
f 112/11/32 111/14/33 110/14/32
f 111/14/33 112/11/32 113/11/33
f 116/11/34 115/14/35 114/14/34
f 115/14/35 116/11/34 117/11/35
f 119/11/36 114/14/34 118/14/36
f 114/14/34 119/11/36 116/11/34
f 122/11/38 121/14/37 120/11/37
f 121/14/37 122/11/38 123/14/38
f 122/11/38 110/14/32 123/14/38
f 110/14/32 122/11/38 112/11/32
f 120/11/37 115/14/35 117/11/35
f 115/14/35 120/11/37 121/14/37
f 123/14/39 115/14/39 121/14/39
f 115/14/39 123/14/39 110/14/39
f 115/14/39 110/14/39 114/14/39
f 114/14/39 110/14/39 111/14/39
f 114/14/39 111/14/39 118/14/39
f 118/14/39 111/14/39 124/14/39
f 111/14/33 125/11/40 124/14/40
f 125/11/40 111/14/33 113/11/33
f 118/14/36 125/11/40 119/11/36
f 125/11/40 118/14/36 124/14/40
f 128/15/41 127/15/41 126/15/41
f 127/15/41 128/15/41 129/15/41
f 127/15/42 131/16/43 130/16/42
f 131/16/43 127/15/42 129/15/43
f 128/15/44 133/16/45 132/16/44
f 133/16/45 128/15/44 126/15/45
f 127/15/42 133/16/45 126/15/45
f 133/16/45 127/15/42 130/16/42
f 132/16/44 129/15/43 128/15/44
f 129/15/43 132/16/44 131/16/43
f 81/18/18 82/17/18 83/17/18
f 80/19/18 83/17/18 82/17/18
f 78/19/18 80/19/18 82/17/18
f 88/18/18 89/17/18 90/17/18
f 91/19/18 90/17/18 89/17/18
f 92/19/18 91/19/18 89/17/18
f 107/18/18 105/17/18 106/17/18
f 104/19/18 106/17/18 105/17/18
f 103/19/18 104/19/18 105/17/18
f 94/21/30 80/20/7 92/20/7
f 80/20/7 94/21/30 84/21/30
f 94/21/30 87/22/31 84/21/30
f 87/22/31 94/21/30 95/22/31
f 97/20/9 80/20/9 79/20/9
f 80/20/9 97/20/9 92/20/9
f 136/24/7 135/24/7 134/23/7
f 135/24/7 136/24/7 92/20/7
f 135/24/7 92/20/7 80/20/7
f 99/21/30 91/20/7 103/20/7
f 91/20/7 99/21/30 93/21/30
f 99/21/30 96/22/31 93/21/30
f 96/22/31 99/21/30 100/22/31
f 139/24/7 138/24/7 137/23/7
f 138/24/7 139/24/7 103/20/7
f 138/24/7 103/20/7 91/20/7
f 109/20/9 91/20/9 98/20/9
f 91/20/9 109/20/9 103/20/9
f 142/22/46 141/22/46 140/22/46
f 141/22/46 142/22/46 143/22/46
f 141/22/46 143/22/46 144/22/46
f 144/22/46 143/22/46 145/22/46
f 144/22/46 145/22/46 146/22/46
f 146/22/46 145/22/46 147/22/46
f 150/23/39 149/23/39 148/23/39
f 149/23/39 150/23/39 151/23/39
f 149/23/39 151/23/39 152/23/39
f 152/23/39 151/23/39 153/23/39
f 152/23/39 153/23/39 154/23/39
f 154/23/39 153/23/39 155/23/39
f 140/22/48 149/23/47 142/22/47
f 149/23/47 143/22/7 142/22/47
f 149/23/47 140/22/48 148/23/48
f 143/22/7 149/23/47 152/23/7
f 141/22/49 148/23/48 140/22/48
f 148/23/48 141/22/49 150/23/49
f 141/22/49 151/23/18 150/23/49
f 151/23/18 141/22/49 144/22/18
f 152/23/7 145/22/50 143/22/7
f 145/22/50 152/23/7 154/23/50
f 155/23/51 145/22/50 154/23/50
f 145/22/50 155/23/51 147/22/51
f 144/22/18 153/23/52 151/23/18
f 153/23/52 147/22/51 155/23/51
f 153/23/52 144/22/18 146/22/52
f 147/22/51 153/23/52 146/22/52
f 134/23/18 135/24/18 136/24/18
f 92/20/18 136/24/18 135/24/18
f 80/20/18 92/20/18 135/24/18
f 137/23/18 138/24/18 139/24/18
f 103/20/18 139/24/18 138/24/18
f 91/20/18 103/20/18 138/24/18
f 158/25/54 157/25/53 156/25/53
f 157/25/53 158/25/54 159/25/54
f 160/25/18 159/25/54 158/25/54
f 159/25/54 160/25/18 161/25/18
f 157/25/55 161/25/55 162/25/55
f 161/25/55 157/25/55 159/25/55
f 157/25/53 163/25/7 156/25/53
f 163/25/7 157/25/53 162/25/7
f 158/25/56 163/25/56 160/25/56
f 163/25/56 158/25/56 156/25/56
f 166/25/58 165/25/57 164/25/57
f 165/25/57 166/25/58 167/25/58
f 168/25/59 167/25/58 166/25/58
f 167/25/58 168/25/59 169/25/59
f 165/25/60 169/25/60 170/25/60
f 169/25/60 165/25/60 167/25/60
f 165/25/57 171/25/61 164/25/57
f 171/25/61 165/25/57 170/25/61
f 166/25/62 171/25/62 168/25/62
f 171/25/62 166/25/62 164/25/62
f 174/26/12 173/27/12 172/26/12
f 173/27/12 174/26/12 175/27/12
f 178/27/11 177/26/11 176/27/11
f 177/26/11 178/27/11 179/26/11
f 178/27/18 174/26/18 179/26/18
f 174/26/18 178/27/18 175/27/18
f 173/27/7 177/26/7 172/26/7
f 177/26/7 173/27/7 176/27/7
f 182/29/7 181/28/7 180/28/7
f 181/28/7 182/29/7 183/29/7

