# Created by Kenney (www.kenney.nl)

mtllib stall-information.mtl

g stall-information

v 0.5 0.2 0.45 1 1 1
v 0.5 0 0.45 1 1 1
v 0.45 0.2 0.5 1 1 1
v 0.45 0 0.5 1 1 1
v -0.5 0 -0.45 1 1 1
v -0.5 0.2 -0.45 1 1 1
v -0.5 0 0.45 1 1 1
v -0.5 0.2 0.45 1 1 1
v 0.5 0.2 -0.45 1 1 1
v 0.5 0 -0.45 1 1 1
v -0.45 0 0.5 1 1 1
v -0.45 0.2 0.5 1 1 1
v 0.3 0 -0.5 1 1 1
v 0.45 0 -0.5 1 1 1
v 0.3 0.2 -0.5 1 1 1
v 0.45 0.2 -0.5 1 1 1
v 0.3 0 -0.45 1 1 1
v -0.3 0 -0.45 1 1 1
v -0.3 0 -0.5 1 1 1
v -0.45 0 -0.5 1 1 1
v -0.45 0.2 -0.5 1 1 1
v -0.3 0.2 -0.5 1 1 1
v -0.3 0.2 -0.45 1 1 1
v 0.3 0.2 -0.45 1 1 1
v 0.4 0.8 -0.4 1 1 1
v 0.4 0.8 0.4 1 1 1
v -0.4 0.8 -0.4 1 1 1
v -0.4 0.8 0.4 1 1 1
v 0.35 -2.821695E-31 -0.45 1 1 1
v 0.35 -2.821695E-31 -0.55 1 1 1
v 0.25 -2.821695E-31 -0.45 1 1 1
v 0.25 -2.821695E-31 -0.55 1 1 1
v 0.25 0.5 -0.55 1 1 1
v 0.25 0.5 -0.45 1 1 1
v -0.25 0.5 -0.55 1 1 1
v -0.25 0.5 -0.45 1 1 1
v -0.25 -2.821695E-31 -0.45 1 1 1
v -0.25 -2.821695E-31 -0.55 1 1 1
v -0.35 -2.821695E-31 -0.45 1 1 1
v -0.35 -2.821695E-31 -0.55 1 1 1
v -0.35 0.55 -0.55 1 1 1
v 0.35 0.55 -0.55 1 1 1
v -0.3 0.6 -0.55 1 1 1
v 0.3 0.6 -0.55 1 1 1
v 0.5 0.7 0.45 1 1 1
v 0.5 0.7 -0.45 1 1 1
v 0.45 0.7 0.5 1 1 1
v 0.45 0.7 -0.5 1 1 1
v -0.45 0.7 0.5 1 1 1
v -0.45 0.7 -0.5 1 1 1
v -0.5 0.7 0.45 1 1 1
v -0.5 0.7 -0.45 1 1 1
v 0.5 0.9 -0.45 1 1 1
v 0.5 0.9 0.45 1 1 1
v 0.45 0.9 -0.5 1 1 1
v 0.45 0.9 0.5 1 1 1
v 0.4 0.9 -0.4 1 1 1
v -0.45 0.9 -0.5 1 1 1
v 0.4 0.9 0.4 1 1 1
v -0.4 0.9 -0.4 1 1 1
v -0.45 0.9 0.5 1 1 1
v -0.4 0.9 0.4 1 1 1
v -0.5 0.9 -0.45 1 1 1
v -0.5 0.9 0.45 1 1 1
v 0.05 1.08 -0.05 1 1 1
v 0.05 0.8 -0.05 1 1 1
v 0.05 1.08 0.05 1 1 1
v 0.05 0.8 0.05 1 1 1
v -0.05 0.8 0.05 1 1 1
v -0.05 1.08 0.05 1 1 1
v -0.05 0.8 -0.05 1 1 1
v -0.05 1.08 -0.05 1 1 1
v 0.25 0.2 -0.4999999 1 1 1
v 0.25 0.15 -0.4999999 1 1 1
v -0.25 0.2 -0.5 1 1 1
v -0.25 0.15 -0.5 1 1 1
v 0.25 0.15 -0.6 1 1 1
v 0.25 0.2 -0.6 1 1 1
v 0.2 0.15 -0.65 1 1 1
v 0.2 0.2 -0.65 1 1 1
v -0.2 0.15 -0.65 1 1 1
v -0.2 0.2 -0.65 1 1 1
v -0.25 0.15 -0.6 1 1 1
v -0.25 0.2 -0.6 1 1 1
v 0.35 0.55 -0.45 1 1 1
v -0.35 0.55 -0.45 1 1 1
v 0.3 0.6 -0.45 1 1 1
v -0.3 0.6 -0.45 1 1 1
v -0.25 0.9 -0.1 1 1 1
v 0.25 0.9 -0.1 1 1 1
v -0.3 0.95 -0.1 1 1 1
v 0.3 0.95 -0.1 1 1 1
v -0.3 1.45 -0.1 1 1 1
v 0.3 1.45 -0.1 1 1 1
v -0.25 1.5 -0.1 1 1 1
v 0.25 1.5 -0.1 1 1 1
v 0.25 0.9 0.1 1 1 1
v -0.25 0.9 0.1 1 1 1
v 0.3 0.95 0.1 1 1 1
v -0.3 0.95 0.1 1 1 1
v 0.3 1.45 0.1 1 1 1
v -0.3 1.45 0.1 1 1 1
v 0.25 1.5 0.1 1 1 1
v -0.25 1.5 0.1 1 1 1
v 0.11352 1 -0.11 1 1 1
v 0.11352 1.056571 -0.11 1 1 1
v -0.11352 1 -0.11 1 1 1
v 0.05676 1.056571 -0.11 1 1 1
v -0.05676 1.056571 -0.11 1 1 1
v -0.11352 1.056571 -0.11 1 1 1
v 0.05676 1.169714 -0.11 1 1 1
v -0.05676 1.226286 -0.11 1 1 1
v 0.11352 1.226286 -0.11 1 1 1
v 0.11352 1.169714 -0.11 1 1 1
v 0.05676 1.282857 -0.11 1 1 1
v 0.05676 1.396 -0.11 1 1 1
v -0.05676 1.282857 -0.11 1 1 1
v -0.05676 1.396 -0.11 1 1 1
v -0.25 0.2 -0.5 1 1 1
v 0.25 0.2 -0.5 1 1 1
v -0.25 0.5 -0.5 1 1 1
v 0.25 0.5 -0.5 1 1 1
v -0.5 0.4315329 0.01074338 1 1 1
v -0.5 0.5835329 0.01074338 1 1 1
v -0.5 0.4315329 0.2387434 1 1 1
v -0.5 0.5835329 0.2387434 1 1 1
v -0.45 0.4315329 0.2387434 1 1 1
v -0.45 0.5835329 0.2387434 1 1 1
v -0.45 0.5835329 0.01074338 1 1 1
v -0.45 0.4315329 0.01074338 1 1 1
v -0.5 0.3132549 -0.1038555 1 1 1
v -0.5 0.3892549 -0.1038555 1 1 1
v -0.5 0.3132549 0.01014448 1 1 1
v -0.5 0.3892549 0.01014448 1 1 1
v -0.45 0.3132549 0.01014448 1 1 1
v -0.45 0.3892549 0.01014448 1 1 1
v -0.45 0.3892549 -0.1038555 1 1 1
v -0.45 0.3132549 -0.1038555 1 1 1
v -0.45 0.2 -0.45 1 1 1
v -0.45 0.7 -0.45 1 1 1
v -0.45 0.2 0.45 1 1 1
v -0.45 0.7 0.45 1 1 1
v 0.45 0.7 -0.45 1 1 1
v 0.45 0.2 -0.45 1 1 1
v 0.45 0.7 0.45 1 1 1
v 0.45 0.2 0.45 1 1 1

vn 0.9238795 0 0.3826834
vn 0.3826834 0 0.9238795
vn -0.9238795 0 -0.3826834
vn -0.9238795 0 0.3826834
vn 0.9238795 0 -0.3826834
vn -0.3826834 0 0.9238795
vn 0 0 -1
vn 0.3826834 0 -0.9238795
vn 0 -1 0
vn -0.3826834 0 -0.9238795
vn 1 0 0
vn -1 0 0
vn 0 1 0
vn 0 0 1
vn -1.192093E-07 0 1
vn 0.9238797 0 -0.3826834
vn 1 0 1.192093E-07
vn 0.3826836 0 -0.9238796
vn -0.3826834 0 -0.9238797
vn -1 0 -1.192093E-07
vn -0.9238796 0 -0.3826836
vn 0.9238795 0.3826834 0
vn -0.9238795 0.3826834 0
vn 0.3826834 0.9238795 0
vn -0.3826834 0.9238795 0
vn 0 -1.192093E-07 -1
vn -0.9238795 -0.3826834 0
vn 0.9238795 -0.3826834 0
vn 0.3826834 -0.9238795 0
vn -0.3826834 -0.9238795 0
vn -0.6050833 1.667812E-17 -0.7961622
vn -0.6050833 1.667812E-17 0.7961622
vn 2.756335E-17 1 0
vn -2.756335E-17 -1 0
vn -0.6050833 1.667813E-17 -0.7961622
vn -0.6050833 1.667812E-17 0.7961622
vn 1.490119E-08 -1.916725E-24 1
vn 2.756335E-17 1 1.505998E-24
vn -1.490119E-08 1.916725E-24 -1
vn -2.756335E-17 -1 -1.505998E-24

vt 0.71875 0.225
vt 0.71875 0.025
vt 0.71875 0.125
vt 0.46875 0.025
vt 0.46875 0.1916666
vt 0.46875 0.2083333
vt 0.46875 0.225
vt 0.46875 0.125
vt 0.46875 0.175
vt 0.46875 0.075
vt 0.71875 0.4583333
vt 0.71875 0.275
vt 0.71875 0.475
vt 0.71875 0.2916667
vt 0.59375 0.225
vt 0.59375 0.1964286
vt 0.59375 0.1392857
vt 0.59375 0.1107143
vt 0.59375 0.08214285
vt 0.59375 0.025
vt 0.34375 0.04166666
vt 0.34375 0.2083333
vt 0.34375 0.025
vt 0.34375 0.225
vt 0.90625 0.125
vt 0.96875 0.225
vt 0.96875 0.125

usemtl colormap

f 3/1/2 2/2/1 1/1/1
f 2/2/1 3/1/2 4/2/2
f 7/2/4 6/1/3 5/2/3
f 6/1/3 7/2/4 8/1/4
f 1/1/1 10/2/5 9/1/5
f 10/2/5 1/1/1 2/2/1
f 3/1/2 11/2/6 4/2/2
f 11/2/6 3/1/2 12/1/6
f 15/1/7 14/2/8 13/2/7
f 14/2/8 15/1/7 16/1/8
f 4/2/9 10/2/9 2/2/9
f 10/2/9 4/2/9 14/2/9
f 14/2/9 4/2/9 11/2/9
f 14/2/9 11/2/9 17/2/9
f 13/2/9 14/2/9 17/2/9
f 17/2/9 11/2/9 18/2/9
f 18/2/9 11/2/9 19/2/9
f 19/2/9 11/2/9 20/2/9
f 20/2/9 11/2/9 7/2/9
f 20/2/9 7/2/9 5/2/9
f 5/2/3 21/1/10 20/2/10
f 21/1/10 5/2/3 6/1/3
f 11/2/6 8/1/4 7/2/4
f 8/1/4 11/2/6 12/1/6
f 9/1/5 14/2/8 16/1/8
f 14/2/8 9/1/5 10/2/5
f 23/1/11 19/2/11 22/1/11
f 19/2/11 23/1/11 18/2/11
f 17/2/12 15/1/12 13/2/12
f 15/1/12 17/2/12 24/1/12
f 21/1/10 19/2/7 20/2/10
f 19/2/7 21/1/10 22/1/7
f 21/1/13 23/1/13 22/1/13
f 12/1/13 23/1/13 21/1/13
f 12/1/13 21/1/13 6/1/13
f 12/1/13 6/1/13 8/1/13
f 12/1/13 24/1/13 23/1/13
f 3/1/13 24/1/13 12/1/13
f 3/1/13 15/1/13 24/1/13
f 3/1/13 16/1/13 15/1/13
f 1/1/13 16/1/13 3/1/13
f 16/1/13 1/1/13 9/1/13
f 23/1/7 17/2/7 18/2/7
f 17/2/7 23/1/7 24/1/7
f 27/3/13 26/3/13 25/3/13
f 26/3/13 27/3/13 28/3/13
f 31/4/9 30/4/9 29/4/9
f 30/4/9 31/4/9 32/4/9
f 31/4/12 33/5/12 32/4/12
f 33/5/12 31/4/12 34/5/12
f 34/5/9 35/5/9 33/5/9
f 35/5/9 34/5/9 36/5/9
f 39/4/9 38/4/9 37/4/9
f 38/4/9 39/4/9 40/4/9
f 36/5/11 38/4/11 35/5/11
f 38/4/11 36/5/11 37/4/11
f 41/6/7 38/4/7 40/4/7
f 38/4/7 41/6/7 35/5/7
f 42/6/7 35/5/7 41/6/7
f 42/6/7 41/6/7 43/7/7
f 42/6/7 43/7/7 44/7/7
f 42/6/7 33/5/7 35/5/7
f 30/4/7 33/5/7 42/6/7
f 33/5/7 30/4/7 32/4/7
f 47/4/9 46/4/9 45/4/9
f 46/4/9 47/4/9 48/4/9
f 48/4/9 47/4/9 49/4/9
f 48/4/9 49/4/9 50/4/9
f 50/4/9 49/4/9 51/4/9
f 50/4/9 51/4/9 52/4/9
f 55/7/13 54/7/13 53/7/13
f 54/7/13 55/7/13 56/7/13
f 56/7/13 55/7/13 57/7/13
f 57/7/13 55/7/13 58/7/13
f 59/7/13 56/7/13 57/7/13
f 57/7/13 58/7/13 60/7/13
f 56/7/13 59/7/13 61/7/13
f 60/7/13 58/7/13 62/7/13
f 61/7/13 59/7/13 62/7/13
f 61/7/13 62/7/13 58/7/13
f 61/7/13 58/7/13 63/7/13
f 61/7/13 63/7/13 64/7/13
f 62/7/11 27/8/11 60/7/11
f 27/8/11 62/7/11 28/8/11
f 62/7/7 26/8/7 28/8/7
f 26/8/7 62/7/7 59/7/7
f 26/8/12 57/7/12 25/8/12
f 57/7/12 26/8/12 59/7/12
f 57/7/14 27/8/14 25/8/14
f 27/8/14 57/7/14 60/7/14
f 67/4/11 66/7/11 65/4/11
f 66/7/11 67/4/11 68/7/11
f 67/4/14 69/7/14 68/7/14
f 69/7/14 67/4/14 70/4/14
f 69/7/12 72/4/12 71/7/12
f 72/4/12 69/7/12 70/4/12
f 72/4/7 66/7/7 71/7/7
f 66/7/7 72/4/7 65/4/7
f 75/9/15 74/10/15 73/9/15
f 74/10/15 75/9/15 76/10/15
f 78/9/16 74/10/17 77/10/16
f 74/10/17 78/9/16 73/9/17
f 81/10/19 80/9/18 79/10/18
f 80/9/18 81/10/19 82/9/19
f 75/9/20 83/10/21 76/10/20
f 83/10/21 75/9/20 84/9/21
f 84/9/21 81/10/19 83/10/21
f 81/10/19 84/9/21 82/9/19
f 79/10/18 78/9/16 77/10/16
f 78/9/16 79/10/18 80/9/18
f 78/9/13 75/9/13 73/9/13
f 75/9/13 78/9/13 84/9/13
f 84/9/13 78/9/13 80/9/13
f 84/9/13 80/9/13 82/9/13
f 76/10/9 77/10/9 74/10/9
f 77/10/9 76/10/9 83/10/9
f 77/10/9 83/10/9 79/10/9
f 79/10/9 83/10/9 81/10/9
f 85/11/22 30/12/11 42/11/22
f 30/12/11 85/11/22 29/12/11
f 39/12/12 41/11/23 40/12/12
f 41/11/23 39/12/12 86/11/23
f 43/13/25 87/13/24 44/13/24
f 87/13/24 43/13/25 88/13/25
f 41/11/23 88/13/25 43/13/25
f 88/13/25 41/11/23 86/11/23
f 87/13/24 42/11/22 44/13/24
f 42/11/22 87/13/24 85/11/22
f 51/12/4 63/13/3 52/12/3
f 63/13/3 51/12/4 64/13/4
f 58/13/10 48/12/8 50/12/10
f 48/12/8 58/13/10 55/13/8
f 52/12/3 58/13/10 50/12/10
f 58/13/10 52/12/3 63/13/3
f 53/13/5 48/12/8 55/13/8
f 48/12/8 53/13/5 46/12/5
f 54/13/1 46/12/5 53/13/5
f 46/12/5 54/13/1 45/12/1
f 56/13/2 49/12/6 47/12/2
f 49/12/6 56/13/2 61/13/6
f 49/12/6 64/13/4 51/12/4
f 64/13/4 49/12/6 61/13/6
f 56/13/2 45/12/1 54/13/1
f 45/12/1 56/13/2 47/12/2
f 91/14/7 90/12/7 89/12/7
f 90/12/7 91/14/7 92/14/7
f 92/14/7 91/14/7 93/11/7
f 92/14/7 93/11/7 94/11/7
f 94/11/7 93/11/7 95/13/7
f 94/11/7 95/13/7 96/13/7
f 99/14/14 98/12/14 97/12/14
f 98/12/14 99/14/14 100/14/14
f 100/14/14 99/14/14 101/11/14
f 100/14/14 101/11/14 102/11/14
f 102/11/14 101/11/14 103/13/14
f 102/11/14 103/13/14 104/13/14
f 107/15/26 106/16/26 105/15/26
f 106/16/26 107/15/26 108/16/26
f 108/16/26 107/15/26 109/16/26
f 109/16/26 107/15/26 110/16/26
f 108/16/26 109/16/26 111/17/26
f 112/18/26 111/17/26 109/16/26
f 113/18/26 111/17/26 112/18/26
f 111/17/26 113/18/26 114/17/26
f 117/19/26 116/20/26 115/19/26
f 116/20/26 117/19/26 118/20/26
f 100/21/27 93/22/23 91/21/27
f 93/22/23 100/21/27 102/22/23
f 97/23/29 92/21/28 99/21/28
f 92/21/28 97/23/29 90/23/29
f 98/23/30 90/23/29 97/23/29
f 90/23/29 98/23/30 89/23/30
f 93/22/23 104/24/25 95/24/25
f 104/24/25 93/22/23 102/22/23
f 96/24/24 101/22/22 94/22/22
f 101/22/22 96/24/24 103/24/24
f 101/22/22 92/21/28 94/22/22
f 92/21/28 101/22/22 99/21/28
f 95/24/25 103/24/24 96/24/24
f 103/24/24 95/24/25 104/24/25
f 100/21/27 89/23/30 98/23/30
f 89/23/30 100/21/27 91/21/27
f 121/23/7 120/24/7 119/24/7
f 120/24/7 121/23/7 122/23/7
f 125/25/32 124/25/31 123/25/31
f 124/25/31 125/25/32 126/25/32
f 127/25/14 126/25/32 125/25/32
f 126/25/32 127/25/14 128/25/14
f 124/25/33 128/25/33 129/25/33
f 128/25/33 124/25/33 126/25/33
f 124/25/31 130/25/7 123/25/31
f 130/25/7 124/25/31 129/25/7
f 125/25/34 130/25/34 127/25/34
f 130/25/34 125/25/34 123/25/34
f 133/25/36 132/25/35 131/25/35
f 132/25/35 133/25/36 134/25/36
f 135/25/37 134/25/36 133/25/36
f 134/25/36 135/25/37 136/25/37
f 132/25/38 136/25/38 137/25/38
f 136/25/38 132/25/38 134/25/38
f 132/25/35 138/25/39 131/25/35
f 138/25/39 132/25/35 137/25/39
f 133/25/40 138/25/40 135/25/40
f 138/25/40 133/25/40 131/25/40
f 141/26/12 140/27/12 139/26/12
f 140/27/12 141/26/12 142/27/12
f 145/27/11 144/26/11 143/27/11
f 144/26/11 145/27/11 146/26/11
f 145/27/14 141/26/14 146/26/14
f 141/26/14 145/27/14 142/27/14
f 140/27/7 144/26/7 139/26/7
f 144/26/7 140/27/7 143/27/7

g stall-information




usemtl colormap

f 3/1/2 2/2/1 1/1/1
f 2/2/1 3/1/2 4/2/2
f 7/2/4 6/1/3 5/2/3
f 6/1/3 7/2/4 8/1/4
f 1/1/1 10/2/5 9/1/5
f 10/2/5 1/1/1 2/2/1
f 3/1/2 11/2/6 4/2/2
f 11/2/6 3/1/2 12/1/6
f 15/1/7 14/2/8 13/2/7
f 14/2/8 15/1/7 16/1/8
f 4/2/9 10/2/9 2/2/9
f 10/2/9 4/2/9 14/2/9
f 14/2/9 4/2/9 11/2/9
f 14/2/9 11/2/9 17/2/9
f 13/2/9 14/2/9 17/2/9
f 17/2/9 11/2/9 18/2/9
f 18/2/9 11/2/9 19/2/9
f 19/2/9 11/2/9 20/2/9
f 20/2/9 11/2/9 7/2/9
f 20/2/9 7/2/9 5/2/9
f 5/2/3 21/1/10 20/2/10
f 21/1/10 5/2/3 6/1/3
f 11/2/6 8/1/4 7/2/4
f 8/1/4 11/2/6 12/1/6
f 9/1/5 14/2/8 16/1/8
f 14/2/8 9/1/5 10/2/5
f 23/1/11 19/2/11 22/1/11
f 19/2/11 23/1/11 18/2/11
f 17/2/12 15/1/12 13/2/12
f 15/1/12 17/2/12 24/1/12
f 21/1/10 19/2/7 20/2/10
f 19/2/7 21/1/10 22/1/7
f 21/1/13 23/1/13 22/1/13
f 12/1/13 23/1/13 21/1/13
f 12/1/13 21/1/13 6/1/13
f 12/1/13 6/1/13 8/1/13
f 12/1/13 24/1/13 23/1/13
f 3/1/13 24/1/13 12/1/13
f 3/1/13 15/1/13 24/1/13
f 3/1/13 16/1/13 15/1/13
f 1/1/13 16/1/13 3/1/13
f 16/1/13 1/1/13 9/1/13
f 23/1/7 17/2/7 18/2/7
f 17/2/7 23/1/7 24/1/7
f 27/3/13 26/3/13 25/3/13
f 26/3/13 27/3/13 28/3/13
f 31/4/9 30/4/9 29/4/9
f 30/4/9 31/4/9 32/4/9
f 31/4/12 33/5/12 32/4/12
f 33/5/12 31/4/12 34/5/12
f 34/5/9 35/5/9 33/5/9
f 35/5/9 34/5/9 36/5/9
f 39/4/9 38/4/9 37/4/9
f 38/4/9 39/4/9 40/4/9
f 36/5/11 38/4/11 35/5/11
f 38/4/11 36/5/11 37/4/11
f 41/6/7 38/4/7 40/4/7
f 38/4/7 41/6/7 35/5/7
f 42/6/7 35/5/7 41/6/7
f 42/6/7 41/6/7 43/7/7
f 42/6/7 43/7/7 44/7/7
f 42/6/7 33/5/7 35/5/7
f 30/4/7 33/5/7 42/6/7
f 33/5/7 30/4/7 32/4/7
f 47/4/9 46/4/9 45/4/9
f 46/4/9 47/4/9 48/4/9
f 48/4/9 47/4/9 49/4/9
f 48/4/9 49/4/9 50/4/9
f 50/4/9 49/4/9 51/4/9
f 50/4/9 51/4/9 52/4/9
f 55/7/13 54/7/13 53/7/13
f 54/7/13 55/7/13 56/7/13
f 56/7/13 55/7/13 57/7/13
f 57/7/13 55/7/13 58/7/13
f 59/7/13 56/7/13 57/7/13
f 57/7/13 58/7/13 60/7/13
f 56/7/13 59/7/13 61/7/13
f 60/7/13 58/7/13 62/7/13
f 61/7/13 59/7/13 62/7/13
f 61/7/13 62/7/13 58/7/13
f 61/7/13 58/7/13 63/7/13
f 61/7/13 63/7/13 64/7/13
f 62/7/11 27/8/11 60/7/11
f 27/8/11 62/7/11 28/8/11
f 62/7/7 26/8/7 28/8/7
f 26/8/7 62/7/7 59/7/7
f 26/8/12 57/7/12 25/8/12
f 57/7/12 26/8/12 59/7/12
f 57/7/14 27/8/14 25/8/14
f 27/8/14 57/7/14 60/7/14
f 67/4/11 66/7/11 65/4/11
f 66/7/11 67/4/11 68/7/11
f 67/4/14 69/7/14 68/7/14
f 69/7/14 67/4/14 70/4/14
f 69/7/12 72/4/12 71/7/12
f 72/4/12 69/7/12 70/4/12
f 72/4/7 66/7/7 71/7/7
f 66/7/7 72/4/7 65/4/7
f 75/9/15 74/10/15 73/9/15
f 74/10/15 75/9/15 76/10/15
f 78/9/16 74/10/17 77/10/16
f 74/10/17 78/9/16 73/9/17
f 81/10/19 80/9/18 79/10/18
f 80/9/18 81/10/19 82/9/19
f 75/9/20 83/10/21 76/10/20
f 83/10/21 75/9/20 84/9/21
f 84/9/21 81/10/19 83/10/21
f 81/10/19 84/9/21 82/9/19
f 79/10/18 78/9/16 77/10/16
f 78/9/16 79/10/18 80/9/18
f 78/9/13 75/9/13 73/9/13
f 75/9/13 78/9/13 84/9/13
f 84/9/13 78/9/13 80/9/13
f 84/9/13 80/9/13 82/9/13
f 76/10/9 77/10/9 74/10/9
f 77/10/9 76/10/9 83/10/9
f 77/10/9 83/10/9 79/10/9
f 79/10/9 83/10/9 81/10/9
f 85/11/22 30/12/11 42/11/22
f 30/12/11 85/11/22 29/12/11
f 39/12/12 41/11/23 40/12/12
f 41/11/23 39/12/12 86/11/23
f 43/13/25 87/13/24 44/13/24
f 87/13/24 43/13/25 88/13/25
f 41/11/23 88/13/25 43/13/25
f 88/13/25 41/11/23 86/11/23
f 87/13/24 42/11/22 44/13/24
f 42/11/22 87/13/24 85/11/22
f 51/12/4 63/13/3 52/12/3
f 63/13/3 51/12/4 64/13/4
f 58/13/10 48/12/8 50/12/10
f 48/12/8 58/13/10 55/13/8
f 52/12/3 58/13/10 50/12/10
f 58/13/10 52/12/3 63/13/3
f 53/13/5 48/12/8 55/13/8
f 48/12/8 53/13/5 46/12/5
f 54/13/1 46/12/5 53/13/5
f 46/12/5 54/13/1 45/12/1
f 56/13/2 49/12/6 47/12/2
f 49/12/6 56/13/2 61/13/6
f 49/12/6 64/13/4 51/12/4
f 64/13/4 49/12/6 61/13/6
f 56/13/2 45/12/1 54/13/1
f 45/12/1 56/13/2 47/12/2
f 91/14/7 90/12/7 89/12/7
f 90/12/7 91/14/7 92/14/7
f 92/14/7 91/14/7 93/11/7
f 92/14/7 93/11/7 94/11/7
f 94/11/7 93/11/7 95/13/7
f 94/11/7 95/13/7 96/13/7
f 99/14/14 98/12/14 97/12/14
f 98/12/14 99/14/14 100/14/14
f 100/14/14 99/14/14 101/11/14
f 100/14/14 101/11/14 102/11/14
f 102/11/14 101/11/14 103/13/14
f 102/11/14 103/13/14 104/13/14
f 107/15/26 106/16/26 105/15/26
f 106/16/26 107/15/26 108/16/26
f 108/16/26 107/15/26 109/16/26
f 109/16/26 107/15/26 110/16/26
f 108/16/26 109/16/26 111/17/26
f 112/18/26 111/17/26 109/16/26
f 113/18/26 111/17/26 112/18/26
f 111/17/26 113/18/26 114/17/26
f 117/19/26 116/20/26 115/19/26
f 116/20/26 117/19/26 118/20/26
f 100/21/27 93/22/23 91/21/27
f 93/22/23 100/21/27 102/22/23
f 97/23/29 92/21/28 99/21/28
f 92/21/28 97/23/29 90/23/29
f 98/23/30 90/23/29 97/23/29
f 90/23/29 98/23/30 89/23/30
f 93/22/23 104/24/25 95/24/25
f 104/24/25 93/22/23 102/22/23
f 96/24/24 101/22/22 94/22/22
f 101/22/22 96/24/24 103/24/24
f 101/22/22 92/21/28 94/22/22
f 92/21/28 101/22/22 99/21/28
f 95/24/25 103/24/24 96/24/24
f 103/24/24 95/24/25 104/24/25
f 100/21/27 89/23/30 98/23/30
f 89/23/30 100/21/27 91/21/27
f 121/23/7 120/24/7 119/24/7
f 120/24/7 121/23/7 122/23/7
f 125/25/32 124/25/31 123/25/31
f 124/25/31 125/25/32 126/25/32
f 127/25/14 126/25/32 125/25/32
f 126/25/32 127/25/14 128/25/14
f 124/25/33 128/25/33 129/25/33
f 128/25/33 124/25/33 126/25/33
f 124/25/31 130/25/7 123/25/31
f 130/25/7 124/25/31 129/25/7
f 125/25/34 130/25/34 127/25/34
f 130/25/34 125/25/34 123/25/34
f 133/25/36 132/25/35 131/25/35
f 132/25/35 133/25/36 134/25/36
f 135/25/37 134/25/36 133/25/36
f 134/25/36 135/25/37 136/25/37
f 132/25/38 136/25/38 137/25/38
f 136/25/38 132/25/38 134/25/38
f 132/25/35 138/25/39 131/25/35
f 138/25/39 132/25/35 137/25/39
f 133/25/40 138/25/40 135/25/40
f 138/25/40 133/25/40 131/25/40
f 141/26/12 140/27/12 139/26/12
f 140/27/12 141/26/12 142/27/12
f 145/27/11 144/26/11 143/27/11
f 144/26/11 145/27/11 146/26/11
f 145/27/14 141/26/14 146/26/14
f 141/26/14 145/27/14 142/27/14
f 140/27/7 144/26/7 139/26/7
f 144/26/7 140/27/7 143/27/7

