# Created by Kenney (www.kenney.nl)

mtllib station-gate.mtl

g station-gate

v 0.75 0.3 -0.5 1 1 1
v 0.75 0.3 0.5 1 1 1
v 0.4 0.3 -0.5 1 1 1
v 0.4 0.3 0.5 1 1 1
v 0.75 0.2 -0.5 1 1 1
v 0.75 0.2 0.5 1 1 1
v 0.4 0.2 -0.5 1 1 1
v 0.4 0.2 0.5 1 1 1
v -0.4 0.3 -0.5 1 1 1
v -0.4 0.3 0.5 1 1 1
v -0.75 0.3 -0.5 1 1 1
v -0.75 0.3 0.5 1 1 1
v -0.4 0.2 -0.5 1 1 1
v -0.4 0.2 0.5 1 1 1
v -0.75 0.2 -0.5 1 1 1
v -0.75 0.2 0.5 1 1 1
v 0.58 0.63 0.31 1 1 1
v 0.58 0.35 0.31 1 1 1
v 0.58 0.63 0.39 1 1 1
v 0.58 0.35 0.39 1 1 1
v 0.5 0.35 0.31 1 1 1
v 0.5 0.63 0.31 1 1 1
v 0.5 0.35 0.39 1 1 1
v 0.5 0.63 0.39 1 1 1
v 0.58 0.63 -0.39 1 1 1
v 0.58 0.35 -0.39 1 1 1
v 0.58 0.63 -0.31 1 1 1
v 0.58 0.35 -0.31 1 1 1
v 0.5 0.35 -0.39 1 1 1
v 0.5 0.63 -0.39 1 1 1
v 0.5 0.35 -0.31 1 1 1
v 0.5 0.63 -0.31 1 1 1
v -0.58 0.63 -0.31 1 1 1
v -0.58 0.35 -0.31 1 1 1
v -0.58 0.63 -0.39 1 1 1
v -0.58 0.35 -0.39 1 1 1
v -0.5 0.35 -0.31 1 1 1
v -0.5 0.63 -0.31 1 1 1
v -0.5 0.35 -0.39 1 1 1
v -0.5 0.63 -0.39 1 1 1
v -0.58 0.63 0.39 1 1 1
v -0.58 0.35 0.39 1 1 1
v -0.58 0.63 0.31 1 1 1
v -0.58 0.35 0.31 1 1 1
v -0.5 0.35 0.39 1 1 1
v -0.5 0.63 0.39 1 1 1
v -0.5 0.35 0.31 1 1 1
v -0.5 0.63 0.31 1 1 1
v 0.75 0.1 -0.5 1 1 1
v 0.75 0.1 0.5 1 1 1
v 0.5 0.1 -0.5 1 1 1
v 0.5 0.2 -0.5 1 1 1
v 0.5 0.1 0.5 1 1 1
v 0.5 0.2 0.5 1 1 1
v -0.5 0.2 -0.5 1 1 1
v -0.5 0.1 -0.5 1 1 1
v -0.5 0.2 0.5 1 1 1
v -0.5 0.1 0.5 1 1 1
v -0.75 0.1 -0.5 1 1 1
v -0.75 0.1 0.5 1 1 1
v 0.75 0.09999999 -0.5 1 1 1
v 0.75 2.030376E-16 -0.5 1 1 1
v 0.75 0.09999999 0.5 1 1 1
v 0.75 2.030376E-16 0.5 1 1 1
v 0.5 2.030376E-16 -0.5 1 1 1
v 0.5 0.09999999 -0.5 1 1 1
v 0.5 2.030376E-16 0.5 1 1 1
v 0.5 0.09999999 0.5 1 1 1
v -0.5 0.09999999 -0.5 1 1 1
v -0.5 1.127987E-16 -0.5 1 1 1
v -0.5 0.09999999 0.5 1 1 1
v -0.5 1.127987E-16 0.5 1 1 1
v -0.75 1.127987E-16 -0.5 1 1 1
v -0.75 0.09999999 -0.5 1 1 1
v -0.75 1.127987E-16 0.5 1 1 1
v -0.75 0.09999999 0.5 1 1 1

vn 0 1 0
vn 1 0 0
vn 0 0 -1
vn -0.7071068 -0.7071068 0
vn -1 0 0
vn 0 0 1
vn 0 -1 0
vn 0.7071068 -0.7071068 0

vt 0.71875 0.225
vt 0.71875 0.025
vt 0.71875 0.475
vt 0.71875 0.275
vt 0.34375 0.075
vt 0.34375 0.175
vt 0.46875 0.075
vt 0.46875 0.175

usemtl colormap

f 3/1/1 2/1/1 1/1/1
f 2/1/1 3/1/1 4/1/1
f 2/1/2 5/2/2 1/1/2
f 5/2/2 2/1/2 6/2/2
f 3/1/3 5/2/3 7/2/3
f 5/2/3 3/1/3 1/1/3
f 8/2/4 3/1/5 7/2/4
f 3/1/5 8/2/4 4/1/5
f 2/1/6 8/2/6 6/2/6
f 8/2/6 2/1/6 4/1/6
f 8/2/4 5/2/7 6/2/7
f 5/2/7 8/2/4 7/2/4
f 11/1/1 10/1/1 9/1/1
f 10/1/1 11/1/1 12/1/1
f 10/1/2 13/2/8 9/1/2
f 13/2/8 10/1/2 14/2/8
f 11/1/3 13/2/3 15/2/3
f 13/2/3 11/1/3 9/1/3
f 16/2/5 11/1/5 15/2/5
f 11/1/5 16/2/5 12/1/5
f 10/1/6 16/2/6 14/2/6
f 16/2/6 10/1/6 12/1/6
f 16/2/7 13/2/8 14/2/8
f 13/2/8 16/2/7 15/2/7
f 19/3/2 18/4/2 17/3/2
f 18/4/2 19/3/2 20/4/2
f 22/3/3 18/4/3 21/4/3
f 18/4/3 22/3/3 17/3/3
f 19/3/6 23/4/6 20/4/6
f 23/4/6 19/3/6 24/3/6
f 22/3/1 19/3/1 17/3/1
f 19/3/1 22/3/1 24/3/1
f 23/4/5 22/3/5 21/4/5
f 22/3/5 23/4/5 24/3/5
f 27/3/2 26/4/2 25/3/2
f 26/4/2 27/3/2 28/4/2
f 30/3/3 26/4/3 29/4/3
f 26/4/3 30/3/3 25/3/3
f 27/3/6 31/4/6 28/4/6
f 31/4/6 27/3/6 32/3/6
f 30/3/1 27/3/1 25/3/1
f 27/3/1 30/3/1 32/3/1
f 31/4/5 30/3/5 29/4/5
f 30/3/5 31/4/5 32/3/5
f 35/3/5 34/4/5 33/3/5
f 34/4/5 35/3/5 36/4/5
f 38/3/6 34/4/6 37/4/6
f 34/4/6 38/3/6 33/3/6
f 35/3/3 39/4/3 36/4/3
f 39/4/3 35/3/3 40/3/3
f 38/3/1 35/3/1 33/3/1
f 35/3/1 38/3/1 40/3/1
f 39/4/2 38/3/2 37/4/2
f 38/3/2 39/4/2 40/3/2
f 43/3/5 42/4/5 41/3/5
f 42/4/5 43/3/5 44/4/5
f 46/3/6 42/4/6 45/4/6
f 42/4/6 46/3/6 41/3/6
f 43/3/3 47/4/3 44/4/3
f 47/4/3 43/3/3 48/3/3
f 46/3/1 43/3/1 41/3/1
f 43/3/1 46/3/1 48/3/1
f 47/4/2 46/3/2 45/4/2
f 46/3/2 47/4/2 48/3/2
f 6/5/2 49/6/2 5/5/2
f 49/6/2 6/5/2 50/6/2
f 52/5/3 49/6/3 51/6/3
f 49/6/3 52/5/3 5/5/3
f 53/6/5 52/5/5 51/6/5
f 52/5/5 53/6/5 54/5/5
f 6/5/6 53/6/6 50/6/6
f 53/6/6 6/5/6 54/5/6
f 57/5/2 56/6/2 55/5/2
f 56/6/2 57/5/2 58/6/2
f 15/5/3 56/6/3 59/6/3
f 56/6/3 15/5/3 55/5/3
f 60/6/5 15/5/5 59/6/5
f 15/5/5 60/6/5 16/5/5
f 57/5/6 60/6/6 58/6/6
f 60/6/6 57/5/6 16/5/6
f 63/7/2 62/8/2 61/7/2
f 62/8/2 63/7/2 64/8/2
f 66/7/3 62/8/3 65/8/3
f 62/8/3 66/7/3 61/7/3
f 67/8/5 66/7/5 65/8/5
f 66/7/5 67/8/5 68/7/5
f 63/7/6 67/8/6 64/8/6
f 67/8/6 63/7/6 68/7/6
f 67/8/7 62/8/7 64/8/7
f 62/8/7 67/8/7 65/8/7
f 71/7/2 70/8/2 69/7/2
f 70/8/2 71/7/2 72/8/2
f 74/7/3 70/8/3 73/8/3
f 70/8/3 74/7/3 69/7/3
f 75/8/5 74/7/5 73/8/5
f 74/7/5 75/8/5 76/7/5
f 71/7/6 75/8/6 72/8/6
f 75/8/6 71/7/6 76/7/6
f 75/8/7 70/8/7 72/8/7
f 70/8/7 75/8/7 73/8/7

g station-gate




usemtl colormap

f 3/1/1 2/1/1 1/1/1
f 2/1/1 3/1/1 4/1/1
f 2/1/2 5/2/2 1/1/2
f 5/2/2 2/1/2 6/2/2
f 3/1/3 5/2/3 7/2/3
f 5/2/3 3/1/3 1/1/3
f 8/2/4 3/1/5 7/2/4
f 3/1/5 8/2/4 4/1/5
f 2/1/6 8/2/6 6/2/6
f 8/2/6 2/1/6 4/1/6
f 8/2/4 5/2/7 6/2/7
f 5/2/7 8/2/4 7/2/4
f 11/1/1 10/1/1 9/1/1
f 10/1/1 11/1/1 12/1/1
f 10/1/2 13/2/8 9/1/2
f 13/2/8 10/1/2 14/2/8
f 11/1/3 13/2/3 15/2/3
f 13/2/3 11/1/3 9/1/3
f 16/2/5 11/1/5 15/2/5
f 11/1/5 16/2/5 12/1/5
f 10/1/6 16/2/6 14/2/6
f 16/2/6 10/1/6 12/1/6
f 16/2/7 13/2/8 14/2/8
f 13/2/8 16/2/7 15/2/7
f 19/3/2 18/4/2 17/3/2
f 18/4/2 19/3/2 20/4/2
f 22/3/3 18/4/3 21/4/3
f 18/4/3 22/3/3 17/3/3
f 19/3/6 23/4/6 20/4/6
f 23/4/6 19/3/6 24/3/6
f 22/3/1 19/3/1 17/3/1
f 19/3/1 22/3/1 24/3/1
f 23/4/5 22/3/5 21/4/5
f 22/3/5 23/4/5 24/3/5
f 27/3/2 26/4/2 25/3/2
f 26/4/2 27/3/2 28/4/2
f 30/3/3 26/4/3 29/4/3
f 26/4/3 30/3/3 25/3/3
f 27/3/6 31/4/6 28/4/6
f 31/4/6 27/3/6 32/3/6
f 30/3/1 27/3/1 25/3/1
f 27/3/1 30/3/1 32/3/1
f 31/4/5 30/3/5 29/4/5
f 30/3/5 31/4/5 32/3/5
f 35/3/5 34/4/5 33/3/5
f 34/4/5 35/3/5 36/4/5
f 38/3/6 34/4/6 37/4/6
f 34/4/6 38/3/6 33/3/6
f 35/3/3 39/4/3 36/4/3
f 39/4/3 35/3/3 40/3/3
f 38/3/1 35/3/1 33/3/1
f 35/3/1 38/3/1 40/3/1
f 39/4/2 38/3/2 37/4/2
f 38/3/2 39/4/2 40/3/2
f 43/3/5 42/4/5 41/3/5
f 42/4/5 43/3/5 44/4/5
f 46/3/6 42/4/6 45/4/6
f 42/4/6 46/3/6 41/3/6
f 43/3/3 47/4/3 44/4/3
f 47/4/3 43/3/3 48/3/3
f 46/3/1 43/3/1 41/3/1
f 43/3/1 46/3/1 48/3/1
f 47/4/2 46/3/2 45/4/2
f 46/3/2 47/4/2 48/3/2
f 6/5/2 49/6/2 5/5/2
f 49/6/2 6/5/2 50/6/2
f 52/5/3 49/6/3 51/6/3
f 49/6/3 52/5/3 5/5/3
f 53/6/5 52/5/5 51/6/5
f 52/5/5 53/6/5 54/5/5
f 6/5/6 53/6/6 50/6/6
f 53/6/6 6/5/6 54/5/6
f 57/5/2 56/6/2 55/5/2
f 56/6/2 57/5/2 58/6/2
f 15/5/3 56/6/3 59/6/3
f 56/6/3 15/5/3 55/5/3
f 60/6/5 15/5/5 59/6/5
f 15/5/5 60/6/5 16/5/5
f 57/5/6 60/6/6 58/6/6
f 60/6/6 57/5/6 16/5/6
f 63/7/2 62/8/2 61/7/2
f 62/8/2 63/7/2 64/8/2
f 66/7/3 62/8/3 65/8/3
f 62/8/3 66/7/3 61/7/3
f 67/8/5 66/7/5 65/8/5
f 66/7/5 67/8/5 68/7/5
f 63/7/6 67/8/6 64/8/6
f 67/8/6 63/7/6 68/7/6
f 67/8/7 62/8/7 64/8/7
f 62/8/7 67/8/7 65/8/7
f 71/7/2 70/8/2 69/7/2
f 70/8/2 71/7/2 72/8/2
f 74/7/3 70/8/3 73/8/3
f 70/8/3 74/7/3 69/7/3
f 75/8/5 74/7/5 73/8/5
f 74/7/5 75/8/5 76/7/5
f 71/7/6 75/8/6 72/8/6
f 75/8/6 71/7/6 76/7/6
f 75/8/7 70/8/7 72/8/7
f 70/8/7 75/8/7 73/8/7

g 

v 0.58 0.63 -0.21 1 1 1
v 0.58 0.63 0.21 1 1 1
v 0.5 0.63 -0.21 1 1 1
v 0.5 0.63 0.21 1 1 1
v 0.5 0.4 -0.26 1 1 1
v 0.58 0.4 -0.26 1 1 1
v 0.5 0.58 -0.26 1 1 1
v 0.58 0.58 -0.26 1 1 1
v 0.58 0.4 0.26 1 1 1
v 0.5 0.4 0.26 1 1 1
v 0.58 0.58 0.26 1 1 1
v 0.5 0.58 0.26 1 1 1
v 0.58 0.35 0.21 1 1 1
v 0.58 0.35 -0.21 1 1 1
v 0.5 0.35 0.21 1 1 1
v 0.5 0.35 -0.21 1 1 1
v 0.5 0.43 -0.18 1 1 1
v 0.5 0.55 -0.18 1 1 1
v 0.5 0.43 0.18 1 1 1
v 0.5 0.55 0.18 1 1 1
v 0.58 0.55 -0.18 1 1 1
v 0.58 0.43 -0.18 1 1 1
v 0.58 0.55 0.18 1 1 1
v 0.58 0.43 0.18 1 1 1

vn 0 0.9238795 -0.3826834
vn 0 0.9238795 0.3826834
vn 0 -0.3826834 -0.9238795
vn 0 0.3826834 -0.9238795
vn 0 -0.3826834 0.9238795
vn 0 0.3826834 0.9238795
vn 0 -0.9238795 0.3826834
vn 0 -0.9238795 -0.3826834
vn 0 0.7071068 0.7071068
vn 0 0.7071068 -0.7071068
vn 0 -0.7071068 -0.7071068
vn 0 -0.7071068 0.7071068

vt 0.71875 0.425
vt 0.71875 0.3428572
vt 0.71875 0.4071428
vt 0.71875 0.325
vt 0.71875 0.3535714
vt 0.71875 0.3964286

usemtl colormap

f 79/9/9 78/9/10 77/9/9
f 78/9/10 79/9/9 80/9/10
f 83/11/12 82/10/11 81/10/11
f 82/10/11 83/11/12 84/11/12
f 87/11/14 86/10/13 85/10/13
f 86/10/13 87/11/14 88/11/14
f 91/12/15 90/12/16 89/12/15
f 90/12/16 91/12/15 92/12/16
f 92/12/16 82/10/11 90/12/16
f 82/10/11 92/12/16 81/10/11
f 80/9/10 87/11/14 78/9/10
f 87/11/14 80/9/10 88/11/14
f 83/11/12 77/9/9 84/11/12
f 77/9/9 83/11/12 79/9/9
f 86/10/13 89/12/15 85/10/13
f 89/12/15 86/10/13 91/12/15
f 92/12/5 83/11/5 81/10/5
f 83/11/5 92/12/5 79/9/5
f 79/9/5 92/12/5 93/13/5
f 93/13/5 92/12/5 91/12/5
f 94/14/5 79/9/5 93/13/5
f 93/13/5 91/12/5 95/13/5
f 79/9/5 94/14/5 80/9/5
f 95/13/5 91/12/5 96/14/5
f 80/9/5 94/14/5 96/14/5
f 80/9/5 96/14/5 91/12/5
f 80/9/5 91/12/5 86/10/5
f 80/9/5 86/10/5 88/11/5
f 77/9/2 82/10/2 84/11/2
f 82/10/2 77/9/2 90/12/2
f 90/12/2 77/9/2 97/14/2
f 97/14/2 77/9/2 78/9/2
f 98/13/2 90/12/2 97/14/2
f 97/14/2 78/9/2 99/14/2
f 90/12/2 98/13/2 89/12/2
f 99/14/2 78/9/2 100/13/2
f 89/12/2 98/13/2 100/13/2
f 89/12/2 100/13/2 78/9/2
f 89/12/2 78/9/2 87/11/2
f 89/12/2 87/11/2 85/10/2
f 93/13/17 100/13/18 98/13/17
f 100/13/18 93/13/17 95/13/18
f 96/14/19 100/13/18 95/13/18
f 100/13/18 96/14/19 99/14/19
f 96/14/19 97/14/20 99/14/19
f 97/14/20 96/14/19 94/14/20
f 97/14/20 93/13/17 98/13/17
f 93/13/17 97/14/20 94/14/20

g 

v 0.4899999 0.445 -0.45 1 1 1
v 0.59 0.445 -0.45 1 1 1
v 0.4899999 0.535 -0.45 1 1 1
v 0.59 0.535 -0.45 1 1 1
v 0.59 0.445 -0.22 1 1 1
v 0.4899999 0.445 -0.22 1 1 1
v 0.59 0.535 -0.22 1 1 1
v 0.4899999 0.535 -0.22 1 1 1
v 0.44 0.445 -0.4 1 1 1
v 0.44 0.535 -0.4 1 1 1
v 0.64 0.445 -0.4 1 1 1
v 0.64 0.535 -0.4 1 1 1
v 0.64 0.445 -0.27 1 1 1
v 0.64 0.535 -0.27 1 1 1
v 0.44 0.445 -0.27 1 1 1
v 0.44 0.535 -0.27 1 1 1

vn -0.3826834 0 -0.9238795
vn 0.3826834 0 -0.9238795
vn 0.3826834 0 0.9238795
vn -0.3826834 0 0.9238795
vn -0.9238795 0 -0.3826834
vn 0.9238795 0 -0.3826834
vn 0.9238795 0 0.3826834
vn -0.9238795 0 0.3826834

vt 0.71875 0.3583333

usemtl colormap

f 103/9/21 102/15/22 101/15/21
f 102/15/22 103/9/21 104/9/22
f 107/9/23 106/15/24 105/15/23
f 106/15/24 107/9/23 108/9/24
f 110/9/25 101/15/21 109/15/25
f 101/15/21 110/9/25 103/9/21
f 104/9/22 111/15/26 102/15/22
f 111/15/26 104/9/22 112/9/26
f 114/9/27 105/15/23 113/15/27
f 105/15/23 114/9/27 107/9/23
f 108/9/24 115/15/28 106/15/24
f 115/15/28 108/9/24 116/9/28
f 114/9/27 111/15/26 112/9/26
f 111/15/26 114/9/27 113/15/27
f 115/15/28 110/9/25 109/15/25
f 110/9/25 115/15/28 116/9/28
f 104/9/1 114/9/1 112/9/1
f 114/9/1 104/9/1 107/9/1
f 107/9/1 104/9/1 103/9/1
f 107/9/1 103/9/1 108/9/1
f 108/9/1 103/9/1 110/9/1
f 108/9/1 110/9/1 116/9/1

g 

v -0.4899999 0.445 0.45 1 1 1
v -0.59 0.445 0.45 1 1 1
v -0.4899999 0.535 0.45 1 1 1
v -0.59 0.535 0.45 1 1 1
v -0.59 0.445 0.22 1 1 1
v -0.4899999 0.445 0.22 1 1 1
v -0.59 0.535 0.22 1 1 1
v -0.4899999 0.535 0.22 1 1 1
v -0.44 0.445 0.4 1 1 1
v -0.44 0.535 0.4 1 1 1
v -0.64 0.445 0.4 1 1 1
v -0.64 0.535 0.4 1 1 1
v -0.64 0.445 0.27 1 1 1
v -0.64 0.535 0.27 1 1 1
v -0.44 0.445 0.27 1 1 1
v -0.44 0.535 0.27 1 1 1



usemtl colormap

f 119/9/23 118/15/24 117/15/23
f 118/15/24 119/9/23 120/9/24
f 123/9/21 122/15/22 121/15/21
f 122/15/22 123/9/21 124/9/22
f 126/9/27 117/15/23 125/15/27
f 117/15/23 126/9/27 119/9/23
f 120/9/24 127/15/28 118/15/24
f 127/15/28 120/9/24 128/9/28
f 130/9/25 121/15/21 129/15/25
f 121/15/21 130/9/25 123/9/21
f 124/9/22 131/15/26 122/15/22
f 131/15/26 124/9/22 132/9/26
f 130/9/25 127/15/28 128/9/28
f 127/15/28 130/9/25 129/15/25
f 131/15/26 126/9/27 125/15/27
f 126/9/27 131/15/26 132/9/26
f 120/9/1 130/9/1 128/9/1
f 130/9/1 120/9/1 123/9/1
f 123/9/1 120/9/1 119/9/1
f 123/9/1 119/9/1 124/9/1
f 124/9/1 119/9/1 126/9/1
f 124/9/1 126/9/1 132/9/1

g 

v -0.58 0.63 0.21 1 1 1
v -0.58 0.63 -0.21 1 1 1
v -0.5 0.63 0.21 1 1 1
v -0.5 0.63 -0.21 1 1 1
v -0.5 0.4 0.26 1 1 1
v -0.58 0.4 0.26 1 1 1
v -0.5 0.58 0.26 1 1 1
v -0.58 0.58 0.26 1 1 1
v -0.58 0.4 -0.26 1 1 1
v -0.5 0.4 -0.26 1 1 1
v -0.58 0.58 -0.26 1 1 1
v -0.5 0.58 -0.26 1 1 1
v -0.58 0.35 -0.21 1 1 1
v -0.58 0.35 0.21 1 1 1
v -0.5 0.35 -0.21 1 1 1
v -0.5 0.35 0.21 1 1 1
v -0.5 0.43 0.18 1 1 1
v -0.5 0.55 0.18 1 1 1
v -0.5 0.43 -0.18 1 1 1
v -0.5 0.55 -0.18 1 1 1
v -0.58 0.55 0.18 1 1 1
v -0.58 0.43 0.18 1 1 1
v -0.58 0.55 -0.18 1 1 1
v -0.58 0.43 -0.18 1 1 1



usemtl colormap

f 135/9/10 134/9/9 133/9/10
f 134/9/9 135/9/10 136/9/9
f 139/11/14 138/10/13 137/10/13
f 138/10/13 139/11/14 140/11/14
f 143/11/12 142/10/11 141/10/11
f 142/10/11 143/11/12 144/11/12
f 147/12/16 146/12/15 145/12/16
f 146/12/15 147/12/16 148/12/15
f 148/12/15 138/10/13 146/12/15
f 138/10/13 148/12/15 137/10/13
f 136/9/9 143/11/12 134/9/9
f 143/11/12 136/9/9 144/11/12
f 139/11/14 133/9/10 140/11/14
f 133/9/10 139/11/14 135/9/10
f 142/10/11 145/12/16 141/10/11
f 145/12/16 142/10/11 147/12/16
f 148/12/2 139/11/2 137/10/2
f 139/11/2 148/12/2 135/9/2
f 135/9/2 148/12/2 149/13/2
f 149/13/2 148/12/2 147/12/2
f 150/14/2 135/9/2 149/13/2
f 149/13/2 147/12/2 151/13/2
f 135/9/2 150/14/2 136/9/2
f 151/13/2 147/12/2 152/14/2
f 136/9/2 150/14/2 152/14/2
f 136/9/2 152/14/2 147/12/2
f 136/9/2 147/12/2 142/10/2
f 136/9/2 142/10/2 144/11/2
f 133/9/5 138/10/5 140/11/5
f 138/10/5 133/9/5 146/12/5
f 146/12/5 133/9/5 153/14/5
f 153/14/5 133/9/5 134/9/5
f 154/13/5 146/12/5 153/14/5
f 153/14/5 134/9/5 155/14/5
f 146/12/5 154/13/5 145/12/5
f 155/14/5 134/9/5 156/13/5
f 145/12/5 154/13/5 156/13/5
f 145/12/5 156/13/5 134/9/5
f 145/12/5 134/9/5 143/11/5
f 145/12/5 143/11/5 141/10/5
f 149/13/18 156/13/17 154/13/18
f 156/13/17 149/13/18 151/13/17
f 152/14/20 156/13/17 151/13/17
f 156/13/17 152/14/20 155/14/20
f 152/14/20 153/14/19 155/14/20
f 153/14/19 152/14/20 150/14/19
f 153/14/19 149/13/18 154/13/18
f 149/13/18 153/14/19 150/14/19

g Group

v 0.4899999 0.3 0.25 1 1 1
v 0.59 0.3 0.25 1 1 1
v 0.4899999 0.35 0.25 1 1 1
v 0.59 0.35 0.25 1 1 1
v 0.44 0.3 0.3 1 1 1
v 0.44 0.35 0.3 1 1 1
v 0.44 0.3 0.4 1 1 1
v 0.44 0.35 0.4 1 1 1
v 0.59 0.3 0.45 1 1 1
v 0.4899999 0.3 0.45 1 1 1
v 0.59 0.35 0.45 1 1 1
v 0.4899999 0.35 0.45 1 1 1
v 0.64 0.35 0.3 1 1 1
v 0.64 0.3 0.3 1 1 1
v 0.64 0.35 0.4 1 1 1
v 0.64 0.3 0.4 1 1 1



usemtl colormap

f 159/3/21 158/4/22 157/4/21
f 158/4/22 159/3/21 160/3/22
f 163/4/28 162/3/25 161/4/25
f 162/3/25 163/4/28 164/3/28
f 167/3/23 166/4/24 165/4/23
f 166/4/24 167/3/23 168/3/24
f 171/3/27 170/4/26 169/3/26
f 170/4/26 171/3/27 172/4/27
f 162/3/25 157/4/21 161/4/25
f 157/4/21 162/3/25 159/3/21
f 160/3/22 170/4/26 158/4/22
f 170/4/26 160/3/22 169/3/26
f 171/3/27 165/4/23 172/4/27
f 165/4/23 171/3/27 167/3/23
f 168/3/24 163/4/28 166/4/24
f 163/4/28 168/3/24 164/3/28
f 160/3/1 171/3/1 169/3/1
f 171/3/1 160/3/1 167/3/1
f 167/3/1 160/3/1 159/3/1
f 167/3/1 159/3/1 168/3/1
f 168/3/1 159/3/1 162/3/1
f 168/3/1 162/3/1 164/3/1

g Group

v 0.4899999 0.3 -0.45 1 1 1
v 0.59 0.3 -0.45 1 1 1
v 0.4899999 0.35 -0.45 1 1 1
v 0.59 0.35 -0.45 1 1 1
v 0.44 0.3 -0.4 1 1 1
v 0.44 0.35 -0.4 1 1 1
v 0.44 0.3 -0.3 1 1 1
v 0.44 0.35 -0.3 1 1 1
v 0.59 0.3 -0.25 1 1 1
v 0.4899999 0.3 -0.25 1 1 1
v 0.59 0.35 -0.25 1 1 1
v 0.4899999 0.35 -0.25 1 1 1
v 0.64 0.35 -0.4 1 1 1
v 0.64 0.3 -0.4 1 1 1
v 0.64 0.35 -0.3 1 1 1
v 0.64 0.3 -0.3 1 1 1



usemtl colormap

f 175/3/21 174/4/22 173/4/21
f 174/4/22 175/3/21 176/3/22
f 179/4/28 178/3/25 177/4/25
f 178/3/25 179/4/28 180/3/28
f 183/3/23 182/4/24 181/4/23
f 182/4/24 183/3/23 184/3/24
f 187/3/27 186/4/26 185/3/26
f 186/4/26 187/3/27 188/4/27
f 178/3/25 173/4/21 177/4/25
f 173/4/21 178/3/25 175/3/21
f 176/3/22 186/4/26 174/4/22
f 186/4/26 176/3/22 185/3/26
f 187/3/27 181/4/23 188/4/27
f 181/4/23 187/3/27 183/3/23
f 184/3/24 179/4/28 182/4/24
f 179/4/28 184/3/24 180/3/28
f 176/3/1 187/3/1 185/3/1
f 187/3/1 176/3/1 183/3/1
f 183/3/1 176/3/1 175/3/1
f 183/3/1 175/3/1 184/3/1
f 184/3/1 175/3/1 178/3/1
f 184/3/1 178/3/1 180/3/1

g Group

v -0.4899999 0.3 0.45 1 1 1
v -0.59 0.3 0.45 1 1 1
v -0.4899999 0.35 0.45 1 1 1
v -0.59 0.35 0.45 1 1 1
v -0.44 0.3 0.4 1 1 1
v -0.44 0.35 0.4 1 1 1
v -0.44 0.3 0.3 1 1 1
v -0.44 0.35 0.3 1 1 1
v -0.59 0.3 0.25 1 1 1
v -0.4899999 0.3 0.25 1 1 1
v -0.59 0.35 0.25 1 1 1
v -0.4899999 0.35 0.25 1 1 1
v -0.64 0.35 0.4 1 1 1
v -0.64 0.3 0.4 1 1 1
v -0.64 0.35 0.3 1 1 1
v -0.64 0.3 0.3 1 1 1



usemtl colormap

f 191/3/23 190/4/24 189/4/23
f 190/4/24 191/3/23 192/3/24
f 195/4/26 194/3/27 193/4/27
f 194/3/27 195/4/26 196/3/26
f 199/3/21 198/4/22 197/4/21
f 198/4/22 199/3/21 200/3/22
f 203/3/25 202/4/28 201/3/28
f 202/4/28 203/3/25 204/4/25
f 194/3/27 189/4/23 193/4/27
f 189/4/23 194/3/27 191/3/23
f 192/3/24 202/4/28 190/4/24
f 202/4/28 192/3/24 201/3/28
f 203/3/25 197/4/21 204/4/25
f 197/4/21 203/3/25 199/3/21
f 200/3/22 195/4/26 198/4/22
f 195/4/26 200/3/22 196/3/26
f 192/3/1 203/3/1 201/3/1
f 203/3/1 192/3/1 199/3/1
f 199/3/1 192/3/1 191/3/1
f 199/3/1 191/3/1 200/3/1
f 200/3/1 191/3/1 194/3/1
f 200/3/1 194/3/1 196/3/1

g Group

v -0.4899999 0.3 -0.25 1 1 1
v -0.59 0.3 -0.25 1 1 1
v -0.4899999 0.35 -0.25 1 1 1
v -0.59 0.35 -0.25 1 1 1
v -0.44 0.3 -0.3 1 1 1
v -0.44 0.35 -0.3 1 1 1
v -0.44 0.3 -0.4 1 1 1
v -0.44 0.35 -0.4 1 1 1
v -0.59 0.3 -0.45 1 1 1
v -0.4899999 0.3 -0.45 1 1 1
v -0.59 0.35 -0.45 1 1 1
v -0.4899999 0.35 -0.45 1 1 1
v -0.64 0.35 -0.3 1 1 1
v -0.64 0.3 -0.3 1 1 1
v -0.64 0.35 -0.4 1 1 1
v -0.64 0.3 -0.4 1 1 1



usemtl colormap

f 207/3/23 206/4/24 205/4/23
f 206/4/24 207/3/23 208/3/24
f 211/4/26 210/3/27 209/4/27
f 210/3/27 211/4/26 212/3/26
f 215/3/21 214/4/22 213/4/21
f 214/4/22 215/3/21 216/3/22
f 219/3/25 218/4/28 217/3/28
f 218/4/28 219/3/25 220/4/25
f 210/3/27 205/4/23 209/4/27
f 205/4/23 210/3/27 207/3/23
f 208/3/24 218/4/28 206/4/24
f 218/4/28 208/3/24 217/3/28
f 219/3/25 213/4/21 220/4/25
f 213/4/21 219/3/25 215/3/21
f 216/3/22 211/4/26 214/4/22
f 211/4/26 216/3/22 212/3/26
f 208/3/1 219/3/1 217/3/1
f 219/3/1 208/3/1 215/3/1
f 215/3/1 208/3/1 207/3/1
f 215/3/1 207/3/1 216/3/1
f 216/3/1 207/3/1 210/3/1
f 216/3/1 210/3/1 212/3/1

