# Created by Kenney (www.kenney.nl)

mtllib support-small-horizontal.mtl

g support-small-horizontal

v 3.609557E-16 2.257609E-13 0.5 1 1 1
v -0.07627238 0.03159306 0.5 1 1 1
v 0.07627238 0.03159306 0.5 1 1 1
v 0.1078654 0.1078654 0.5 1 1 1
v -0.1078654 0.1078654 0.5 1 1 1
v 0.07627238 0.1841378 0.5 1 1 1
v -0.07627238 0.1841378 0.5 1 1 1
v 3.609557E-16 0.2157309 0.5 1 1 1
v 0.07627238 0.03159306 -0.5 1 1 1
v 3.609557E-16 0 -0.5 1 1 1
v 0.1078654 0.1078654 -0.5 1 1 1
v 0.07627238 0.1841378 -0.5 1 1 1
v 3.609557E-16 0.2157309 -0.5 1 1 1
v -0.07627238 0.1841378 -0.5 1 1 1
v -0.1078654 0.1078654 -0.5 1 1 1
v -0.07627238 0.03159306 -0.5 1 1 1

vn 0 0 1
vn 0.7071068 -0.7071068 0
vn 0 -1 0
vn 1 0 0
vn 0.7071068 0.7071068 0
vn 0 1 0
vn -0.7071068 0.7071068 0
vn -1 0 0
vn -0.7071068 -0.7071068 0
vn 0 0 -1

vt 0.53125 0.375

usemtl colormap

f 3/1/1 2/1/1 1/1/1
f 2/1/1 3/1/1 4/1/1
f 2/1/1 4/1/1 5/1/1
f 5/1/1 4/1/1 6/1/1
f 5/1/1 6/1/1 7/1/1
f 7/1/1 6/1/1 8/1/1
f 1/1/3 9/1/2 3/1/2
f 9/1/2 1/1/3 10/1/3
f 4/1/4 9/1/2 11/1/4
f 9/1/2 4/1/4 3/1/2
f 13/1/6 6/1/5 12/1/5
f 6/1/5 13/1/6 8/1/6
f 6/1/5 11/1/4 12/1/5
f 11/1/4 6/1/5 4/1/4
f 15/1/8 7/1/7 14/1/7
f 7/1/7 15/1/8 5/1/8
f 14/1/7 8/1/6 13/1/6
f 8/1/6 14/1/7 7/1/7
f 2/1/9 10/1/3 1/1/3
f 10/1/3 2/1/9 16/1/9
f 16/1/9 5/1/8 15/1/8
f 5/1/8 16/1/9 2/1/9
f 16/1/10 9/1/10 10/1/10
f 9/1/10 16/1/10 15/1/10
f 9/1/10 15/1/10 11/1/10
f 11/1/10 15/1/10 14/1/10
f 11/1/10 14/1/10 12/1/10
f 12/1/10 14/1/10 13/1/10

g support-small-horizontal




usemtl colormap

f 3/1/1 2/1/1 1/1/1
f 2/1/1 3/1/1 4/1/1
f 2/1/1 4/1/1 5/1/1
f 5/1/1 4/1/1 6/1/1
f 5/1/1 6/1/1 7/1/1
f 7/1/1 6/1/1 8/1/1
f 1/1/3 9/1/2 3/1/2
f 9/1/2 1/1/3 10/1/3
f 4/1/4 9/1/2 11/1/4
f 9/1/2 4/1/4 3/1/2
f 13/1/6 6/1/5 12/1/5
f 6/1/5 13/1/6 8/1/6
f 6/1/5 11/1/4 12/1/5
f 11/1/4 6/1/5 4/1/4
f 15/1/8 7/1/7 14/1/7
f 7/1/7 15/1/8 5/1/8
f 14/1/7 8/1/6 13/1/6
f 8/1/6 14/1/7 7/1/7
f 2/1/9 10/1/3 1/1/3
f 10/1/3 2/1/9 16/1/9
f 16/1/9 5/1/8 15/1/8
f 5/1/8 16/1/9 2/1/9
f 16/1/10 9/1/10 10/1/10
f 9/1/10 16/1/10 15/1/10
f 9/1/10 15/1/10 11/1/10
f 11/1/10 15/1/10 14/1/10
f 11/1/10 14/1/10 12/1/10
f 12/1/10 14/1/10 13/1/10

