# Created by Kenney (www.kenney.nl)

mtllib support-small-skew.mtl

g support-small-skew

v 0.3938206 1 0 1 1 1
v 0.3516965 1 0.1016965 1 1 1
v 0.3516965 1 -0.1016965 1 1 1
v 0.25 1 -0.1438206 1 1 1
v 0.25 1 0.1438206 1 1 1
v 0.1483035 1 -0.1016965 1 1 1
v 0.1483035 1 0.1016965 1 1 1
v 0.1061794 1 0 1 1 1
v 0.1016965 6.76792E-17 0.1016965 1 1 1
v 7.219114E-16 6.76792E-17 0.1438206 1 1 1
v -0.1016965 6.76792E-17 -0.1016965 1 1 1
v 7.219114E-16 6.76792E-17 -0.1438206 1 1 1
v 0.1438206 6.76792E-17 0 1 1 1
v 0.1016965 6.76792E-17 -0.1016965 1 1 1
v -0.1438206 6.76792E-17 0 1 1 1
v -0.1016965 6.76792E-17 0.1016965 1 1 1
v 0.1072062 0.4335926 0.1797757 1 1 1
v -0.01558292 0.4664938 0.1271206 1 1 1
v 0.1427938 0.5664074 0.1797757 1 1 1
v 0.0200047 0.5993087 0.1271206 1 1 1
v 0.2299953 0.4006914 0.1271206 1 1 1
v 0.2655829 0.5335062 0.1271206 1 1 1
v 0.2655829 0.5335062 -0.1271206 1 1 1
v 0.2299953 0.4006914 -0.1271206 1 1 1
v 0.3164438 0.519878 -3.609557E-16 1 1 1
v 0.2808562 0.3870632 -3.609557E-16 1 1 1
v -0.01558292 0.4664938 -0.1271206 1 1 1
v 0.0200047 0.5993087 -0.1271206 1 1 1
v -0.06644382 0.480122 -3.609557E-16 1 1 1
v -0.0308562 0.6129368 -3.609557E-16 1 1 1
v 0.1427938 0.5664074 -0.1797757 1 1 1
v 0.1072062 0.4335926 -0.1797757 1 1 1

vn 0 1 0
vn 0.6653975 -0.1663494 0.7277184
vn -0.05948131 0.01487033 0.9981186
vn 0.7223997 -0.1805999 0.6674746
vn 0.05948131 -0.01487033 0.9981186
vn -0.7223997 0.1805999 -0.6674746
vn -0.05948131 0.01487033 -0.9981186
vn -0.6653975 0.1663494 -0.7277184
vn 0.05948131 -0.01487033 -0.9981186
vn 0.9701425 -0.2425356 0
vn 0.7223997 -0.1805999 -0.6674746
vn 0.6653975 -0.1663494 -0.7277184
vn -0.9701425 0.2425356 0
vn -0.7223997 0.1805999 0.6674746
vn -0.6653975 0.1663494 0.7277184
vn 0 0 1
vn -0.6830127 0.1830127 0.7071068
vn 0.6830127 -0.1830127 0.7071068
vn 0.6830127 -0.1830127 -0.7071068
vn 0.9659258 -0.258819 0
vn -0.6830127 0.1830127 -0.7071068
vn -0.9659258 0.258819 0
vn 0.258819 0.9659258 0
vn 0 0 -1

vt 0.53125 0.375
vt 0.59375 0.325
vt 0.59375 0.425

usemtl colormap

f 3/1/1 2/1/1 1/1/1
f 2/1/1 3/1/1 4/1/1
f 2/1/1 4/1/1 5/1/1
f 5/1/1 4/1/1 6/1/1
f 5/1/1 6/1/1 7/1/1
f 7/1/1 6/1/1 8/1/1
f 2/1/4 10/1/3 9/1/2
f 10/1/3 2/1/4 5/1/5
f 6/1/8 12/1/7 11/1/6
f 12/1/7 6/1/8 4/1/9
f 2/1/4 13/1/10 1/1/10
f 13/1/10 2/1/4 9/1/2
f 1/1/10 14/1/12 3/1/11
f 14/1/12 1/1/10 13/1/10
f 4/1/9 14/1/12 12/1/7
f 14/1/12 4/1/9 3/1/11
f 16/1/14 8/1/13 15/1/13
f 8/1/13 16/1/14 7/1/15
f 5/1/5 16/1/14 10/1/3
f 16/1/14 5/1/5 7/1/15
f 15/1/13 6/1/8 11/1/6
f 6/1/8 15/1/13 8/1/13
f 19/3/16 18/2/17 17/2/16
f 18/2/17 19/3/16 20/3/17
f 22/3/18 17/2/16 21/2/18
f 17/2/16 22/3/18 19/3/16
f 25/3/20 24/2/19 23/3/19
f 24/2/19 25/3/20 26/2/20
f 29/2/22 28/3/21 27/2/21
f 28/3/21 29/2/22 30/3/22
f 23/3/23 22/3/23 25/3/23
f 22/3/23 23/3/23 31/3/23
f 22/3/23 31/3/23 19/3/23
f 19/3/23 31/3/23 28/3/23
f 19/3/23 28/3/23 20/3/23
f 20/3/23 28/3/23 30/3/23
f 28/3/21 32/2/24 27/2/21
f 32/2/24 28/3/21 31/3/24
f 31/3/24 24/2/19 32/2/24
f 24/2/19 31/3/24 23/3/19
f 18/2/17 30/3/22 29/2/22
f 30/3/22 18/2/17 20/3/17
f 22/3/18 26/2/20 25/3/20
f 26/2/20 22/3/18 21/2/18

g support-small-skew




usemtl colormap

f 3/1/1 2/1/1 1/1/1
f 2/1/1 3/1/1 4/1/1
f 2/1/1 4/1/1 5/1/1
f 5/1/1 4/1/1 6/1/1
f 5/1/1 6/1/1 7/1/1
f 7/1/1 6/1/1 8/1/1
f 2/1/4 10/1/3 9/1/2
f 10/1/3 2/1/4 5/1/5
f 6/1/8 12/1/7 11/1/6
f 12/1/7 6/1/8 4/1/9
f 2/1/4 13/1/10 1/1/10
f 13/1/10 2/1/4 9/1/2
f 1/1/10 14/1/12 3/1/11
f 14/1/12 1/1/10 13/1/10
f 4/1/9 14/1/12 12/1/7
f 14/1/12 4/1/9 3/1/11
f 16/1/14 8/1/13 15/1/13
f 8/1/13 16/1/14 7/1/15
f 5/1/5 16/1/14 10/1/3
f 16/1/14 5/1/5 7/1/15
f 15/1/13 6/1/8 11/1/6
f 6/1/8 15/1/13 8/1/13
f 19/3/16 18/2/17 17/2/16
f 18/2/17 19/3/16 20/3/17
f 22/3/18 17/2/16 21/2/18
f 17/2/16 22/3/18 19/3/16
f 25/3/20 24/2/19 23/3/19
f 24/2/19 25/3/20 26/2/20
f 29/2/22 28/3/21 27/2/21
f 28/3/21 29/2/22 30/3/22
f 23/3/23 22/3/23 25/3/23
f 22/3/23 23/3/23 31/3/23
f 22/3/23 31/3/23 19/3/23
f 19/3/23 31/3/23 28/3/23
f 19/3/23 28/3/23 20/3/23
f 20/3/23 28/3/23 30/3/23
f 28/3/21 32/2/24 27/2/21
f 32/2/24 28/3/21 31/3/24
f 31/3/24 24/2/19 32/2/24
f 24/2/19 31/3/24 23/3/19
f 18/2/17 30/3/22 29/2/22
f 30/3/22 18/2/17 20/3/17
f 22/3/18 26/2/20 25/3/20
f 26/2/20 22/3/18 21/2/18

