# Created by Kenney (www.kenney.nl)

mtllib support-large-skew-bottom.mtl

g support-large-skew-bottom

v -0.35 8.014827E-32 -0.3 1 1 1
v -0.35 0.1 -0.3 1 1 1
v -0.35 8.014827E-32 0.3 1 1 1
v -0.35 0.1 0.3 1 1 1
v 0.3 8.014827E-32 0.35 1 1 1
v -0.3 8.014827E-32 0.35 1 1 1
v 0.3 0.1 0.35 1 1 1
v -0.3 0.1 0.35 1 1 1
v -0.3 8.014827E-32 -0.35 1 1 1
v 0.3 8.014827E-32 -0.35 1 1 1
v -0.3 0.1 -0.35 1 1 1
v 0.3 0.1 -0.35 1 1 1
v 0.35 0.1 -0.3 1 1 1
v 0.35 8.014827E-32 -0.3 1 1 1
v 0.35 0.1 0.3 1 1 1
v 0.35 8.014827E-32 0.3 1 1 1
v 0.3 0.125 -0.3 1 1 1
v 0.3 0.125 -0.25 1 1 1
v 0.25 0.125 -0.3 1 1 1
v 0.25 0.125 -0.25 1 1 1
v 0.25 0.1 -0.3 1 1 1
v 0.3 0.1 -0.3 1 1 1
v 0.25 0.1 -0.25 1 1 1
v 0.3 0.1 -0.25 1 1 1
v -0.25 0.125 -0.3 1 1 1
v -0.25 0.125 -0.25 1 1 1
v -0.3 0.125 -0.3 1 1 1
v -0.3 0.125 -0.25 1 1 1
v -0.3 0.1 -0.3 1 1 1
v -0.25 0.1 -0.3 1 1 1
v -0.3 0.1 -0.25 1 1 1
v -0.25 0.1 -0.25 1 1 1
v 0.3 0.125 0.25 1 1 1
v 0.3 0.125 0.3 1 1 1
v 0.25 0.125 0.25 1 1 1
v 0.25 0.125 0.3 1 1 1
v 0.25 0.1 0.25 1 1 1
v 0.3 0.1 0.25 1 1 1
v 0.25 0.1 0.3 1 1 1
v 0.3 0.1 0.3 1 1 1
v -0.25 0.125 0.25 1 1 1
v -0.25 0.125 0.3 1 1 1
v -0.3 0.125 0.25 1 1 1
v -0.3 0.125 0.3 1 1 1
v -0.3 0.1 0.25 1 1 1
v -0.25 0.1 0.25 1 1 1
v -0.3 0.1 0.3 1 1 1
v -0.25 0.1 0.3 1 1 1
v 0.4417608 1 0 1 1 1
v 0.3855954 1 0.1355953 1 1 1
v 0.3855954 1 -0.1355953 1 1 1
v 0.25 1 -0.1917608 1 1 1
v 0.25 1 0.1917608 1 1 1
v 0.1144047 1 -0.1355953 1 1 1
v 0.1144047 1 0.1355953 1 1 1
v 0.05823922 1 0 1 1 1
v -0.1917608 0.2 0 1 1 1
v -0.1355953 0.2 0.1355953 1 1 1
v 0.1917608 0.2 0 1 1 1
v 0.1355953 0.2 0.1355953 1 1 1
v 0 0.2 0.1917608 1 1 1
v 0 0.2 -0.1917608 1 1 1
v 0.1355953 0.2 -0.1355953 1 1 1
v -0.1355953 0.2 -0.1355953 1 1 1
v 0.212132 0.1 0.212132 1 1 1
v 0 0.1 0.3 1 1 1
v 0.212132 0.2 0.212132 1 1 1
v 0 0.2 0.3 1 1 1
v -0.212132 0.1 0.212132 1 1 1
v -0.212132 0.2 0.212132 1 1 1
v -0.3 0.1 0 1 1 1
v -0.3 0.2 0 1 1 1
v -0.212132 0.1 -0.212132 1 1 1
v -0.212132 0.2 -0.212132 1 1 1
v 0 0.1 -0.3 1 1 1
v 0 0.2 -0.3 1 1 1
v 0.212132 0.1 -0.212132 1 1 1
v 0.212132 0.2 -0.212132 1 1 1
v 0.3 0.2 0 1 1 1
v 0.3 0.1 0 1 1 1

vn -0.9238795 0 -0.3826834
vn -0.9238795 0 0.3826834
vn 0.3826834 0 0.9238795
vn -0.3826834 0 0.9238795
vn -0.3826834 0 -0.9238795
vn 0.3826834 0 -0.9238795
vn 0.9238795 0 -0.3826834
vn 0.9238795 0 0.3826834
vn 0 -1 0
vn 0 1 0
vn -0.7071068 0 -0.7071068
vn 0.7071068 0 -0.7071068
vn -0.7071068 0 0.7071068
vn 0.7071068 0 0.7071068
vn -0.95448 0.298275 0
vn -0.7211854 0.2253705 0.655057
vn -0.6524528 0.2038915 0.7298861
vn 0.95448 -0.298275 0
vn 0.7211854 -0.2253705 0.655057
vn 0.6524528 -0.2038915 0.7298861
vn -0.07340153 0.02293798 0.9970387
vn 0.07340153 -0.02293798 0.9970387
vn -0.07340153 0.02293798 -0.9970387
vn 0.6524528 -0.2038915 -0.7298861
vn 0.07340153 -0.02293798 -0.9970387
vn 0.7211854 -0.2253705 -0.655057
vn -0.7211854 0.2253705 -0.655057
vn -0.6524528 0.2038915 -0.7298861
vn 0 0 1
vn -1 0 0
vn 0 0 -1
vn 1 0 0

vt 0.46875 0.025
vt 0.46875 0.225
vt 0.65625 0.375
vt 0.71875 0.325
vt 0.71875 0.425

usemtl colormap

f 3/1/2 2/2/1 1/1/1
f 2/2/1 3/1/2 4/2/2
f 7/2/3 6/1/4 5/1/3
f 6/1/4 7/2/3 8/2/4
f 11/2/5 10/1/6 9/1/5
f 10/1/6 11/2/5 12/2/6
f 15/2/8 14/1/7 13/2/7
f 14/1/7 15/2/8 16/1/8
f 1/1/1 11/2/5 9/1/5
f 11/2/5 1/1/1 2/2/1
f 7/2/3 16/1/8 15/2/8
f 16/1/8 7/2/3 5/1/3
f 6/1/4 4/2/2 3/1/2
f 4/2/2 6/1/4 8/2/4
f 13/2/7 10/1/6 12/2/6
f 10/1/6 13/2/7 14/1/7
f 5/1/9 14/1/9 16/1/9
f 14/1/9 5/1/9 10/1/9
f 10/1/9 5/1/9 6/1/9
f 10/1/9 6/1/9 9/1/9
f 9/1/9 6/1/9 3/1/9
f 9/1/9 3/1/9 1/1/9
f 12/2/10 15/2/10 13/2/10
f 15/2/10 12/2/10 7/2/10
f 7/2/10 12/2/10 11/2/10
f 7/2/10 11/2/10 8/2/10
f 8/2/10 11/2/10 2/2/10
f 8/2/10 2/2/10 4/2/10
f 19/2/10 18/2/10 17/2/10
f 18/2/10 19/2/10 20/2/10
f 19/2/11 22/1/12 21/1/11
f 22/1/12 19/2/11 17/2/12
f 23/1/13 19/2/11 21/1/11
f 19/2/11 23/1/13 20/2/13
f 18/2/14 23/1/13 24/1/14
f 23/1/13 18/2/14 20/2/13
f 18/2/14 22/1/12 17/2/12
f 22/1/12 18/2/14 24/1/14
f 27/2/10 26/2/10 25/2/10
f 26/2/10 27/2/10 28/2/10
f 27/2/11 30/1/12 29/1/11
f 30/1/12 27/2/11 25/2/12
f 31/1/13 27/2/11 29/1/11
f 27/2/11 31/1/13 28/2/13
f 26/2/14 31/1/13 32/1/14
f 31/1/13 26/2/14 28/2/13
f 26/2/14 30/1/12 25/2/12
f 30/1/12 26/2/14 32/1/14
f 35/2/10 34/2/10 33/2/10
f 34/2/10 35/2/10 36/2/10
f 35/2/11 38/1/12 37/1/11
f 38/1/12 35/2/11 33/2/12
f 39/1/13 35/2/11 37/1/11
f 35/2/11 39/1/13 36/2/13
f 34/2/14 39/1/13 40/1/14
f 39/1/13 34/2/14 36/2/13
f 34/2/14 38/1/12 33/2/12
f 38/1/12 34/2/14 40/1/14
f 43/2/10 42/2/10 41/2/10
f 42/2/10 43/2/10 44/2/10
f 43/2/11 46/1/12 45/1/11
f 46/1/12 43/2/11 41/2/12
f 47/1/13 43/2/11 45/1/11
f 43/2/11 47/1/13 44/2/13
f 42/2/14 47/1/13 48/1/14
f 47/1/13 42/2/14 44/2/13
f 42/2/14 46/1/12 41/2/12
f 46/1/12 42/2/14 48/1/14
f 51/3/10 50/3/10 49/3/10
f 50/3/10 51/3/10 52/3/10
f 50/3/10 52/3/10 53/3/10
f 53/3/10 52/3/10 54/3/10
f 53/3/10 54/3/10 55/3/10
f 55/3/10 54/3/10 56/3/10
f 58/3/16 56/3/15 57/3/15
f 56/3/15 58/3/16 55/3/17
f 50/3/19 59/3/18 49/3/18
f 59/3/18 50/3/19 60/3/20
f 50/3/19 61/3/21 60/3/20
f 61/3/21 50/3/19 53/3/22
f 52/3/25 63/3/24 62/3/23
f 63/3/24 52/3/25 51/3/26
f 54/3/28 62/3/23 64/3/27
f 62/3/23 54/3/28 52/3/25
f 57/3/15 54/3/28 64/3/27
f 54/3/28 57/3/15 56/3/15
f 53/3/22 58/3/16 61/3/21
f 58/3/16 53/3/22 55/3/17
f 49/3/18 63/3/24 51/3/26
f 63/3/24 49/3/18 59/3/18
f 67/5/14 66/4/29 65/4/14
f 66/4/29 67/5/14 68/5/29
f 68/5/29 69/4/13 66/4/29
f 69/4/13 68/5/29 70/5/13
f 69/4/13 72/5/30 71/4/30
f 72/5/30 69/4/13 70/5/13
f 71/4/30 74/5/11 73/4/11
f 74/5/11 71/4/30 72/5/30
f 74/5/11 75/4/31 73/4/11
f 75/4/31 74/5/11 76/5/31
f 76/5/31 77/4/12 75/4/31
f 77/4/12 76/5/31 78/5/12
f 79/5/32 77/4/12 78/5/12
f 77/4/12 79/5/32 80/4/32
f 67/5/14 80/4/32 79/5/32
f 80/4/32 67/5/14 65/4/14
f 78/5/10 67/5/10 79/5/10
f 67/5/10 78/5/10 76/5/10
f 67/5/10 76/5/10 68/5/10
f 68/5/10 76/5/10 74/5/10
f 68/5/10 74/5/10 70/5/10
f 70/5/10 74/5/10 72/5/10

g support-large-skew-bottom




usemtl colormap

f 3/1/2 2/2/1 1/1/1
f 2/2/1 3/1/2 4/2/2
f 7/2/3 6/1/4 5/1/3
f 6/1/4 7/2/3 8/2/4
f 11/2/5 10/1/6 9/1/5
f 10/1/6 11/2/5 12/2/6
f 15/2/8 14/1/7 13/2/7
f 14/1/7 15/2/8 16/1/8
f 1/1/1 11/2/5 9/1/5
f 11/2/5 1/1/1 2/2/1
f 7/2/3 16/1/8 15/2/8
f 16/1/8 7/2/3 5/1/3
f 6/1/4 4/2/2 3/1/2
f 4/2/2 6/1/4 8/2/4
f 13/2/7 10/1/6 12/2/6
f 10/1/6 13/2/7 14/1/7
f 5/1/9 14/1/9 16/1/9
f 14/1/9 5/1/9 10/1/9
f 10/1/9 5/1/9 6/1/9
f 10/1/9 6/1/9 9/1/9
f 9/1/9 6/1/9 3/1/9
f 9/1/9 3/1/9 1/1/9
f 12/2/10 15/2/10 13/2/10
f 15/2/10 12/2/10 7/2/10
f 7/2/10 12/2/10 11/2/10
f 7/2/10 11/2/10 8/2/10
f 8/2/10 11/2/10 2/2/10
f 8/2/10 2/2/10 4/2/10
f 19/2/10 18/2/10 17/2/10
f 18/2/10 19/2/10 20/2/10
f 19/2/11 22/1/12 21/1/11
f 22/1/12 19/2/11 17/2/12
f 23/1/13 19/2/11 21/1/11
f 19/2/11 23/1/13 20/2/13
f 18/2/14 23/1/13 24/1/14
f 23/1/13 18/2/14 20/2/13
f 18/2/14 22/1/12 17/2/12
f 22/1/12 18/2/14 24/1/14
f 27/2/10 26/2/10 25/2/10
f 26/2/10 27/2/10 28/2/10
f 27/2/11 30/1/12 29/1/11
f 30/1/12 27/2/11 25/2/12
f 31/1/13 27/2/11 29/1/11
f 27/2/11 31/1/13 28/2/13
f 26/2/14 31/1/13 32/1/14
f 31/1/13 26/2/14 28/2/13
f 26/2/14 30/1/12 25/2/12
f 30/1/12 26/2/14 32/1/14
f 35/2/10 34/2/10 33/2/10
f 34/2/10 35/2/10 36/2/10
f 35/2/11 38/1/12 37/1/11
f 38/1/12 35/2/11 33/2/12
f 39/1/13 35/2/11 37/1/11
f 35/2/11 39/1/13 36/2/13
f 34/2/14 39/1/13 40/1/14
f 39/1/13 34/2/14 36/2/13
f 34/2/14 38/1/12 33/2/12
f 38/1/12 34/2/14 40/1/14
f 43/2/10 42/2/10 41/2/10
f 42/2/10 43/2/10 44/2/10
f 43/2/11 46/1/12 45/1/11
f 46/1/12 43/2/11 41/2/12
f 47/1/13 43/2/11 45/1/11
f 43/2/11 47/1/13 44/2/13
f 42/2/14 47/1/13 48/1/14
f 47/1/13 42/2/14 44/2/13
f 42/2/14 46/1/12 41/2/12
f 46/1/12 42/2/14 48/1/14
f 51/3/10 50/3/10 49/3/10
f 50/3/10 51/3/10 52/3/10
f 50/3/10 52/3/10 53/3/10
f 53/3/10 52/3/10 54/3/10
f 53/3/10 54/3/10 55/3/10
f 55/3/10 54/3/10 56/3/10
f 58/3/16 56/3/15 57/3/15
f 56/3/15 58/3/16 55/3/17
f 50/3/19 59/3/18 49/3/18
f 59/3/18 50/3/19 60/3/20
f 50/3/19 61/3/21 60/3/20
f 61/3/21 50/3/19 53/3/22
f 52/3/25 63/3/24 62/3/23
f 63/3/24 52/3/25 51/3/26
f 54/3/28 62/3/23 64/3/27
f 62/3/23 54/3/28 52/3/25
f 57/3/15 54/3/28 64/3/27
f 54/3/28 57/3/15 56/3/15
f 53/3/22 58/3/16 61/3/21
f 58/3/16 53/3/22 55/3/17
f 49/3/18 63/3/24 51/3/26
f 63/3/24 49/3/18 59/3/18
f 67/5/14 66/4/29 65/4/14
f 66/4/29 67/5/14 68/5/29
f 68/5/29 69/4/13 66/4/29
f 69/4/13 68/5/29 70/5/13
f 69/4/13 72/5/30 71/4/30
f 72/5/30 69/4/13 70/5/13
f 71/4/30 74/5/11 73/4/11
f 74/5/11 71/4/30 72/5/30
f 74/5/11 75/4/31 73/4/11
f 75/4/31 74/5/11 76/5/31
f 76/5/31 77/4/12 75/4/31
f 77/4/12 76/5/31 78/5/12
f 79/5/32 77/4/12 78/5/12
f 77/4/12 79/5/32 80/4/32
f 67/5/14 80/4/32 79/5/32
f 80/4/32 67/5/14 65/4/14
f 78/5/10 67/5/10 79/5/10
f 67/5/10 78/5/10 76/5/10
f 67/5/10 76/5/10 68/5/10
f 68/5/10 76/5/10 74/5/10
f 68/5/10 74/5/10 70/5/10
f 70/5/10 74/5/10 72/5/10

