# Created by Kenney (www.kenney.nl)

mtllib trash.mtl

g trash

v 0.16587 0 0 1 1 1
v 0.1172878 0 -0.1172878 1 1 1
v 0.1172878 0 0.1172878 1 1 1
v 3.609557E-16 0 0.16587 1 1 1
v 3.609557E-16 0 -0.16587 1 1 1
v -0.1172878 0 0.1172878 1 1 1
v -0.1172878 0 -0.1172878 1 1 1
v -0.16587 0 0 1 1 1
v 0.14744 0.436791 0 1 1 1
v 0.1042558 0.436791 0.1042558 1 1 1
v 0.1042558 0.436791 -0.1042558 1 1 1
v 3.609557E-16 0.436791 -0.14744 1 1 1
v 3.609557E-16 0.436791 0.14744 1 1 1
v -0.1042558 0.436791 -0.1042558 1 1 1
v -0.1042558 0.436791 0.1042558 1 1 1
v -0.14744 0.436791 0 1 1 1
v -0.1843 0.291194 0 1 1 1
v -0.1303198 0.291194 0.1303198 1 1 1
v 0 0.291194 0.1843 1 1 1
v -0.1303198 0.291194 -0.1303198 1 1 1
v 0.1303198 0.291194 -0.1303198 1 1 1
v 0.1843 0.291194 0 1 1 1
v 0.1303198 0.291194 0.1303198 1 1 1
v 0.211945 0.291194 0 1 1 1
v 0.1498677 0.291194 0.1498677 1 1 1
v 0.1498677 0.291194 -0.1498677 1 1 1
v -5.685052E-16 0.291194 -0.211945 1 1 1
v -5.685052E-16 0.291194 0.211945 1 1 1
v -0.1498677 0.291194 -0.1498677 1 1 1
v -0.1498677 0.291194 0.1498677 1 1 1
v -0.211945 0.291194 0 1 1 1
v 0.211945 0.216194 0 1 1 1
v 0.1498677 0.216194 -0.1498677 1 1 1
v 0.1498677 0.216194 0.1498677 1 1 1
v -5.685052E-16 0.216194 0.211945 1 1 1
v -5.685052E-16 0.216194 -0.211945 1 1 1
v -0.1498677 0.216194 0.1498677 1 1 1
v -0.1498677 0.216194 -0.1498677 1 1 1
v -0.211945 0.216194 0 1 1 1
v 0 0.291194 -0.1843 1 1 1

vn 0 -1 0
vn 0.6931893 0.7207556 0
vn 0.4901589 0.7207556 0.4901589
vn 0.4901589 0.7207556 -0.4901589
vn 0 0.7207556 -0.6931893
vn 0 0.7207556 0.6931893
vn -0.4901589 0.7207556 -0.4901589
vn -0.4901589 0.7207556 0.4901589
vn -0.6931893 0.7207556 0
vn -0.9694164 0.2454219 0
vn -0.6854809 0.2454219 0.6854809
vn 0 0.2454219 0.9694164
vn -0.8996003 0.2277469 -0.3726267
vn 0.8996003 0.2277469 -0.3726267
vn 0.9694164 0.2454219 0
vn 0.6854809 0.2454219 0.6854809
vn 0 1 0
vn 0 0 -1
vn 0.7071068 0 -0.7071068
vn 1 0 0
vn 0.7071068 0 0.7071068
vn 0 0 1
vn -0.7071068 0 0.7071068
vn -1 0 0
vn -0.7071068 0 -0.7071068
vn 0 0.2454219 -0.9694164
vn 0.3726267 0.2277469 -0.8996003
vn -0.3726267 0.2277469 -0.8996003
vn 0 -0.06316475 -0.9980031
vn 0.7056948 -0.06316476 -0.7056948
vn 0.9980031 -0.06316475 0
vn -0.9980031 -0.06316475 0
vn -0.7056948 -0.06316476 0.7056948
vn 0 -0.06316475 0.9980031
vn -0.7056948 -0.06316476 -0.7056948
vn 0.7056948 -0.06316476 0.7056948

vt 0.59375 0.025
vt 0.46875 0.225
vt 0.46875 0.1583333
vt 0.46875 0.175
vt 0.46875 0.075
vt 0.34375 0.1583333
vt 0.34375 0.225
vt 0.21875 0.275
vt 0.21875 0.4083333

usemtl colormap

f 3/1/1 2/1/1 1/1/1
f 2/1/1 3/1/1 4/1/1
f 2/1/1 4/1/1 5/1/1
f 5/1/1 4/1/1 6/1/1
f 5/1/1 6/1/1 7/1/1
f 7/1/1 6/1/1 8/1/1
f 11/2/4 10/2/3 9/2/2
f 10/2/3 11/2/4 12/2/5
f 10/2/3 12/2/5 13/2/6
f 13/2/6 12/2/5 14/2/7
f 13/2/6 14/2/7 15/2/8
f 15/2/8 14/2/7 16/2/9
f 18/3/11 16/2/9 17/3/10
f 16/2/9 18/3/11 15/2/8
f 13/2/6 18/3/11 19/3/12
f 18/3/11 13/2/6 15/2/8
f 17/3/10 14/2/7 20/3/13
f 14/2/7 17/3/10 16/2/9
f 11/2/4 22/3/15 21/3/14
f 22/3/15 11/2/4 9/2/2
f 10/2/3 19/3/12 23/3/16
f 19/3/12 10/2/3 13/2/6
f 10/2/3 22/3/15 9/2/2
f 22/3/15 10/2/3 23/3/16
f 26/4/17 25/4/17 24/4/17
f 25/4/17 26/4/17 27/4/17
f 25/4/17 27/4/17 28/4/17
f 28/4/17 27/4/17 29/4/17
f 28/4/17 29/4/17 30/4/17
f 30/4/17 29/4/17 31/4/17
f 34/5/1 33/5/1 32/5/1
f 33/5/1 34/5/1 35/5/1
f 33/5/1 35/5/1 36/5/1
f 36/5/1 35/5/1 37/5/1
f 36/5/1 37/5/1 38/5/1
f 38/5/1 37/5/1 39/5/1
f 27/4/18 33/5/19 36/5/18
f 33/5/19 27/4/18 26/4/19
f 24/4/20 33/5/19 26/4/19
f 33/5/19 24/4/20 32/5/20
f 25/4/21 32/5/20 24/4/20
f 32/5/20 25/4/21 34/5/21
f 25/4/21 35/5/22 34/5/21
f 35/5/22 25/4/21 28/4/22
f 28/4/22 37/5/23 35/5/22
f 37/5/23 28/4/22 30/4/23
f 37/5/23 31/4/24 39/5/24
f 31/4/24 37/5/23 30/4/23
f 39/5/24 29/4/25 38/5/25
f 29/4/25 39/5/24 31/4/24
f 29/4/25 36/5/18 38/5/25
f 36/5/18 29/4/25 27/4/18
f 12/7/5 21/6/27 40/6/26
f 21/6/27 12/7/5 11/7/4
f 14/7/7 40/6/26 20/6/28
f 40/6/26 14/7/7 12/7/5
f 40/9/29 2/8/30 5/8/29
f 2/8/30 40/9/29 21/9/30
f 22/9/31 2/8/30 21/9/30
f 2/8/30 22/9/31 1/8/31
f 6/8/33 17/9/32 8/8/32
f 17/9/32 6/8/33 18/9/33
f 19/9/34 6/8/33 4/8/34
f 6/8/33 19/9/34 18/9/33
f 7/8/35 17/9/32 20/9/35
f 17/9/32 7/8/35 8/8/32
f 23/9/36 1/8/31 22/9/31
f 1/8/31 23/9/36 3/8/36
f 20/9/35 5/8/29 7/8/35
f 5/8/29 20/9/35 40/9/29
f 23/9/36 4/8/34 3/8/36
f 4/8/34 23/9/36 19/9/34

g trash




usemtl colormap

f 3/1/1 2/1/1 1/1/1
f 2/1/1 3/1/1 4/1/1
f 2/1/1 4/1/1 5/1/1
f 5/1/1 4/1/1 6/1/1
f 5/1/1 6/1/1 7/1/1
f 7/1/1 6/1/1 8/1/1
f 11/2/4 10/2/3 9/2/2
f 10/2/3 11/2/4 12/2/5
f 10/2/3 12/2/5 13/2/6
f 13/2/6 12/2/5 14/2/7
f 13/2/6 14/2/7 15/2/8
f 15/2/8 14/2/7 16/2/9
f 18/3/11 16/2/9 17/3/10
f 16/2/9 18/3/11 15/2/8
f 13/2/6 18/3/11 19/3/12
f 18/3/11 13/2/6 15/2/8
f 17/3/10 14/2/7 20/3/13
f 14/2/7 17/3/10 16/2/9
f 11/2/4 22/3/15 21/3/14
f 22/3/15 11/2/4 9/2/2
f 10/2/3 19/3/12 23/3/16
f 19/3/12 10/2/3 13/2/6
f 10/2/3 22/3/15 9/2/2
f 22/3/15 10/2/3 23/3/16
f 26/4/17 25/4/17 24/4/17
f 25/4/17 26/4/17 27/4/17
f 25/4/17 27/4/17 28/4/17
f 28/4/17 27/4/17 29/4/17
f 28/4/17 29/4/17 30/4/17
f 30/4/17 29/4/17 31/4/17
f 34/5/1 33/5/1 32/5/1
f 33/5/1 34/5/1 35/5/1
f 33/5/1 35/5/1 36/5/1
f 36/5/1 35/5/1 37/5/1
f 36/5/1 37/5/1 38/5/1
f 38/5/1 37/5/1 39/5/1
f 27/4/18 33/5/19 36/5/18
f 33/5/19 27/4/18 26/4/19
f 24/4/20 33/5/19 26/4/19
f 33/5/19 24/4/20 32/5/20
f 25/4/21 32/5/20 24/4/20
f 32/5/20 25/4/21 34/5/21
f 25/4/21 35/5/22 34/5/21
f 35/5/22 25/4/21 28/4/22
f 28/4/22 37/5/23 35/5/22
f 37/5/23 28/4/22 30/4/23
f 37/5/23 31/4/24 39/5/24
f 31/4/24 37/5/23 30/4/23
f 39/5/24 29/4/25 38/5/25
f 29/4/25 39/5/24 31/4/24
f 29/4/25 36/5/18 38/5/25
f 36/5/18 29/4/25 27/4/18
f 12/7/5 21/6/27 40/6/26
f 21/6/27 12/7/5 11/7/4
f 14/7/7 40/6/26 20/6/28
f 40/6/26 14/7/7 12/7/5
f 40/9/29 2/8/30 5/8/29
f 2/8/30 40/9/29 21/9/30
f 22/9/31 2/8/30 21/9/30
f 2/8/30 22/9/31 1/8/31
f 6/8/33 17/9/32 8/8/32
f 17/9/32 6/8/33 18/9/33
f 19/9/34 6/8/33 4/8/34
f 6/8/33 19/9/34 18/9/33
f 7/8/35 17/9/32 20/9/35
f 17/9/32 7/8/35 8/8/32
f 23/9/36 1/8/31 22/9/31
f 1/8/31 23/9/36 3/8/36
f 20/9/35 5/8/29 7/8/35
f 5/8/29 20/9/35 40/9/29
f 23/9/36 4/8/34 3/8/36
f 4/8/34 23/9/36 19/9/34

